<svg width="151" height="50" viewBox="0 0 151 50" fill="none" xmlns="http://www.w3.org/2000/svg">
<path d="M63.9483 35.8V40H44.8283V36.2L54.5083 25.76C55.6549 24.5067 56.4949 23.36 57.0283 22.32C57.5616 21.28 57.8283 20.2533 57.8283 19.24C57.8283 17.9333 57.4416 16.9467 56.6683 16.28C55.9216 15.6133 54.8416 15.28 53.4283 15.28C50.9216 15.28 48.3483 16.2667 45.7083 18.24L43.9883 14.48C45.1083 13.4667 46.5483 12.6667 48.3083 12.08C50.0683 11.4667 51.8416 11.16 53.6283 11.16C56.4816 11.16 58.7349 11.8667 60.3883 13.28C62.0683 14.6667 62.9083 16.5467 62.9083 18.92C62.9083 20.5467 62.5483 22.08 61.8283 23.52C61.1349 24.96 59.9616 26.5733 58.3083 28.36L51.3083 35.8H63.9483Z" fill="#21427C"/>
</svg>
