<svg width="151" height="50" viewBox="0 0 151 50" fill="none" xmlns="http://www.w3.org/2000/svg">
<path d="M58.4078 25.36C60.0878 25.8133 61.3678 26.64 62.2478 27.84C63.1545 29.04 63.6078 30.52 63.6078 32.28C63.6078 34.76 62.6878 36.72 60.8478 38.16C59.0345 39.6 56.5811 40.32 53.4878 40.32C51.5678 40.32 49.7145 40.0267 47.9278 39.44C46.1678 38.8533 44.7145 38.04 43.5678 37L45.3278 33.24C47.8611 35.2133 50.5145 36.2 53.2878 36.2C55.1011 36.2 56.4478 35.84 57.3278 35.12C58.2345 34.4 58.6878 33.3067 58.6878 31.84C58.6878 30.4 58.2345 29.3467 57.3278 28.68C56.4211 27.9867 55.0211 27.64 53.1278 27.64H49.3678V23.52H52.4478C56.1278 23.52 57.9678 22.12 57.9678 19.32C57.9678 18.0133 57.5678 17.0133 56.7678 16.32C55.9678 15.6267 54.8478 15.28 53.4078 15.28C50.8478 15.28 48.2878 16.2667 45.7278 18.24L44.0078 14.48C45.1545 13.4667 46.5945 12.6667 48.3278 12.08C50.0878 11.4667 51.8878 11.16 53.7278 11.16C56.5278 11.16 58.7545 11.8533 60.4078 13.24C62.0878 14.6 62.9278 16.4267 62.9278 18.72C62.9011 20.2933 62.4878 21.6667 61.6878 22.84C60.9145 23.9867 59.8211 24.8267 58.4078 25.36Z" fill="#21427C"/>
</svg>
