<svg width="36" height="32" viewBox="0 0 36 32" fill="none" xmlns="http://www.w3.org/2000/svg">
<path opacity="0.7" d="M33.6447 22.5189C35.9515 18.0905 36.9707 11.4967 34.8117 6.69383C32.8122 2.2642 28.502 0.125093 24.5311 0.00585612C21.0962 -0.0966873 18.3692 1.14933 15.6889 3.59607C14.3069 4.85878 12.9104 6.20973 11.2464 6.94542C9.94711 7.52014 8.61086 7.91601 7.27071 8.3548C2.42461 9.94422 -0.562019 15.3349 0.0886013 21.131C0.590425 25.5857 3.41075 29.7291 7.0091 31.3841C9.79928 32.6671 12.7315 31.7192 15.4273 30.5984C16.8803 29.9938 18.3449 29.369 19.8786 29.0876C21.3617 28.8146 22.7961 29.1556 24.2647 28.9589C27.8834 28.4748 31.614 26.4215 33.6447 22.5189Z" fill="#CEDDF9"/>
</svg>
