<svg width="384" height="375" viewBox="0 0 384 375" fill="none" xmlns="http://www.w3.org/2000/svg">
<path d="M67.0311 335.49C67.0311 335.49 -1.62808 243.697 40.9191 173.145C83.4663 102.592 167.969 151.012 184.059 85.17C200.149 19.3275 258.878 8.53496 314.573 90.87C370.268 173.205 356.943 287.707 327.452 335.49H67.0311Z" fill="#5B8FEB"/>
<path opacity="0.7" d="M66.7316 335.49C66.7316 335.49 -1.93532 243.697 40.6196 173.145C83.1744 102.592 167.67 151.012 183.752 85.17C199.834 19.3275 258.57 8.53496 314.266 90.87C369.961 173.205 356.629 287.707 327.168 335.49H66.7316Z" fill="white"/>
<path d="M24.584 335.85H359.401" stroke="#263238" stroke-linecap="round" stroke-linejoin="round"/>
<path d="M290.228 79.4249C298.048 78.129 306.088 79.4587 313.036 83.1971C319.984 86.9354 325.43 92.862 328.486 100.01C331.543 107.159 332.029 115.108 329.867 122.561C327.704 130.014 323.02 136.532 316.578 141.052" stroke="#263238" stroke-linecap="round" stroke-linejoin="round"/>
<path d="M275.589 85.3948C278.847 83.1014 282.483 81.3712 286.341 80.2798" stroke="#263238" stroke-linecap="round" stroke-linejoin="round"/>
<path d="M279.114 143.175C274.382 140.615 270.32 137.02 267.246 132.673C264.172 128.325 262.17 123.342 261.395 118.114C260.62 112.885 261.094 107.552 262.78 102.532C264.465 97.5117 267.317 92.9402 271.112 89.1748" stroke="#263238" stroke-linecap="round" stroke-linejoin="round"/>
<path d="M277.433 153.99L275.336 155.797L278.6 144.9" stroke="#263238" stroke-linecap="round" stroke-linejoin="round"/>
<path d="M302 147C296.837 147.869 291.54 147.59 286.502 146.183L279.89 151.883" stroke="#263238" stroke-linecap="round" stroke-linejoin="round"/>
<path d="M310.05 144.667C308.741 145.217 307.4 145.687 306.033 146.077" stroke="#263238" stroke-linecap="round" stroke-linejoin="round"/>
<path d="M299.266 96.54C303.616 97.2662 307.53 99.5562 310.238 102.959C312.946 106.362 314.251 110.632 313.897 114.928C313.543 119.224 311.555 123.235 308.324 126.171C305.094 129.107 300.855 130.756 296.442 130.793C292.029 130.83 287.762 129.252 284.48 126.371C281.198 123.489 279.14 119.513 278.71 115.223C278.28 110.934 279.51 106.643 282.157 103.195C284.805 99.7471 288.678 97.3916 293.015 96.5925" stroke="#263238" stroke-linecap="round" stroke-linejoin="round"/>
<path d="M293.022 132.375C287.907 131.524 283.348 128.724 280.346 124.59C277.345 120.457 276.147 115.328 277.017 110.333" stroke="#263238" stroke-linecap="round" stroke-linejoin="round"/>
<path d="M314.711 120C313.506 123.253 311.421 126.126 308.677 128.313C305.933 130.5 302.633 131.919 299.128 132.42" stroke="#263238" stroke-linecap="round" stroke-linejoin="round"/>
<path d="M278.522 105.57C280.506 101.361 283.987 97.9993 288.319 96.11C292.651 94.2206 297.538 93.9324 302.071 95.2989C306.604 96.6654 310.474 99.5935 312.962 103.538C315.449 107.483 316.385 112.177 315.594 116.745" stroke="#263238" stroke-linecap="round" stroke-linejoin="round"/>
<path d="M308.045 106.657L308.275 106.417" stroke="#263238" stroke-width="2" stroke-linecap="round" stroke-linejoin="round"/>
<path d="M304.911 109.957L306.478 108.315" stroke="#263238" stroke-width="2" stroke-linecap="round" stroke-linejoin="round"/>
<path d="M285.788 112.372L293.322 122.152L303.544 111.397" stroke="#263238" stroke-width="2" stroke-linecap="round" stroke-linejoin="round"/>
<path d="M320.716 272.738H230.107V335.85H320.716V272.738Z" fill="#999999"/>
<path opacity="0.3" d="M230.107 335.858H277.063V299.813L320.724 297.968V295.673H230.107V335.858Z" fill="black" fill-opacity="0.7"/>
<path d="M320.716 272.738H230.107V335.85H320.716V272.738Z" stroke="#263238" stroke-linecap="round" stroke-linejoin="round"/>
<path d="M322.874 271.837H227.957V295.47H322.874V271.837Z" fill="#999999"/>
<path opacity="0.3" d="M278.276 271.837H227.957V295.47H278.276V271.837Z" fill="black" fill-opacity="0.7"/>
<path d="M322.874 271.837H227.957V295.47H322.874V271.837Z" stroke="#263238" stroke-linecap="round" stroke-linejoin="round"/>
<path d="M278.276 289.328V292.62" stroke="#263238" stroke-linecap="round" stroke-linejoin="round"/>
<path d="M278.276 282.788V286.44" stroke="#263238" stroke-linecap="round" stroke-linejoin="round"/>
<path d="M278.276 271.837V280.177" stroke="#263238" stroke-linecap="round" stroke-linejoin="round"/>
<path d="M277.063 331.785V333.15" stroke="#263238" stroke-linecap="round" stroke-linejoin="round"/>
<path d="M277.063 311.61V328.823" stroke="#263238" stroke-linecap="round" stroke-linejoin="round"/>
<path d="M277.063 295.665V305.528" stroke="#263238" stroke-linecap="round" stroke-linejoin="round"/>
<path d="M306.178 290.445H301.624V302.22H306.178V290.445Z" fill="#BFBFBF" stroke="#263238" stroke-linecap="round" stroke-linejoin="round"/>
<path d="M239.615 192.75C234.777 194.715 213.311 197.002 213.311 197.002C216.703 189.744 220.841 182.841 225.661 176.4L219.34 172.275C219.34 172.275 202.644 189.817 198.535 202.177C198.535 202.177 197.306 207.765 198.12 208.56C198.935 209.355 205.8 211.83 218.772 212.767C231.743 213.705 241.044 213.937 241.044 213.937" fill="white"/>
<path d="M239.615 192.75C234.777 194.715 213.311 197.002 213.311 197.002C216.703 189.744 220.841 182.841 225.661 176.4L219.34 172.275C219.34 172.275 202.644 189.817 198.535 202.177C198.535 202.177 197.306 207.765 198.12 208.56C198.935 209.355 205.8 211.83 218.772 212.767C231.743 213.705 241.044 213.937 241.044 213.937" stroke="#263238" stroke-linecap="round" stroke-linejoin="round"/>
<path d="M214.886 175.92C214.886 175.92 219.824 180.585 223.771 180.345L226.843 175.628C226.843 175.628 236.697 170.835 235.568 168.435C234.439 166.035 233.433 167.685 233.433 167.685L237.795 164.813C237.795 164.813 232.335 161.64 231.175 161.648C230.015 161.655 227.051 161.108 225.077 161.903C223.103 162.698 219.501 171.188 219.501 171.188L214.886 175.92Z" fill="#5B8FEB" stroke="#263238" stroke-linecap="round" stroke-linejoin="round"/>
<path d="M225.792 174.105C225.792 174.105 227.912 173.295 228.603 171.855C229.294 170.415 228.603 167.7 228.603 167.7" fill="#5B8FEB"/>
<path d="M225.792 174.105C225.792 174.105 227.912 173.295 228.603 171.855C229.294 170.415 228.603 167.7 228.603 167.7" stroke="#263238" stroke-linecap="round" stroke-linejoin="round"/>
<path d="M227.72 166.027C228.137 166.611 228.766 167.018 229.479 167.165C230.192 167.313 230.936 167.19 231.56 166.822" fill="#5B8FEB"/>
<path d="M227.72 166.027C228.137 166.611 228.766 167.018 229.479 167.165C230.192 167.313 230.936 167.19 231.56 166.822" stroke="#263238" stroke-linecap="round" stroke-linejoin="round"/>
<path d="M229.316 164.798C230.733 165.679 232.097 166.638 233.402 167.67L229.316 164.798Z" fill="#5B8FEB"/>
<path d="M229.316 164.798C230.733 165.679 232.097 166.638 233.402 167.67" stroke="#263238" stroke-linecap="round" stroke-linejoin="round"/>
<path d="M235.291 166.425L232.081 163.83L235.291 166.425Z" fill="#5B8FEB"/>
<path d="M235.291 166.425L232.081 163.83" stroke="#263238" stroke-linecap="round" stroke-linejoin="round"/>
<path d="M213.296 197.002C213.154 200.01 212.271 202.94 210.724 205.545" stroke="#263238" stroke-linecap="round" stroke-linejoin="round"/>
<path d="M250.882 190.073C250.882 190.073 234.754 191.468 231.728 193.245C228.702 195.023 221.798 195.69 221.798 195.69C221.798 195.69 224.87 204.143 221.798 212.978L224.632 215.393C224.632 215.393 229.9 214.905 231.114 215.393C232.327 215.88 244.861 219.435 244.861 219.435" fill="#5B8FEB"/>
<path opacity="0.2" d="M239.738 217.973C236.129 216.93 231.805 215.67 231.114 215.393C229.9 214.905 224.632 215.393 224.632 215.393L223.042 214.035C225.346 210.72 226.721 206.535 227.65 206.535C228.149 206.535 229.232 207.893 230.246 209.43C229.478 204.668 231.206 198.383 232.066 203.73C232.703 207.66 236.543 213.623 239.738 217.973Z" fill="black"/>
<path d="M250.882 190.073C250.882 190.073 234.754 191.468 231.728 193.245C228.702 195.023 221.798 195.69 221.798 195.69C221.798 195.69 224.87 204.143 221.798 212.978L224.632 215.393C224.632 215.393 229.9 214.905 231.114 215.393C232.327 215.88 244.861 219.435 244.861 219.435" stroke="#263238" stroke-linecap="round" stroke-linejoin="round"/>
<path d="M238.433 312.338C238.433 312.338 244.423 329.348 244.162 334.688C244.162 334.688 234.408 337.065 229.432 336.473C224.455 335.88 214.532 336.66 209.264 336.563C203.995 336.465 203.389 335.28 203.389 335.28C203.389 335.28 202.982 333.105 206.461 331.133C209.94 329.16 223.879 328.133 225.092 318.263C226.306 308.393 238.433 312.338 238.433 312.338Z" fill="#BFBFBF" stroke="#263238" stroke-linecap="round" stroke-linejoin="round"/>
<path d="M309.434 248.25C309.434 248.25 314.726 262.238 311.784 271.095C308.843 279.953 287.792 286.5 283.115 286.5C278.438 286.5 241.036 277.365 241.036 277.365L239.162 279.368L233.402 277.08L242.472 317.91C242.472 317.91 246.858 320.198 242.472 321.623C238.087 323.048 221.422 323.055 221.13 321.623C220.971 320.39 220.971 319.143 221.13 317.91L218.657 313.343C218.657 313.343 219.11 305.348 218.657 304.208C218.204 303.068 199.495 265.073 207.359 255.938C215.224 246.803 261.887 254.22 261.887 254.22L267.839 248.22L309.434 248.25Z" fill="#263238"/>
<path opacity="0.2" d="M234.555 277.5L239.163 279.33L241.037 277.327C241.037 277.327 278.438 286.5 283.115 286.5C287.792 286.5 308.851 279.937 311.785 271.08C312.01 270.395 312.187 269.696 312.315 268.987C309.097 272.092 302.861 277.417 296.31 279.247C296.31 279.247 298.222 277.29 293.138 276.247C288.054 275.205 272.455 251.055 272.455 251.055L265.62 250.53L261.888 254.25C261.888 254.25 254.692 253.102 245.476 252.27C242.329 260.875 238.682 269.299 234.555 277.5Z" fill="black"/>
<path opacity="0.2" d="M218.657 304.192C219.11 305.332 218.657 313.327 218.657 313.327L221.13 317.895C220.971 319.127 220.971 320.375 221.13 321.607C221.422 323.032 238.088 323.032 242.473 321.607C246.858 320.182 242.473 317.895 242.473 317.895L233.817 278.947C229.209 287.79 223.603 296.527 217.574 301.852C218.196 303.202 218.596 304.035 218.657 304.192Z" fill="black"/>
<path d="M233.402 277.065C233.402 277.065 236.052 272.392 234.577 269.025" stroke="white" stroke-linecap="round" stroke-linejoin="round"/>
<path d="M232.205 270C232.38 271.375 232.445 272.762 232.397 274.147" stroke="white" stroke-linecap="round" stroke-linejoin="round"/>
<path d="M230.999 264.615C231.33 265.611 231.602 266.626 231.813 267.653" stroke="white" stroke-linecap="round" stroke-linejoin="round"/>
<path d="M226.475 283.583C226.475 283.583 226.23 297.188 218.657 304.193" stroke="white" stroke-linecap="round" stroke-linejoin="round"/>
<path d="M229.179 309.652C227.128 312.652 224.617 316.327 221.13 317.902" stroke="white" stroke-linecap="round" stroke-linejoin="round"/>
<path d="M231.705 305.565C231.314 306.27 230.899 306.96 230.477 307.65" stroke="white" stroke-linecap="round" stroke-linejoin="round"/>
<path opacity="0.2" d="M311.685 256.207C311.121 253.508 310.369 250.85 309.435 248.25H307.615L299.021 253.125C299.021 253.125 297.462 256.777 311.685 256.207Z" fill="black"/>
<path d="M307.853 258.682C307.853 258.682 303.398 256.725 299.021 257.557" stroke="white" stroke-linecap="round" stroke-linejoin="round"/>
<path d="M309.434 248.25C309.434 248.25 314.726 262.238 311.784 271.095C308.843 279.953 287.792 286.5 283.115 286.5C278.438 286.5 241.036 277.365 241.036 277.365L239.162 279.368L233.402 277.08L242.472 317.91C242.472 317.91 246.858 320.198 242.472 321.623C238.087 323.048 221.422 323.055 221.13 321.623C220.971 320.39 220.971 319.143 221.13 317.91L218.657 313.343C218.657 313.343 219.11 305.348 218.657 304.208C218.204 303.068 199.495 265.073 207.359 255.938C215.224 246.803 261.887 254.22 261.887 254.22L267.839 248.22L309.434 248.25Z" stroke="#263238" stroke-miterlimit="10"/>
<path d="M275.09 321.255C275.09 321.255 275.904 326.175 275.09 327.068C274.276 327.96 272.64 338.445 272.64 338.445C272.64 338.445 251.443 341.663 245.13 341.22C236.682 340.628 234.708 338.22 234.708 338.22C234.708 338.22 234.562 335.055 242.511 332.573C252.318 329.513 259.876 319.283 259.876 319.283L275.09 321.255Z" fill="#BFBFBF" stroke="#263238" stroke-linecap="round" stroke-linejoin="round"/>
<path d="M236.205 212.535C243.355 224.633 261.733 243.503 261.733 243.503C261.733 243.503 260.582 245.213 263.131 248.355C262.341 249.137 261.848 250.158 261.733 251.25C261.58 252.96 276.694 261.525 291.025 259.245C305.356 256.965 311.492 252.96 311.761 250.103C312.03 247.245 297.261 209.078 287.323 197.37C279.411 191.874 269.953 188.901 260.244 188.858C248.77 188.798 239.822 192.495 235.76 197.993" fill="#5B8FEB"/>
<path opacity="0.2" d="M293.513 258.75C292.745 258.9 291.885 259.05 291.025 259.185C276.694 261.435 261.58 252.9 261.734 251.19C261.857 250.111 262.349 249.105 263.131 248.333C263.039 248.213 262.947 248.1 262.87 247.988C269.867 246.668 276.272 243 273.33 243.128C269.298 243.308 266.825 242.723 271.226 240.165C275.627 237.608 274.521 222.39 274.521 222.39C274.521 222.39 283.445 215.64 292.768 233.333C301.57 250.035 297.714 254.198 293.513 258.75Z" fill="black"/>
<path d="M236.205 212.535C243.355 224.633 261.733 243.503 261.733 243.503C261.733 243.503 260.582 245.213 263.131 248.355C262.341 249.137 261.848 250.158 261.733 251.25C261.58 252.96 276.694 261.525 291.025 259.245C305.356 256.965 311.492 252.96 311.761 250.103C312.03 247.245 297.261 209.078 287.323 197.37C279.411 191.874 269.953 188.901 260.244 188.858C248.77 188.798 239.822 192.495 235.76 197.993" stroke="#263238" stroke-linecap="round" stroke-linejoin="round"/>
<path d="M271.226 191.085C271.226 191.085 265.705 182.798 259.776 183.885C253.847 184.973 237.12 167.018 235.537 164.798C233.955 162.578 231.828 167.67 231.828 167.67C231.828 167.67 229.24 169.658 228.633 171.825C228.026 173.993 229.701 184.523 228.633 186.75C227.968 188.388 227.659 190.142 227.727 191.903L232.128 188.813C232.128 188.813 235.361 196.395 237.696 198.765C240.03 201.135 245.859 195.12 250.314 191.903C254.768 188.685 261.143 187.185 264.637 192.75" fill="#BFBFBF"/>
<path d="M271.226 191.085C271.226 191.085 265.705 182.798 259.776 183.885C253.847 184.973 237.12 167.018 235.537 164.798C233.955 162.578 231.828 167.67 231.828 167.67C231.828 167.67 229.24 169.658 228.633 171.825C228.026 173.993 229.701 184.523 228.633 186.75C227.968 188.388 227.659 190.142 227.727 191.903L232.128 188.813C232.128 188.813 235.361 196.395 237.696 198.765C240.03 201.135 245.859 195.12 250.314 191.903C254.768 188.685 261.143 187.185 264.637 192.75" stroke="#263238" stroke-linecap="round" stroke-linejoin="round"/>
<path d="M232.128 188.812L234.432 188.235C234.432 188.235 231.698 177.772 232.128 176.4C232.558 175.027 234.386 167.797 234.432 166.027" stroke="#263238" stroke-linecap="round" stroke-linejoin="round"/>
<path d="M238.939 193.582C240.322 195.082 244.515 191.902 245.851 191.085" stroke="#263238" stroke-linecap="round" stroke-linejoin="round"/>
<path d="M236.344 187.388C236.641 188.613 237.021 189.818 237.48 190.995" stroke="#263238" stroke-linecap="round" stroke-linejoin="round"/>
<path d="M241.452 189.532C243.026 189.832 244.378 191.385 245.292 192.75C245.764 193.467 246.178 194.219 246.528 195C246.528 195 244.224 202.417 251.835 201C259.446 199.582 261.926 192 261.926 192C257.388 188.715 257.825 184.327 257.825 184.327C252.972 182.67 243.717 186.577 241.513 188.55C240.929 189 240.845 189.42 241.452 189.532Z" fill="white" stroke="#263238" stroke-linecap="round" stroke-linejoin="round"/>
<path d="M241.451 189.533C243.025 189.833 244.377 191.385 245.291 192.75C248.532 190.328 248.701 187.388 248.701 187.388L241.528 188.505C240.929 189 240.844 189.42 241.451 189.533Z" fill="#263238"/>
<path d="M264.637 243C264.637 243 278.507 242.025 282.024 234.248" stroke="#263238" stroke-linecap="round" stroke-linejoin="round"/>
<path d="M297.499 251.115C286.901 252.188 275.665 251.903 265.589 248.228" stroke="#263238" stroke-linecap="round" stroke-linejoin="round"/>
<path d="M305.318 249.99C303.636 250.328 301.938 250.583 300.233 250.8" stroke="#263238" stroke-linecap="round" stroke-linejoin="round"/>
<path d="M256.373 184.988C256.373 184.988 259.829 180.803 260.782 177.863C264.86 165.263 265.574 157.178 250.951 154.08C240.622 151.898 235.315 165.42 235.553 170.31C235.691 173.07 234.301 175.763 233.602 177.953C232.834 180.398 234.309 189.953 237.511 190.77C241.605 191.768 248.363 190.388 249.423 188.175" fill="white"/>
<path d="M256.373 184.988C256.373 184.988 259.829 180.803 260.782 177.863C264.86 165.263 265.574 157.178 250.951 154.08C240.622 151.898 235.315 165.42 235.553 170.31C235.691 173.07 234.301 175.763 233.602 177.953C232.834 180.398 234.309 189.953 237.511 190.77C241.605 191.768 248.363 190.388 249.423 188.175" stroke="#263238" stroke-linecap="round" stroke-linejoin="round"/>
<path d="M244.123 173.88C243.939 174.54 244.162 175.178 244.63 175.305C245.099 175.433 245.629 174.998 245.813 174.338C245.997 173.678 245.774 173.04 245.306 172.913C244.837 172.785 244.308 173.25 244.123 173.88Z" fill="#263238"/>
<path d="M237.058 171.593C236.873 172.253 237.096 172.89 237.565 173.018C238.033 173.145 238.563 172.71 238.747 172.05C238.932 171.39 238.709 170.753 238.24 170.633C237.772 170.513 237.242 170.933 237.058 171.593Z" fill="#263238"/>
<path d="M239.615 173.303C239.615 173.303 235.96 176.445 235.775 177.053C235.591 177.66 237.826 179.385 237.826 179.385" stroke="#263238" stroke-linecap="round" stroke-linejoin="round"/>
<path d="M236.544 181.823C238.36 182.791 240.486 183.046 242.488 182.535" stroke="#263238" stroke-linecap="round" stroke-linejoin="round"/>
<path d="M244.861 167.813C244.861 167.813 246.505 167.018 248.701 169.193" stroke="#263238" stroke-linecap="round" stroke-linejoin="round"/>
<path d="M239.615 166.823C239.615 166.823 237.611 165.038 237.004 166.823" stroke="#263238" stroke-linecap="round" stroke-linejoin="round"/>
<path d="M251.834 163.853C251.834 163.853 253.662 167.018 253.37 170.183C253.099 172.478 252.584 174.741 251.834 176.933L252.602 177.525C252.602 177.525 255.712 175.943 256.519 177.525C257.325 179.108 254.284 183.263 254.284 183.263C254.284 183.263 256.058 187.013 258.723 187.41C258.723 187.41 258.569 186.03 259.491 185.633C260.413 185.235 263.784 182.4 263.784 179.423C263.784 179.423 264.491 180.353 263.784 182.423C263.784 182.423 269.16 171.81 264.099 163.898C259.038 155.985 251.834 163.853 251.834 163.853Z" fill="#263238"/>
<path d="M254.315 177.825C254.315 177.825 258.201 174.623 258.7 177.825C259.199 181.028 253.731 185.535 252.418 183.968C251.104 182.4 252.418 182.108 252.418 182.108" fill="white"/>
<path d="M254.315 177.825C254.315 177.825 258.201 174.623 258.7 177.825C259.199 181.028 253.731 185.535 252.418 183.968C251.104 182.4 252.418 182.108 252.418 182.108" stroke="#263238" stroke-linecap="round" stroke-linejoin="round"/>
<path d="M235.776 189.345C235.776 189.345 238.157 189.045 239.493 190.095C240.829 191.145 239.255 192.735 236.982 191.445C234.708 190.155 235.776 189.345 235.776 189.345Z" fill="#263238"/>
<path d="M239.193 190.073C239.193 190.073 250.813 190.155 257.879 164.798H259.077C259.077 164.798 258.677 186.225 239.969 191.085L239.193 190.073Z" fill="#263238"/>
<path d="M238.01 158.145C238.01 158.145 234.17 159.735 234.416 160.53C234.661 161.325 241.043 165.675 253.907 165.78C263.431 165.855 268.284 174.03 268.284 174.03C269.198 171.503 267.463 168.39 267.463 168.39C267.463 168.39 268.692 159.93 264.337 156.27C264.337 156.27 263.408 152.625 257.555 150.338C249.699 147.27 247.326 151.53 247.326 151.53C245.28 151.618 243.305 152.293 241.649 153.469C239.992 154.645 238.727 156.272 238.01 158.145Z" fill="#5B8FEB" stroke="#263238" stroke-linecap="round" stroke-linejoin="round"/>
<path d="M255.313 162.652C259.991 163.065 264.645 164.497 267.463 168.397" stroke="#263238" stroke-linecap="round" stroke-linejoin="round"/>
<path d="M248.271 162.42C249.745 162.42 251.22 162.42 252.694 162.502" stroke="#263238" stroke-linecap="round" stroke-linejoin="round"/>
<path d="M238.011 158.145C238.925 161.895 242.296 162.255 245.629 162.368" stroke="#263238" stroke-linecap="round" stroke-linejoin="round"/>
<path d="M256.772 153.465C258.168 153.363 259.569 153.561 260.876 154.048C262.184 154.534 263.365 155.295 264.337 156.278" stroke="#263238" stroke-linecap="round" stroke-linejoin="round"/>
<path d="M247.295 151.538C243.279 157.538 251.396 154.598 254.361 153.863" stroke="#263238" stroke-linecap="round" stroke-linejoin="round"/>
<path d="M251.834 172.14C251.834 172.5 250.982 173.527 251.573 174.037C252.164 174.547 252.633 172.95 252.226 171.21" stroke="#263238" stroke-width="0.5" stroke-linecap="round" stroke-linejoin="round"/>
<path d="M251.136 167.423C251.136 167.783 249.961 169.47 250.552 169.973C251.144 170.475 251.597 169.32 251.32 168.473" stroke="#263238" stroke-width="0.5" stroke-linecap="round" stroke-linejoin="round"/>
<path d="M290.818 222.623C290.818 222.623 272.985 218.528 273.922 224.715C274.859 230.903 279.091 243.375 279.091 243.375C279.091 243.375 255.536 257.46 254.208 258.503C253.793 258.825 259.1 263.835 259.1 263.835C263.408 261.458 293.583 254.318 294.75 249.18C295.918 244.043 290.818 222.623 290.818 222.623Z" fill="white" stroke="#263238" stroke-linecap="round" stroke-linejoin="round"/>
<path d="M281.364 195.69C281.364 195.69 289.551 203.115 289.259 208.537C288.967 213.96 292.769 224.205 292.769 224.205L291.01 225.952C291.01 225.952 279.314 226.522 273.761 229.702C273.761 229.702 271.319 231.202 272.01 225.705C271.95 224.23 271.592 222.781 270.955 221.442C270.318 220.103 269.416 218.901 268.301 217.905C266.25 216.127 266.45 206.002 266.45 206.002" fill="#5B8FEB"/>
<path d="M281.364 195.69C281.364 195.69 289.551 203.115 289.259 208.537C288.967 213.96 292.769 224.205 292.769 224.205L291.01 225.952C291.01 225.952 279.314 226.522 273.761 229.702C273.761 229.702 271.319 231.202 272.01 225.705C271.95 224.23 271.592 222.781 270.955 221.442C270.318 220.103 269.416 218.901 268.301 217.905C266.25 216.127 266.45 206.002 266.45 206.002" stroke="#263238" stroke-linecap="round" stroke-linejoin="round"/>
<path d="M295.395 274.785C294.228 280.207 289.842 287.797 288.091 290.94C286.34 294.082 279.021 318.937 279.021 318.937C279.021 318.937 279.313 323.505 272.593 324.645C265.873 325.785 253.124 321.51 256.511 319.5C259.898 317.49 263.554 294.472 263.554 294.472C263.554 294.472 261.764 291.337 265.036 286.71C268.308 282.082 268.577 255.75 274.943 253.935C286.056 250.8 299.035 257.557 299.035 257.557C299.035 257.557 302.706 258.682 303.92 261.945" fill="#263238"/>
<path d="M292.937 263.498C290.925 259.463 287.561 255.855 282.899 254.978" stroke="white" stroke-linecap="round" stroke-linejoin="round"/>
<path d="M294.911 268.92C294.668 267.847 294.348 266.792 293.951 265.763" stroke="white" stroke-linecap="round" stroke-linejoin="round"/>
<path d="M266.203 294.525C265.325 294.633 264.435 294.618 263.562 294.48" stroke="white" stroke-linecap="round" stroke-linejoin="round"/>
<path d="M285.449 281.16C281.056 286.328 275.312 291.848 268.653 293.978" stroke="white" stroke-linecap="round" stroke-linejoin="round"/>
<path d="M295.395 274.785C294.228 280.207 289.842 287.797 288.091 290.94C286.34 294.082 279.021 318.937 279.021 318.937C279.021 318.937 279.313 323.505 272.593 324.645C265.873 325.785 253.124 321.51 256.511 319.5C259.898 317.49 263.554 294.472 263.554 294.472C263.554 294.472 261.764 291.337 265.036 286.71C268.308 282.082 268.577 255.75 274.943 253.935C286.056 250.8 299.035 257.557 299.035 257.557C299.035 257.557 302.706 258.682 303.92 261.945" stroke="#263238" stroke-miterlimit="10"/>
<path d="M265.397 275.198C265.427 275.055 265.486 274.919 265.57 274.799C265.654 274.678 265.761 274.575 265.886 274.495C266.011 274.414 266.15 274.359 266.297 274.332C266.444 274.305 266.595 274.306 266.741 274.335L270.381 275.085C270.327 274.215 269.991 273.383 269.421 272.71C268.852 272.038 268.08 271.559 267.214 271.342C266.349 271.125 265.435 271.182 264.605 271.504C263.775 271.827 263.071 272.398 262.594 273.135L235.391 267.66C235.252 266.799 234.837 266.002 234.206 265.385C233.574 264.768 232.759 264.362 231.876 264.227C230.994 264.091 230.09 264.232 229.295 264.629C228.499 265.026 227.854 265.66 227.45 266.438L231.09 267.188C231.237 267.217 231.375 267.275 231.499 267.357C231.623 267.439 231.728 267.544 231.81 267.665C231.892 267.787 231.949 267.924 231.977 268.067C232.005 268.21 232.004 268.358 231.974 268.5C231.943 268.643 231.885 268.779 231.801 268.899C231.717 269.02 231.609 269.123 231.484 269.203C231.36 269.283 231.22 269.339 231.073 269.366C230.927 269.393 230.776 269.392 230.63 269.363L226.989 268.613C227.044 269.484 227.38 270.315 227.949 270.988C228.518 271.66 229.291 272.139 230.156 272.356C231.022 272.573 231.935 272.516 232.765 272.194C233.596 271.871 234.3 271.3 234.777 270.563L261.979 276C262.119 276.862 262.535 277.657 263.167 278.273C263.799 278.889 264.615 279.294 265.497 279.429C266.38 279.564 267.283 279.422 268.078 279.025C268.872 278.627 269.517 277.994 269.92 277.215L266.28 276.465C265.995 276.404 265.745 276.238 265.581 276.003C265.417 275.767 265.351 275.479 265.397 275.198Z" fill="#BFBFBF" stroke="#263238" stroke-linecap="round" stroke-linejoin="round"/>
<path d="M260.16 253.5C257.863 254.867 255.739 256.493 253.831 258.345C252.38 259.462 244.154 266.167 244.262 267.18C244.369 268.192 243.64 274.972 244.262 275.587C244.884 276.202 247.488 274.192 247.488 274.192C247.488 274.192 248.217 276.022 249.024 276.127C249.824 276.164 250.626 276.129 251.42 276.022C251.42 276.022 252.771 278.055 254.016 277.852C255.26 277.65 256.934 275.31 255.713 275.212C255.391 275.164 255.061 275.205 254.761 275.329C254.462 275.454 254.203 275.657 254.016 275.917V273.382C255.06 272.617 256.036 271.766 256.934 270.84C258.286 269.415 259.038 264.772 259.038 264.772C259.599 264.465 263.347 262.77 264.614 262.327L260.16 253.5Z" fill="#5B8FEB" stroke="#263238" stroke-linecap="round" stroke-linejoin="round"/>
<path d="M247.487 274.2L246.22 269.468" stroke="#263238" stroke-linecap="round" stroke-linejoin="round"/>
<path d="M251.443 276.03L250.329 273.165" stroke="#263238" stroke-linecap="round" stroke-linejoin="round"/>
<path d="M246.85 271.837L245.79 273.69" stroke="#263238" stroke-linecap="round" stroke-linejoin="round"/>
<path d="M249.899 276C248.816 275.25 248.056 271.808 248.056 271.808" stroke="#263238" stroke-linecap="round" stroke-linejoin="round"/>
<path d="M263.692 184.29C263.692 184.29 271.618 186.803 271.587 193.515C271.587 196.463 263.139 215.123 264.637 224.205C266.134 233.288 266.318 234.21 266.318 234.21C266.318 234.21 262.694 234.353 261.388 234.21C260.082 234.068 260.551 236.46 260.551 236.46L255.943 237.315C255.943 237.315 254.568 222.435 254.407 215.978C254.246 209.52 261.941 189.458 261.941 189.458C262.019 188.835 261.927 188.203 261.675 187.627C261.423 187.05 261.019 186.548 260.505 186.173" fill="#BFBFBF"/>
<path d="M263.692 184.29C263.692 184.29 271.618 186.803 271.587 193.515C271.587 196.463 263.139 215.123 264.637 224.205C266.134 233.288 266.318 234.21 266.318 234.21C266.318 234.21 262.694 234.353 261.388 234.21C260.082 234.068 260.551 236.46 260.551 236.46L255.943 237.315C255.943 237.315 254.568 222.435 254.407 215.978C254.246 209.52 261.941 189.458 261.941 189.458C262.019 188.835 261.927 188.203 261.675 187.627C261.423 187.05 261.019 186.548 260.505 186.173" stroke="#263238" stroke-linecap="round" stroke-linejoin="round"/>
<path d="M260.82 219.435C260.321 223.935 259.983 228.435 259.775 232.988" stroke="#263238" stroke-linecap="round" stroke-linejoin="round"/>
<path d="M262.233 209.513C261.826 211.838 261.465 214.17 261.173 216.51" stroke="#263238" stroke-linecap="round" stroke-linejoin="round"/>
<path d="M265.589 194.73C264.483 198.62 263.549 202.552 262.786 206.527" stroke="#263238" stroke-linecap="round" stroke-linejoin="round"/>
<path d="M266.318 187.388C266.994 188.933 266.38 190.695 266.096 192.263" stroke="#263238" stroke-linecap="round" stroke-linejoin="round"/>
<path d="M227.228 205.013C227.824 207.482 228.795 209.851 230.108 212.04" stroke="#263238" stroke-linecap="round" stroke-linejoin="round"/>
<path d="M225.792 196.658C225.884 197.948 226.053 199.23 226.253 200.513" stroke="#263238" stroke-linecap="round" stroke-linejoin="round"/>
<path d="M278.999 215.04C277.75 216.21 276.205 217.033 274.521 217.425" stroke="#263238" stroke-linecap="round" stroke-linejoin="round"/>
<path d="M285.45 204.75C284.423 207.684 282.919 210.437 280.995 212.902" stroke="#263238" stroke-linecap="round" stroke-linejoin="round"/>
<path d="M178.668 170.46V114.607L173.807 118.357V170.46H178.668Z" fill="#999999" stroke="#263238" stroke-linecap="round" stroke-linejoin="round"/>
<path d="M153.163 130.5H139.446L140.099 117C140.131 116.37 140.409 115.776 140.876 115.34C141.344 114.905 141.964 114.661 142.61 114.66H149.999C150.645 114.661 151.265 114.905 151.733 115.34C152.2 115.776 152.478 116.37 152.51 117L153.163 130.5Z" fill="#5B8FEB"/>
<path opacity="0.5" d="M152.463 120C152.465 120.785 152.228 121.553 151.782 122.206C151.337 122.86 150.703 123.369 149.961 123.671C149.218 123.972 148.401 124.052 147.613 123.9C146.824 123.747 146.099 123.37 145.531 122.816C144.962 122.261 144.574 121.554 144.417 120.784C144.259 120.015 144.339 119.216 144.646 118.491C144.954 117.766 145.474 117.145 146.143 116.709C146.811 116.273 147.597 116.04 148.401 116.04C149.477 116.04 150.509 116.457 151.271 117.199C152.032 117.942 152.461 118.949 152.463 120Z" fill="white"/>
<path opacity="0.5" d="M151.818 120C151.818 120.66 151.617 121.305 151.242 121.854C150.866 122.403 150.332 122.831 149.708 123.084C149.083 123.336 148.396 123.402 147.733 123.273C147.07 123.145 146.461 122.827 145.983 122.36C145.505 121.893 145.18 121.299 145.048 120.651C144.916 120.004 144.984 119.333 145.243 118.723C145.501 118.113 145.939 117.592 146.501 117.225C147.063 116.858 147.724 116.663 148.4 116.663C149.306 116.663 150.176 117.014 150.817 117.64C151.458 118.266 151.818 119.115 151.818 120Z" fill="white"/>
<path opacity="0.2" d="M141.803 122.13C142.817 122.13 143.639 121.327 143.639 120.337C143.639 119.347 142.817 118.545 141.803 118.545C140.79 118.545 139.968 119.347 139.968 120.337C139.968 121.327 140.79 122.13 141.803 122.13Z" fill="white"/>
<path opacity="0.2" d="M141.803 121.365C142.384 121.365 142.855 120.905 142.855 120.338C142.855 119.77 142.384 119.31 141.803 119.31C141.222 119.31 140.751 119.77 140.751 120.338C140.751 120.905 141.222 121.365 141.803 121.365Z" fill="white"/>
<path opacity="0.2" d="M148.324 126C148.324 126.679 148.118 127.343 147.731 127.908C147.345 128.473 146.795 128.913 146.153 129.173C145.51 129.433 144.803 129.501 144.12 129.369C143.438 129.236 142.811 128.909 142.319 128.429C141.827 127.948 141.492 127.336 141.357 126.67C141.221 126.004 141.291 125.313 141.557 124.685C141.823 124.058 142.274 123.521 142.852 123.144C143.431 122.766 144.111 122.565 144.807 122.565C145.739 122.567 146.632 122.929 147.291 123.573C147.951 124.217 148.322 125.09 148.324 126Z" fill="white"/>
<path opacity="0.3" d="M147.509 126C147.509 126.522 147.351 127.033 147.054 127.467C146.757 127.901 146.334 128.24 145.84 128.439C145.346 128.639 144.803 128.691 144.278 128.59C143.754 128.488 143.272 128.236 142.894 127.867C142.516 127.498 142.259 127.028 142.154 126.515C142.05 126.003 142.104 125.472 142.308 124.99C142.513 124.508 142.859 124.095 143.304 123.805C143.749 123.515 144.271 123.36 144.806 123.36C145.523 123.36 146.21 123.638 146.717 124.134C147.224 124.629 147.509 125.3 147.509 126Z" fill="white"/>
<path d="M153.163 130.5H139.446L140.099 117C140.131 116.37 140.409 115.776 140.876 115.34C141.344 114.905 141.964 114.661 142.61 114.66H149.999C150.645 114.661 151.265 114.905 151.733 115.34C152.2 115.776 152.478 116.37 152.51 117L153.163 130.5Z" stroke="#263238" stroke-linecap="round" stroke-linejoin="round"/>
<path d="M159.299 136.313H133.31L136.382 129.473H156.227L159.299 136.313Z" fill="#999999" stroke="#263238" stroke-linecap="round" stroke-linejoin="round"/>
<path d="M178.668 234.607V297.555C178.668 298.452 178.487 299.341 178.135 300.17C177.784 300.999 177.268 301.752 176.619 302.386C175.969 303.021 175.198 303.524 174.349 303.867C173.5 304.211 172.59 304.387 171.671 304.387H159.591V299.137H170.765C171.58 299.137 172.361 298.821 172.937 298.259C173.514 297.696 173.837 296.933 173.837 296.137V234.607H178.668Z" fill="#999999" stroke="#263238" stroke-linecap="round" stroke-linejoin="round"/>
<path d="M56.3867 168.51V123.893C56.3867 122.61 56.9086 121.379 57.8376 120.472C58.7666 119.565 60.0265 119.055 61.3403 119.055H65.2802V122.805H61.9854C61.7024 122.804 61.4219 122.858 61.1602 122.963C60.8984 123.068 60.6604 123.222 60.4599 123.418C60.2594 123.613 60.1003 123.845 59.9918 124.1C59.8832 124.355 59.8274 124.629 59.8274 124.905V168.195L56.3867 168.51Z" fill="#999999" stroke="#263238" stroke-linecap="round" stroke-linejoin="round"/>
<path d="M74.5735 125.355H71.5322V137.37H74.5735V125.355Z" fill="#999999" stroke="#263238" stroke-linecap="round" stroke-linejoin="round"/>
<path d="M97.6135 125.355H94.5723V137.37H97.6135V125.355Z" fill="#999999" stroke="#263238" stroke-linecap="round" stroke-linejoin="round"/>
<path d="M102.505 97.1401H66.6474C65.0823 97.1401 63.8135 98.3792 63.8135 99.9076V124.83C63.8135 126.359 65.0823 127.598 66.6474 127.598H102.505C104.07 127.598 105.339 126.359 105.339 124.83V99.9076C105.339 98.3792 104.07 97.1401 102.505 97.1401Z" fill="#BFBFBF" stroke="#263238" stroke-linecap="round" stroke-linejoin="round"/>
<path d="M101.484 101.385H67.6611V123.338H101.484V101.385Z" fill="#263238"/>
<path d="M56.3867 194.055V223.665C56.3867 224.949 56.9084 226.18 57.8371 227.088C58.7659 227.997 60.0258 228.508 61.3403 228.51H65.2802V224.76H61.9854C61.4131 224.76 60.8642 224.538 60.4594 224.143C60.0547 223.748 59.8274 223.212 59.8274 222.653V194.37L56.3867 194.055Z" fill="#999999" stroke="#263238" stroke-linecap="round" stroke-linejoin="round"/>
<path d="M54.6131 161.513H65.2806V202.598H54.6131C53.7983 202.598 53.0169 202.282 52.4408 201.719C51.8647 201.156 51.5411 200.393 51.5411 199.598V164.528C51.539 164.132 51.617 163.741 51.7705 163.375C51.9239 163.009 52.1499 162.677 52.4354 162.397C52.7208 162.117 53.0602 161.894 53.4339 161.742C53.8076 161.591 54.2083 161.513 54.6131 161.513Z" fill="#999999" stroke="#263238" stroke-linecap="round" stroke-linejoin="round"/>
<path d="M164.568 135.562H65.1116C63.4319 135.562 62.0703 136.892 62.0703 138.533V325.32C62.0703 326.96 63.4319 328.29 65.1116 328.29H164.568C166.247 328.29 167.609 326.96 167.609 325.32V138.533C167.609 136.892 166.247 135.562 164.568 135.562Z" fill="#757575" stroke="#263238" stroke-linecap="round" stroke-linejoin="round"/>
<path d="M159.476 318.863V144.975H70.2033L70.2033 318.863H159.476Z" fill="#999999" stroke="#263238" stroke-linecap="round" stroke-linejoin="round"/>
<path d="M157.171 147.232H72.5068V316.62H157.171V147.232Z" fill="#263238"/>
<path d="M112.965 294.165H110.331V256.875C110.331 256.534 110.469 256.207 110.715 255.965C110.961 255.724 111.295 255.587 111.644 255.585C111.995 255.585 112.331 255.721 112.578 255.963C112.826 256.205 112.965 256.533 112.965 256.875V294.165Z" fill="#757575" stroke="#263238" stroke-linecap="round" stroke-linejoin="round"/>
<path d="M117.773 294.165H115.139V256.875C115.139 256.534 115.277 256.207 115.523 255.965C115.769 255.724 116.103 255.587 116.452 255.585C116.802 255.585 117.138 255.721 117.386 255.963C117.634 256.205 117.773 256.533 117.773 256.875V294.165Z" fill="#757575" stroke="#263238" stroke-linecap="round" stroke-linejoin="round"/>
<path d="M122.581 294.165H119.946V256.875C119.946 256.534 120.084 256.207 120.33 255.965C120.577 255.724 120.911 255.587 121.26 255.585C121.61 255.585 121.946 255.721 122.194 255.963C122.441 256.205 122.581 256.533 122.581 256.875V294.165Z" fill="#757575" stroke="#263238" stroke-linecap="round" stroke-linejoin="round"/>
<path d="M127.388 294.165H124.754V256.875C124.754 256.534 124.892 256.207 125.138 255.965C125.384 255.724 125.718 255.587 126.067 255.585C126.418 255.585 126.754 255.721 127.001 255.963C127.249 256.205 127.388 256.533 127.388 256.875V294.165Z" fill="#757575" stroke="#263238" stroke-linecap="round" stroke-linejoin="round"/>
<path d="M132.196 294.165H129.562V256.875C129.562 256.534 129.7 256.207 129.946 255.965C130.192 255.724 130.526 255.587 130.875 255.585C131.225 255.585 131.561 255.721 131.809 255.963C132.057 256.205 132.196 256.533 132.196 256.875V294.165Z" fill="#757575" stroke="#263238" stroke-linecap="round" stroke-linejoin="round"/>
<path d="M137.004 294.165H134.4V256.875C134.4 256.534 134.538 256.207 134.785 255.965C135.031 255.724 135.365 255.587 135.714 255.585C136.064 255.585 136.4 255.721 136.648 255.963C136.895 256.205 137.035 256.533 137.035 256.875L137.004 294.165Z" fill="#757575" stroke="#263238" stroke-linecap="round" stroke-linejoin="round"/>
<path d="M76.708 248.175H103.242C103.827 248.175 104.407 248.288 104.947 248.506C105.487 248.725 105.979 249.045 106.392 249.449C106.806 249.853 107.134 250.333 107.358 250.861C107.582 251.388 107.697 251.954 107.697 252.525V294.165H76.708V248.175Z" fill="#757575" stroke="#263238" stroke-linecap="round" stroke-linejoin="round"/>
<path d="M100.508 257.76H76.708V269.235H100.508V257.76Z" fill="#999999" stroke="#263238" stroke-linecap="round" stroke-linejoin="round"/>
<path d="M96.96 260.978V266.018" stroke="#263238" stroke-linecap="round" stroke-linejoin="round"/>
<path d="M94.6328 260.978V266.018" stroke="#263238" stroke-linecap="round" stroke-linejoin="round"/>
<path d="M92.3057 260.978V266.018" stroke="#263238" stroke-linecap="round" stroke-linejoin="round"/>
<path d="M89.9717 260.978V266.018" stroke="#263238" stroke-linecap="round" stroke-linejoin="round"/>
<path d="M87.6445 260.978V266.018" stroke="#263238" stroke-linecap="round" stroke-linejoin="round"/>
<path d="M105.6 284.033H98.6879C98.4842 284.033 98.2889 283.954 98.1449 283.813C98.0008 283.672 97.9199 283.482 97.9199 283.283C97.9199 283.084 98.0008 282.893 98.1449 282.752C98.2889 282.612 98.4842 282.533 98.6879 282.533H105.6C110.569 282.533 112.512 278.1 114.532 273.398C116.137 269.685 117.803 265.845 121.144 264.308C122.998 263.41 125.051 262.978 127.119 263.05C129.187 263.122 131.203 263.696 132.987 264.72C134.283 265.493 135.354 266.578 136.097 267.872C136.839 269.166 137.228 270.625 137.226 272.108C137.226 272.307 137.145 272.497 137.001 272.638C136.857 272.779 136.662 272.858 136.458 272.858C136.254 272.858 136.059 272.779 135.915 272.638C135.771 272.497 135.69 272.307 135.69 272.108C135.699 270.876 135.379 269.664 134.76 268.59C134.142 267.517 133.247 266.62 132.165 265.988C130.6 265.098 128.833 264.602 127.023 264.546C125.213 264.489 123.417 264.874 121.797 265.665C118.986 267 117.504 270.375 115.968 273.983C113.802 278.925 111.583 284.033 105.6 284.033Z" fill="#BFBFBF" stroke="#263238" stroke-linecap="round" stroke-linejoin="round"/>
<path d="M147.694 269.625H127.765C124.291 269.625 121.475 272.375 121.475 275.767V286.485C121.475 289.877 124.291 292.628 127.765 292.628H147.694C151.168 292.628 153.984 289.877 153.984 286.485V275.767C153.984 272.375 151.168 269.625 147.694 269.625Z" fill="#999999" stroke="#263238" stroke-linecap="round" stroke-linejoin="round"/>
<path d="M78.467 271.252H93.8961C96.4299 271.252 98.86 272.235 100.652 273.985C102.443 275.735 103.45 278.108 103.45 280.582V289.92C103.45 290.274 103.378 290.626 103.24 290.953C103.101 291.281 102.897 291.578 102.64 291.829C102.383 292.08 102.079 292.279 101.743 292.414C101.408 292.55 101.048 292.62 100.685 292.62H78.467C78.1039 292.62 77.7444 292.55 77.4089 292.414C77.0735 292.279 76.7687 292.08 76.5119 291.829C76.2552 291.578 76.0516 291.281 75.9126 290.953C75.7737 290.626 75.7022 290.274 75.7022 289.92V273.96C75.7011 273.605 75.7719 273.253 75.9104 272.924C76.0489 272.596 76.2524 272.297 76.5092 272.046C76.7661 271.794 77.0712 271.595 77.4071 271.459C77.7431 271.323 78.1032 271.252 78.467 271.252Z" fill="#999999" stroke="#263238" stroke-linecap="round" stroke-linejoin="round"/>
<path d="M151.604 251.738H139.6C138.705 251.738 137.979 252.446 137.979 253.32V265.043C137.979 265.917 138.705 266.625 139.6 266.625H151.604C152.499 266.625 153.224 265.917 153.224 265.043V253.32C153.224 252.446 152.499 251.738 151.604 251.738Z" fill="#999999" stroke="#263238" stroke-linecap="round" stroke-linejoin="round"/>
<path d="M148.992 259.178C148.994 259.829 148.797 260.466 148.428 261.009C148.058 261.551 147.532 261.974 146.916 262.225C146.3 262.475 145.622 262.541 144.968 262.415C144.313 262.289 143.712 261.976 143.239 261.516C142.767 261.056 142.445 260.469 142.314 259.83C142.184 259.191 142.25 258.529 142.505 257.927C142.76 257.325 143.192 256.81 143.747 256.448C144.301 256.086 144.953 255.893 145.621 255.893C146.513 255.893 147.37 256.238 148.002 256.854C148.634 257.47 148.99 258.306 148.992 259.178Z" fill="#BFBFBF" stroke="#263238" stroke-linecap="round" stroke-linejoin="round"/>
<path d="M96.9674 280.32H92.3057V294.165H96.9674V280.32Z" fill="#BFBFBF" stroke="#263238" stroke-linecap="round" stroke-linejoin="round"/>
<path d="M138.31 276.165H147.119C147.362 276.165 147.603 276.212 147.827 276.303C148.052 276.393 148.256 276.527 148.428 276.694C148.599 276.862 148.736 277.062 148.829 277.281C148.922 277.5 148.97 277.735 148.97 277.973V294.165H136.459V277.973C136.459 277.493 136.654 277.033 137.001 276.694C137.348 276.355 137.819 276.165 138.31 276.165Z" fill="#BFBFBF" stroke="#263238" stroke-linecap="round" stroke-linejoin="round"/>
<path d="M80.11 273.87H78.9273L78.3359 274.875L78.9273 275.88H80.11L80.7091 274.875L80.11 273.87Z" fill="#BFBFBF" stroke="#263238" stroke-linecap="round" stroke-linejoin="round"/>
<path d="M80.11 287.565H78.9273L78.3359 288.57L78.9273 289.575H80.11L80.7091 288.57L80.11 287.565Z" fill="#BFBFBF" stroke="#263238" stroke-linecap="round" stroke-linejoin="round"/>
<path d="M146.197 258.172H145.006L144.415 259.177L145.006 260.182H146.197L146.788 259.177L146.197 258.172Z" fill="#BFBFBF" stroke="#263238" stroke-linecap="round" stroke-linejoin="round"/>
<path d="M80.11 250.335H78.9273L78.3359 251.34L78.9273 252.345H80.11L80.7091 251.34L80.11 250.335Z" fill="#999999" stroke="#263238" stroke-linecap="round" stroke-linejoin="round"/>
<path d="M104.042 250.335H102.851L102.26 251.34L102.851 252.345H104.042L104.633 251.34L104.042 250.335Z" fill="#999999" stroke="#263238" stroke-linecap="round" stroke-linejoin="round"/>
<path d="M153.977 296.183H76.7236V313.193H153.977V296.183Z" fill="#757575" stroke="#263238" stroke-linecap="round" stroke-linejoin="round"/>
<path d="M151.219 298.357H126.067V310.62H151.219V298.357Z" fill="#999999" stroke="#263238" stroke-linecap="round" stroke-linejoin="round"/>
<path d="M130.153 300.39H128.97L128.379 301.388L128.97 302.393H130.153L130.752 301.388L130.153 300.39Z" fill="#BFBFBF" stroke="#263238" stroke-linecap="round" stroke-linejoin="round"/>
<path d="M130.153 306.54H128.97L128.379 307.545L128.97 308.55H130.153L130.752 307.545L130.153 306.54Z" fill="#BFBFBF" stroke="#263238" stroke-linecap="round" stroke-linejoin="round"/>
<path d="M148.586 300.39H147.403L146.812 301.388L147.403 302.393H148.586L149.185 301.388L148.586 300.39Z" fill="#BFBFBF" stroke="#263238" stroke-linecap="round" stroke-linejoin="round"/>
<path d="M148.586 306.54H147.403L146.812 307.545L147.403 308.55H148.586L149.185 307.545L148.586 306.54Z" fill="#BFBFBF" stroke="#263238" stroke-linecap="round" stroke-linejoin="round"/>
<path d="M83.6658 307.403H80.709V310.29H83.6658V307.403Z" fill="#999999" stroke="#263238" stroke-linecap="round" stroke-linejoin="round"/>
<path d="M89.2722 307.403H86.3154V310.29H89.2722V307.403Z" fill="#999999" stroke="#263238" stroke-linecap="round" stroke-linejoin="round"/>
<path d="M94.8865 307.403H91.9297V310.29H94.8865V307.403Z" fill="#999999" stroke="#263238" stroke-linecap="round" stroke-linejoin="round"/>
<path d="M100.501 308.843C100.502 309.129 100.416 309.41 100.255 309.649C100.093 309.888 99.8616 310.075 99.5909 310.186C99.3202 310.296 99.022 310.326 98.7339 310.271C98.4459 310.216 98.1811 310.079 97.973 309.877C97.7649 309.674 97.623 309.416 97.5652 309.136C97.5074 308.855 97.5363 308.563 97.6482 308.298C97.7602 308.033 97.9502 307.807 98.1941 307.647C98.438 307.488 98.7249 307.403 99.0183 307.403C99.2126 307.402 99.4052 307.438 99.585 307.51C99.7648 307.582 99.9282 307.688 100.066 307.822C100.204 307.956 100.313 308.115 100.388 308.29C100.462 308.465 100.501 308.653 100.501 308.843Z" fill="#999999" stroke="#263238" stroke-linecap="round" stroke-linejoin="round"/>
<path d="M106.107 308.843C106.109 309.13 106.023 309.411 105.86 309.65C105.698 309.889 105.467 310.076 105.196 310.186C104.924 310.297 104.626 310.326 104.338 310.27C104.049 310.215 103.784 310.077 103.577 309.874C103.369 309.671 103.228 309.412 103.171 309.131C103.114 308.849 103.144 308.558 103.257 308.293C103.37 308.028 103.561 307.802 103.806 307.644C104.051 307.485 104.339 307.401 104.632 307.403C105.024 307.403 105.399 307.555 105.675 307.825C105.952 308.095 106.107 308.461 106.107 308.843Z" fill="#999999" stroke="#263238" stroke-linecap="round" stroke-linejoin="round"/>
<path d="M77.5684 240.54C102.82 240.54 129.024 219.893 152.064 219.893" stroke="#999999" stroke-linecap="round" stroke-linejoin="round"/>
<path d="M77.5684 157.95C91.8839 157.95 120.891 188.925 152.064 188.925" stroke="#5B8FEB" stroke-linecap="round" stroke-linejoin="round"/>
<path d="M152.064 157.95C135.022 157.95 102.951 209.573 77.5684 209.573" stroke="#BFBFBF" stroke-linecap="round" stroke-linejoin="round"/>
<path d="M78.3359 219.893C94.7404 219.893 134.891 178.38 152.064 178.598" stroke="#757575" stroke-linecap="round" stroke-linejoin="round"/>
<path d="M77.5684 188.925C106.468 188.925 130.821 240.54 152.064 240.54" stroke="#5B8FEB" stroke-linecap="round" stroke-linejoin="round"/>
<path d="M77.5684 230.25C88.8426 230.25 129.024 209.603 152.064 209.603" stroke="#757575" stroke-linecap="round" stroke-linejoin="round"/>
<path d="M152.064 230.25C137.657 230.25 100.317 168.308 77.5684 168.308" stroke="#BFBFBF" stroke-linecap="round" stroke-linejoin="round"/>
<path d="M77.5684 178.598C89.4493 178.598 119.885 168.278 152.064 168.278" stroke="#5B8FEB" stroke-linecap="round" stroke-linejoin="round"/>
<path d="M77.5684 199.245C92.4906 199.245 106.952 205.995 116.429 205.995C125.906 205.995 141.558 199.245 152.064 199.245" stroke="#999999" stroke-linecap="round" stroke-linejoin="round"/>
<path d="M152.948 155.482H151.22V160.425H152.948V155.482Z" fill="#757575" stroke="#263238" stroke-linecap="round" stroke-linejoin="round"/>
<path d="M152.948 165.803H151.22V170.745H152.948V165.803Z" fill="#757575" stroke="#263238" stroke-linecap="round" stroke-linejoin="round"/>
<path d="M152.948 176.13H151.22V181.072H152.948V176.13Z" fill="#757575" stroke="#263238" stroke-linecap="round" stroke-linejoin="round"/>
<path d="M152.948 186.45H151.22V191.393H152.948V186.45Z" fill="#757575" stroke="#263238" stroke-linecap="round" stroke-linejoin="round"/>
<path d="M152.948 196.778H151.22V201.72H152.948V196.778Z" fill="#757575" stroke="#263238" stroke-linecap="round" stroke-linejoin="round"/>
<path d="M152.948 207.098H151.22V212.04H152.948V207.098Z" fill="#757575" stroke="#263238" stroke-linecap="round" stroke-linejoin="round"/>
<path d="M152.948 217.425H151.22V222.368H152.948V217.425Z" fill="#757575" stroke="#263238" stroke-linecap="round" stroke-linejoin="round"/>
<path d="M152.948 227.745H151.22V232.688H152.948V227.745Z" fill="#757575" stroke="#263238" stroke-linecap="round" stroke-linejoin="round"/>
<path d="M152.948 238.073H151.22V243.015H152.948V238.073Z" fill="#757575" stroke="#263238" stroke-linecap="round" stroke-linejoin="round"/>
<path d="M78.4516 155.482H76.7236V160.425H78.4516V155.482Z" fill="#757575" stroke="#263238" stroke-linecap="round" stroke-linejoin="round"/>
<path d="M78.4516 165.803H76.7236V170.745H78.4516V165.803Z" fill="#757575" stroke="#263238" stroke-linecap="round" stroke-linejoin="round"/>
<path d="M78.4516 176.13H76.7236V181.072H78.4516V176.13Z" fill="#757575" stroke="#263238" stroke-linecap="round" stroke-linejoin="round"/>
<path d="M78.4516 186.45H76.7236V191.393H78.4516V186.45Z" fill="#757575" stroke="#263238" stroke-linecap="round" stroke-linejoin="round"/>
<path d="M78.4516 196.778H76.7236V201.72H78.4516V196.778Z" fill="#757575" stroke="#263238" stroke-linecap="round" stroke-linejoin="round"/>
<path d="M78.4516 207.098H76.7236V212.04H78.4516V207.098Z" fill="#757575" stroke="#263238" stroke-linecap="round" stroke-linejoin="round"/>
<path d="M78.4516 217.425H76.7236V222.368H78.4516V217.425Z" fill="#757575" stroke="#263238" stroke-linecap="round" stroke-linejoin="round"/>
<path d="M78.4516 227.745H76.7236V232.688H78.4516V227.745Z" fill="#757575" stroke="#263238" stroke-linecap="round" stroke-linejoin="round"/>
<path d="M78.4516 238.073H76.7236V243.015H78.4516V238.073Z" fill="#757575" stroke="#263238" stroke-linecap="round" stroke-linejoin="round"/>
<path d="M57.04 323.558H172.639C173.481 323.558 174.287 323.884 174.882 324.465C175.477 325.046 175.811 325.834 175.811 326.655V336.638H53.8682V326.648C53.8702 325.827 54.2053 325.041 54.7999 324.462C55.3945 323.883 56.2001 323.558 57.04 323.558Z" fill="#999999" stroke="#263238" stroke-linecap="round" stroke-linejoin="round"/>
<path d="M49.7205 334.68H179.95C180.517 334.68 181.06 334.9 181.46 335.291C181.86 335.682 182.085 336.212 182.085 336.765V342.068H47.6162V336.75C47.6202 336.205 47.8427 335.683 48.236 335.296C48.6294 334.909 49.1623 334.688 49.7205 334.68Z" fill="#BFBFBF" stroke="#263238" stroke-linecap="round" stroke-linejoin="round"/>
<path d="M72.96 106.935H75.6096C77.2915 106.935 78.1132 107.843 78.1132 109.515V114.765C78.1132 116.43 77.2915 117.338 75.6096 117.338H72.96V106.935ZM74.6342 108.435V115.89H75.5788C76.1164 115.89 76.439 115.62 76.439 114.878V109.455C76.439 108.705 76.1164 108.435 75.5788 108.435H74.6342Z" fill="#5B8FEB"/>
<path d="M79.1045 109.44C79.1045 107.767 80.0031 106.815 81.6542 106.815C83.3054 106.815 84.204 107.767 84.204 109.44V114.862C84.204 116.527 83.2978 117.48 81.6542 117.48C80.0107 117.48 79.1045 116.527 79.1045 114.862V109.44ZM80.7864 114.967C80.7864 115.717 81.1166 115.995 81.6542 115.995C82.1918 115.995 82.5221 115.71 82.5221 114.967V109.335C82.5221 108.585 82.1842 108.307 81.6542 108.307C81.1243 108.307 80.7864 108.585 80.7864 109.335V114.967Z" fill="#5B8FEB"/>
<path d="M86.784 109.808V117.36H85.248V106.935H87.3524L89.042 113.175V106.935H90.578V117.36H88.85L86.784 109.808Z" fill="#5B8FEB"/>
<path d="M93.4423 111.33H95.7463V112.83H93.4423V115.883H96.3453V117.383H91.7373V106.958H96.3453V108.458H93.4423V111.33Z" fill="#5B8FEB"/>
<path d="M179.059 153.698H173.414C172.176 153.698 171.172 154.678 171.172 155.888V289.515C171.172 290.725 172.176 291.705 173.414 291.705H179.059C180.298 291.705 181.302 290.725 181.302 289.515V155.888C181.302 154.678 180.298 153.698 179.059 153.698Z" fill="#BFBFBF" stroke="#263238" stroke-linecap="round" stroke-linejoin="round"/>
<path d="M172.915 156.315C172.73 156.315 172.549 156.369 172.395 156.469C172.241 156.57 172.121 156.713 172.05 156.88C171.979 157.047 171.96 157.231 171.997 157.408C172.033 157.586 172.122 157.749 172.253 157.877C172.384 158.005 172.551 158.092 172.733 158.127C172.914 158.163 173.103 158.145 173.274 158.075C173.445 158.006 173.592 157.889 173.695 157.738C173.798 157.588 173.852 157.411 173.852 157.23C173.852 156.987 173.754 156.755 173.578 156.583C173.402 156.411 173.164 156.315 172.915 156.315Z" fill="#263238"/>
<path d="M172.915 162.24C172.73 162.24 172.549 162.294 172.395 162.394C172.241 162.495 172.121 162.638 172.05 162.805C171.979 162.972 171.96 163.156 171.997 163.334C172.033 163.511 172.122 163.674 172.253 163.802C172.384 163.93 172.551 164.017 172.733 164.053C172.914 164.088 173.103 164.07 173.274 164.001C173.445 163.931 173.592 163.814 173.695 163.664C173.798 163.513 173.852 163.336 173.852 163.155C173.852 162.913 173.754 162.68 173.578 162.508C173.402 162.337 173.164 162.24 172.915 162.24Z" fill="#263238"/>
<path d="M172.915 168.165C172.73 168.165 172.549 168.219 172.395 168.319C172.241 168.42 172.121 168.563 172.05 168.73C171.979 168.897 171.96 169.081 171.997 169.259C172.033 169.436 172.122 169.599 172.253 169.727C172.384 169.855 172.551 169.942 172.733 169.977C172.914 170.013 173.103 169.995 173.274 169.925C173.445 169.856 173.592 169.739 173.695 169.588C173.798 169.438 173.852 169.261 173.852 169.08C173.852 168.837 173.754 168.605 173.578 168.433C173.402 168.261 173.164 168.165 172.915 168.165Z" fill="#263238"/>
<path d="M172.915 174.09C172.73 174.09 172.549 174.144 172.395 174.245C172.241 174.345 172.121 174.488 172.05 174.655C171.979 174.822 171.96 175.006 171.997 175.184C172.033 175.361 172.122 175.524 172.253 175.652C172.384 175.78 172.551 175.867 172.733 175.903C172.914 175.938 173.103 175.92 173.274 175.851C173.445 175.781 173.592 175.664 173.695 175.514C173.798 175.363 173.852 175.186 173.852 175.005C173.852 174.763 173.754 174.53 173.578 174.358C173.402 174.187 173.164 174.09 172.915 174.09Z" fill="#263238"/>
<path d="M172.916 180C172.683 180.021 172.466 180.126 172.309 180.295C172.151 180.463 172.063 180.683 172.063 180.912C172.063 181.14 172.151 181.36 172.309 181.529C172.466 181.697 172.683 181.802 172.916 181.823C173.045 181.834 173.176 181.819 173.299 181.779C173.423 181.738 173.536 181.673 173.632 181.587C173.728 181.501 173.805 181.397 173.858 181.281C173.91 181.164 173.937 181.039 173.937 180.912C173.937 180.784 173.91 180.659 173.858 180.542C173.805 180.426 173.728 180.322 173.632 180.236C173.536 180.15 173.423 180.085 173.299 180.044C173.176 180.004 173.045 179.989 172.916 180Z" fill="#263238"/>
<path d="M172.916 185.948C172.683 185.968 172.466 186.073 172.309 186.242C172.151 186.41 172.063 186.631 172.063 186.859C172.063 187.087 172.151 187.307 172.309 187.476C172.466 187.644 172.683 187.749 172.916 187.77C173.045 187.782 173.176 187.767 173.299 187.726C173.423 187.685 173.536 187.62 173.632 187.534C173.728 187.449 173.805 187.344 173.858 187.228C173.91 187.112 173.937 186.986 173.937 186.859C173.937 186.732 173.91 186.606 173.858 186.49C173.805 186.373 173.728 186.269 173.632 186.183C173.536 186.097 173.423 186.032 173.299 185.992C173.176 185.951 173.045 185.936 172.916 185.948Z" fill="#263238"/>
<path d="M172.916 191.873C172.683 191.894 172.466 191.998 172.309 192.167C172.151 192.336 172.063 192.556 172.063 192.784C172.063 193.013 172.151 193.233 172.309 193.401C172.466 193.57 172.683 193.675 172.916 193.695C173.045 193.707 173.176 193.692 173.299 193.651C173.423 193.611 173.536 193.546 173.632 193.46C173.728 193.374 173.805 193.27 173.858 193.153C173.91 193.037 173.937 192.911 173.937 192.784C173.937 192.657 173.91 192.531 173.858 192.415C173.805 192.299 173.728 192.194 173.632 192.109C173.536 192.023 173.423 191.958 173.299 191.917C173.176 191.876 173.045 191.861 172.916 191.873Z" fill="#263238"/>
<path d="M172.916 197.798C172.683 197.818 172.466 197.923 172.309 198.092C172.151 198.26 172.063 198.481 172.063 198.709C172.063 198.937 172.151 199.157 172.309 199.326C172.466 199.495 172.683 199.6 172.916 199.62C173.045 199.632 173.176 199.617 173.299 199.576C173.423 199.536 173.536 199.47 173.632 199.385C173.728 199.299 173.805 199.194 173.858 199.078C173.91 198.962 173.937 198.836 173.937 198.709C173.937 198.582 173.91 198.456 173.858 198.34C173.805 198.223 173.728 198.119 173.632 198.033C173.536 197.948 173.423 197.882 173.299 197.842C173.176 197.801 173.045 197.786 172.916 197.798Z" fill="#263238"/>
<path d="M172.915 203.723C172.73 203.723 172.548 203.777 172.394 203.877C172.24 203.978 172.12 204.122 172.049 204.289C171.978 204.457 171.96 204.641 171.997 204.819C172.034 204.997 172.124 205.16 172.256 205.287C172.387 205.415 172.555 205.502 172.737 205.536C172.92 205.57 173.108 205.551 173.279 205.481C173.45 205.41 173.596 205.292 173.698 205.141C173.8 204.989 173.854 204.811 173.852 204.63C173.852 204.51 173.828 204.392 173.781 204.281C173.734 204.171 173.665 204.07 173.578 203.986C173.49 203.901 173.387 203.835 173.273 203.79C173.16 203.744 173.038 203.722 172.915 203.723Z" fill="#263238"/>
<path d="M172.915 209.647C172.73 209.647 172.549 209.701 172.395 209.802C172.241 209.902 172.121 210.045 172.05 210.212C171.979 210.379 171.96 210.563 171.997 210.741C172.033 210.918 172.122 211.081 172.253 211.209C172.384 211.337 172.551 211.425 172.733 211.46C172.914 211.495 173.103 211.477 173.274 211.408C173.445 211.339 173.592 211.221 173.695 211.071C173.798 210.92 173.852 210.743 173.852 210.562C173.852 210.32 173.754 210.087 173.578 209.915C173.402 209.744 173.164 209.647 172.915 209.647Z" fill="#263238"/>
<path d="M172.915 215.573C172.73 215.573 172.549 215.626 172.395 215.727C172.241 215.828 172.121 215.97 172.05 216.138C171.979 216.305 171.96 216.489 171.997 216.666C172.033 216.844 172.122 217.007 172.253 217.135C172.384 217.263 172.551 217.35 172.733 217.385C172.914 217.42 173.103 217.402 173.274 217.333C173.445 217.264 173.592 217.147 173.695 216.996C173.798 216.846 173.852 216.669 173.852 216.488C173.852 216.245 173.754 216.012 173.578 215.841C173.402 215.669 173.164 215.573 172.915 215.573Z" fill="#263238"/>
<path d="M172.915 221.498C172.73 221.498 172.549 221.551 172.395 221.652C172.241 221.752 172.121 221.895 172.05 222.062C171.979 222.23 171.96 222.414 171.997 222.591C172.033 222.769 172.122 222.932 172.253 223.06C172.384 223.188 172.551 223.275 172.733 223.31C172.914 223.345 173.103 223.327 173.274 223.258C173.445 223.189 173.592 223.071 173.695 222.921C173.798 222.77 173.852 222.594 173.852 222.413C173.852 222.292 173.828 222.173 173.781 222.062C173.734 221.951 173.665 221.851 173.578 221.766C173.491 221.681 173.388 221.613 173.274 221.567C173.16 221.521 173.039 221.498 172.915 221.498Z" fill="#263238"/>
<path d="M172.915 227.423C172.73 227.423 172.549 227.477 172.395 227.577C172.241 227.678 172.121 227.82 172.05 227.988C171.979 228.155 171.96 228.339 171.997 228.516C172.033 228.694 172.122 228.857 172.253 228.985C172.384 229.113 172.551 229.2 172.733 229.235C172.914 229.271 173.103 229.252 173.274 229.183C173.445 229.114 173.592 228.997 173.695 228.846C173.798 228.696 173.852 228.519 173.852 228.338C173.852 228.095 173.754 227.862 173.578 227.691C173.402 227.519 173.164 227.423 172.915 227.423Z" fill="#263238"/>
<path d="M172.916 233.355C172.683 233.376 172.466 233.481 172.309 233.649C172.151 233.818 172.063 234.038 172.063 234.267C172.063 234.495 172.151 234.715 172.309 234.884C172.466 235.052 172.683 235.157 172.916 235.178C173.045 235.189 173.176 235.174 173.299 235.134C173.423 235.093 173.536 235.028 173.632 234.942C173.728 234.856 173.805 234.752 173.858 234.636C173.91 234.519 173.937 234.394 173.937 234.267C173.937 234.139 173.91 234.014 173.858 233.897C173.805 233.781 173.728 233.677 173.632 233.591C173.536 233.505 173.423 233.44 173.299 233.399C173.176 233.359 173.045 233.344 172.916 233.355Z" fill="#263238"/>
<path d="M172.916 239.25C172.683 239.271 172.466 239.376 172.309 239.545C172.151 239.713 172.063 239.933 172.063 240.162C172.063 240.39 172.151 240.61 172.309 240.779C172.466 240.947 172.683 241.052 172.916 241.073C173.045 241.084 173.176 241.069 173.299 241.029C173.423 240.988 173.536 240.923 173.632 240.837C173.728 240.751 173.805 240.647 173.858 240.531C173.91 240.414 173.937 240.289 173.937 240.162C173.937 240.034 173.91 239.909 173.858 239.792C173.805 239.676 173.728 239.572 173.632 239.486C173.536 239.4 173.423 239.335 173.299 239.294C173.176 239.254 173.045 239.239 172.916 239.25Z" fill="#263238"/>
<path d="M172.916 245.205C172.683 245.226 172.466 245.331 172.309 245.499C172.151 245.668 172.063 245.888 172.063 246.116C172.063 246.345 172.151 246.565 172.309 246.733C172.466 246.902 172.683 247.007 172.916 247.027C173.045 247.039 173.176 247.024 173.299 246.983C173.423 246.943 173.536 246.878 173.632 246.792C173.728 246.706 173.805 246.602 173.858 246.485C173.91 246.369 173.937 246.243 173.937 246.116C173.937 245.989 173.91 245.863 173.858 245.747C173.805 245.631 173.728 245.526 173.632 245.441C173.536 245.355 173.423 245.29 173.299 245.249C173.176 245.208 173.045 245.193 172.916 245.205Z" fill="#263238"/>
<path d="M172.916 251.13C172.683 251.151 172.466 251.256 172.309 251.424C172.151 251.593 172.063 251.813 172.063 252.041C172.063 252.27 172.151 252.49 172.309 252.659C172.466 252.827 172.683 252.932 172.916 252.953C173.045 252.964 173.176 252.949 173.299 252.909C173.423 252.868 173.536 252.803 173.632 252.717C173.728 252.631 173.805 252.527 173.858 252.411C173.91 252.294 173.937 252.169 173.937 252.041C173.937 251.914 173.91 251.789 173.858 251.672C173.805 251.556 173.728 251.452 173.632 251.366C173.536 251.28 173.423 251.215 173.299 251.174C173.176 251.134 173.045 251.119 172.916 251.13Z" fill="#263238"/>
<path d="M172.915 257.055C172.73 257.055 172.548 257.109 172.394 257.21C172.24 257.311 172.12 257.454 172.049 257.622C171.978 257.789 171.96 257.974 171.997 258.151C172.034 258.329 172.124 258.492 172.256 258.62C172.387 258.748 172.555 258.834 172.737 258.869C172.92 258.903 173.108 258.884 173.279 258.813C173.45 258.743 173.596 258.625 173.698 258.473C173.8 258.322 173.854 258.144 173.852 257.963C173.852 257.843 173.828 257.724 173.781 257.614C173.734 257.503 173.665 257.403 173.578 257.318C173.49 257.234 173.387 257.167 173.273 257.122C173.16 257.077 173.038 257.054 172.915 257.055Z" fill="#263238"/>
<path d="M172.915 262.98C172.73 262.98 172.549 263.034 172.395 263.134C172.241 263.235 172.121 263.378 172.05 263.545C171.979 263.712 171.96 263.896 171.997 264.074C172.033 264.251 172.122 264.414 172.253 264.542C172.384 264.67 172.551 264.757 172.733 264.792C172.914 264.828 173.103 264.81 173.274 264.74C173.445 264.671 173.592 264.554 173.695 264.403C173.797 264.253 173.852 264.076 173.852 263.895C173.853 263.775 173.83 263.655 173.783 263.544C173.736 263.432 173.667 263.331 173.58 263.246C173.493 263.161 173.389 263.093 173.275 263.048C173.161 263.002 173.039 262.979 172.915 262.98Z" fill="#263238"/>
<path d="M172.915 268.905C172.73 268.905 172.549 268.959 172.395 269.059C172.241 269.16 172.121 269.303 172.05 269.47C171.979 269.637 171.96 269.821 171.997 269.999C172.033 270.176 172.122 270.339 172.253 270.467C172.384 270.595 172.551 270.682 172.733 270.718C172.914 270.753 173.103 270.735 173.274 270.666C173.445 270.596 173.592 270.479 173.695 270.329C173.798 270.178 173.852 270.001 173.852 269.82C173.852 269.578 173.754 269.345 173.578 269.173C173.402 269.002 173.164 268.905 172.915 268.905Z" fill="#263238"/>
<path d="M172.915 274.83C172.73 274.83 172.549 274.884 172.395 274.984C172.241 275.085 172.121 275.228 172.05 275.395C171.979 275.562 171.96 275.746 171.997 275.924C172.033 276.101 172.122 276.264 172.253 276.392C172.384 276.52 172.551 276.607 172.733 276.643C172.914 276.678 173.103 276.66 173.274 276.59C173.445 276.521 173.592 276.404 173.695 276.253C173.798 276.103 173.852 275.926 173.852 275.745C173.852 275.502 173.754 275.27 173.578 275.098C173.402 274.926 173.164 274.83 172.915 274.83Z" fill="#263238"/>
<path d="M172.915 280.755C172.73 280.755 172.549 280.809 172.395 280.91C172.241 281.01 172.121 281.153 172.05 281.32C171.979 281.487 171.96 281.671 171.997 281.849C172.033 282.026 172.122 282.189 172.253 282.317C172.384 282.445 172.551 282.532 172.733 282.568C172.914 282.603 173.103 282.585 173.274 282.516C173.445 282.446 173.592 282.329 173.695 282.179C173.798 282.028 173.852 281.851 173.852 281.67C173.852 281.428 173.754 281.195 173.578 281.023C173.402 280.852 173.164 280.755 172.915 280.755Z" fill="#263238"/>
<path d="M172.916 286.688C172.732 286.689 172.553 286.743 172.402 286.844C172.25 286.945 172.132 287.087 172.063 287.253C171.994 287.419 171.976 287.601 172.013 287.777C172.05 287.952 172.139 288.113 172.269 288.239C172.399 288.366 172.565 288.451 172.745 288.486C172.925 288.52 173.111 288.502 173.281 288.433C173.45 288.364 173.595 288.248 173.697 288.098C173.798 287.949 173.853 287.774 173.853 287.595C173.853 287.475 173.828 287.357 173.781 287.246C173.734 287.135 173.665 287.035 173.578 286.951C173.491 286.866 173.387 286.8 173.274 286.754C173.16 286.709 173.038 286.687 172.916 286.688Z" fill="#263238"/>
<path d="M176.233 161.1C176.746 161.1 177.162 160.694 177.162 160.193C177.162 159.691 176.746 159.285 176.233 159.285C175.72 159.285 175.304 159.691 175.304 160.193C175.304 160.694 175.72 161.1 176.233 161.1Z" fill="#263238"/>
<path d="M176.233 165.203C176.048 165.203 175.866 165.256 175.712 165.357C175.558 165.457 175.438 165.6 175.367 165.767C175.296 165.935 175.278 166.119 175.314 166.296C175.35 166.474 175.439 166.637 175.57 166.765C175.701 166.893 175.868 166.98 176.05 167.015C176.232 167.05 176.42 167.032 176.591 166.963C176.763 166.894 176.909 166.776 177.012 166.626C177.115 166.476 177.17 166.299 177.17 166.118C177.17 165.875 177.071 165.642 176.895 165.471C176.72 165.299 176.481 165.203 176.233 165.203Z" fill="#263238"/>
<path d="M176.233 172.95C176.746 172.95 177.162 172.544 177.162 172.043C177.162 171.542 176.746 171.135 176.233 171.135C175.72 171.135 175.304 171.542 175.304 172.043C175.304 172.544 175.72 172.95 176.233 172.95Z" fill="#263238"/>
<path d="M176.233 178.875C176.746 178.875 177.162 178.469 177.162 177.968C177.162 177.466 176.746 177.06 176.233 177.06C175.72 177.06 175.304 177.466 175.304 177.968C175.304 178.469 175.72 178.875 176.233 178.875Z" fill="#263238"/>
<path d="M176.233 183C176.047 183 175.866 183.054 175.711 183.155C175.557 183.256 175.437 183.399 175.366 183.567C175.296 183.734 175.278 183.919 175.314 184.096C175.351 184.274 175.441 184.437 175.573 184.565C175.705 184.692 175.873 184.779 176.055 184.813C176.237 184.848 176.426 184.829 176.597 184.758C176.768 184.688 176.914 184.569 177.016 184.418C177.118 184.266 177.171 184.089 177.17 183.908C177.17 183.788 177.146 183.669 177.098 183.558C177.051 183.448 176.982 183.348 176.895 183.263C176.808 183.179 176.704 183.112 176.591 183.067C176.477 183.022 176.356 182.999 176.233 183Z" fill="#263238"/>
<path d="M176.233 190.725C176.746 190.725 177.162 190.319 177.162 189.818C177.162 189.316 176.746 188.91 176.233 188.91C175.72 188.91 175.304 189.316 175.304 189.818C175.304 190.319 175.72 190.725 176.233 190.725Z" fill="#263238"/>
<path d="M176.233 194.835C176.047 194.835 175.866 194.889 175.711 194.99C175.557 195.091 175.437 195.234 175.366 195.402C175.296 195.569 175.278 195.754 175.314 195.931C175.351 196.109 175.441 196.272 175.573 196.4C175.705 196.527 175.873 196.614 176.055 196.648C176.237 196.683 176.426 196.664 176.597 196.593C176.768 196.523 176.914 196.404 177.016 196.253C177.118 196.101 177.171 195.924 177.17 195.742C177.17 195.623 177.146 195.504 177.098 195.393C177.051 195.283 176.982 195.183 176.895 195.098C176.808 195.014 176.704 194.947 176.591 194.902C176.477 194.857 176.356 194.834 176.233 194.835Z" fill="#263238"/>
<path d="M176.233 202.575C176.746 202.575 177.162 202.169 177.162 201.668C177.162 201.167 176.746 200.76 176.233 200.76C175.72 200.76 175.304 201.167 175.304 201.668C175.304 202.169 175.72 202.575 176.233 202.575Z" fill="#263238"/>
<path d="M176.233 208.508C176.746 208.508 177.162 208.102 177.162 207.6C177.162 207.099 176.746 206.693 176.233 206.693C175.72 206.693 175.304 207.099 175.304 207.6C175.304 208.102 175.72 208.508 176.233 208.508Z" fill="#263238"/>
<path d="M176.233 212.61C176.048 212.61 175.866 212.664 175.712 212.765C175.558 212.865 175.438 213.008 175.367 213.175C175.296 213.342 175.278 213.526 175.314 213.704C175.35 213.881 175.439 214.044 175.57 214.172C175.701 214.3 175.868 214.387 176.05 214.423C176.232 214.458 176.42 214.44 176.591 214.371C176.763 214.301 176.909 214.184 177.012 214.034C177.115 213.883 177.17 213.706 177.17 213.525C177.17 213.283 177.071 213.05 176.895 212.878C176.72 212.707 176.481 212.61 176.233 212.61Z" fill="#263238"/>
<path d="M176.233 220.357C176.746 220.357 177.162 219.951 177.162 219.45C177.162 218.949 176.746 218.542 176.233 218.542C175.72 218.542 175.304 218.949 175.304 219.45C175.304 219.951 175.72 220.357 176.233 220.357Z" fill="#263238"/>
<path d="M176.233 226.283C176.746 226.283 177.162 225.876 177.162 225.375C177.162 224.874 176.746 224.468 176.233 224.468C175.72 224.468 175.304 224.874 175.304 225.375C175.304 225.876 175.72 226.283 176.233 226.283Z" fill="#263238"/>
<path d="M176.233 232.208C176.746 232.208 177.162 231.801 177.162 231.3C177.162 230.799 176.746 230.393 176.233 230.393C175.72 230.393 175.304 230.799 175.304 231.3C175.304 231.801 175.72 232.208 176.233 232.208Z" fill="#263238"/>
<path d="M176.233 238.132C176.746 238.132 177.162 237.726 177.162 237.225C177.162 236.724 176.746 236.317 176.233 236.317C175.72 236.317 175.304 236.724 175.304 237.225C175.304 237.726 175.72 238.132 176.233 238.132Z" fill="#263238"/>
<path d="M176.233 242.25C176.047 242.25 175.866 242.304 175.711 242.405C175.557 242.506 175.437 242.649 175.366 242.817C175.296 242.984 175.278 243.169 175.314 243.346C175.351 243.524 175.441 243.687 175.573 243.815C175.705 243.942 175.873 244.029 176.055 244.063C176.237 244.098 176.426 244.079 176.597 244.008C176.768 243.938 176.914 243.819 177.016 243.668C177.118 243.516 177.171 243.339 177.17 243.158C177.17 243.038 177.146 242.919 177.098 242.808C177.051 242.698 176.982 242.598 176.895 242.513C176.808 242.429 176.704 242.362 176.591 242.317C176.477 242.272 176.356 242.249 176.233 242.25Z" fill="#263238"/>
<path d="M176.233 249.982C176.746 249.982 177.162 249.576 177.162 249.075C177.162 248.574 176.746 248.167 176.233 248.167C175.72 248.167 175.304 248.574 175.304 249.075C175.304 249.576 175.72 249.982 176.233 249.982Z" fill="#263238"/>
<path d="M176.233 254.093C176.047 254.093 175.866 254.147 175.711 254.248C175.557 254.348 175.437 254.492 175.366 254.659C175.296 254.827 175.278 255.011 175.314 255.189C175.351 255.367 175.441 255.53 175.573 255.657C175.705 255.785 175.873 255.872 176.055 255.906C176.237 255.941 176.426 255.921 176.597 255.851C176.768 255.781 176.914 255.662 177.016 255.511C177.118 255.359 177.171 255.182 177.17 255C177.17 254.88 177.146 254.762 177.098 254.651C177.051 254.541 176.982 254.44 176.895 254.356C176.808 254.272 176.704 254.205 176.591 254.16C176.477 254.115 176.356 254.092 176.233 254.093Z" fill="#263238"/>
<path d="M176.233 260.018C176.048 260.018 175.866 260.071 175.712 260.172C175.558 260.272 175.438 260.415 175.367 260.582C175.296 260.75 175.278 260.934 175.314 261.111C175.35 261.289 175.439 261.452 175.57 261.58C175.701 261.708 175.868 261.795 176.05 261.83C176.232 261.865 176.42 261.847 176.591 261.778C176.763 261.709 176.909 261.591 177.012 261.441C177.115 261.29 177.17 261.114 177.17 260.933C177.171 260.812 177.147 260.693 177.101 260.581C177.054 260.47 176.985 260.369 176.898 260.283C176.81 260.198 176.707 260.131 176.593 260.085C176.479 260.04 176.356 260.017 176.233 260.018Z" fill="#263238"/>
<path d="M176.233 267.765C176.746 267.765 177.162 267.359 177.162 266.858C177.162 266.357 176.746 265.95 176.233 265.95C175.72 265.95 175.304 266.357 175.304 266.858C175.304 267.359 175.72 267.765 176.233 267.765Z" fill="#263238"/>
<path d="M176.233 271.868C176.048 271.868 175.866 271.921 175.712 272.022C175.558 272.122 175.438 272.265 175.367 272.433C175.296 272.6 175.278 272.784 175.314 272.961C175.35 273.139 175.439 273.302 175.57 273.43C175.701 273.558 175.868 273.645 176.05 273.68C176.232 273.715 176.42 273.697 176.591 273.628C176.763 273.559 176.909 273.442 177.012 273.291C177.115 273.141 177.17 272.964 177.17 272.783C177.17 272.54 177.071 272.307 176.895 272.136C176.72 271.964 176.481 271.868 176.233 271.868Z" fill="#263238"/>
<path d="M176.233 279.615C176.746 279.615 177.162 279.209 177.162 278.708C177.162 278.207 176.746 277.8 176.233 277.8C175.72 277.8 175.304 278.207 175.304 278.708C175.304 279.209 175.72 279.615 176.233 279.615Z" fill="#263238"/>
<path d="M176.233 285.54C176.746 285.54 177.162 285.134 177.162 284.633C177.162 284.131 176.746 283.725 176.233 283.725C175.72 283.725 175.304 284.131 175.304 284.633C175.304 285.134 175.72 285.54 176.233 285.54Z" fill="#263238"/>
<path d="M179.558 158.138C179.744 158.138 179.925 158.084 180.079 157.983C180.234 157.882 180.354 157.739 180.424 157.571C180.495 157.403 180.513 157.219 180.476 157.041C180.44 156.864 180.35 156.701 180.218 156.573C180.086 156.445 179.918 156.359 179.736 156.324C179.554 156.29 179.365 156.309 179.194 156.379C179.023 156.45 178.877 156.568 178.775 156.72C178.673 156.871 178.62 157.049 178.621 157.23C178.621 157.35 178.645 157.469 178.693 157.579C178.74 157.69 178.809 157.79 178.896 157.874C178.983 157.959 179.086 158.026 179.2 158.071C179.314 158.116 179.435 158.139 179.558 158.138Z" fill="#263238"/>
<path d="M179.558 164.063C180.071 164.063 180.487 163.656 180.487 163.155C180.487 162.654 180.071 162.248 179.558 162.248C179.045 162.248 178.629 162.654 178.629 163.155C178.629 163.656 179.045 164.063 179.558 164.063Z" fill="#263238"/>
<path d="M179.558 169.987C180.071 169.987 180.487 169.581 180.487 169.08C180.487 168.579 180.071 168.172 179.558 168.172C179.045 168.172 178.629 168.579 178.629 169.08C178.629 169.581 179.045 169.987 179.558 169.987Z" fill="#263238"/>
<path d="M179.559 174.09C179.373 174.089 179.191 174.141 179.036 174.241C178.881 174.341 178.76 174.483 178.688 174.65C178.616 174.817 178.596 175.001 178.631 175.179C178.667 175.357 178.755 175.521 178.886 175.65C179.017 175.778 179.184 175.866 179.366 175.902C179.548 175.938 179.736 175.92 179.908 175.851C180.08 175.782 180.226 175.665 180.33 175.514C180.433 175.364 180.488 175.187 180.488 175.005C180.488 174.764 180.391 174.532 180.216 174.361C180.042 174.19 179.806 174.092 179.559 174.09Z" fill="#263238"/>
<path d="M179.558 181.837C180.071 181.837 180.487 181.431 180.487 180.93C180.487 180.429 180.071 180.022 179.558 180.022C179.045 180.022 178.629 180.429 178.629 180.93C178.629 181.431 179.045 181.837 179.558 181.837Z" fill="#263238"/>
<path d="M179.559 185.948C179.373 185.946 179.191 185.999 179.035 186.099C178.88 186.199 178.759 186.342 178.687 186.509C178.615 186.677 178.596 186.861 178.632 187.039C178.668 187.218 178.757 187.381 178.889 187.51C179.02 187.638 179.188 187.725 179.37 187.761C179.553 187.796 179.742 187.777 179.913 187.707C180.085 187.636 180.231 187.518 180.333 187.366C180.436 187.215 180.49 187.037 180.488 186.855C180.488 186.615 180.39 186.384 180.216 186.214C180.042 186.043 179.805 185.948 179.559 185.948Z" fill="#263238"/>
<path d="M179.559 191.873C179.371 191.87 179.187 191.922 179.03 192.022C178.874 192.123 178.751 192.267 178.679 192.436C178.607 192.605 178.589 192.792 178.626 192.971C178.664 193.151 178.756 193.315 178.89 193.443C179.025 193.571 179.195 193.656 179.38 193.688C179.564 193.72 179.755 193.698 179.926 193.623C180.097 193.549 180.242 193.426 180.341 193.27C180.439 193.114 180.488 192.933 180.481 192.75C180.473 192.516 180.372 192.294 180.201 192.13C180.029 191.967 179.799 191.874 179.559 191.873Z" fill="#263238"/>
<path d="M179.558 199.613C180.071 199.613 180.487 199.207 180.487 198.705C180.487 198.204 180.071 197.798 179.558 197.798C179.045 197.798 178.629 198.204 178.629 198.705C178.629 199.207 179.045 199.613 179.558 199.613Z" fill="#263238"/>
<path d="M179.559 203.723C179.373 203.721 179.191 203.774 179.035 203.874C178.88 203.974 178.759 204.117 178.687 204.284C178.615 204.452 178.596 204.636 178.632 204.814C178.668 204.993 178.757 205.156 178.889 205.285C179.02 205.413 179.188 205.5 179.37 205.535C179.553 205.571 179.742 205.552 179.913 205.482C180.085 205.411 180.231 205.293 180.333 205.141C180.436 204.99 180.49 204.812 180.488 204.63C180.488 204.389 180.39 204.159 180.216 203.988C180.042 203.818 179.805 203.723 179.559 203.723Z" fill="#263238"/>
<path d="M179.558 211.47C180.071 211.47 180.487 211.064 180.487 210.563C180.487 210.062 180.071 209.655 179.558 209.655C179.045 209.655 178.629 210.062 178.629 210.563C178.629 211.064 179.045 211.47 179.558 211.47Z" fill="#263238"/>
<path d="M179.559 215.573C179.373 215.571 179.191 215.624 179.036 215.723C178.881 215.823 178.76 215.965 178.688 216.132C178.616 216.299 178.596 216.484 178.631 216.662C178.667 216.84 178.755 217.003 178.886 217.132C179.017 217.261 179.184 217.349 179.366 217.385C179.548 217.421 179.736 217.403 179.908 217.334C180.08 217.265 180.226 217.148 180.33 216.997C180.433 216.846 180.488 216.669 180.488 216.488C180.488 216.246 180.391 216.015 180.216 215.843C180.042 215.672 179.806 215.575 179.559 215.573Z" fill="#263238"/>
<path d="M179.559 221.498C179.373 221.496 179.191 221.549 179.036 221.648C178.881 221.748 178.76 221.89 178.688 222.057C178.616 222.224 178.596 222.408 178.631 222.586C178.667 222.764 178.755 222.928 178.886 223.057C179.017 223.186 179.184 223.274 179.366 223.309C179.548 223.345 179.736 223.328 179.908 223.259C180.08 223.19 180.226 223.072 180.33 222.922C180.433 222.771 180.488 222.594 180.488 222.413C180.488 222.171 180.391 221.94 180.216 221.768C180.042 221.597 179.806 221.5 179.559 221.498Z" fill="#263238"/>
<path d="M179.558 229.245C180.071 229.245 180.487 228.839 180.487 228.338C180.487 227.836 180.071 227.43 179.558 227.43C179.045 227.43 178.629 227.836 178.629 228.338C178.629 228.839 179.045 229.245 179.558 229.245Z" fill="#263238"/>
<path d="M179.559 233.355C179.373 233.354 179.191 233.406 179.035 233.506C178.88 233.606 178.759 233.749 178.687 233.916C178.615 234.084 178.596 234.268 178.632 234.447C178.668 234.625 178.757 234.789 178.889 234.917C179.02 235.045 179.188 235.133 179.37 235.168C179.553 235.203 179.742 235.184 179.913 235.114C180.085 235.044 180.231 234.925 180.333 234.774C180.436 234.622 180.49 234.444 180.488 234.263C180.488 234.022 180.39 233.791 180.216 233.621C180.042 233.451 179.805 233.355 179.559 233.355Z" fill="#263238"/>
<path d="M179.559 239.25C179.373 239.249 179.191 239.301 179.035 239.401C178.88 239.501 178.759 239.644 178.687 239.811C178.615 239.979 178.596 240.163 178.632 240.342C178.668 240.52 178.757 240.684 178.889 240.812C179.02 240.94 179.188 241.028 179.37 241.063C179.553 241.098 179.742 241.079 179.913 241.009C180.085 240.939 180.231 240.82 180.333 240.669C180.436 240.517 180.49 240.339 180.488 240.158C180.488 239.917 180.39 239.686 180.216 239.516C180.042 239.346 179.805 239.25 179.559 239.25Z" fill="#263238"/>
<path d="M179.558 247.02C180.071 247.02 180.487 246.614 180.487 246.113C180.487 245.611 180.071 245.205 179.558 245.205C179.045 245.205 178.629 245.611 178.629 246.113C178.629 246.614 179.045 247.02 179.558 247.02Z" fill="#263238"/>
<path d="M179.559 251.13C179.373 251.128 179.191 251.181 179.035 251.281C178.88 251.381 178.759 251.524 178.687 251.691C178.615 251.859 178.596 252.043 178.632 252.222C178.668 252.4 178.757 252.563 178.889 252.692C179.02 252.82 179.188 252.908 179.37 252.943C179.553 252.978 179.742 252.959 179.913 252.889C180.085 252.819 180.231 252.7 180.333 252.549C180.436 252.397 180.49 252.219 180.488 252.037C180.488 251.797 180.39 251.566 180.216 251.396C180.042 251.226 179.805 251.13 179.559 251.13Z" fill="#263238"/>
<path d="M179.558 258.87C180.071 258.87 180.487 258.464 180.487 257.963C180.487 257.461 180.071 257.055 179.558 257.055C179.045 257.055 178.629 257.461 178.629 257.963C178.629 258.464 179.045 258.87 179.558 258.87Z" fill="#263238"/>
<path d="M179.559 262.98C179.373 262.979 179.191 263.031 179.036 263.131C178.881 263.23 178.76 263.373 178.688 263.54C178.616 263.707 178.596 263.891 178.631 264.069C178.667 264.247 178.755 264.411 178.886 264.539C179.017 264.668 179.184 264.756 179.366 264.792C179.548 264.828 179.736 264.81 179.908 264.741C180.08 264.672 180.226 264.555 180.33 264.404C180.433 264.253 180.488 264.076 180.488 263.895C180.489 263.775 180.466 263.656 180.42 263.545C180.373 263.434 180.305 263.334 180.219 263.248C180.132 263.163 180.03 263.096 179.916 263.05C179.803 263.004 179.682 262.98 179.559 262.98Z" fill="#263238"/>
<path d="M179.558 270.728C180.071 270.728 180.487 270.321 180.487 269.82C180.487 269.319 180.071 268.913 179.558 268.913C179.045 268.913 178.629 269.319 178.629 269.82C178.629 270.321 179.045 270.728 179.558 270.728Z" fill="#263238"/>
<path d="M179.558 276.653C180.071 276.653 180.487 276.247 180.487 275.745C180.487 275.244 180.071 274.838 179.558 274.838C179.045 274.838 178.629 275.244 178.629 275.745C178.629 276.247 179.045 276.653 179.558 276.653Z" fill="#263238"/>
<path d="M179.559 280.755C179.373 280.753 179.191 280.806 179.036 280.905C178.881 281.005 178.76 281.147 178.688 281.315C178.616 281.482 178.596 281.666 178.631 281.844C178.667 282.022 178.755 282.185 178.886 282.314C179.017 282.443 179.184 282.531 179.366 282.567C179.548 282.603 179.736 282.585 179.908 282.516C180.08 282.447 180.226 282.33 180.33 282.179C180.433 282.028 180.488 281.851 180.488 281.67C180.488 281.429 180.391 281.197 180.216 281.026C180.042 280.854 179.806 280.757 179.559 280.755Z" fill="#263238"/>
<path d="M179.558 288.503C180.071 288.503 180.487 288.096 180.487 287.595C180.487 287.094 180.071 286.688 179.558 286.688C179.045 286.688 178.629 287.094 178.629 287.595C178.629 288.096 179.045 288.503 179.558 288.503Z" fill="#263238"/>
<path d="M168.538 91.0953C167.831 91.0912 167.141 91.2997 166.56 91.6924C165.979 92.0852 165.536 92.6431 165.291 93.2903C165.046 93.9376 165.011 94.6428 165.19 95.3101C165.37 95.9775 165.756 96.5746 166.295 97.0203C165.756 97.466 165.37 98.0631 165.19 98.7304C165.011 99.3978 165.046 100.103 165.291 100.75C165.536 101.397 165.979 101.955 166.56 102.348C167.141 102.741 167.831 102.949 168.538 102.945H168.615C168.901 103.589 169.373 104.137 169.973 104.522C170.573 104.907 171.276 105.112 171.994 105.113C172.872 105.111 173.72 104.799 174.382 104.235V104.235C174.656 104.304 174.937 104.34 175.22 104.34" stroke="#263238" stroke-linecap="round" stroke-linejoin="round"/>
<path d="M180.619 95.4074C180.619 94.4546 180.231 93.5409 179.541 92.8672C178.851 92.1934 177.916 91.8149 176.94 91.8149C176.801 91.8226 176.663 91.8376 176.525 91.8599C176.325 91.1994 175.921 90.6149 175.369 90.1853C174.818 89.7558 174.145 89.5018 173.44 89.4576C172.736 89.4135 172.035 89.5813 171.432 89.9384C170.829 90.2956 170.352 90.8249 170.066 91.4549" stroke="#263238" stroke-linecap="round" stroke-linejoin="round"/>
<path d="M177.931 103.155C178.507 103.002 179.036 102.712 179.471 102.312C179.906 101.913 180.234 101.415 180.426 100.862C180.618 100.31 180.668 99.7197 180.571 99.1439C180.475 98.5681 180.236 98.0242 179.874 97.5601" stroke="#263238" stroke-linecap="round" stroke-linejoin="round"/>
<path d="M195.887 94.0053C196.212 94.0802 196.544 94.1205 196.877 94.1253C197.483 94.1225 198.082 93.9971 198.636 93.757C199.19 93.5169 199.687 93.1673 200.095 92.7303C200.781 92.5472 201.41 92.2024 201.928 91.7262C202.445 91.2499 202.835 90.6568 203.062 89.999C203.29 89.3413 203.348 88.639 203.233 87.9539C203.117 87.2689 202.831 86.622 202.399 86.0703" stroke="#263238" stroke-linecap="round" stroke-linejoin="round"/>
<path d="M184.812 88.4551C184.812 89.5212 185.245 90.5438 186.017 91.2977C186.789 92.0515 187.836 92.4751 188.928 92.4751H189.02C189.357 93.2429 189.917 93.8974 190.631 94.3573C191.345 94.8173 192.181 95.0625 193.037 95.0626" stroke="#263238" stroke-linecap="round" stroke-linejoin="round"/>
<path d="M203.313 83.5052C203.313 82.3714 202.852 81.2841 202.031 80.4823C201.21 79.6806 200.097 79.2302 198.936 79.2302C198.759 79.2302 198.598 79.2302 198.436 79.2752C198.196 78.4906 197.715 77.7968 197.059 77.2872C196.403 76.7777 195.602 76.4769 194.765 76.4254C193.928 76.3739 193.095 76.5742 192.378 76.9993C191.662 77.4243 191.096 78.0538 190.756 78.8027C190.193 78.5209 189.569 78.3719 188.936 78.3677C188.095 78.3642 187.273 78.6132 186.582 79.0811C185.891 79.549 185.364 80.2132 185.072 80.9835C184.78 81.7539 184.738 82.5932 184.951 83.3877C185.164 84.1822 185.623 84.8935 186.264 85.4252" stroke="#263238" stroke-linecap="round" stroke-linejoin="round"/>
<path d="M164.583 72.9453C164.63 73.8971 164.949 74.8171 165.504 75.6012C166.058 76.3852 166.827 77.0021 167.721 77.3821C168.616 77.7621 169.602 77.89 170.568 77.7514C171.533 77.6128 172.44 77.2132 173.185 76.5978C173.331 76.4653 173.469 76.3251 173.599 76.1778" stroke="#263238" stroke-linecap="round" stroke-linejoin="round"/>
<path d="M163.3 61.3877C162.744 61.8431 162.291 62.4075 161.973 63.0445C161.654 63.6814 161.476 64.3767 161.449 65.0852C160.803 66.0032 160.481 67.1026 160.534 68.2156C160.587 69.3287 161.011 70.3943 161.741 71.2502" stroke="#263238" stroke-linecap="round" stroke-linejoin="round"/>
<path d="M179.935 61.3651C180.101 60.3958 179.959 59.3999 179.527 58.512C179.096 57.624 178.395 56.8869 177.521 56.4002C176.647 55.9136 175.64 55.7008 174.638 55.7906C173.636 55.8805 172.686 56.2686 171.917 56.9026L171.84 56.9776C171.105 56.6127 170.293 56.4228 169.469 56.4232C168.645 56.4237 167.833 56.6146 167.099 56.9804C166.364 57.3461 165.729 57.8763 165.245 58.5276C164.761 59.1788 164.442 59.9327 164.313 60.7276V60.7276" stroke="#263238" stroke-linecap="round" stroke-linejoin="round"/>
<path d="M175.588 76.92C176.275 77.0261 176.978 76.9866 177.649 76.8042C178.319 76.6217 178.942 76.3006 179.474 75.8625C180.202 75.2595 180.735 74.4627 181.008 73.5691C181.28 72.6756 181.281 71.7239 181.01 70.83C181.749 70.6628 182.439 70.3289 183.022 69.855C184.015 69.036 184.637 67.8667 184.75 66.6021C184.864 65.3375 184.461 64.0804 183.629 63.105" stroke="#263238" stroke-linecap="round" stroke-linejoin="round"/>
</svg>
