<svg width="20" height="20" viewBox="0 0 20 20" fill="none" xmlns="http://www.w3.org/2000/svg">
<path d="M7.57537 16.568C7.47294 16.3367 7.29447 16.3133 7.22224 16.3133C7.15002 16.3133 6.97155 16.3363 6.87433 16.5551L6.60801 17.1543C6.38683 17.6535 5.73891 17.5984 5.58439 17.0727L5.00002 15.1012L4.63161 16.3465C4.4271 17.0363 3.85453 17.5 3.208 17.5H2.77779C2.47084 17.5 2.22223 17.2203 2.22223 16.875C2.22223 16.5297 2.47084 16.25 2.77779 16.25H3.208C3.3757 16.25 3.52432 16.1297 3.57744 15.9508L4.20904 13.8164C4.32362 13.4332 4.64099 13.1754 5.00002 13.1754C5.35904 13.1754 5.67641 13.4328 5.79064 13.8164L6.27259 15.443C6.95835 14.8105 8.14968 15.0641 8.56426 15.9961C8.62989 16.1437 8.75489 16.2285 8.88926 16.2406V13.0328L13.3337 8.06836V6.25H8.61114C8.1528 6.25 7.7778 5.82812 7.7778 5.3125V0H0.833336C0.371529 0 0 0.417969 0 0.9375V19.0625C0 19.582 0.371529 20 0.833336 20H12.5C12.9618 20 13.3334 19.582 13.3334 19.0625V17.5L8.88892 17.4957C8.32919 17.4836 7.82711 17.1332 7.57537 16.568ZM13.3334 4.76172C13.3334 4.51562 13.2466 4.27734 13.0903 4.10156L9.691 0.273438C9.53475 0.0976562 9.32295 0 9.10072 0H8.88892V5H13.3334V4.76172ZM10 13.5531V16.25H12.3955L18.0094 9.89141L15.6525 7.23984L10 13.5531ZM19.741 6.53633L18.6344 5.29141C18.2893 4.90313 17.7292 4.90313 17.3841 5.29141L16.4379 6.35586L18.7948 9.00742L19.741 7.94297C20.0865 7.55469 20.0865 6.92461 19.741 6.53633Z" fill="white"/>
</svg>
