<svg width="359" height="349" viewBox="0 0 359 349" fill="none" xmlns="http://www.w3.org/2000/svg">
<path d="M236.1 40.5259C236.1 40.5259 179.134 18.7692 124.652 49.4742C70.17 80.1792 43.9989 143.355 21.4178 193.918C-1.16329 244.481 14.0942 296.95 57.0163 321.848C99.9383 346.745 127.718 312.509 186.974 312.411C246.231 312.313 262.407 321.296 310.678 288.846C358.95 256.396 365.641 176.852 325.196 116.761C284.751 56.6706 236.1 40.5259 236.1 40.5259Z" fill="#5B8FEB"/>
<path opacity="0.7" d="M236.1 40.5259C236.1 40.5259 179.134 18.7692 124.652 49.4742C70.17 80.1792 43.9989 143.355 21.4178 193.918C-1.16329 244.481 14.0942 296.95 57.0163 321.848C99.9383 346.745 127.718 312.509 186.974 312.411C246.231 312.313 262.407 321.296 310.678 288.846C358.95 256.396 365.641 176.852 325.196 116.761C284.751 56.6706 236.1 40.5259 236.1 40.5259Z" fill="white"/>
<path d="M89.5775 19.5791C104.903 19.5791 119.601 25.4975 130.437 36.0324C141.274 46.5673 147.362 60.8556 147.362 75.7541V277.804H31.7642V75.7541C31.7642 60.8556 37.8522 46.5673 48.6889 36.0324C59.5256 25.4975 74.2234 19.5791 89.5488 19.5791H89.5775Z" stroke="#263238" stroke-linecap="round" stroke-linejoin="round"/>
<path d="M44.8462 277.197V77.569C44.8462 66.0354 49.5587 54.974 57.9473 46.8178C66.3358 38.6616 77.7134 34.0785 89.5776 34.0767V34.0767C101.443 34.0767 112.822 38.6589 121.213 46.8153C129.603 54.9717 134.316 66.0341 134.316 77.569V277.197" stroke="#263238" stroke-linecap="round" stroke-linejoin="round"/>
<path d="M89.5776 19.5791V277.504" stroke="#263238" stroke-linecap="round" stroke-linejoin="round"/>
<path d="M32.4175 69.2627H146.587" stroke="#263238" stroke-linecap="round" stroke-linejoin="round"/>
<path d="M32.4175 104.295H146.587" stroke="#263238" stroke-linecap="round" stroke-linejoin="round"/>
<path d="M32.4175 139.328H146.587" stroke="#263238" stroke-linecap="round" stroke-linejoin="round"/>
<path d="M32.4175 174.368H146.587" stroke="#263238" stroke-linecap="round" stroke-linejoin="round"/>
<path d="M32.4175 209.4H146.587" stroke="#263238" stroke-linecap="round" stroke-linejoin="round"/>
<path d="M32.4175 244.433H146.587" stroke="#263238" stroke-linecap="round" stroke-linejoin="round"/>
<path d="M47.6821 37.1128L58.0357 46.2775" stroke="#263238" stroke-linecap="round" stroke-linejoin="round"/>
<path d="M131.042 37.1128L120.688 46.2775" stroke="#263238" stroke-linecap="round" stroke-linejoin="round"/>
<path d="M331.012 28.4434H216.836V179.63H331.012V28.4434Z" stroke="#263238" stroke-linecap="round" stroke-linejoin="round"/>
<path d="M323.279 34.8091H224.569V173.257H323.279V34.8091Z" stroke="#263238" stroke-linecap="round" stroke-linejoin="round"/>
<path d="M323.28 43.2757C321.664 42.8848 304.353 38.969 300.44 48.0919C296.34 57.6615 323.416 82.3846 308.647 102.326C293.878 122.268 252.033 91.9612 245.463 107.91C238.893 123.86 239.719 145.393 228.231 149.386C227.033 149.794 225.803 150.111 224.555 150.335V173.299H323.28V43.2757Z" stroke="#263238" stroke-miterlimit="10"/>
<path d="M249.01 34.8091C256.441 38.7877 261.934 44.5322 256.139 52.0427C243.833 67.999 225.782 77.5686 237.27 86.3424C248.758 95.1163 279.108 87.9478 274.994 63.2107C272.725 49.5369 272.718 40.7491 274.829 34.8091H249.01Z" stroke="#263238" stroke-miterlimit="10"/>
<path d="M275.56 150.587C283.287 147.428 286.917 138.777 283.667 131.265C280.417 123.753 271.519 120.224 263.791 123.384C256.064 126.543 252.434 135.194 255.684 142.706C258.934 150.218 267.833 153.746 275.56 150.587Z" stroke="#263238" stroke-miterlimit="10"/>
<path d="M317.672 123.427C317.672 124.61 317.311 125.767 316.635 126.751C315.959 127.734 314.998 128.501 313.873 128.954C312.749 129.406 311.512 129.525 310.318 129.294C309.124 129.063 308.028 128.494 307.167 127.657C306.307 126.82 305.721 125.755 305.483 124.594C305.246 123.434 305.368 122.231 305.834 121.138C306.299 120.045 307.088 119.111 308.1 118.453C309.112 117.796 310.301 117.445 311.518 117.445C313.15 117.445 314.716 118.076 315.87 119.197C317.023 120.319 317.672 121.841 317.672 123.427V123.427Z" stroke="#263238" stroke-miterlimit="10"/>
<path d="M257.762 74.3786C257.762 75.3259 257.473 76.252 256.932 77.0396C256.39 77.8272 255.62 78.4409 254.72 78.8031C253.819 79.1653 252.829 79.2597 251.873 79.0744C250.917 78.8891 250.04 78.4323 249.351 77.762C248.663 77.0916 248.194 76.2378 248.005 75.3085C247.816 74.3792 247.914 73.4162 248.288 72.5414C248.662 71.6666 249.294 70.9192 250.105 70.3939C250.916 69.8686 251.869 69.589 252.844 69.5903C253.49 69.5903 254.13 69.7142 254.728 69.955C255.325 70.1957 255.867 70.5485 256.324 70.9932C256.781 71.4379 257.143 71.9659 257.39 72.5468C257.637 73.1277 257.763 73.7501 257.762 74.3786Z" stroke="#263238" stroke-miterlimit="10"/>
<path d="M310.973 288.637C312.514 287.585 314.017 286.487 315.482 285.342C313.778 286.153 312.248 287.271 310.973 288.637Z" fill="#263238"/>
<path d="M325.154 270.615C322.353 269.219 317.349 271.801 315.36 273.721C315.231 273.846 313.967 275.382 313.285 276.241C313.45 275.208 313.622 274.147 313.759 273.128C314.147 270.098 314.441 267.02 314.75 263.949C314.843 263.007 314.944 262.071 315.051 261.157C315.453 261.303 320.235 263.034 322.59 262.874C324.68 262.727 327.308 261.98 328.514 260.173C328.814 259.757 329.02 259.285 329.12 258.787C329.219 258.288 329.21 257.775 329.092 257.281C328.974 256.786 328.75 256.322 328.436 255.917C328.121 255.512 327.722 255.176 327.264 254.931C324.471 253.535 319.46 256.11 317.471 258.037C317.32 258.183 315.504 260.396 315.066 260.982C315.288 258.888 315.532 256.864 315.855 254.847C316.28 252.122 316.887 249.427 317.672 246.778C317.859 246.848 322.842 248.677 325.254 248.509C327.343 248.369 329.971 247.623 331.178 245.815C331.479 245.399 331.686 244.926 331.786 244.427C331.886 243.928 331.877 243.414 331.759 242.919C331.642 242.424 331.418 241.958 331.102 241.553C330.786 241.147 330.387 240.811 329.928 240.566C327.135 239.17 322.131 241.752 320.135 243.672C320.005 243.798 318.62 245.487 317.981 246.303L317.823 246.22C318.688 243.571 319.791 241.002 321.118 238.542C321.836 237.181 322.597 235.917 323.366 234.71C324.263 235.142 328.392 237.076 330.546 237.16C332.7 237.243 335.335 236.783 336.742 235.114C337.087 234.733 337.345 234.286 337.5 233.801C337.655 233.316 337.704 232.805 337.643 232.301C337.582 231.797 337.413 231.311 337.146 230.875C336.88 230.438 336.522 230.061 336.096 229.768C333.475 228.079 328.198 230.11 326.044 231.806C325.922 231.904 324.816 232.972 324.026 233.767C324.378 233.223 324.744 232.657 325.089 232.148C326.403 230.221 327.731 228.539 328.916 227.053C329.598 226.215 330.23 225.475 330.833 224.784C331.939 224.784 336.383 224.63 338.329 223.744C340.275 222.858 342.4 221.259 342.859 219.151C342.984 218.658 343 218.145 342.908 217.645C342.815 217.145 342.615 216.67 342.322 216.25C342.028 215.83 341.646 215.475 341.202 215.207C340.758 214.94 340.261 214.766 339.743 214.698C336.62 214.37 332.908 218.537 331.766 221.029C331.666 221.245 330.517 224.784 330.574 224.784H330.646C330.05 225.44 329.426 226.145 328.758 226.927C327.537 228.393 326.166 230.047 324.802 231.953C323.314 233.993 321.945 236.114 320.702 238.304C319.304 240.757 318.133 243.327 317.205 245.982C317.201 246.015 317.201 246.048 317.205 246.08C317.205 245.18 317.205 242.681 317.155 242.485C316.796 239.777 314.463 234.758 311.368 234.2C310.851 234.12 310.322 234.147 309.817 234.279C309.311 234.41 308.84 234.644 308.433 234.965C308.027 235.286 307.695 235.686 307.458 236.14C307.221 236.594 307.086 237.091 307.06 237.599C306.88 239.756 308.496 241.906 310.047 243.26C311.813 244.796 316.71 246.275 317.098 246.394C316.222 249.114 315.532 251.886 315.03 254.693C314.728 256.334 314.477 257.988 314.254 259.649C314.254 258.874 314.254 258.183 314.211 258.086C313.845 255.377 311.512 250.359 308.424 249.8C307.907 249.72 307.378 249.747 306.871 249.879C306.365 250.012 305.894 250.246 305.487 250.568C305.081 250.889 304.748 251.29 304.512 251.745C304.276 252.2 304.141 252.698 304.116 253.207C303.937 255.356 305.552 257.506 307.103 258.867C308.654 260.229 312.847 261.59 313.938 261.932C313.859 262.567 313.773 263.209 313.694 263.844C313.314 266.915 312.976 269.973 312.502 272.967C312.344 274.021 312.151 275.061 311.957 276.087C311.957 275.389 311.957 274.824 311.921 274.733C311.562 272.025 309.228 267.006 306.134 266.448C305.616 266.368 305.087 266.395 304.581 266.527C304.075 266.659 303.603 266.893 303.197 267.215C302.79 267.536 302.458 267.938 302.222 268.392C301.985 268.847 301.851 269.345 301.826 269.854C301.646 272.004 303.262 274.154 304.813 275.515C306.363 276.876 310.147 278.104 311.454 278.516C311.224 279.57 310.995 280.61 310.736 281.636C310.535 282.334 310.384 282.997 310.147 283.674C309.91 284.351 309.702 285.021 309.48 285.685C309.006 286.941 308.525 288.246 308.044 289.468C307.828 290.012 307.613 290.529 307.397 291.052L309.853 289.433C310.241 288.365 310.621 287.29 311.016 286.145C311.224 285.447 311.433 284.805 311.641 284.121C311.849 283.437 312.007 282.725 312.201 282.027C312.603 280.373 312.919 278.677 313.228 276.96C314.362 277.364 318.419 278.732 320.515 278.593C321.678 278.516 322.82 278.257 323.897 277.825C324.974 276.715 326.051 275.585 327.035 274.419C327.191 273.672 327.092 272.896 326.753 272.209C326.413 271.522 325.851 270.962 325.154 270.615Z" fill="#263238"/>
<path d="M307.455 288.637C307.421 286.238 306.753 283.887 305.516 281.811C305.525 281.542 305.508 281.273 305.466 281.008C305.401 280.504 305.227 280.019 304.956 279.585C304.685 279.151 304.323 278.777 303.893 278.488C303.464 278.199 302.977 278.001 302.463 277.907C301.95 277.814 301.422 277.826 300.914 277.944C297.877 278.725 295.952 283.912 295.809 286.634C295.809 286.794 295.909 288.553 295.996 289.656C295.838 289.014 295.701 288.393 295.536 287.73C295.213 286.424 294.861 285.126 294.481 283.737L293.849 281.713C293.655 281.015 293.361 280.317 293.131 279.619C292.528 278.02 291.838 276.436 291.113 274.845C292.284 274.572 296.448 273.539 298.121 272.297C299.794 271.054 301.546 269.023 301.531 266.866C301.545 266.359 301.449 265.854 301.249 265.385C301.049 264.916 300.749 264.494 300.37 264.145C299.991 263.796 299.54 263.528 299.047 263.36C298.555 263.191 298.031 263.126 297.511 263.167C294.387 263.495 291.673 268.332 291.106 271.006C291.07 271.173 290.883 273.134 290.804 274.216C290.359 273.267 289.921 272.311 289.433 271.368C288.04 268.632 286.561 265.903 285.053 263.181C284.594 262.343 284.156 261.506 283.703 260.675C284.127 260.577 289.096 259.454 290.97 258.058C292.621 256.864 294.38 254.819 294.38 252.676C294.395 252.169 294.3 251.664 294.1 251.195C293.901 250.725 293.602 250.302 293.224 249.952C292.845 249.603 292.395 249.335 291.903 249.165C291.41 248.996 290.887 248.929 290.366 248.97C287.236 249.305 284.522 254.142 283.955 256.815C283.955 257.018 283.653 259.838 283.624 260.563C282.641 258.721 281.671 256.871 280.803 255.021C279.608 252.53 278.581 249.965 277.73 247.343C277.931 247.301 283.122 246.15 285.039 244.719C286.705 243.483 288.471 241.452 288.457 239.295C288.47 238.788 288.374 238.283 288.174 237.813C287.974 237.344 287.675 236.921 287.295 236.571C286.916 236.222 286.466 235.954 285.973 235.785C285.48 235.615 284.957 235.549 284.436 235.589C281.312 235.924 278.598 240.761 278.031 243.435C278.031 243.609 277.794 245.759 277.722 246.785H277.543C276.757 244.118 276.221 241.387 275.942 238.625C275.77 237.104 275.683 235.645 275.64 234.221C276.631 234.102 281.155 233.523 283.021 232.42C284.888 231.317 286.798 229.53 287.028 227.388C287.099 226.883 287.059 226.371 286.913 225.882C286.766 225.394 286.515 224.941 286.176 224.553C285.838 224.165 285.419 223.851 284.947 223.631C284.475 223.411 283.961 223.29 283.438 223.276C280.293 223.276 277.055 227.792 276.186 230.389C276.136 230.529 275.827 232.015 275.612 233.104C275.612 232.462 275.576 231.799 275.576 231.185C275.576 228.874 275.734 226.752 275.884 224.903C275.978 223.842 276.085 222.878 276.193 221.978C277.098 221.371 280.738 218.879 281.858 217.092C282.978 215.305 283.84 212.841 283.021 210.81C282.846 210.332 282.57 209.895 282.21 209.527C281.85 209.16 281.414 208.87 280.931 208.676C280.449 208.483 279.93 208.39 279.408 208.404C278.886 208.418 278.373 208.539 277.902 208.758C275.109 210.154 274.377 215.633 274.836 218.32C274.879 218.558 275.935 222.125 275.978 222.09L276.035 222.055C275.913 222.92 275.791 223.842 275.676 224.847C275.49 226.724 275.288 228.839 275.231 231.164C275.146 233.662 275.209 236.162 275.418 238.653C275.643 241.446 276.123 244.214 276.854 246.925C276.854 246.959 276.854 246.987 276.854 247.022C276.358 246.268 274.908 244.195 274.779 244.049C272.941 241.99 268.144 239.051 265.251 240.245C264.776 240.456 264.352 240.761 264.006 241.142C263.661 241.523 263.402 241.97 263.246 242.455C263.09 242.94 263.041 243.451 263.102 243.955C263.163 244.459 263.332 244.946 263.599 245.382C264.669 247.274 267.189 248.174 269.3 248.502C271.641 248.837 276.566 247.448 276.961 247.336C277.769 250.077 278.767 252.761 279.948 255.37C280.623 256.892 281.384 258.407 282.102 259.914C281.65 259.279 281.241 258.707 281.176 258.637C279.338 256.543 274.542 253.632 271.648 254.826C271.174 255.037 270.75 255.344 270.406 255.725C270.061 256.106 269.803 256.554 269.648 257.038C269.493 257.523 269.444 258.034 269.506 258.538C269.567 259.041 269.737 259.527 270.004 259.963C271.074 261.855 273.63 262.79 275.705 263.083C277.78 263.376 282.03 262.281 283.143 261.973C283.445 262.553 283.732 263.132 284.027 263.704C285.463 266.496 286.899 269.219 288.212 271.955C288.679 272.918 289.103 273.881 289.526 274.852C289.131 274.286 288.808 273.805 288.729 273.742C286.891 271.648 282.095 268.737 279.202 269.931C278.726 270.142 278.302 270.449 277.957 270.83C277.611 271.212 277.352 271.66 277.196 272.145C277.041 272.63 276.992 273.142 277.053 273.646C277.114 274.151 277.283 274.638 277.55 275.075C278.62 276.959 281.14 277.867 283.251 278.188C285.362 278.509 289.167 277.49 290.496 277.134C290.905 278.139 291.314 279.137 291.659 280.128C291.881 280.826 292.14 281.448 292.327 282.146C292.513 282.844 292.714 283.542 292.908 284.177C293.231 285.482 293.569 286.829 293.856 288.107C294.057 289 294.229 289.852 294.416 290.71C293.956 289.74 293.03 287.869 292.937 287.723C291.443 285.412 287.193 281.804 284.113 282.557C283.61 282.696 283.143 282.936 282.741 283.261C282.34 283.587 282.014 283.991 281.785 284.448C281.555 284.904 281.427 285.402 281.409 285.91C281.39 286.418 281.482 286.924 281.679 287.395C282.447 289.419 284.831 290.717 286.834 291.317C289.038 291.973 293.928 291.373 294.538 291.317C294.832 292.713 295.105 294.109 295.335 295.429C295.507 296.364 295.658 297.257 295.802 298.13L297.568 297.111C297.439 296.455 297.31 295.785 297.166 295.094C296.879 293.656 296.534 292.113 296.168 290.543C297.643 289.971 299.082 289.313 300.476 288.574C301.697 289.865 304.367 291.317 305.818 292.064L307.082 291.241C307.261 290.131 307.448 288.784 307.455 288.637Z" fill="#263238"/>
<path d="M267.419 232.958C269.674 233.914 275.195 233.795 275.195 233.795C275.195 233.795 274.011 230.305 273.91 230.068C272.697 227.604 268.884 223.542 265.754 223.953C265.238 224.034 264.745 224.22 264.308 224.498C263.871 224.776 263.5 225.141 263.218 225.569C262.936 225.996 262.75 226.477 262.672 226.979C262.594 227.482 262.627 227.994 262.767 228.483C263.284 230.584 265.495 232.141 267.419 232.958Z" fill="#263238"/>
<path d="M315.877 223.039C315.116 225.07 316.078 227.555 317.22 229.265C318.555 231.275 323.23 234.151 323.237 234.151C323.244 234.151 324.235 230.584 324.271 230.354C324.658 227.653 323.768 222.208 320.939 220.875C320.464 220.668 319.949 220.56 319.428 220.558C318.907 220.556 318.391 220.66 317.914 220.864C317.437 221.068 317.009 221.367 316.658 221.741C316.308 222.116 316.042 222.558 315.877 223.039Z" fill="#263238"/>
<path d="M233.401 66.6797L198.369 67.5801L197.651 79.5229L231.297 85.1557C231.297 85.1557 231.383 73.9878 234.478 66.9449" fill="white"/>
<path d="M233.401 66.6797L198.369 67.5801L197.651 79.5229L231.297 85.1557C231.297 85.1557 231.383 73.9878 234.478 66.9449" stroke="#263238" stroke-miterlimit="10"/>
<path d="M246.274 66.1564C246.423 65.9001 246.502 65.6114 246.505 65.3173C246.508 65.0232 246.434 64.7331 246.291 64.474C246.148 64.215 245.939 63.9953 245.685 63.8355C245.431 63.6756 245.14 63.5808 244.838 63.5598C242.418 63.0363 233.601 63.5598 232.259 63.5598C230.916 63.5598 226.709 67.7478 226.034 75.5235C225.359 83.2993 225.962 87.4873 227.577 88.269C229.193 89.0508 240.15 88.0108 240.15 88.0108C240.15 88.0108 242.404 78.3853 244.458 73.96C245.697 71.5378 246.32 68.8615 246.274 66.1564Z" fill="white" stroke="#263238" stroke-miterlimit="10"/>
<path d="M215.005 312.941C217.26 297.383 219.859 277.776 219.744 270.81C219.543 258.616 219.184 256.689 219.184 256.689H123.769L122.814 258.958C121.418 271.33 121.401 283.813 122.764 296.189C123.97 306.464 124.975 316.473 125.636 323.67C137.806 320.012 151.038 315.922 166.526 313.835L167.028 279.5L170.949 276.61L172.772 313.116C177.296 312.69 182.006 312.418 186.938 312.418C197.543 312.397 206.784 312.704 215.005 312.941Z" fill="#263238" stroke="#263238" stroke-miterlimit="10"/>
<path d="M146.903 136.012H199.396L205.398 261.827C205.398 261.827 197.845 264.395 186.615 264.074C175.386 263.753 173.347 260.221 162.835 263.111C152.324 266.001 151.692 268.248 144.074 266.643L136.42 265.037L146.903 136.012Z" fill="white" stroke="#263238" stroke-miterlimit="10"/>
<path d="M173.584 228.525C173.074 230.012 172.665 231.24 172.421 232.113" stroke="#263238" stroke-miterlimit="10" stroke-linecap="round"/>
<path d="M184.943 198.63C184.943 198.63 178.832 214.07 175.056 224.414" stroke="#263238" stroke-miterlimit="10" stroke-linecap="round"/>
<path d="M170.755 213.734L169.398 216.715" stroke="#263238" stroke-miterlimit="10" stroke-linecap="round"/>
<path d="M180.103 193.241L173.239 208.29" stroke="#263238" stroke-miterlimit="10" stroke-linecap="round"/>
<path d="M184.928 146.538L185.582 203.244L185.546 283.102C185.546 283.102 199.188 283.102 207.452 281.008C215.716 278.914 225.969 268.032 225.969 268.032C225.969 268.032 214.79 205.861 214.388 197.276C213.986 188.69 217.26 143.167 217.26 143.167C217.26 143.167 264.167 89.4626 267.161 85.1629C271.864 78.3993 273.113 72.9339 272 70.0721C270.887 67.2103 246.231 65.1303 243.567 65.8841C240.903 66.638 236.94 84.8907 236.94 84.8907C236.94 84.8907 220.024 97.6361 213.921 101.014C207.818 104.393 204.099 105.956 196.395 109.076C191.373 111.228 186.725 114.125 182.616 117.662L184.928 146.538Z" fill="#5B8FEB" stroke="#263238" stroke-miterlimit="10"/>
<path d="M207.904 133.744C207.904 135.377 207.983 136.892 208.077 138.211" stroke="#263238" stroke-miterlimit="10"/>
<path d="M208.888 105.698C208.888 105.698 207.94 119.463 207.89 130.387" stroke="#263238" stroke-miterlimit="10"/>
<path d="M212.068 103.876C212.068 103.876 210.123 116.105 209.692 122.346" stroke="#263238" stroke-miterlimit="10"/>
<path d="M236.94 84.8906C236.94 84.8906 245.972 78.0083 248.148 77.6523" stroke="#263238" stroke-miterlimit="10"/>
<path d="M160.021 144.975L157.422 215.473L153.473 285.482C146.238 283.818 139.137 281.644 132.227 278.977C121.723 274.789 116.036 270.391 116.036 270.391C116.036 270.391 120.215 247.762 122.958 235.275C125.7 222.788 129.29 197.038 129.226 192.878C129.161 188.718 128.594 170.766 126.835 161.14C125.076 151.515 117.113 139.286 117.092 137.988C117.07 136.689 144.727 126.024 149.768 123.42C152.59 121.911 155.645 120.857 158.815 120.3L160.164 120.817L160.021 144.975Z" fill="#5B8FEB" stroke="#263238" stroke-miterlimit="10"/>
<path d="M159.569 117.145C159.569 117.145 154.543 119.483 153.53 124.167C152.518 128.851 149.079 146.796 148.856 149.4C148.633 152.003 149.682 150.963 151.785 148.618C153.889 146.273 156.23 142.378 157.321 143.418L162.484 148.36H182.286C183.314 147.985 184.225 147.358 184.928 146.538C185.977 145.24 187.8 142.113 188.892 143.153C189.983 144.193 192.762 150.963 193.537 149.4C194.313 147.836 190.529 128.592 189.358 122.603C188.188 116.615 177.698 112.978 159.569 117.145Z" fill="white" stroke="#263238" stroke-miterlimit="10"/>
<path d="M160.2 123.127C160.2 123.127 159.245 146.796 161.464 151.48C163.682 156.163 169.642 160.554 175.228 158.767C180.814 156.98 184.784 153.818 184.957 148.101C185.129 142.385 183.478 122.848 183.478 122.848L160.2 123.127Z" fill="white" stroke="#263238" stroke-miterlimit="10"/>
<path d="M184.957 148.101C185.129 142.378 183.478 122.869 183.478 122.869L160.2 123.127C160.2 123.127 159.856 131.663 160.064 139.495C163.898 139.135 167.589 137.896 170.834 135.879C174.134 133.764 177.01 131.082 179.321 127.964L184.605 150.572C184.815 149.764 184.933 148.935 184.957 148.101Z" fill="#263238" stroke="#263238" stroke-miterlimit="10"/>
<path d="M144.433 85.0304C144.433 85.0304 142.408 82.1476 140.498 86.4752C138.588 90.8028 142.394 96.8196 144.153 98.2645C145.912 99.7093 150.615 101.629 150.615 99.465C150.615 97.3012 148.69 87.9201 147.154 84.5557C145.617 81.1914 144.433 85.0304 144.433 85.0304Z" fill="white" stroke="#263238" stroke-miterlimit="10"/>
<path d="M200.609 85.756C200.609 85.756 202.541 82.8663 204.594 87.2009C206.648 91.5355 203.029 97.5383 201.32 98.9831C199.611 100.428 194.944 102.354 194.908 100.184C194.872 98.0129 196.452 88.6388 197.881 85.2744C199.31 81.91 200.609 85.756 200.609 85.756Z" fill="white" stroke="#263238" stroke-miterlimit="10"/>
<path d="M147.815 95.1374C147.815 95.1374 149.969 107.883 151.577 113.655C153.186 119.428 166.734 132.662 171.681 132.899C176.628 133.137 189.631 125.445 192.711 117.508C195.792 109.572 196.581 96.8196 196.574 96.1007C196.567 95.3817 198.254 78.0574 193.458 71.8033C188.662 65.5492 168.63 66.5125 158.815 71.566C149 76.6195 143.679 84.3115 147.815 95.1374Z" fill="white" stroke="#263238" stroke-miterlimit="10"/>
<path d="M164.817 106.096C164.817 107.624 164.142 108.888 163.251 108.888C162.361 108.888 161.622 107.652 161.6 106.096C161.579 104.539 162.275 103.304 163.165 103.304C164.056 103.304 164.788 104.553 164.817 106.096Z" fill="#263238"/>
<path d="M183.865 106.096C183.865 107.624 183.191 108.888 182.307 108.888C181.424 108.888 180.678 107.652 180.649 106.096C180.62 104.539 181.324 103.304 182.214 103.304C183.104 103.304 183.844 104.553 183.865 106.096Z" fill="#263238"/>
<path d="M166.153 97.0566L156.826 101.629" stroke="#263238" stroke-width="3" stroke-miterlimit="10" stroke-linecap="round"/>
<path d="M180.505 97.3013L189.746 102.592" stroke="#263238" stroke-width="3" stroke-miterlimit="10" stroke-linecap="round"/>
<path d="M176.563 115.463C176.548 115.872 176.448 116.274 176.272 116.645C176.095 117.016 175.844 117.35 175.533 117.626C175.222 117.902 174.858 118.115 174.462 118.253C174.065 118.391 173.645 118.451 173.225 118.429C172.368 118.466 171.53 118.177 170.889 117.623C170.249 117.069 169.855 116.294 169.792 115.463" stroke="#263238" stroke-miterlimit="10" stroke-linecap="round"/>
<path d="M170.812 124.244C171.519 123.94 172.283 123.783 173.056 123.783C173.829 123.783 174.593 123.94 175.3 124.244" stroke="#263238" stroke-miterlimit="10" stroke-linecap="round"/>
<path d="M158.175 108.713L161.959 109.411" stroke="#263238" stroke-miterlimit="10" stroke-linecap="round"/>
<path d="M188.152 108.713L184.045 109.935" stroke="#263238" stroke-miterlimit="10" stroke-linecap="round"/>
<path d="M160.911 48.4689C160.911 48.4689 148.138 54.2484 144.117 65.7933C140.096 77.3382 145.495 89.3648 146.271 92.4918C147.046 95.6188 147.585 97.301 147.585 97.301C147.585 97.301 151.232 93.2107 153.925 91.2843C156.617 89.3578 162.038 88.4015 165.248 87.6756C168.457 86.9497 179.543 84.3112 182.48 81.3936C185.416 78.476 186.371 77.3033 186.371 77.3033C186.371 77.3033 188.798 89.5672 192.072 93.1758C194.023 95.3093 195.421 97.8652 196.15 100.63C196.15 100.63 198.304 95.8213 199.963 91.4937C201.621 87.1661 202.785 67.1963 198.189 58.7784C193.594 50.3605 174.172 42.2218 160.911 48.4689Z" fill="#263238" stroke="#263238" stroke-miterlimit="10"/>
<path d="M186.371 77.3384C186.371 77.3384 176.391 87.6758 164.831 92.492C153.271 97.3082 141.137 110.047 142.207 116.545C143.277 123.043 151.505 125.445 150.514 125.445C149.523 125.445 137.368 123.281 137.461 113.655C137.554 104.03 147.85 98.2644 153.257 95.8563C158.664 93.4482 181.474 80.4654 186.371 77.3384Z" fill="#263238" stroke="#263238" stroke-miterlimit="10"/>
<path d="M188.712 84.5557C188.712 84.5557 192.115 96.1006 194.162 99.9117C196.208 103.723 199.812 112.901 197.199 119.393C194.585 125.884 192.618 126.847 192.618 126.847C192.618 126.847 201.428 120.838 201.27 110.975C201.112 101.112 190.306 91.2844 188.712 84.5557Z" fill="#263238" stroke="#263238" stroke-miterlimit="10"/>
<path d="M186.944 52.153C187.183 45.5845 180.788 40.0325 172.66 39.7525C164.532 39.4724 157.749 44.5702 157.51 51.1388C157.27 57.7074 163.665 63.2593 171.793 63.5393C179.921 63.8194 186.704 58.7216 186.944 52.153Z" fill="#263238" stroke="#263238" stroke-miterlimit="10"/>
<path d="M181.082 41.9295C181.208 38.0804 177.376 34.8392 172.525 34.6901C167.674 34.5411 163.64 37.5407 163.515 41.3898C163.39 45.239 167.221 48.4802 172.072 48.6292C176.923 48.7783 180.957 45.7787 181.082 41.9295Z" fill="#263238" stroke="#263238" stroke-miterlimit="10"/>
<path d="M99.2778 227.436L99.9168 266.719C99.9168 266.719 96.7217 283.883 98.3444 285.189C99.9671 286.494 105.402 291.17 106.494 292.469C107.585 293.767 109.732 294.29 111.34 294.563C112.949 294.835 117.479 293.523 116.639 291.184C115.799 288.846 114.772 291.701 113.961 290.919C113.156 290.024 112.424 289.07 111.771 288.064L113.286 282.341C113.286 282.341 113.638 287.799 114.98 288.064C116.323 288.33 116.574 287.283 116.539 285.203C116.503 283.122 115.964 282.599 116.165 278.697C116.366 274.795 114.729 271.934 113.882 269.853C113.035 267.773 111.376 263.872 111.089 262.566C110.802 261.261 119.662 230.312 119.662 230.312C119.662 230.312 113.839 233.941 99.2778 227.436Z" fill="white" stroke="#263238" stroke-miterlimit="10"/>
<path d="M117.092 137.953C117.092 137.953 109.431 143.934 108.239 153.043C107.047 162.152 106.724 175.149 105.726 179.316C104.728 183.483 100.7 216.254 100.7 216.254C100.7 216.254 104.505 219.891 107.736 221.454C110.967 223.018 118.176 221.713 119.224 221.454C120.319 221.101 121.385 220.667 122.412 220.156C122.412 220.156 126.813 194.658 127.014 190.24C127.215 185.821 128.939 176.978 128.939 176.978C128.939 176.978 128.766 148.36 117.092 137.953Z" fill="#5B8FEB" stroke="#263238" stroke-miterlimit="10"/>
<path d="M122.118 187.895C121.529 188.9 121.019 189.786 120.682 190.463" stroke="#263238" stroke-miterlimit="10"/>
<path d="M128.967 176.971C128.967 176.971 126.146 181.305 123.697 185.284" stroke="#263238" stroke-miterlimit="10"/>
<path d="M122.541 182.694L116.948 191.754" stroke="#263238" stroke-miterlimit="10"/>
<path d="M99.8021 211.047C99.8021 211.047 105.23 215.73 110.342 217.294C115.454 218.858 119.727 218.592 121.593 218.076C123.46 217.559 124.243 216.77 124.544 218.851C124.846 220.931 123.108 228.218 123.108 230.298C123.108 232.378 122.39 233.418 118.082 234.2C113.774 234.981 104.692 233.418 101.985 231.596C99.2779 229.774 97.3681 227.178 97.5978 224.832C97.8276 222.487 98.8112 217.294 99.0338 215.472C99.2564 213.65 98.7538 211.57 99.8021 211.047Z" fill="white" stroke="#263238" stroke-miterlimit="10"/>
<path d="M156.811 172.915C156.747 172.858 156.677 172.807 156.603 172.762C154.707 171.61 144.993 174.053 142.53 174.053C134.539 174.053 131.236 171.959 130.92 174.751C130.604 177.543 129.922 180.405 130.676 181.815C131.43 183.225 133.943 181.815 136.126 182.171C138.308 182.527 142.71 184.963 144.526 184.963C146.343 184.963 150.988 182.171 152.108 182.171C153.228 182.171 155.756 183.225 156.474 182.171C157.601 180.447 158.391 174.388 156.811 172.915Z" fill="white" stroke="#263238" stroke-miterlimit="10"/>
<path d="M145.46 181.305C145.464 181.507 145.428 181.707 145.351 181.894C145.275 182.082 145.161 182.253 145.016 182.396C144.871 182.54 144.697 182.654 144.506 182.732C144.314 182.809 144.109 182.849 143.902 182.848C143.479 182.846 143.074 182.684 142.774 182.395C142.473 182.107 142.301 181.716 142.293 181.305C142.289 181.104 142.327 180.905 142.404 180.718C142.48 180.531 142.595 180.362 142.74 180.218C142.885 180.075 143.058 179.962 143.249 179.885C143.44 179.808 143.645 179.769 143.851 179.77C144.272 179.771 144.676 179.933 144.977 180.22C145.277 180.506 145.45 180.896 145.46 181.305Z" stroke="#263238" stroke-miterlimit="10" stroke-linecap="round"/>
<path d="M212.751 172.915C212.686 172.858 212.617 172.807 212.543 172.762C210.64 171.61 200.933 174.053 198.47 174.053C190.478 174.053 187.176 171.959 186.86 174.751C186.544 177.543 185.862 180.405 186.608 181.815C187.355 183.225 189.883 181.815 192.065 182.171C194.248 182.527 198.649 184.963 200.466 184.963C202.282 184.963 206.928 182.171 208.048 182.171C209.168 182.171 211.695 183.225 212.413 182.171C213.533 180.447 214.33 174.388 212.751 172.915Z" fill="white" stroke="#263238" stroke-miterlimit="10"/>
<path d="M201.686 181.696C201.69 181.897 201.653 182.097 201.576 182.284C201.499 182.47 201.385 182.64 201.24 182.783C201.095 182.926 200.922 183.04 200.731 183.117C200.54 183.194 200.335 183.233 200.128 183.232C199.707 183.23 199.303 183.069 199.003 182.782C198.703 182.495 198.529 182.106 198.52 181.696C198.515 181.495 198.552 181.295 198.628 181.107C198.704 180.92 198.819 180.749 198.964 180.605C199.109 180.461 199.283 180.347 199.474 180.27C199.665 180.192 199.871 180.153 200.078 180.154C200.5 180.156 200.905 180.318 201.206 180.606C201.506 180.895 201.679 181.286 201.686 181.696V181.696Z" stroke="#263238" stroke-miterlimit="10" stroke-linecap="round"/>
<path d="M119.468 60.4189H63.6507C63.0972 60.4189 62.5492 60.5249 62.0378 60.7308C61.5265 60.9367 61.0618 61.2385 60.6705 61.619C60.2791 61.9995 59.9687 62.4512 59.7569 62.9483C59.5451 63.4454 59.436 63.9781 59.436 64.5162V81.9243C59.436 82.4621 59.5451 82.9945 59.757 83.4912C59.9689 83.9879 60.2795 84.4392 60.6709 84.8191C61.0624 85.199 61.5271 85.5001 62.0384 85.7053C62.5497 85.9104 63.0976 86.0155 63.6507 86.0146H109.732L121.557 94.5302L117.494 86.0146H119.468C120.021 86.0155 120.569 85.9104 121.08 85.7053C121.592 85.5001 122.056 85.199 122.448 84.8191C122.839 84.4392 123.15 83.9879 123.362 83.4912C123.574 82.9945 123.683 82.4621 123.683 81.9243V64.5162C123.683 63.9781 123.574 63.4454 123.362 62.9483C123.15 62.4512 122.84 61.9995 122.448 61.619C122.057 61.2385 121.592 60.9367 121.081 60.7308C120.57 60.5249 120.021 60.4189 119.468 60.4189Z" fill="#263238" stroke="#263238" stroke-miterlimit="10"/>
<path d="M120.157 59.3857H64.3402C63.787 59.3848 63.2391 59.49 62.7278 59.6951C62.2165 59.9002 61.7518 60.2014 61.3604 60.5813C60.9689 60.9612 60.6583 61.4124 60.4464 61.9091C60.2346 62.4058 60.1255 62.9383 60.1255 63.476V80.8841C60.1255 81.4219 60.2346 81.9543 60.4464 82.451C60.6583 82.9478 60.9689 83.399 61.3604 83.7789C61.7518 84.1588 62.2165 84.4599 62.7278 84.6651C63.2391 84.8702 63.787 84.9753 64.3402 84.9744H110.421L121.558 94.53L118.183 84.9744H120.157C121.273 84.9744 122.344 84.5435 123.133 83.7764C123.922 83.0093 124.365 81.969 124.365 80.8841V63.476C124.365 62.9389 124.256 62.407 124.045 61.9107C123.833 61.4145 123.523 60.9636 123.133 60.5838C122.742 60.2039 122.278 59.9027 121.768 59.6971C121.257 59.4915 120.71 59.3857 120.157 59.3857Z" fill="white" stroke="#263238" stroke-miterlimit="10"/>
<path d="M69.5095 66.0444V77.6661H68.21V66.0444H69.5095Z" fill="#263238"/>
<path d="M71.5774 69.1017H71.0318L71.4554 67.6429H70.96V66.0444H72.2452V67.5242L71.5774 69.1017Z" fill="#263238"/>
<path d="M78.0108 77.6452H76.7327L74.7511 68.4037V77.6661H73.5879V66.0444H75.4547L77.4148 75.3209L79.3104 66.0444H81.17V77.6661H79.9063V68.3199L78.0108 77.6452Z" fill="#263238"/>
<path d="M90.3532 68.8365V69.1506H89.0895V68.7667C89.0895 67.7197 88.6803 67.1125 87.7253 67.1125C86.7704 67.1125 86.3611 67.7197 86.3611 68.7528C86.3611 71.3563 90.3676 71.6076 90.3676 74.8742C90.3676 76.6332 89.4988 77.7779 87.6751 77.7779C85.8513 77.7779 84.9897 76.6332 84.9897 74.8742V74.1762H86.2391V74.9091C86.2391 75.9491 86.6842 76.5634 87.6751 76.5634C88.6659 76.5634 89.1111 75.9491 89.1111 74.9091C89.1111 72.3195 85.119 72.0683 85.119 68.8016C85.119 67.0078 85.9662 65.8979 87.7612 65.8979C89.5562 65.8979 90.3532 67.0776 90.3532 68.8365Z" fill="#263238"/>
<path d="M91.4302 68.8507C91.4302 67.0778 92.3349 65.9331 94.1586 65.9331C95.9823 65.9331 96.9301 67.0778 96.9301 68.8507V74.8605C96.9301 76.6195 96.0254 77.7782 94.1801 77.7782C92.3349 77.7782 91.4517 76.6195 91.4517 74.8605L91.4302 68.8507ZM92.7441 74.9233C92.7441 75.9843 93.2036 76.5985 94.1801 76.5985C95.1566 76.5985 95.6161 75.9843 95.6161 74.9233V68.7879C95.6161 67.7409 95.1781 67.1127 94.1801 67.1127C93.1821 67.1127 92.7441 67.7409 92.7441 68.7879V74.9233Z" fill="#263238"/>
<path d="M100.836 66.0444C102.71 66.0444 103.492 66.9728 103.492 68.7038V69.6461C103.492 70.9235 103.033 71.7401 102.013 72.0403C103.105 72.3544 103.514 73.2129 103.514 74.4623V76.2701C103.474 76.7473 103.555 77.2267 103.751 77.6661H102.401C102.218 77.2235 102.141 76.7459 102.178 76.2701V74.4484C102.178 73.1361 101.546 72.7243 100.441 72.7243H99.5002V77.6871H98.1719V66.0444H100.836ZM100.491 71.5237C101.546 71.5237 102.178 71.1887 102.178 69.9323V68.8155C102.178 67.7755 101.791 67.2241 100.8 67.2241H99.5002V71.5237H100.491Z" fill="#263238"/>
<path d="M107.557 66.0444C109.438 66.0444 110.22 66.9728 110.22 68.7038V69.6461C110.22 70.9235 109.761 71.7401 108.734 72.0403C109.825 72.3544 110.235 73.2129 110.235 74.4623V76.2701C110.197 76.7479 110.281 77.2273 110.479 77.6661H109.136C108.95 77.2244 108.873 76.746 108.914 76.2701V74.4484C108.914 73.1361 108.282 72.7243 107.169 72.7243H106.264V77.6871H104.929V66.0444H107.557ZM107.219 71.5237C108.275 71.5237 108.906 71.1887 108.906 69.9323V68.8155C108.906 67.7755 108.512 67.2241 107.521 67.2241H106.264V71.5237H107.219Z" fill="#263238"/>
<path d="M113.566 73.4991L111.039 66.0444H112.424L114.284 71.7541L116.158 66.0444H117.422L114.88 73.4991V77.6871H113.566V73.4991Z" fill="#263238"/>
</svg>
