<svg width="218" height="224" viewBox="0 0 218 224" fill="none" xmlns="http://www.w3.org/2000/svg">
<path d="M202.679 133.473C196.257 151.138 183.142 170.258 164.686 175.921C136.782 184.478 133.468 207.572 83.5202 205.431C76.2242 205.153 68.9791 204.062 61.912 202.178C58.4594 201.242 55.0678 200.082 51.7576 198.706C22.5848 186.561 7.36406 159.834 6.10402 131.869C4.4385 95.0841 29.4126 77.5538 45.6449 67.2902C61.8771 57.0265 81.4405 17.2441 130.556 18.9554C138.056 19.1867 145.506 20.3051 152.757 22.2886C169.286 26.885 186.085 37.0726 195.851 51.9103C196.584 53.0243 197.284 54.1652 197.953 55.333C211.024 78.1138 211.429 109.389 202.679 133.473Z" fill="#5B8FEB"/>
<path opacity="0.7" d="M202.679 133.473C196.257 151.138 183.142 170.258 164.686 175.921C136.782 184.478 133.468 207.572 83.5202 205.431C76.2242 205.153 68.9791 204.062 61.912 202.178C58.4594 201.242 55.0678 200.082 51.7576 198.706C22.5848 186.561 7.36406 159.834 6.10402 131.869C4.4385 95.0841 29.4126 77.5538 45.6449 67.2902C61.8771 57.0265 81.4405 17.2441 130.556 18.9554C138.056 19.1867 145.506 20.3051 152.757 22.2886C169.286 26.885 186.085 37.0726 195.851 51.9103C196.584 53.0243 197.284 54.1652 197.953 55.333C211.024 78.1138 211.429 109.389 202.679 133.473Z" fill="white"/>
<g opacity="0.2">
<path opacity="0.2" d="M87.8453 18.8159H39.676V158.081H87.8453V18.8159Z" stroke="black" stroke-miterlimit="10" stroke-linecap="round"/>
<path opacity="0.2" d="M39.9333 23.0496H87.7494L86.6245 19.2236" stroke="black" stroke-miterlimit="10" stroke-linecap="round"/>
<path opacity="0.2" d="M39.9333 27.6863H87.7494L86.6245 23.8604" stroke="black" stroke-miterlimit="10" stroke-linecap="round"/>
<path opacity="0.2" d="M39.9333 32.3231H87.7494L86.6245 28.4927" stroke="black" stroke-miterlimit="10" stroke-linecap="round"/>
<path opacity="0.2" d="M39.9333 36.9598H87.7494L86.6245 33.1294" stroke="black" stroke-miterlimit="10" stroke-linecap="round"/>
<path opacity="0.2" d="M39.9333 41.597H87.7494L86.6245 37.7666" stroke="black" stroke-miterlimit="10" stroke-linecap="round"/>
<path opacity="0.2" d="M39.9333 46.2337H87.7494L86.6245 42.4033" stroke="black" stroke-miterlimit="10" stroke-linecap="round"/>
<path opacity="0.2" d="M39.9333 50.8704H87.7494L86.6245 47.04" stroke="black" stroke-miterlimit="10" stroke-linecap="round"/>
<path opacity="0.2" d="M39.9333 55.5072H87.7494L86.6245 51.6768" stroke="black" stroke-miterlimit="10" stroke-linecap="round"/>
<path opacity="0.2" d="M39.9333 60.1439H87.7494L86.6245 56.3135" stroke="black" stroke-miterlimit="10" stroke-linecap="round"/>
<path opacity="0.2" d="M39.9333 64.7806H87.7494L86.6245 60.9502" stroke="black" stroke-miterlimit="10" stroke-linecap="round"/>
<path opacity="0.2" d="M39.9333 69.4173H87.7494L86.6245 65.5869" stroke="black" stroke-miterlimit="10" stroke-linecap="round"/>
<path opacity="0.2" d="M39.9333 74.0545H87.7494L86.6245 70.2241" stroke="black" stroke-miterlimit="10" stroke-linecap="round"/>
<path opacity="0.2" d="M39.9333 78.6912H87.7494L86.6245 74.8608" stroke="black" stroke-miterlimit="10" stroke-linecap="round"/>
<path opacity="0.2" d="M39.9333 83.3279H87.7494L86.6245 79.4976" stroke="black" stroke-miterlimit="10" stroke-linecap="round"/>
<path opacity="0.2" d="M39.9333 87.9602H87.7494L86.6245 84.1343" stroke="black" stroke-miterlimit="10" stroke-linecap="round"/>
<path opacity="0.2" d="M39.9333 92.5969H87.7494L86.6245 88.771" stroke="black" stroke-miterlimit="10" stroke-linecap="round"/>
<path opacity="0.2" d="M39.9333 97.2336H87.7494L86.6245 93.4077" stroke="black" stroke-miterlimit="10" stroke-linecap="round"/>
<path opacity="0.2" d="M39.9333 101.871H87.7494L86.6245 98.0449" stroke="black" stroke-miterlimit="10" stroke-linecap="round"/>
<path opacity="0.2" d="M39.9333 106.508H87.7494L86.6245 102.682" stroke="black" stroke-miterlimit="10" stroke-linecap="round"/>
<path opacity="0.2" d="M39.9333 111.144H87.7494L86.6245 107.318" stroke="black" stroke-miterlimit="10" stroke-linecap="round"/>
<path opacity="0.2" d="M39.9333 115.781H87.7494L86.6245 111.955" stroke="black" stroke-miterlimit="10" stroke-linecap="round"/>
<path opacity="0.2" d="M39.9333 120.418H87.7494L86.6245 116.592" stroke="black" stroke-miterlimit="10" stroke-linecap="round"/>
<path opacity="0.2" d="M39.9333 125.055H87.7494L86.6245 121.224" stroke="black" stroke-miterlimit="10" stroke-linecap="round"/>
<path opacity="0.2" d="M39.9333 129.691H87.7494L86.6245 125.861" stroke="black" stroke-miterlimit="10" stroke-linecap="round"/>
<path opacity="0.2" d="M39.9333 134.328H87.7494L86.6245 130.498" stroke="black" stroke-miterlimit="10" stroke-linecap="round"/>
<path opacity="0.2" d="M39.9333 138.965H87.7494L86.6245 135.135" stroke="black" stroke-miterlimit="10" stroke-linecap="round"/>
<path opacity="0.2" d="M39.9333 143.602H87.7494L86.6245 139.771" stroke="black" stroke-miterlimit="10" stroke-linecap="round"/>
<path opacity="0.2" d="M39.9333 148.239H87.7494L86.6245 144.408" stroke="black" stroke-miterlimit="10" stroke-linecap="round"/>
<path opacity="0.2" d="M39.9333 152.875H87.7494L86.6245 149.045" stroke="black" stroke-miterlimit="10" stroke-linecap="round"/>
</g>
<g opacity="0.2">
<path opacity="0.2" d="M139.642 18.8159H91.4728V158.081H139.642V18.8159Z" stroke="black" stroke-miterlimit="10" stroke-linecap="round"/>
<path opacity="0.2" d="M91.73 23.0496H139.546L138.426 19.2236" stroke="black" stroke-miterlimit="10" stroke-linecap="round"/>
<path opacity="0.2" d="M91.73 27.6863H139.546L138.426 23.8604" stroke="black" stroke-miterlimit="10" stroke-linecap="round"/>
<path opacity="0.2" d="M91.73 32.3231H139.546L138.426 28.4927" stroke="black" stroke-miterlimit="10" stroke-linecap="round"/>
<path opacity="0.2" d="M91.73 36.9598H139.546L138.426 33.1294" stroke="black" stroke-miterlimit="10" stroke-linecap="round"/>
<path opacity="0.2" d="M91.73 41.597H139.546L138.426 37.7666" stroke="black" stroke-miterlimit="10" stroke-linecap="round"/>
<path opacity="0.2" d="M91.73 46.2337H139.546L138.426 42.4033" stroke="black" stroke-miterlimit="10" stroke-linecap="round"/>
<path opacity="0.2" d="M91.73 50.8704H139.546L138.426 47.04" stroke="black" stroke-miterlimit="10" stroke-linecap="round"/>
<path opacity="0.2" d="M91.73 55.5072H139.546L138.426 51.6768" stroke="black" stroke-miterlimit="10" stroke-linecap="round"/>
<path opacity="0.2" d="M91.73 60.1439H139.546L138.426 56.3135" stroke="black" stroke-miterlimit="10" stroke-linecap="round"/>
<path opacity="0.2" d="M91.73 64.7806H139.546L138.426 60.9502" stroke="black" stroke-miterlimit="10" stroke-linecap="round"/>
<path opacity="0.2" d="M91.73 69.4173H139.546L138.426 65.5869" stroke="black" stroke-miterlimit="10" stroke-linecap="round"/>
<path opacity="0.2" d="M91.73 74.0545H139.546L138.426 70.2241" stroke="black" stroke-miterlimit="10" stroke-linecap="round"/>
<path opacity="0.2" d="M91.73 78.6912H139.546L138.426 74.8608" stroke="black" stroke-miterlimit="10" stroke-linecap="round"/>
<path opacity="0.2" d="M91.73 83.3279H139.546L138.426 79.4976" stroke="black" stroke-miterlimit="10" stroke-linecap="round"/>
<path opacity="0.2" d="M91.73 87.9602H139.546L138.426 84.1343" stroke="black" stroke-miterlimit="10" stroke-linecap="round"/>
<path opacity="0.2" d="M91.73 92.5969H139.546L138.426 88.771" stroke="black" stroke-miterlimit="10" stroke-linecap="round"/>
<path opacity="0.2" d="M91.73 97.2336H139.546L138.426 93.4077" stroke="black" stroke-miterlimit="10" stroke-linecap="round"/>
<path opacity="0.2" d="M91.73 101.871H139.546L138.426 98.0449" stroke="black" stroke-miterlimit="10" stroke-linecap="round"/>
<path opacity="0.2" d="M91.73 106.508H139.546L138.426 102.682" stroke="black" stroke-miterlimit="10" stroke-linecap="round"/>
<path opacity="0.2" d="M91.73 111.144H139.546L138.426 107.318" stroke="black" stroke-miterlimit="10" stroke-linecap="round"/>
<path opacity="0.2" d="M91.73 115.781H139.546L138.426 111.955" stroke="black" stroke-miterlimit="10" stroke-linecap="round"/>
<path opacity="0.2" d="M91.73 120.418H139.546L138.426 116.592" stroke="black" stroke-miterlimit="10" stroke-linecap="round"/>
<path opacity="0.2" d="M91.73 125.055H139.546L138.426 121.224" stroke="black" stroke-miterlimit="10" stroke-linecap="round"/>
<path opacity="0.2" d="M91.73 129.691H139.546L138.426 125.861" stroke="black" stroke-miterlimit="10" stroke-linecap="round"/>
<path opacity="0.2" d="M91.73 134.328H139.546L138.426 130.498" stroke="black" stroke-miterlimit="10" stroke-linecap="round"/>
<path opacity="0.2" d="M91.73 138.965H139.546L138.426 135.135" stroke="black" stroke-miterlimit="10" stroke-linecap="round"/>
<path opacity="0.2" d="M91.73 143.602H139.546L138.426 139.771" stroke="black" stroke-miterlimit="10" stroke-linecap="round"/>
<path opacity="0.2" d="M91.73 148.239H139.546L138.426 144.408" stroke="black" stroke-miterlimit="10" stroke-linecap="round"/>
<path opacity="0.2" d="M91.73 152.875H139.546L138.426 149.045" stroke="black" stroke-miterlimit="10" stroke-linecap="round"/>
</g>
<g opacity="0.3">
<path opacity="0.3" d="M18.1681 27.6284H10.3201V35.6924H18.1681V27.6284Z" stroke="black" stroke-miterlimit="10" stroke-linecap="round"/>
<path opacity="0.3" d="M18.1681 41.3638H10.3201V49.4278H18.1681V41.3638Z" stroke="black" stroke-miterlimit="10" stroke-linecap="round"/>
<path opacity="0.3" d="M21.0719 31.8081H32.9922" stroke="black" stroke-miterlimit="10" stroke-linecap="round"/>
<path opacity="0.3" d="M21.0719 45.248H32.9922" stroke="black" stroke-miterlimit="10" stroke-linecap="round"/>
<path opacity="0.3" d="M12.0641 30.016L13.2239 32.4038L18.4559 24.3398" stroke="black" stroke-miterlimit="10" stroke-linecap="round"/>
</g>
<g opacity="0.3">
<path opacity="0.3" d="M134.144 188.46H126.296V196.524H134.144V188.46Z" stroke="black" stroke-miterlimit="10" stroke-linecap="round"/>
<path opacity="0.3" d="M134.144 202.196H126.296V210.26H134.144V202.196Z" stroke="black" stroke-miterlimit="10" stroke-linecap="round"/>
<path opacity="0.3" d="M137.048 192.64H148.968" stroke="black" stroke-miterlimit="10" stroke-linecap="round"/>
<path opacity="0.3" d="M137.048 206.08H148.968" stroke="black" stroke-miterlimit="10" stroke-linecap="round"/>
<path opacity="0.3" d="M128.04 190.848L129.2 193.236L134.432 185.172" stroke="black" stroke-miterlimit="10" stroke-linecap="round"/>
</g>
<g opacity="0.3">
<path opacity="0.3" d="M160.448 23.2959H152.6V31.3599H160.448V23.2959Z" stroke="black" stroke-miterlimit="10" stroke-linecap="round"/>
<path opacity="0.3" d="M160.448 37.0361H152.6V45.1001H160.448V37.0361Z" stroke="black" stroke-miterlimit="10" stroke-linecap="round"/>
<path opacity="0.3" d="M163.356 27.4756H175.272" stroke="black" stroke-miterlimit="10" stroke-linecap="round"/>
<path opacity="0.3" d="M163.356 40.916H175.272" stroke="black" stroke-miterlimit="10" stroke-linecap="round"/>
<path opacity="0.3" d="M154.344 25.6839L155.508 28.0762L160.74 20.0122" stroke="black" stroke-miterlimit="10" stroke-linecap="round"/>
</g>
<path d="M205.147 201.089H211.634" stroke="#263238" stroke-linecap="round" stroke-linejoin="round"/>
<path d="M10.9 201.089H202.125" stroke="#263238" stroke-linecap="round" stroke-linejoin="round"/>
<path d="M34.6664 171.024C37.4716 171.024 39.7458 164.897 39.7458 157.338C39.7458 149.779 37.4716 143.651 34.6664 143.651C31.8611 143.651 29.587 149.779 29.587 157.338C29.587 164.897 31.8611 171.024 34.6664 171.024Z" fill="#5B8FEB" stroke="#263238" stroke-miterlimit="10"/>
<path d="M50.448 148.908C52.0356 143.775 51.5591 139.037 49.3835 138.327C47.208 137.616 44.1573 141.202 42.5697 146.335C40.982 151.469 41.4585 156.206 43.6341 156.917C45.8096 157.627 48.8603 154.042 50.448 148.908Z" fill="#5B8FEB" stroke="#263238" stroke-miterlimit="10"/>
<path d="M13.1846 179.854C8.01367 178.958 4.13327 176.351 4.51695 174.03C4.90063 171.71 9.39579 170.572 14.545 171.472C19.6941 172.373 23.5963 174.976 23.217 177.296C22.8377 179.617 18.3512 180.75 13.1846 179.854Z" fill="#5B8FEB" stroke="#263238" stroke-miterlimit="10"/>
<path d="M55.2218 167.207C59.5391 162.808 61.4376 157.583 59.4623 155.536C57.487 153.49 52.3859 155.396 48.0686 159.796C43.7514 164.195 41.8529 169.42 43.8282 171.467C45.8035 173.513 50.9046 171.607 55.2218 167.207Z" fill="#5B8FEB" stroke="#263238" stroke-miterlimit="10"/>
<path d="M25.4755 155.134C29.648 161.356 30.895 167.92 28.2572 169.792C25.6194 171.665 20.0909 168.13 15.9184 161.907C11.7458 155.685 10.4989 149.126 13.1367 147.253C15.7745 145.381 21.303 148.911 25.4755 155.134Z" fill="#5B8FEB" stroke="#263238" stroke-miterlimit="10"/>
<path d="M35.0239 170.339L35.4163 189.155" stroke="#263238" stroke-miterlimit="10" stroke-linecap="round"/>
<path d="M34.5486 152.249L35.0239 170.339" stroke="#263238" stroke-miterlimit="10" stroke-linecap="round"/>
<path d="M34.5835 149.296L34.5486 150.681" stroke="#263238" stroke-miterlimit="10" stroke-linecap="round"/>
<path d="M28.2354 168.896C31.1476 175.079 32.8525 181.788 33.2537 188.644" stroke="#263238" stroke-miterlimit="10" stroke-linecap="round"/>
<path d="M19.5154 155.188C23.0008 159.34 25.9332 163.95 28.2353 168.896" stroke="#263238" stroke-miterlimit="10" stroke-linecap="round"/>
<path d="M16.7685 152.204C16.7685 152.204 17.2961 152.696 18.1594 153.642" stroke="#263238" stroke-miterlimit="10" stroke-linecap="round"/>
<path d="M44.1493 170.832C40.5865 175.962 37.8103 181.623 35.9177 187.618" stroke="#263238" stroke-miterlimit="10" stroke-linecap="round"/>
<path d="M49.9918 163.933C47.8397 166.041 45.8838 168.35 44.1494 170.832" stroke="#263238" stroke-miterlimit="10" stroke-linecap="round"/>
<path d="M56.244 159.04C54.6567 159.959 53.1664 161.045 51.7968 162.279" stroke="#263238" stroke-miterlimit="10" stroke-linecap="round"/>
<path d="M43.9357 155.635C41.1192 164.73 37.3434 178.174 35.582 189.84" stroke="#263238" stroke-miterlimit="10" stroke-linecap="round"/>
<path d="M45.6492 150.237C45.1478 151.773 44.5635 153.592 43.9357 155.613" stroke="#263238" stroke-miterlimit="10" stroke-linecap="round"/>
<path d="M47.4019 145.018C47.4019 145.018 46.9136 146.411 46.1201 148.799" stroke="#263238" stroke-miterlimit="10" stroke-linecap="round"/>
<path d="M22.9728 176.037C26.487 177.404 29.9183 180.047 31.5882 185.051" stroke="#263238" stroke-miterlimit="10" stroke-linecap="round"/>
<path d="M16.4808 174.68C18.6983 174.789 20.8871 175.242 22.9728 176.024" stroke="#263238" stroke-miterlimit="10" stroke-linecap="round"/>
<path d="M12.2734 174.787C12.2734 174.787 12.9012 174.693 13.9302 174.653" stroke="#263238" stroke-miterlimit="10" stroke-linecap="round"/>
<path d="M57.4168 179.854C62.5878 178.958 66.4682 176.351 66.0845 174.03C65.7008 171.71 61.2057 170.572 56.0565 171.472C50.9073 172.373 47.0051 174.976 47.3845 177.296C47.7638 179.617 52.2502 180.75 57.4168 179.854Z" fill="#5B8FEB" stroke="#263238" stroke-miterlimit="10"/>
<path d="M47.742 175.993C44.1886 177.337 40.7006 179.993 39.022 185.051" stroke="#263238" stroke-miterlimit="10" stroke-linecap="round"/>
<path d="M54.6657 174.653C52.3034 174.725 49.9669 175.178 47.742 175.997" stroke="#263238" stroke-miterlimit="10" stroke-linecap="round"/>
<path d="M58.3281 174.787C58.3281 174.787 57.9182 174.724 57.2076 174.68" stroke="#263238" stroke-miterlimit="10" stroke-linecap="round"/>
<path d="M47.6679 201.04C49.2251 197.68 50.0438 194.01 50.0659 190.288C50.0707 188.055 49.7473 185.833 49.1067 183.698H22.0747C21.4341 185.833 21.1107 188.055 21.1155 190.288C21.1369 194.01 21.9572 197.681 23.5178 201.04H47.6679Z" fill="#263238"/>
<path d="M21.364 186.763C21.2855 187.269 21.2288 187.78 21.1852 188.299H49.983C49.9394 187.78 49.8784 187.269 49.7999 186.763H21.364Z" fill="#7A7A7A"/>
<path d="M49.6735 194.629C49.765 194.119 49.8435 193.608 49.9046 193.093H21.2637C21.3204 193.608 21.3989 194.119 21.4904 194.629H49.6735Z" fill="#7A7A7A"/>
<path d="M24.5948 190.355C24.5948 190.593 24.5261 190.825 24.3975 191.023C24.2689 191.22 24.0862 191.374 23.8724 191.465C23.6587 191.556 23.4235 191.579 23.1967 191.533C22.9699 191.486 22.7617 191.371 22.5985 191.203C22.4353 191.034 22.3243 190.82 22.2797 190.587C22.2351 190.354 22.2589 190.112 22.348 189.893C22.4371 189.674 22.5876 189.486 22.7803 189.355C22.973 189.224 23.1994 189.154 23.4306 189.155C23.7398 189.156 24.0359 189.283 24.2541 189.508C24.4723 189.733 24.5948 190.038 24.5948 190.355Z" fill="#8C8C8C"/>
<path d="M30.4197 190.355C30.4188 190.592 30.3498 190.823 30.2214 191.019C30.093 191.215 29.9109 191.367 29.6981 191.457C29.4853 191.547 29.2513 191.57 29.0258 191.524C28.8003 191.477 28.5933 191.363 28.4309 191.195C28.2685 191.028 28.1581 190.815 28.1135 190.583C28.069 190.351 28.0923 190.11 28.1805 189.892C28.2687 189.674 28.418 189.487 28.6093 189.356C28.8006 189.225 29.0255 189.155 29.2556 189.155C29.4088 189.155 29.5606 189.186 29.7021 189.246C29.8436 189.307 29.9721 189.395 30.0803 189.507C30.1884 189.618 30.2741 189.751 30.3324 189.896C30.3906 190.042 30.4203 190.198 30.4197 190.355Z" fill="#8C8C8C"/>
<path d="M36.249 190.355C36.249 190.593 36.1804 190.825 36.0518 191.023C35.9232 191.22 35.7405 191.374 35.5267 191.465C35.3129 191.556 35.0778 191.579 34.851 191.533C34.6242 191.486 34.416 191.371 34.2528 191.203C34.0895 191.034 33.9786 190.82 33.934 190.587C33.8894 190.354 33.9132 190.112 34.0023 189.893C34.0914 189.674 34.2418 189.486 34.4346 189.355C34.6273 189.224 34.8536 189.154 35.0849 189.155C35.3941 189.156 35.6901 189.283 35.9083 189.508C36.1265 189.733 36.249 190.038 36.249 190.355Z" fill="#8C8C8C"/>
<path d="M42.074 190.355C42.0731 190.592 42.0041 190.823 41.8757 191.019C41.7473 191.215 41.5652 191.367 41.3524 191.457C41.1396 191.547 40.9056 191.57 40.6801 191.524C40.4546 191.477 40.2476 191.363 40.0852 191.195C39.9228 191.028 39.8124 190.815 39.7678 190.583C39.7233 190.351 39.7466 190.11 39.8348 189.892C39.923 189.674 40.0722 189.487 40.2636 189.356C40.4549 189.225 40.6798 189.155 40.9099 189.155C41.0631 189.155 41.2149 189.186 41.3564 189.246C41.4979 189.307 41.6264 189.395 41.7346 189.507C41.8427 189.618 41.9284 189.751 41.9866 189.896C42.0449 190.042 42.0746 190.198 42.074 190.355Z" fill="#8C8C8C"/>
<path d="M47.9033 190.355C47.9033 190.593 47.8347 190.825 47.7061 191.023C47.5775 191.22 47.3947 191.374 47.181 191.465C46.9672 191.556 46.732 191.579 46.5053 191.533C46.2785 191.486 46.0703 191.371 45.907 191.203C45.7438 191.034 45.6329 190.82 45.5883 190.587C45.5437 190.354 45.5674 190.112 45.6565 189.893C45.7457 189.674 45.8961 189.486 46.0888 189.355C46.2816 189.224 46.5079 189.154 46.7392 189.155C47.0483 189.156 47.3444 189.283 47.5626 189.508C47.7808 189.733 47.9033 190.038 47.9033 190.355Z" fill="#8C8C8C"/>
<path d="M204.24 37.8379H102.094V186.251H204.24V37.8379Z" fill="#263238"/>
<path d="M201.715 35.2441H99.5693V183.658H201.715V35.2441Z" fill="white" stroke="#263238" stroke-linecap="round" stroke-linejoin="round"/>
<path d="M196.701 49.9746H103.873V76.8591H196.701V49.9746Z" fill="white" stroke="#263238" stroke-linecap="round" stroke-linejoin="round"/>
<path d="M134.336 44.4507H103.873V49.9745H134.336V44.4507Z" fill="white" stroke="#263238" stroke-linecap="round" stroke-linejoin="round"/>
<path d="M196.697 44.4507H166.234V49.9745H196.697V44.4507Z" fill="white" stroke="#263238" stroke-linecap="round" stroke-linejoin="round"/>
<path d="M103.873 58.8135H196.701" stroke="#263238" stroke-linecap="round" stroke-linejoin="round"/>
<path d="M103.873 67.2852H196.701" stroke="#263238" stroke-linecap="round" stroke-linejoin="round"/>
<path d="M196.701 85.1377H103.873V112.022H196.701V85.1377Z" fill="white" stroke="#263238" stroke-linecap="round" stroke-linejoin="round"/>
<path d="M103.873 93.9771H196.701" stroke="#263238" stroke-linecap="round" stroke-linejoin="round"/>
<path d="M103.873 102.449H196.701" stroke="#263238" stroke-linecap="round" stroke-linejoin="round"/>
<path d="M105.386 52.1338H116.674" stroke="#263238" stroke-linecap="round" stroke-linejoin="round"/>
<path d="M162.955 52.1338H174.243" stroke="#263238" stroke-linecap="round" stroke-linejoin="round"/>
<path d="M105.386 45.8438H116.674" stroke="#263238" stroke-linecap="round" stroke-linejoin="round"/>
<path d="M166.709 45.8438H177.997" stroke="#263238" stroke-linecap="round" stroke-linejoin="round"/>
<path d="M105.386 60.5156H116.674" stroke="#263238" stroke-linecap="round" stroke-linejoin="round"/>
<path d="M105.386 69.7354H116.674" stroke="#263238" stroke-linecap="round" stroke-linejoin="round"/>
<path d="M140.248 69.7354H151.532" stroke="#263238" stroke-linecap="round" stroke-linejoin="round"/>
<path d="M138.43 44.8672H161.002" stroke="#263238" stroke-linecap="round" stroke-linejoin="round"/>
<path d="M138.43 47.2417H161.002" stroke="#263238" stroke-linecap="round" stroke-linejoin="round"/>
<path d="M136.154 74.7485H141.273" stroke="#263238" stroke-linecap="round" stroke-linejoin="round"/>
<path d="M142.55 74.7485H147.669" stroke="#263238" stroke-linecap="round" stroke-linejoin="round"/>
<path d="M148.946 74.7485H154.065" stroke="#263238" stroke-linecap="round" stroke-linejoin="round"/>
<path d="M196.701 117.671H103.873V144.556H196.701V117.671Z" fill="white" stroke="#263238" stroke-linecap="round" stroke-linejoin="round"/>
<path d="M105.909 124.588C105.909 124.588 107.653 120.153 106.598 121.215C105.543 122.277 104.697 126.009 107.287 125.122C109.876 124.235 111.603 120.328 110.914 121.927C110.225 123.527 110.57 124.763 112.658 123.522C114.746 122.281 115.073 122.281 115.248 122.989C115.422 123.697 115.937 123.522 117.838 122.814C119.739 122.106 119.582 123.347 119.582 123.876C119.582 124.405 122.002 124.235 122.865 123.876C123.728 123.518 124.417 122.46 124.609 123.701C124.801 124.942 126.505 124.942 126.505 124.942H131.166" stroke="#5B8FEB" stroke-linecap="round" stroke-linejoin="round"/>
<path d="M103.873 126.511H196.701" stroke="#263238" stroke-linecap="round" stroke-linejoin="round"/>
<path d="M103.873 134.982H196.701" stroke="#263238" stroke-linecap="round" stroke-linejoin="round"/>
<path d="M105.386 119.831H116.674" stroke="#263238" stroke-linecap="round" stroke-linejoin="round"/>
<path d="M162.955 119.831H174.243" stroke="#263238" stroke-linecap="round" stroke-linejoin="round"/>
<path d="M105.386 128.213H116.674" stroke="#263238" stroke-linecap="round" stroke-linejoin="round"/>
<path d="M105.386 137.433H116.674" stroke="#263238" stroke-linecap="round" stroke-linejoin="round"/>
<path d="M140.248 137.433H151.532" stroke="#263238" stroke-linecap="round" stroke-linejoin="round"/>
<path d="M136.154 142.446H141.273" stroke="#263238" stroke-linecap="round" stroke-linejoin="round"/>
<path d="M142.55 142.446H147.669" stroke="#263238" stroke-linecap="round" stroke-linejoin="round"/>
<path d="M148.946 142.446H154.065" stroke="#263238" stroke-linecap="round" stroke-linejoin="round"/>
<path d="M106.092 87.8931H132.636" stroke="#263238" stroke-linecap="round" stroke-linejoin="round"/>
<path d="M106.092 96.7637H122.403" stroke="#263238" stroke-linecap="round" stroke-linejoin="round"/>
<path d="M147.346 96.7637H163.657" stroke="#263238" stroke-linecap="round" stroke-linejoin="round"/>
<path d="M172.935 107.941H189.246" stroke="#263238" stroke-linecap="round" stroke-linejoin="round"/>
<path d="M169.417 96.7637H185.727" stroke="#263238" stroke-linecap="round" stroke-linejoin="round"/>
<path d="M170.053 105.965H166.216V109.908H170.053V105.965Z" stroke="#263238" stroke-linecap="round" stroke-linejoin="round"/>
<path d="M146.387 107.941H162.698" stroke="#263238" stroke-linecap="round" stroke-linejoin="round"/>
<path d="M143.509 105.965H139.673V109.908H143.509V105.965Z" stroke="#263238" stroke-linecap="round" stroke-linejoin="round"/>
<path d="M119.843 107.941H136.154" stroke="#263238" stroke-linecap="round" stroke-linejoin="round"/>
<path d="M116.961 105.965H113.125V109.908H116.961V105.965Z" stroke="#263238" stroke-linecap="round" stroke-linejoin="round"/>
<path d="M185.583 149.672H196.278" stroke="#263238" stroke-linecap="round" stroke-linejoin="round"/>
<path d="M143.134 149.672H184.206" stroke="#263238" stroke-linecap="round" stroke-linejoin="round"/>
<path d="M116.674 149.672H141.896" stroke="#263238" stroke-linecap="round" stroke-linejoin="round"/>
<path d="M104.492 149.672H115.706" stroke="#263238" stroke-linecap="round" stroke-linejoin="round"/>
<path d="M172.905 152.222H196.278" stroke="#263238" stroke-linecap="round" stroke-linejoin="round"/>
<path d="M128.249 152.222H171.801" stroke="#263238" stroke-linecap="round" stroke-linejoin="round"/>
<path d="M104.492 152.222H126.872" stroke="#263238" stroke-linecap="round" stroke-linejoin="round"/>
<path d="M178.969 154.771H196.278" stroke="#263238" stroke-linecap="round" stroke-linejoin="round"/>
<path d="M141.757 154.771H178.006" stroke="#263238" stroke-linecap="round" stroke-linejoin="round"/>
<path d="M120.532 154.771H139.825" stroke="#263238" stroke-linecap="round" stroke-linejoin="round"/>
<path d="M104.492 154.771H119.29" stroke="#263238" stroke-linecap="round" stroke-linejoin="round"/>
<path d="M188.478 157.319H196.278" stroke="#263238" stroke-linecap="round" stroke-linejoin="round"/>
<path d="M110.33 157.319H187.101" stroke="#263238" stroke-linecap="round" stroke-linejoin="round"/>
<path d="M104.492 157.319H109.231" stroke="#263238" stroke-linecap="round" stroke-linejoin="round"/>
<path d="M190.27 159.869H196.278" stroke="#263238" stroke-linecap="round" stroke-linejoin="round"/>
<path d="M171.113 159.869H189.032" stroke="#263238" stroke-linecap="round" stroke-linejoin="round"/>
<path d="M141.757 159.869H170.149" stroke="#263238" stroke-linecap="round" stroke-linejoin="round"/>
<path d="M114.328 159.869H140.654" stroke="#263238" stroke-linecap="round" stroke-linejoin="round"/>
<path d="M104.492 159.869H112.811" stroke="#263238" stroke-linecap="round" stroke-linejoin="round"/>
<path d="M185.448 162.418H196.278" stroke="#263238" stroke-linecap="round" stroke-linejoin="round"/>
<path d="M150.716 162.418H183.931" stroke="#263238" stroke-linecap="round" stroke-linejoin="round"/>
<path d="M128.249 162.418H148.925" stroke="#263238" stroke-linecap="round" stroke-linejoin="round"/>
<path d="M104.492 162.418H126.872" stroke="#263238" stroke-linecap="round" stroke-linejoin="round"/>
<path d="M169.595 164.972H196.278" stroke="#263238" stroke-linecap="round" stroke-linejoin="round"/>
<path d="M116.674 164.972H167.668" stroke="#263238" stroke-linecap="round" stroke-linejoin="round"/>
<path d="M104.492 164.972H115.156" stroke="#263238" stroke-linecap="round" stroke-linejoin="round"/>
<path d="M105.451 172.677H116.966" stroke="#263238" stroke-linecap="round" stroke-linejoin="round"/>
<path d="M162.379 172.677H173.894" stroke="#263238" stroke-linecap="round" stroke-linejoin="round"/>
<path d="M119.843 172.677H158.543" stroke="#263238" stroke-linecap="round" stroke-linejoin="round"/>
<path d="M177.09 172.677H195.96" stroke="#263238" stroke-linecap="round" stroke-linejoin="round"/>
<path d="M106.89 92.8748C106.89 92.8748 108.669 93.2959 109.07 91.1858C109.471 89.0758 107.836 90.2002 107.836 91.3247C107.836 92.4492 108.385 93.5647 110.452 91.8892C112.518 90.2137 111.956 90.4825 113.19 91.7458C114.424 93.0092 113.325 93.2959 115.806 92.3103C118.287 91.3247 118.422 91.7458 118.269 92.5926C118.117 93.4393 117.585 93.0137 119.913 92.1714C122.241 91.3292 123.336 90.6214 123.061 91.7234C122.786 92.8255 121.827 93.1302 123.606 91.8668C125.385 90.6034 126.484 86.5221 124.975 89.6268C123.466 92.7314 122.921 92.3148 125.115 91.8668C127.308 91.4188 127.988 89.8956 127.988 91.0201C127.988 92.1446 126.209 92.8524 127.988 92.149C129.767 91.4457 130.451 90.7423 130.451 91.4457C130.451 92.149 128.807 93.4124 131.136 92.2879C133.464 91.1634 134.148 89.8956 134.148 90.8812C134.148 91.8668 133.734 91.5846 134.148 91.8668C134.563 92.149 133.734 91.3023 134.968 91.7234C136.202 92.1446 135.653 92.9913 137.432 92.2879C139.21 91.5846 139.075 90.599 140.048 91.5846C141.02 92.5702 140.048 93.9769 142.664 92.709C145.28 91.4412 145.947 92.149 146.771 92.2879C147.45 92.3948 148.137 92.4413 148.824 92.4268C149.369 92.4268 149.234 91.8668 150.603 92.4268C151.416 92.8354 152.315 93.0294 153.219 92.9913H154.78" stroke="#5B8FEB" stroke-linecap="round" stroke-linejoin="round"/>
<path d="M163.142 93.0138C163.798 92.7226 164.437 92.3936 165.057 92.0282C166.29 91.3249 169.438 88.9371 169.573 90.4827C169.709 92.0283 166.151 93.9994 166.565 92.3105C166.979 90.6215 169.438 91.4683 171.217 92.1716C172.996 92.875 173.397 92.0282 175.599 92.0282C177.801 92.0282 177.513 92.7316 178.607 93.0138C179.702 93.2961 179.292 93.0139 181.223 92.1716C183.155 91.3294 181.768 87.2436 180.539 90.0615C179.309 92.8794 178.895 93.9994 181.768 92.5927C184.642 91.186 183.822 92.875 184.232 92.875C184.642 92.875 183.957 93.0138 185.601 92.3105C187.245 91.6071 185.191 92.5927 186.425 92.875C187.659 93.1572 188.339 91.746 189.433 91.3249C190.528 90.9038 190.667 92.1716 190.667 92.1716H191.762" stroke="#5B8FEB" stroke-linecap="round" stroke-linejoin="round"/>
<path d="M106.066 65.856C106.066 65.856 106.75 65.5738 107.845 63.8893C108.939 62.2048 107.16 61.6493 106.75 63.4682C106.34 65.287 105.381 67.4061 108.394 65.856C111.407 64.3059 110.308 61.376 109.353 63.616C108.398 65.856 108.669 68.1184 111.533 66.4295C114.398 64.7405 114.681 63.7414 115.091 64.6016C115.501 65.4618 113.997 65.7261 116.46 65.865C118.923 66.0039 119.333 65.1616 120.428 64.7405C121.522 64.3194 122.071 64.7405 122.071 64.7405C122.382 64.8368 122.706 64.8852 123.03 64.8839C123.575 64.8839 124.26 64.4358 124.535 64.8839C124.809 65.3319 121.797 65.865 125.359 65.305C128.921 64.745 129.719 62.3482 130.011 64.1805C130.303 66.0128 127.547 67.5539 127.547 65.865C127.547 64.176 129.191 62.4915 131.79 64.0371C134.388 65.5827 134.253 66.0083 135.622 66.2771C136.991 66.5459 139.18 65.0138 139.18 65.0138C139.18 65.0138 139.045 65.1526 139.864 65.5738C140.684 65.9949 140.414 65.9994 141.918 65.5738C143.422 65.1482 142.193 65.4349 144.246 65.1526C146.3 64.8704 147.255 65.0138 146.426 65.7171C145.598 66.4205 143.278 65.4349 146.291 64.8749C149.304 64.3149 149.709 65.296 149.709 65.7171C149.709 66.1383 150.533 66.2771 151.218 65.9994C151.886 65.7856 152.575 65.643 153.271 65.5738" stroke="#5B8FEB" stroke-linecap="round" stroke-linejoin="round"/>
<path d="M109.623 57.5724C110.724 57.3844 111.809 57.1072 112.867 56.7436C113.77 56.4166 114.611 55.9865 114.964 55.4623C115.919 54.0556 113.046 54.4767 111.267 56.3091C109.488 58.1414 112.362 58.2758 116.063 57.0124C119.765 55.7491 119.621 52.51 117.158 54.9023C114.694 57.2946 115.653 57.8546 119.486 57.0124C123.318 56.1702 128.106 55.1801 126.601 56.5644C125.097 57.9487 124.687 57.2678 127.286 56.7078C129.884 56.1478 131.528 54.8799 131.118 55.8611C130.708 56.8422 129.614 58.101 131.668 57.1289C133.721 56.1567 133.447 57.1289 133.447 57.1289C137.139 56.7078 139.193 51.9231 136.594 53.6121C133.996 55.3011 133.978 57.55 136.32 57.4111C138.661 57.2722 140.837 55.0188 139.742 56.1433C138.648 57.2678 136.869 58.1145 140.697 57.1289C144.525 56.1433 145.764 54.0332 145.493 55.4399C145.223 56.8466 145.083 56.7078 146.452 56.7078C147.821 56.7078 150.285 54.7366 149.465 56.1433C148.645 57.55 148.231 57.6889 149.465 57.4111C150.699 57.1334 152.474 56.1433 153.023 56.1433C153.572 56.1433 151.929 57.6889 153.568 57.55C155.207 57.4111 158.634 55.31 158.634 55.31" stroke="#5B8FEB" stroke-linecap="round" stroke-linejoin="round"/>
<path d="M154.78 55.3237C154.78 55.3237 158.203 57.7116 159.022 57.7116" stroke="#5B8FEB" stroke-linecap="round" stroke-linejoin="round"/>
<path d="M140.601 106.973L141.007 108.926L145.214 103.77" stroke="#5B8FEB" stroke-linecap="round" stroke-linejoin="round"/>
<path d="M94.0758 192.058L97.5027 195.489C97.5027 195.489 105.325 198.468 105.678 199.011C106.031 199.553 105.678 201.089 105.678 201.089H87.6622L88.1374 193.715L94.0758 192.058Z" fill="white" stroke="#263238" stroke-linecap="round" stroke-linejoin="round"/>
<path d="M105.83 199.916H87.7407L87.6622 201.089H105.678C105.761 200.703 105.812 200.311 105.83 199.916Z" fill="white" stroke="#263238" stroke-linecap="round" stroke-linejoin="round"/>
<path d="M57.0593 133.15L59.5314 163.166C59.5314 163.166 57.552 181.243 57.552 183.035C57.552 184.827 56.68 190.651 56.68 190.651L62.6401 191.399L70.5884 160.487L71.7525 147.943L81.4884 170.491L88.1505 193.725L94.0888 192.067L89.4847 162.279L80.9434 134.203L80.3287 130.919L57.0724 131.215L57.0593 133.15Z" fill="#263238" stroke="#263238" stroke-linecap="round" stroke-linejoin="round"/>
<path d="M56.68 190.651L54.936 195.544C54.936 195.544 51.6878 199.423 51.9494 200.149C52.0221 200.355 52.1379 200.542 52.2885 200.696C52.4392 200.851 52.6211 200.97 52.8214 201.045H60.9049C61.1092 200.995 61.294 200.883 61.4349 200.723C61.5758 200.563 61.6661 200.363 61.694 200.149C61.8085 199.492 61.8669 198.827 61.8684 198.16L62.6314 191.4L56.68 190.651Z" fill="white" stroke="#263238" stroke-linecap="round" stroke-linejoin="round"/>
<path d="M61.6897 200.149C61.7158 200.032 61.7376 199.911 61.7551 199.786H51.9756C51.9267 199.9 51.913 200.026 51.9364 200.149C52.0091 200.354 52.1248 200.541 52.2755 200.696C52.4262 200.851 52.6081 200.97 52.8084 201.044H60.8918C61.0977 200.996 61.2844 200.885 61.427 200.725C61.5696 200.565 61.6612 200.364 61.6897 200.149Z" fill="white" stroke="#263238" stroke-linecap="round" stroke-linejoin="round"/>
<path d="M65.3433 90.1782C65.3433 90.1782 57.7133 90.6262 55.4243 92.1942C53.1353 93.7622 42.0173 103.17 42.0173 103.17L42.5885 112.955L54.8793 103.842L56.6233 135.426L80.9303 134.194L80.3853 116.61L80.0583 116.05C80.0583 116.05 87.9063 124.338 90.8493 124.114C93.7923 123.89 94.4463 118.85 92.2663 115.714C90.0863 112.578 86.8163 108.098 84.5273 104.738C82.2383 101.378 82.2383 96.4502 78.8593 94.0982C75.4803 91.7462 69.5943 90.4022 69.5943 90.4022L65.3433 90.1782Z" fill="#5B8FEB" stroke="#263238" stroke-linecap="round" stroke-linejoin="round"/>
<path d="M80.3853 116.61L79.9101 106.499" stroke="#263238" stroke-linecap="round" stroke-linejoin="round"/>
<path d="M81.4666 110.526L81.7457 108.792" stroke="#263238" stroke-linecap="round" stroke-linejoin="round"/>
<path d="M80.5641 116.081L81.2661 111.771" stroke="#263238" stroke-linecap="round" stroke-linejoin="round"/>
<path d="M70.4097 122.542L71.504 123.769" stroke="#263238" stroke-linecap="round" stroke-linejoin="round"/>
<path d="M58.6376 109.334L69.7208 121.766" stroke="#263238" stroke-linecap="round" stroke-linejoin="round"/>
<path d="M62.6183 117.425L66.9086 121.749" stroke="#263238" stroke-linecap="round" stroke-linejoin="round"/>
<path d="M60.4732 115.271L61.7071 116.512" stroke="#263238" stroke-linecap="round" stroke-linejoin="round"/>
<path d="M58.5068 101.374L54.8793 103.842L58.376 103.533" stroke="#263238" stroke-linecap="round" stroke-linejoin="round"/>
<path d="M64.5891 81.0435C64.8301 82.753 64.9612 84.4771 64.9815 86.2044C64.9639 87.8977 64.8328 89.5876 64.5891 91.2623C64.5891 91.2623 69.5115 98.9545 70.3966 99.5593C71.2817 100.164 71.8746 97.5343 71.8746 96.4233C71.8746 95.3123 71.9749 92.0732 71.9749 92.0732V88.431L64.5891 81.0435Z" fill="#B0B0B0" stroke="#263238" stroke-linecap="round" stroke-linejoin="round"/>
<path d="M71.94 92.5705C71.94 92.2659 71.94 92.0732 71.94 92.0732V88.431L70.2658 86.7599L66.1805 85.062L71.94 92.5705Z" fill="#263238" stroke="#263238" stroke-linecap="round" stroke-linejoin="round"/>
<path d="M76.6009 70.9233C76.6009 70.9233 77.7824 74.8702 77.8827 76.4874C77.983 78.1047 77.0936 79.3233 77.0936 79.8295C77.0936 80.3358 78.4713 82.3562 78.4713 83.0686C78.4713 83.7809 76.7971 84.6858 76.7971 84.6858C76.7971 84.6858 76.1082 88.4311 74.338 89.6452C72.5679 90.8593 68.5261 87.9249 66.9522 86.4062C65.6358 85.1842 64.6796 83.6072 64.1923 81.8545C63.6996 80.2327 64.2926 76.4785 65.278 73.4545C65.638 72.1999 66.3387 71.0767 67.2977 70.2166C68.2568 69.3565 69.4346 68.7951 70.6931 68.5982C72.9559 68.1905 76.3 69.5076 76.6009 70.9233Z" fill="#B0B0B0" stroke="#263238" stroke-linecap="round" stroke-linejoin="round"/>
<path d="M75.1228 80.4876C75.1228 80.9625 74.9702 81.3478 74.7784 81.3478C74.5865 81.3478 74.4339 80.9625 74.4339 80.4876C74.4339 80.0127 74.5909 79.6274 74.7784 79.6274C74.9658 79.6274 75.1228 80.0127 75.1228 80.4876Z" fill="#263238"/>
<path d="M74.12 78.7135C74.12 78.7135 75.5021 78.0057 76.3 78.9196" stroke="#263238" stroke-linecap="round" stroke-linejoin="round"/>
<path d="M74.9266 86.2044C74.9266 86.2044 72.86 85.4965 72.7466 83.9644" stroke="#263238" stroke-linecap="round" stroke-linejoin="round"/>
<path d="M64.964 80.6715C64.964 80.6715 66.8345 80.9761 67.0307 79.9637C67.2269 78.9512 66.0453 78.7496 67.3271 77.8401C68.609 76.9307 69.5071 76.9441 69.8865 76.3214C70.2658 75.6987 69.7295 74.7355 70.4184 73.1182C71.1073 71.501 71.9357 71.9176 73.9064 72.2222C75.0585 72.3879 76.1678 72.7836 77.172 73.387C77.172 73.387 78.3841 70.7528 77.1023 69.2341C75.8204 67.7153 71.7525 66.1742 67.2225 67.5899C62.6925 69.0056 61.3191 72.3745 60.9267 76.0168C60.5343 79.659 61.912 81.684 63.22 82.0872C64.528 82.4904 64.964 80.6715 64.964 80.6715Z" fill="#263238" stroke="#263238" stroke-linecap="round" stroke-linejoin="round"/>
<path d="M65.9668 80.4339C65.9668 80.4339 64.7853 76.6931 63.7868 78.615C62.7884 80.5369 63.2942 82.1542 64.2795 82.7635C64.3973 82.8466 64.5325 82.8998 64.6742 82.9187C64.8158 82.9376 64.9598 82.9217 65.0943 82.8722C65.2288 82.8228 65.35 82.7413 65.4479 82.6344C65.5457 82.5275 65.6175 82.3982 65.6573 82.2572" fill="#B0B0B0"/>
<path d="M65.9668 80.4339C65.9668 80.4339 64.7853 76.6931 63.7868 78.615C62.7884 80.5369 63.2942 82.1542 64.2795 82.7635C64.3973 82.8466 64.5325 82.8998 64.6742 82.9187C64.8158 82.9376 64.9598 82.9217 65.0943 82.8722C65.2288 82.8228 65.35 82.7413 65.4479 82.6344C65.5457 82.5275 65.6175 82.3982 65.6573 82.2572" stroke="#263238" stroke-linecap="round" stroke-linejoin="round"/>
<path d="M87.7319 118.756C88.9876 116.386 94.5466 109.411 94.5466 109.411L98.1698 111.203C98.1698 111.203 95.4273 121.471 94.1106 122.936C92.7939 124.401 91.3464 124.898 89.8073 123.769" fill="#B0B0B0"/>
<path d="M87.7319 118.756C88.9876 116.386 94.5466 109.411 94.5466 109.411L98.1698 111.203C98.1698 111.203 95.4273 121.471 94.1106 122.936C92.7939 124.401 91.3464 124.898 89.8073 123.769" stroke="#263238" stroke-linecap="round" stroke-linejoin="round"/>
<path d="M89.8858 123.702C90.5858 124.097 91.3979 124.23 92.1829 124.078C92.9679 123.926 93.6771 123.498 94.1891 122.868C94.5858 122.42 95.1134 121.179 95.654 119.661C94.388 119.944 93.0658 119.773 91.9075 119.176C90.7492 118.58 89.8249 117.593 89.2884 116.381C88.6332 117.239 88.0676 118.166 87.6011 119.146C87.5575 119.284 87.9194 121 87.8976 121.126" fill="#5B8FEB"/>
<path d="M89.8858 123.702C90.5858 124.097 91.3979 124.23 92.1829 124.078C92.9679 123.926 93.6771 123.498 94.1891 122.868C94.5858 122.42 95.1134 121.179 95.654 119.661C94.388 119.944 93.0658 119.773 91.9075 119.176C90.7492 118.58 89.8249 117.593 89.2884 116.381C88.6332 117.239 88.0676 118.166 87.6011 119.146C87.5575 119.284 87.9194 121 87.8976 121.126" stroke="#263238" stroke-linecap="round" stroke-linejoin="round"/>
<path d="M131.114 125.086C131.029 125.087 130.944 125.07 130.865 125.037L126.213 123.052C126.132 123.02 126.058 122.971 125.995 122.909C125.933 122.846 125.883 122.772 125.849 122.69C125.815 122.607 125.797 122.519 125.796 122.429C125.796 122.34 125.813 122.251 125.846 122.168C125.88 122.086 125.929 122.011 125.991 121.948C126.053 121.885 126.126 121.835 126.207 121.802C126.288 121.769 126.375 121.752 126.462 121.754C126.549 121.756 126.635 121.775 126.715 121.811L131.367 123.796C131.505 123.856 131.619 123.964 131.689 124.101C131.759 124.238 131.781 124.395 131.752 124.547C131.722 124.698 131.642 124.835 131.526 124.933C131.41 125.031 131.264 125.085 131.114 125.086Z" fill="white" stroke="#263238" stroke-linecap="round" stroke-linejoin="round"/>
<path d="M116.591 121.61L13.189 73.9199C12.398 73.554 11.7806 72.8805 11.4724 72.0472C11.1642 71.214 11.1904 70.2892 11.5453 69.4758C11.9005 68.6633 12.5552 68.029 13.3654 67.7122C14.1756 67.3955 15.0751 67.4224 15.8661 67.7868L119.268 115.476L116.591 121.61Z" fill="white" stroke="#263238" stroke-linecap="round" stroke-linejoin="round"/>
<path d="M27.2239 73.0243L15.8879 67.7872C15.0963 67.4194 14.1951 67.3899 13.3823 67.7049C12.5696 68.02 11.9119 68.6539 11.554 69.4672C11.1961 70.2805 11.1673 71.2066 11.474 72.0417C11.7806 72.8768 12.3975 73.5526 13.189 73.9203L24.2634 79.0633L27.2239 73.0243Z" fill="white" stroke="#263238" stroke-linecap="round" stroke-linejoin="round"/>
<path d="M119.268 115.477L129.618 122.761L128.973 124.177L116.591 121.61L119.268 115.477Z" fill="white" stroke="#263238" stroke-linecap="round" stroke-linejoin="round"/>
<path d="M24.4771 71.765L15.8661 67.7957C15.0832 67.476 14.2104 67.479 13.4297 67.8042C12.6489 68.1295 12.0204 68.7518 11.6753 69.5414C11.3301 70.3311 11.2948 71.2272 11.5768 72.0429C11.8588 72.8586 12.4364 73.531 13.189 73.9199L21.4381 77.7234L24.4771 71.765Z" fill="#5B8FEB" stroke="#263238" stroke-linecap="round" stroke-linejoin="round"/>
<path d="M34.9323 78.7541C34.9323 78.7541 34.0603 83.5701 34.7143 84.4661C35.3683 85.3621 38.9653 88.7221 38.9653 88.7221C38.9653 88.7221 37.5483 108.322 37.8753 110.114C38.2023 111.906 41.9083 113.25 43.1073 112.914C44.3063 112.578 45.1783 111.234 46.2683 108.77C47.3583 106.306 42.4533 89.0581 42.4533 88.2741C42.4533 87.4901 40.1643 81.4421 40.1643 81.4421C40.1643 81.4421 42.0173 80.0981 42.3443 79.6501C42.6713 79.2021 41.0363 79.5381 40.7093 79.5381C39.6383 79.4109 38.5805 79.186 37.5483 78.8661C37.1123 78.6421 34.9323 78.7541 34.9323 78.7541Z" fill="#B0B0B0" stroke="#263238" stroke-linecap="round" stroke-linejoin="round"/>
<path d="M40.2079 79.5112C40.2079 79.5112 38.6645 79.91 38.7212 80.3042C38.7779 80.6984 38.7779 83.1938 38.7779 83.1938" fill="white"/>
<path d="M40.2079 79.5112C40.2079 79.5112 38.6645 79.91 38.7212 80.3042C38.7779 80.6984 38.7779 83.1938 38.7779 83.1938" stroke="#263238" stroke-linecap="round" stroke-linejoin="round"/>
<path d="M37.8405 79.1168C37.8405 79.1168 36.5325 79.0586 36.5325 79.7978V82.9114" fill="white"/>
<path d="M37.8405 79.1168C37.8405 79.1168 36.5325 79.0586 36.5325 79.7978V82.9114" stroke="#263238" stroke-linecap="round" stroke-linejoin="round"/>
<path d="M34.9149 79.0586L35.1373 82.9114" stroke="#263238" stroke-linecap="round" stroke-linejoin="round"/>
<path d="M43.1073 112.896C44.3063 112.56 45.1783 111.216 46.2683 108.752C46.6825 107.825 46.2378 104.792 45.5315 101.333C44.4514 102.08 43.2133 102.551 41.9203 102.707C40.6272 102.863 39.3167 102.699 38.0977 102.229C37.8841 106.078 37.7489 109.424 37.8753 110.119C38.2023 111.906 41.9083 113.25 43.1073 112.896Z" fill="#5B8FEB" stroke="#263238" stroke-linecap="round" stroke-linejoin="round"/>
<path d="M94.5074 104.044C94.9589 103.653 95.5345 103.445 96.1249 103.461C96.9969 103.546 97.1757 104.877 97.0928 106.037C97.01 107.198 95.7848 107.453 95.6366 106.705C95.4884 105.957 95.314 104.792 95.314 104.792L94.5074 104.044Z" fill="#B0B0B0" stroke="#263238" stroke-linecap="round" stroke-linejoin="round"/>
<path d="M96.9315 103.963C97.2327 103.873 97.5558 103.899 97.8394 104.037C98.1231 104.175 98.3477 104.415 98.4706 104.711C98.9546 105.791 98.3878 107.202 97.821 107.287C97.2542 107.372 97.0929 106.037 97.0929 106.037L96.9315 103.963Z" fill="#B0B0B0" stroke="#263238" stroke-linecap="round" stroke-linejoin="round"/>
<path d="M98.4706 104.711C98.5799 104.654 98.7007 104.624 98.8234 104.623C98.946 104.622 99.0671 104.651 99.1769 104.708C99.2867 104.764 99.3822 104.846 99.4556 104.947C99.5291 105.048 99.5785 105.165 99.5998 105.289C99.9268 106.288 100.249 107.529 99.5214 107.529C98.7932 107.529 98.5491 106.185 98.5491 106.185L98.4706 104.711Z" fill="#B0B0B0" stroke="#263238" stroke-linecap="round" stroke-linejoin="round"/>
<path d="M99.5999 105.28C99.5999 105.28 100.655 105.2 100.908 105.863C101.161 106.526 101.636 107.776 100.747 107.776C100.507 107.776 99.9399 106.611 99.9399 106.611L99.5999 105.28Z" fill="#B0B0B0" stroke="#263238" stroke-linecap="round" stroke-linejoin="round"/>
</svg>
