<svg width="287" height="285" viewBox="0 0 287 285" fill="none" xmlns="http://www.w3.org/2000/svg">
<path d="M243.307 169.177C256.922 147.116 262.938 114.268 250.195 90.3415C238.394 68.2744 212.954 57.618 189.518 57.024C169.244 56.5132 153.149 62.7205 137.329 74.9094C129.173 81.1998 120.93 87.9299 111.109 91.5948C103.441 94.4579 95.5538 96.43 87.6441 98.6159C59.0416 106.534 41.4141 133.389 45.2542 162.263C48.216 184.455 64.862 205.096 86.1 213.341C102.568 219.733 119.874 215.01 135.785 209.427C144.361 206.415 153.005 203.302 162.057 201.901C170.811 200.54 179.277 202.239 187.945 201.259C209.303 198.848 231.322 188.619 243.307 169.177Z" fill="#5B8FEB"/>
<path opacity="0.7" d="M243.307 169.177C256.922 147.116 262.938 114.268 250.195 90.3415C238.394 68.2744 212.954 57.618 189.518 57.024C169.244 56.5132 153.149 62.7205 137.329 74.9094C129.173 81.1998 120.93 87.9299 111.109 91.5948C103.441 94.4579 95.5538 96.43 87.6441 98.6159C59.0416 106.534 41.4141 133.389 45.2542 162.263C48.216 184.455 64.862 205.096 86.1 213.341C102.568 219.733 119.874 215.01 135.785 209.427C144.361 206.415 153.005 203.302 162.057 201.901C170.811 200.54 179.277 202.239 187.945 201.259C209.303 198.848 231.322 188.619 243.307 169.177Z" fill="white"/>
<path d="M250.063 179.976H247.635H137.726H135.298V185.013H137.726V236.21H247.635V185.013H250.063V179.976Z" fill="#5B8FEB"/>
<path opacity="0.5" d="M250.063 179.976H247.635H137.726H135.298V185.013H137.726V236.21H247.635V185.013H250.063V179.976Z" fill="white"/>
<path d="M140.67 206.712H170.644V190.151H140.67V206.712ZM141.279 190.763H170.036V206.118H141.279V190.763Z" fill="white"/>
<path d="M177.894 206.712H207.874V190.151H177.894V206.712ZM178.514 190.781H207.277V206.118H178.514V190.781Z" fill="white"/>
<path d="M215.124 190.151V206.712H245.098V190.151H215.124ZM244.49 206.118H215.732V190.781H244.49V206.118Z" fill="white"/>
<path d="M140.67 228.975H170.644V212.396H140.67V228.975ZM141.279 213.026H170.036V228.345H141.279V213.026Z" fill="white"/>
<path d="M177.894 228.975H207.874V212.396H177.894V228.975ZM178.514 213.026H207.277V228.345H178.514V213.026Z" fill="white"/>
<path d="M215.124 228.975H245.098V212.396H215.124V228.975ZM215.732 213.026H244.49V228.345H215.732V213.026Z" fill="white"/>
<path d="M155.979 200.54C158.667 200.54 160.846 199.695 160.846 198.651C160.846 197.608 158.667 196.762 155.979 196.762C153.29 196.762 151.111 197.608 151.111 198.651C151.111 199.695 153.29 200.54 155.979 200.54Z" fill="white"/>
<path d="M193.025 200.54C195.713 200.54 197.892 199.695 197.892 198.651C197.892 197.608 195.713 196.762 193.025 196.762C190.336 196.762 188.157 197.608 188.157 198.651C188.157 199.695 190.336 200.54 193.025 200.54Z" fill="white"/>
<path d="M231.144 200.54C233.832 200.54 236.012 199.695 236.012 198.651C236.012 197.608 233.832 196.762 231.144 196.762C228.456 196.762 226.277 197.608 226.277 198.651C226.277 199.695 228.456 200.54 231.144 200.54Z" fill="white"/>
<path d="M155.979 219.008C153.292 219.008 151.111 219.851 151.111 220.897C151.111 221.942 153.292 222.78 155.979 222.78C158.665 222.78 160.846 221.936 160.846 220.897C160.846 219.857 158.665 219.008 155.979 219.008Z" fill="white"/>
<path d="M193.025 219.008C190.338 219.008 188.157 219.851 188.157 220.897C188.157 221.942 190.338 222.78 193.025 222.78C195.711 222.78 197.892 221.936 197.892 220.897C197.892 219.857 195.734 219.008 193.025 219.008Z" fill="white"/>
<path d="M231.144 219.008C228.458 219.008 226.282 219.851 226.282 220.897C226.282 221.942 228.458 222.78 231.144 222.78C233.83 222.78 236.012 221.936 236.012 220.897C236.012 219.857 233.836 219.008 231.144 219.008Z" fill="white"/>
<path d="M121.791 175.575C119.576 178.978 116.488 183.404 114.84 186.956C115.466 184.615 116.08 182.4 116.637 180.422C117.481 178.705 119.742 174.375 122.377 171.512C125.689 167.841 127.107 165.483 125.321 165.281C124.087 165.138 120.471 170.122 118.204 175.07C118.697 173.377 119.088 172.1 119.352 171.333C119.461 170.989 119.564 170.615 119.668 170.217C122.013 166.821 124.149 163.276 126.062 159.602C129.408 153.133 130.487 147.027 128.255 149.652C126.2 152.07 122.624 164.093 119.782 169.747C120.023 168.773 120.253 167.698 120.454 166.635C120.856 165.607 121.384 164.562 121.682 163.611C122.147 162.15 122.555 160.677 122.882 159.174C123.422 156.839 123.695 154.447 123.697 152.046C123.755 149.226 123.012 146.451 121.562 144.063C121.177 143.469 118.824 139.828 118.118 141.687C118.026 141.997 118.008 142.325 118.066 142.643C118.41 145.738 119.495 148.583 120.167 151.595C121.171 156.103 120.506 163.671 120.167 166.89C120.041 167.401 119.88 168.031 119.69 168.761C120.155 163.154 117.808 156.507 115.632 155.343C112.94 153.906 115.581 159.549 117.659 164.479C118.643 166.636 119.106 169.009 119.007 171.393C118.583 173.009 118.095 174.832 117.59 176.674C117.486 176.923 117.394 177.178 117.303 177.428C117.536 176.226 117.631 175 117.584 173.775C117.389 170.555 113.864 164.11 111.522 165.019C109.181 165.928 113.147 169.326 115.265 173.282C116.376 175.469 116.803 177.96 116.488 180.41C116.488 180.558 116.442 180.701 116.424 180.837C116.178 181.681 115.937 182.489 115.707 183.261C115.133 185.043 114.645 186.754 114.157 188.405C114.757 186.009 115.019 183.537 114.938 181.063C114.645 176.347 111.976 171.892 109.772 171.28C107.568 170.668 111.775 178.366 113.187 182.691C113.955 185.216 114.085 187.903 113.566 190.496C112.883 192.836 112.24 195.147 111.58 197.588C111.764 194.39 111.697 191.182 111.379 187.995C110.948 182.744 107.935 179.394 105.857 179.531C103.779 179.667 105.949 182.649 108.945 189.035C110.527 192.387 111.232 196.111 110.989 199.834C110.719 200.861 110.415 201.919 110.162 203.023C109.841 204.283 109.588 205.655 109.358 207.057C109.06 205.803 108.612 203.974 108.09 201.954C107.482 199.722 107.04 197.444 106.77 195.141C106.488 192.462 105.805 189.118 103.268 187.728C103.096 187.604 102.899 187.52 102.692 187.482C102.485 187.445 102.273 187.455 102.07 187.512C101.867 187.568 101.679 187.67 101.518 187.81C101.357 187.95 101.228 188.125 101.139 188.322C100.906 188.897 100.854 189.532 100.99 190.14C101.326 191.962 101.906 193.727 102.712 195.385C102.213 196.373 101.987 197.485 102.057 198.598C102.057 199.014 102.092 199.43 102.12 199.845C101.896 199.418 101.684 199.026 101.483 198.657C101.118 198.028 100.67 197.454 100.152 196.953C100.282 195.968 100.347 194.976 100.347 193.983C100.347 192.682 98.8715 189.361 97.5398 191.821C97.006 192.807 97.1093 194.737 97.0577 196.02C96.696 196.377 96.587 197.101 96.8912 198.242C96.6846 201.212 96.6444 204.253 97.3389 207.152L96.8797 206.326C96.2328 202.89 95.8489 199.406 95.7317 195.907C95.5653 190.128 96.455 185.388 94.9339 183.606C93.4128 181.824 92.5632 188.09 93.2119 194.921C93.5174 198.038 94.3205 201.081 95.5882 203.926C94.0958 201.152 92.6206 198.325 91.2258 195.61C90.6518 194.155 89.2283 190.217 89.5784 186.225C90.0204 181.194 90.3419 177.072 88.4936 174.238C86.6453 171.405 86.2607 173.246 87.1676 179.151C87.7876 183.202 88.4477 188.619 89.5842 192.379C88.5051 190.223 87.4891 188.173 86.5822 186.32C86.0656 184.467 84.8602 179.709 84.8602 175.759C84.8602 170.734 84.3436 168.037 82.9086 169.124C81.9098 169.89 82.5527 176.091 84.1599 181.307C83.4079 179.721 82.8397 178.503 82.5125 177.784C82.3633 177.458 82.1968 177.107 82.0074 176.745C81.4822 172.608 80.7058 168.509 79.6827 164.473C77.8631 157.38 74.62 152.153 74.7233 155.652C74.8152 158.871 80.1304 170.181 81.7893 176.323C81.3186 175.438 80.7733 174.494 80.2222 173.573C79.8377 172.533 79.5334 171.399 79.1259 170.496C78.5002 169.1 77.8287 167.734 77.0767 166.403C75.9284 164.311 74.5471 162.365 72.9611 160.606C71.1239 158.441 68.7032 156.894 66.01 156.163C65.3327 155.996 61.2228 154.975 61.9231 156.876C62.0541 157.165 62.251 157.418 62.4971 157.612C64.7931 159.632 67.4565 160.944 69.9591 162.673C73.6672 165.263 78.1731 171.262 80.0328 173.87L80.9168 175.575C77.5589 171.143 71.4573 167.948 69.1039 168.637C66.1879 169.486 71.8361 171.743 76.606 173.876C78.7493 174.757 80.6526 176.166 82.1509 177.98C82.9086 179.465 83.7523 181.134 84.5961 182.839C84.6937 183.095 84.7855 183.344 84.8831 183.594C84.2629 182.55 83.5249 181.587 82.6847 180.725C80.4174 178.515 73.5868 176.287 72.479 178.604C71.3712 180.921 76.497 180.612 80.6642 182.002C82.9087 182.817 84.8552 184.329 86.2378 186.332C86.3181 186.451 86.3927 186.576 86.4731 186.688C86.8519 187.472 87.2078 188.239 87.5465 188.963C88.3271 190.668 89.0733 192.266 89.8023 193.816C88.6645 191.634 87.228 189.634 85.5375 187.876C82.2083 184.633 77.3178 183.267 75.2916 184.396C73.2654 185.524 81.4276 188.156 85.3136 190.336C87.541 191.64 89.4084 193.513 90.7379 195.777C91.7826 197.968 92.833 200.113 93.9638 202.364C91.9895 199.897 89.8261 197.599 87.4948 195.491C83.7122 191.957 79.2981 191.636 77.8688 193.205C76.4396 194.773 79.9926 195.42 86.387 197.957C89.752 199.289 92.7206 201.511 94.997 204.401C95.4792 205.346 95.9728 206.314 96.5009 207.324C97.0749 208.464 97.8039 209.652 98.573 210.834C97.5283 210.134 95.99 209.112 94.2795 208.007C92.36 206.805 90.5348 205.448 88.8208 203.95C86.8462 202.198 84.1427 200.232 81.3588 201.01C81.1515 201.041 80.9534 201.119 80.7786 201.238C80.6037 201.358 80.4563 201.515 80.3467 201.7C80.2372 201.885 80.1683 202.092 80.1448 202.307C80.1213 202.523 80.1438 202.741 80.2108 202.946C80.4135 203.534 80.794 204.038 81.2956 204.384C83.9131 206.48 87.4317 207.49 90.4796 208.732C93.2728 209.869 96.1356 210.814 99.0494 211.559C99.7727 212.634 100.525 213.698 101.282 214.707L99.9162 214.749C98.2975 214.802 90.9962 211.375 87.2882 210.276C83.5802 209.177 80.1132 211.256 83.9992 213.418C87.8851 215.581 98.4525 215.099 98.4525 215.099L101.5 215.004C102.218 215.955 102.918 216.858 103.584 217.683H89.102V221.841H91.972L94.268 236.626H113.514L115.839 221.841H118.709V217.683H109.117C109.04 215.886 109.086 214.086 109.255 212.296C109.895 211.622 110.606 211.025 111.373 210.514C115.586 207.502 122.727 207.253 124.627 201.449C125.086 200.053 124.564 198.26 122.951 198.337C121.803 198.39 120.557 199.448 119.834 200.309C117.423 203.19 115.609 206.178 112.475 208.363C111.399 209.22 110.364 210.132 109.376 211.096C109.485 210.151 109.623 209.142 109.8 208.061C110.558 206.671 111.422 205.346 112.383 204.099C114.949 200.802 118.852 198.871 121.625 195.729C122.474 194.767 123.594 191.31 120.999 192.165C119.851 192.545 118.485 194.357 117.555 195.183C115.001 197.559 112.389 200.089 110.725 203.213C110.793 202.905 110.868 202.619 110.937 202.287C112.728 199.315 114.745 196.497 116.97 193.858C120.655 189.522 124.432 186.682 124.495 184.306C124.558 181.93 119.805 185.91 115.77 191.351C113.94 193.847 112.52 196.639 111.568 199.614C112.309 196.537 113.095 193.424 113.864 190.442C114.392 188.957 115.959 185.096 118.847 182.418C122.492 179.05 125.442 176.27 125.964 172.914C126.487 169.557 125.023 170.621 121.791 175.575ZM101.409 213.781C100.863 213.014 100.295 212.183 99.6866 211.262C99.3242 209.701 99.0823 208.112 98.9633 206.51C98.8898 205.147 98.9514 203.78 99.147 202.429C100.127 203.685 101.167 204.888 102.264 206.035C102.238 207.223 102.097 208.405 101.845 209.563C101.63 210.96 101.484 212.368 101.409 213.781ZM104.531 217.695C103.791 216.881 102.981 215.913 102.103 214.725C102.125 213.783 102.25 212.846 102.476 211.933C102.827 210.494 103.331 209.099 103.98 207.775C105.34 209.112 106.339 209.997 106.339 209.997L108.635 212.082C108.457 214.155 108.354 216.103 108.291 217.683L104.531 217.695ZM108.664 211.72L107.636 210.787C107.062 210.252 106.029 208.185 104.904 205.803C105.384 204.801 105.81 203.772 106.179 202.72C107.395 205.055 108.475 206.878 109.112 207.847C108.928 209.136 108.784 210.448 108.664 211.72Z" fill="#5B8FEB"/>
<path opacity="0.5" d="M121.791 175.575C119.576 178.978 116.488 183.404 114.84 186.956C115.466 184.615 116.08 182.4 116.637 180.422C117.481 178.705 119.742 174.375 122.377 171.512C125.689 167.841 127.107 165.483 125.321 165.281C124.087 165.138 120.471 170.122 118.204 175.07C118.697 173.377 119.088 172.1 119.352 171.333C119.461 170.989 119.564 170.615 119.668 170.217C122.013 166.821 124.149 163.276 126.062 159.602C129.408 153.133 130.487 147.027 128.255 149.652C126.2 152.07 122.624 164.093 119.782 169.747C120.023 168.773 120.253 167.698 120.454 166.635C120.856 165.607 121.384 164.562 121.682 163.611C122.147 162.15 122.555 160.677 122.882 159.174C123.422 156.839 123.695 154.447 123.697 152.046C123.755 149.226 123.012 146.451 121.562 144.063C121.177 143.469 118.824 139.828 118.118 141.687C118.026 141.997 118.008 142.325 118.066 142.643C118.41 145.738 119.495 148.583 120.167 151.595C121.171 156.103 120.506 163.671 120.167 166.89C120.041 167.401 119.88 168.031 119.69 168.761C120.155 163.154 117.808 156.507 115.632 155.343C112.94 153.906 115.581 159.549 117.659 164.479C118.643 166.636 119.106 169.009 119.007 171.393C118.583 173.009 118.095 174.832 117.59 176.674C117.486 176.923 117.394 177.178 117.303 177.428C117.536 176.226 117.631 175 117.584 173.775C117.389 170.555 113.864 164.11 111.522 165.019C109.181 165.928 113.147 169.326 115.265 173.282C116.376 175.469 116.803 177.96 116.488 180.41C116.488 180.558 116.442 180.701 116.424 180.837C116.178 181.681 115.937 182.489 115.707 183.261C115.133 185.043 114.645 186.754 114.157 188.405C114.757 186.009 115.019 183.537 114.938 181.063C114.645 176.347 111.976 171.892 109.772 171.28C107.568 170.668 111.775 178.366 113.187 182.691C113.955 185.216 114.085 187.903 113.566 190.496C112.883 192.836 112.24 195.147 111.58 197.588C111.764 194.39 111.697 191.182 111.379 187.995C110.948 182.744 107.935 179.394 105.857 179.531C103.779 179.667 105.949 182.649 108.945 189.035C110.527 192.387 111.232 196.111 110.989 199.834C110.719 200.861 110.415 201.919 110.162 203.023C109.841 204.283 109.588 205.655 109.358 207.057C109.06 205.803 108.612 203.974 108.09 201.954C107.482 199.722 107.04 197.444 106.77 195.141C106.488 192.462 105.805 189.118 103.268 187.728C103.096 187.604 102.899 187.52 102.692 187.482C102.485 187.445 102.273 187.455 102.07 187.512C101.867 187.568 101.679 187.67 101.518 187.81C101.357 187.95 101.228 188.125 101.139 188.322C100.906 188.897 100.854 189.532 100.99 190.14C101.326 191.962 101.906 193.727 102.712 195.385C102.213 196.373 101.987 197.485 102.057 198.598C102.057 199.014 102.092 199.43 102.12 199.845C101.896 199.418 101.684 199.026 101.483 198.657C101.118 198.028 100.67 197.454 100.152 196.953C100.282 195.968 100.347 194.976 100.347 193.983C100.347 192.682 98.8715 189.361 97.5398 191.821C97.006 192.807 97.1093 194.737 97.0577 196.02C96.696 196.377 96.587 197.101 96.8912 198.242C96.6846 201.212 96.6444 204.253 97.3389 207.152L96.8797 206.326C96.2328 202.89 95.8489 199.406 95.7317 195.907C95.5653 190.128 96.455 185.388 94.9339 183.606C93.4128 181.824 92.5632 188.09 93.2119 194.921C93.5174 198.038 94.3205 201.081 95.5882 203.926C94.0958 201.152 92.6206 198.325 91.2258 195.61C90.6518 194.155 89.2283 190.217 89.5784 186.225C90.0204 181.194 90.3419 177.072 88.4936 174.238C86.6453 171.405 86.2607 173.246 87.1676 179.151C87.7876 183.202 88.4477 188.619 89.5842 192.379C88.5051 190.223 87.4891 188.173 86.5822 186.32C86.0656 184.467 84.8602 179.709 84.8602 175.759C84.8602 170.734 84.3436 168.037 82.9086 169.124C81.9098 169.89 82.5527 176.091 84.1599 181.307C83.4079 179.721 82.8397 178.503 82.5125 177.784C82.3633 177.458 82.1968 177.107 82.0074 176.745C81.4822 172.608 80.7058 168.509 79.6827 164.473C77.8631 157.38 74.62 152.153 74.7233 155.652C74.8152 158.871 80.1304 170.181 81.7893 176.323C81.3186 175.438 80.7733 174.494 80.2222 173.573C79.8377 172.533 79.5334 171.399 79.1259 170.496C78.5002 169.1 77.8287 167.734 77.0767 166.403C75.9284 164.311 74.5471 162.365 72.9611 160.606C71.1239 158.441 68.7032 156.894 66.01 156.163C65.3327 155.996 61.2228 154.975 61.9231 156.876C62.0541 157.165 62.251 157.418 62.4971 157.612C64.7931 159.632 67.4565 160.944 69.9591 162.673C73.6672 165.263 78.1731 171.262 80.0328 173.87L80.9168 175.575C77.5589 171.143 71.4573 167.948 69.1039 168.637C66.1879 169.486 71.8361 171.743 76.606 173.876C78.7493 174.757 80.6526 176.166 82.1509 177.98C82.9086 179.465 83.7523 181.134 84.5961 182.839C84.6937 183.095 84.7855 183.344 84.8831 183.594C84.2629 182.55 83.5249 181.587 82.6847 180.725C80.4174 178.515 73.5868 176.287 72.479 178.604C71.3712 180.921 76.497 180.612 80.6642 182.002C82.9087 182.817 84.8552 184.329 86.2378 186.332C86.3181 186.451 86.3927 186.576 86.4731 186.688C86.8519 187.472 87.2078 188.239 87.5465 188.963C88.3271 190.668 89.0733 192.266 89.8023 193.816C88.6645 191.634 87.228 189.634 85.5375 187.876C82.2083 184.633 77.3178 183.267 75.2916 184.396C73.2654 185.524 81.4276 188.156 85.3136 190.336C87.541 191.64 89.4084 193.513 90.7379 195.777C91.7826 197.968 92.833 200.113 93.9638 202.364C91.9895 199.897 89.8261 197.599 87.4948 195.491C83.7122 191.957 79.2981 191.636 77.8688 193.205C76.4396 194.773 79.9926 195.42 86.387 197.957C89.752 199.289 92.7206 201.511 94.997 204.401C95.4792 205.346 95.9728 206.314 96.5009 207.324C97.0749 208.464 97.8039 209.652 98.573 210.834C97.5283 210.134 95.99 209.112 94.2795 208.007C92.36 206.805 90.5348 205.448 88.8208 203.95C86.8462 202.198 84.1427 200.232 81.3588 201.01C81.1515 201.041 80.9534 201.119 80.7786 201.238C80.6037 201.358 80.4563 201.515 80.3467 201.7C80.2372 201.885 80.1683 202.092 80.1448 202.307C80.1213 202.523 80.1438 202.741 80.2108 202.946C80.4135 203.534 80.794 204.038 81.2956 204.384C83.9131 206.48 87.4317 207.49 90.4796 208.732C93.2728 209.869 96.1356 210.814 99.0494 211.559C99.7727 212.634 100.525 213.698 101.282 214.707L99.9162 214.749C98.2975 214.802 90.9962 211.375 87.2882 210.276C83.5802 209.177 80.1132 211.256 83.9992 213.418C87.8851 215.581 98.4525 215.099 98.4525 215.099L101.5 215.004C102.218 215.955 102.918 216.858 103.584 217.683H89.102V221.841H91.972L94.268 236.626H113.514L115.839 221.841H118.709V217.683H109.117C109.04 215.886 109.086 214.086 109.255 212.296C109.895 211.622 110.606 211.025 111.373 210.514C115.586 207.502 122.727 207.253 124.627 201.449C125.086 200.053 124.564 198.26 122.951 198.337C121.803 198.39 120.557 199.448 119.834 200.309C117.423 203.19 115.609 206.178 112.475 208.363C111.399 209.22 110.364 210.132 109.376 211.096C109.485 210.151 109.623 209.142 109.8 208.061C110.558 206.671 111.422 205.346 112.383 204.099C114.949 200.802 118.852 198.871 121.625 195.729C122.474 194.767 123.594 191.31 120.999 192.165C119.851 192.545 118.485 194.357 117.555 195.183C115.001 197.559 112.389 200.089 110.725 203.213C110.793 202.905 110.868 202.619 110.937 202.287C112.728 199.315 114.745 196.497 116.97 193.858C120.655 189.522 124.432 186.682 124.495 184.306C124.558 181.93 119.805 185.91 115.77 191.351C113.94 193.847 112.52 196.639 111.568 199.614C112.309 196.537 113.095 193.424 113.864 190.442C114.392 188.957 115.959 185.096 118.847 182.418C122.492 179.05 125.442 176.27 125.964 172.914C126.487 169.557 125.023 170.621 121.791 175.575ZM101.409 213.781C100.863 213.014 100.295 212.183 99.6866 211.262C99.3242 209.701 99.0823 208.112 98.9633 206.51C98.8898 205.147 98.9514 203.78 99.147 202.429C100.127 203.685 101.167 204.888 102.264 206.035C102.238 207.223 102.097 208.405 101.845 209.563C101.63 210.96 101.484 212.368 101.409 213.781ZM104.531 217.695C103.791 216.881 102.981 215.913 102.103 214.725C102.125 213.783 102.25 212.846 102.476 211.933C102.827 210.494 103.331 209.099 103.98 207.775C105.34 209.112 106.339 209.997 106.339 209.997L108.635 212.082C108.457 214.155 108.354 216.103 108.291 217.683L104.531 217.695ZM108.664 211.72L107.636 210.787C107.062 210.252 106.029 208.185 104.904 205.803C105.384 204.801 105.81 203.772 106.179 202.72C107.395 205.055 108.475 206.878 109.112 207.847C108.928 209.136 108.784 210.448 108.664 211.72Z" fill="white"/>
<path d="M65.1777 63.7124V123.944H109.376V63.7124H65.1777ZM106.311 119.744H68.2658V67.9179H106.311V119.744Z" fill="#5B8FEB"/>
<path opacity="0.5" d="M65.1777 63.7124V123.944H109.376V63.7124H65.1777ZM106.311 119.744H68.2658V67.9179H106.311V119.744Z" fill="white"/>
<path d="M219.842 93.0977V137.576H252.491V93.0977H219.842ZM250.212 134.47H222.138V96.228H250.23L250.212 134.47Z" fill="#5B8FEB"/>
<path opacity="0.5" d="M219.842 93.0977V137.576H252.491V93.0977H219.842ZM250.212 134.47H222.138V96.228H250.23L250.212 134.47Z" fill="white"/>
<path d="M33.1657 242.839C34.8131 237.065 51.8781 177.048 51.8207 176.596C51.7633 176.145 53.2155 168.084 56.6136 161.366C60.0117 154.648 64.73 147.164 65.3212 146.249C66.2209 144.758 66.8221 143.096 67.0891 141.36C67.5311 138.919 72.2551 132.195 73.7303 130.365C75.2055 128.536 79.631 118.913 79.9295 117.386C80.228 115.86 81.9902 114.636 84.355 114.179C86.7199 113.721 89.963 113.264 89.963 113.264C90.5632 113.995 90.9248 114.903 90.9962 115.86C90.9962 117.232 85.681 150.062 85.3882 155.563C85.0955 161.063 85.8302 164.11 83.4711 169.765C81.1119 175.42 74.1723 178.925 70.7799 181.218C67.3876 183.51 67.6459 183.986 67.6459 183.986C67.6459 183.986 69.5631 238.948 69.5171 243.267" fill="white"/>
<g style="mix-blend-mode:multiply" opacity="0.7">
<path d="M93.1545 149.278C92.5403 146.433 88.5625 148.013 88.5625 148.013C85.8537 151.055 82.5188 153.428 78.8045 154.957C72.5873 157.39 66.5792 160.36 60.844 163.837C61.4984 162.477 62.2101 161.105 62.9793 159.679C66.9456 152.42 73.9599 142.637 77.9033 141.372C80.337 140.6 82.7651 142.198 84.2804 143.552L84.4526 114.149H84.355C81.9902 114.606 80.2222 115.83 79.9295 117.357C79.6368 118.883 75.2055 128.5 73.7303 130.335C72.2551 132.171 67.5311 138.889 67.0891 141.33C66.8221 143.066 66.2209 144.728 65.3212 146.219C64.7472 147.134 60.006 154.612 56.6136 161.336C53.2213 168.06 51.7633 176.109 51.8207 176.566C51.8609 176.899 45.2943 201.514 41.1214 217.006C44.5654 209.997 49.9208 198.657 53.1754 190.276C54.4554 190.145 56.9351 186.558 58.99 183.635C61.4295 180.166 65.0859 179.216 72.4101 173.537C79.7343 167.858 87.9598 159.964 89.1824 156.81C90.405 153.656 93.7629 152.117 93.1545 149.278Z" fill="#5B8FEB"/>
</g>
<path d="M33.1657 242.839C34.8131 237.065 51.8781 177.048 51.8207 176.596C51.7633 176.145 53.2155 168.084 56.6136 161.366C60.0117 154.648 64.73 147.163 65.3212 146.249C66.2209 144.758 66.8221 143.096 67.0891 141.36C67.5311 138.919 72.2551 132.195 73.7303 130.365C75.2055 128.536 79.631 118.913 79.9295 117.386C80.228 115.86 81.9902 114.636 84.355 114.179C86.7199 113.721 89.963 113.264 89.963 113.264C90.5632 113.995 90.9248 114.903 90.9962 115.86C90.9962 117.232 85.681 150.062 85.3882 155.563C85.0955 161.063 85.8302 164.11 83.4711 169.765C81.1119 175.42 74.1723 178.925 70.7799 181.218C67.3876 183.51 67.6459 183.986 67.6459 183.986C67.6459 183.986 69.5631 238.948 69.5171 243.267" stroke="#2E353A" stroke-linecap="round" stroke-linejoin="round"/>
<path d="M84.0566 150.674C84.0566 150.674 82.4379 150.519 80.8135 147.466" stroke="#2E353A" stroke-linecap="round" stroke-linejoin="round"/>
<path d="M82.2886 130.977C82.2886 130.977 86.8806 131.892 87.4546 135.859" stroke="#2E353A" stroke-linecap="round" stroke-linejoin="round"/>
<path d="M83.7638 118.604C84.7795 119.404 85.6202 120.417 86.2306 121.577C86.841 122.737 87.2073 124.017 87.3054 125.334" stroke="#2E353A" stroke-linecap="round" stroke-linejoin="round"/>
<path d="M232.556 150.686L232.194 87.2645C232.193 85.416 231.482 83.6438 230.219 82.3373C228.955 81.0308 227.242 80.2969 225.456 80.2969H91.3406C89.5549 80.2969 87.8423 81.031 86.5797 82.3376C85.317 83.6443 84.6076 85.4166 84.6076 87.2645L84.2402 150.686C84.2395 151.61 84.4149 152.526 84.7565 153.38C85.098 154.235 85.599 155.011 86.2308 155.665C86.8625 156.319 87.6127 156.837 88.4383 157.191C89.2639 157.544 90.1487 157.726 91.0421 157.725H225.754C226.648 157.726 227.533 157.544 228.358 157.191C229.184 156.837 229.934 156.319 230.566 155.665C231.197 155.011 231.698 154.235 232.04 153.38C232.381 152.526 232.557 151.61 232.556 150.686Z" fill="#2E353A" stroke="#363636" stroke-width="0.868674" stroke-linecap="round" stroke-linejoin="round"/>
<path d="M225.019 154.28L224.727 83.7065H92.0696L91.7826 154.28H225.019Z" fill="white" stroke="#363636" stroke-width="0.651505" stroke-linecap="round" stroke-linejoin="round"/>
<path d="M224.727 83.7065H92.0696L92.0581 87.229H104.801L108.061 92.0522H224.761L224.727 83.7065Z" fill="#5B8FEB" stroke="#2E353A" stroke-linecap="round" stroke-linejoin="round"/>
<g style="mix-blend-mode:multiply" opacity="0.5">
<path d="M224.727 97.7485L131.48 154.28H225.019L224.727 97.7485Z" fill="#5B8FEB"/>
</g>
<path d="M229.464 118.974C229.471 118.387 229.017 117.905 228.45 117.897C227.883 117.89 227.417 118.359 227.409 118.947C227.402 119.534 227.856 120.016 228.423 120.023C228.991 120.031 229.457 119.561 229.464 118.974Z" fill="white"/>
<path d="M102.287 109.492C105.321 109.492 107.78 106.947 107.78 103.807C107.78 100.668 105.321 98.1228 102.287 98.1228C99.253 98.1228 96.7936 100.668 96.7936 103.807C96.7936 106.947 99.253 109.492 102.287 109.492Z" fill="#5B8FEB" stroke="#2E353A" stroke-linecap="round" stroke-linejoin="round"/>
<path d="M102.287 132.866C105.321 132.866 107.78 130.321 107.78 127.181C107.78 124.042 105.321 121.497 102.287 121.497C99.253 121.497 96.7936 124.042 96.7936 127.181C96.7936 130.321 99.253 132.866 102.287 132.866Z" fill="white" stroke="#2E353A" stroke-linecap="round" stroke-linejoin="round"/>
<path d="M139.826 109.492C142.86 109.492 145.32 106.947 145.32 103.807C145.32 100.668 142.86 98.1228 139.826 98.1228C136.793 98.1228 134.333 100.668 134.333 103.807C134.333 106.947 136.793 109.492 139.826 109.492Z" fill="white" stroke="#2E353A" stroke-linecap="round" stroke-linejoin="round"/>
<path d="M139.826 132.866C142.86 132.866 145.32 130.321 145.32 127.181C145.32 124.042 142.86 121.497 139.826 121.497C136.793 121.497 134.333 124.042 134.333 127.181C134.333 130.321 136.793 132.866 139.826 132.866Z" fill="#5B8FEB" stroke="#2E353A" stroke-linecap="round" stroke-linejoin="round"/>
<path d="M177.372 109.492C180.406 109.492 182.865 106.947 182.865 103.807C182.865 100.668 180.406 98.1228 177.372 98.1228C174.338 98.1228 171.879 100.668 171.879 103.807C171.879 106.947 174.338 109.492 177.372 109.492Z" fill="#5B8FEB" stroke="#2E353A" stroke-linecap="round" stroke-linejoin="round"/>
<path d="M177.372 132.866C180.406 132.866 182.865 130.321 182.865 127.181C182.865 124.042 180.406 121.497 177.372 121.497C174.338 121.497 171.879 124.042 171.879 127.181C171.879 130.321 174.338 132.866 177.372 132.866Z" fill="#5B8FEB" stroke="#2E353A" stroke-width="2" stroke-linecap="round" stroke-linejoin="round"/>
<path d="M214.911 109.492C217.945 109.492 220.405 106.947 220.405 103.807C220.405 100.668 217.945 98.1228 214.911 98.1228C211.878 98.1228 209.418 100.668 209.418 103.807C209.418 106.947 211.878 109.492 214.911 109.492Z" fill="#5B8FEB" stroke="#2E353A" stroke-linecap="round" stroke-linejoin="round"/>
<path d="M214.911 132.866C217.945 132.866 220.405 130.321 220.405 127.181C220.405 124.042 217.945 121.497 214.911 121.497C211.878 121.497 209.418 124.042 209.418 127.181C209.418 130.321 211.878 132.866 214.911 132.866Z" fill="white" stroke="#2E353A" stroke-linecap="round" stroke-linejoin="round"/>
<path d="M111.832 111.506H129.827" stroke="#2E353A" stroke-linecap="round" stroke-linejoin="round"/>
<path d="M111.832 115.8H129.827" stroke="#2E353A" stroke-linecap="round" stroke-linejoin="round"/>
<path d="M111.832 120.101H129.827" stroke="#2E353A" stroke-linecap="round" stroke-linejoin="round"/>
<path d="M148.861 111.506H166.856" stroke="#2E353A" stroke-linecap="round" stroke-linejoin="round"/>
<path d="M148.861 115.8H166.856" stroke="#2E353A" stroke-linecap="round" stroke-linejoin="round"/>
<path d="M148.861 120.101H166.856" stroke="#2E353A" stroke-linecap="round" stroke-linejoin="round"/>
<path d="M188.312 111.506H206.307" stroke="#2E353A" stroke-linecap="round" stroke-linejoin="round"/>
<path d="M188.312 115.8H206.307" stroke="#2E353A" stroke-linecap="round" stroke-linejoin="round"/>
<path d="M188.312 120.101H206.307" stroke="#2E353A" stroke-linecap="round" stroke-linejoin="round"/>
<path d="M111.832 135.824H129.827" stroke="#2E353A" stroke-linecap="round" stroke-linejoin="round"/>
<path d="M111.832 140.125H129.827" stroke="#2E353A" stroke-linecap="round" stroke-linejoin="round"/>
<path d="M111.832 144.419H129.827" stroke="#2E353A" stroke-linecap="round" stroke-linejoin="round"/>
<path d="M148.861 135.824H166.856" stroke="#2E353A" stroke-linecap="round" stroke-linejoin="round"/>
<path d="M148.861 140.125H166.856" stroke="#2E353A" stroke-linecap="round" stroke-linejoin="round"/>
<path d="M148.861 144.419H166.856" stroke="#2E353A" stroke-linecap="round" stroke-linejoin="round"/>
<path d="M188.312 135.824H206.307" stroke="#2E353A" stroke-linecap="round" stroke-linejoin="round"/>
<path d="M188.312 140.125H206.307" stroke="#2E353A" stroke-linecap="round" stroke-linejoin="round"/>
<path d="M188.312 144.419H206.307" stroke="#2E353A" stroke-linecap="round" stroke-linejoin="round"/>
<path d="M166.535 127.472H169.944" stroke="#2E353A" stroke-linecap="round" stroke-linejoin="round"/>
<path d="M177.733 120.421V116.014" stroke="#2E353A" stroke-linecap="round" stroke-linejoin="round"/>
<path d="M170.185 120.927L172.378 122.691" stroke="#2E353A" stroke-linecap="round" stroke-linejoin="round"/>
<path d="M172.866 132.005L170.185 133.519" stroke="#2E353A" stroke-linecap="round" stroke-linejoin="round"/>
<path d="M189.173 127.472H185.764" stroke="#2E353A" stroke-linecap="round" stroke-linejoin="round"/>
<path d="M185.517 120.927L183.33 122.691" stroke="#2E353A" stroke-linecap="round" stroke-linejoin="round"/>
<path d="M175.081 139.15L177.951 149.759" stroke="#2E353A" stroke-linecap="round" stroke-linejoin="round"/>
<path d="M172.206 137.873L173.847 143.392" stroke="#2E353A" stroke-linecap="round" stroke-linejoin="round"/>
<path d="M242.94 238.907C242.94 238.907 229.307 212.89 227.367 208.328C225.427 203.766 223.963 196.578 223.487 194.606C222.798 192.292 222.734 189.827 223.303 187.478C224.021 184.152 223.596 174.66 223.917 172.48C224.239 170.3 222.936 163.481 222.195 159.661C221.455 155.842 219.779 153.127 217.517 152.83C216.86 152.749 216.193 152.837 215.576 153.087C214.959 153.336 214.411 153.74 213.981 154.262C213.981 154.262 213.04 146.13 212.127 144.443C211.215 142.756 208.241 143 206.651 143.403C205.061 143.807 204.298 149.07 204.298 149.07C204.298 149.07 202.92 144.015 202.88 141.758C202.84 139.501 200.188 137.558 198.122 138.093C196.055 138.628 194.942 139.608 194.379 144.289C193.817 148.969 194.879 156.21 194.879 156.21L193.805 156.662C193.805 156.662 189.937 142.643 188.708 138.943C187.48 135.242 186.297 131.007 185.471 128.251C184.644 125.494 183.416 121.122 180.035 121.794C176.654 122.465 177.487 130.11 177.487 130.11C177.487 130.11 182.773 153.537 183.049 155.384C183.324 157.232 184.197 163.647 184.024 165.785C183.852 167.924 183.858 173.507 183.858 173.507L178.824 167.294C178.204 165.613 177.421 164.001 176.488 162.483C174.766 159.608 170.937 156.929 168.452 157.731C165.966 158.533 167.929 161.182 168.957 162.661C169.984 164.14 170.817 168.292 170.817 170.383C170.817 172.474 172.539 173.947 174.617 177.784C176.694 181.621 187.124 194.879 188.703 197.267C189.871 198.872 191.342 200.215 193.025 201.217C193.025 201.217 199.052 206.653 201.864 213.436C204.677 220.22 213.304 239.697 213.304 239.697" fill="white"/>
<g style="mix-blend-mode:multiply" opacity="0.7">
<path d="M222.299 232.717C225.117 230.044 225.817 208.452 225.461 200.415C225.461 200.35 225.461 200.273 225.461 200.202C224.457 197.517 223.676 195.337 223.498 194.606C222.809 192.292 222.746 189.827 223.315 187.478C224.032 184.152 223.607 174.66 223.929 172.48C224.118 171.191 223.734 168.256 223.24 165.286C221.197 165.102 217.454 167.009 217.454 167.009C217.454 167.009 214.504 162.566 212.581 162.411C210.658 162.257 207.323 165.381 207.323 165.381C207.323 165.381 205.412 158.717 201.485 159.4C197.559 160.083 196.457 159.4 194.907 159.471C193.358 159.542 192.101 155.64 190.551 151.808C189.001 147.977 186.78 133.65 185.465 130.68C185.465 130.68 183.404 124.704 180.735 126.694C178.066 128.684 180.575 135.188 181.826 139.091C183.077 142.993 183.749 150.407 184.765 153.941C185.913 157.879 185.339 163.73 186.389 168.019C187.44 172.307 190.138 173.697 188.651 179.305C187.164 184.912 183.915 183.124 180.293 179.827C176.671 176.531 174.881 168.981 172.831 169.729C172.121 169.915 171.435 170.189 170.788 170.543C170.834 172.598 172.51 174.107 174.588 177.861C176.666 181.615 187.124 194.879 188.703 197.267C189.871 198.872 191.342 200.215 193.025 201.217C193.025 201.217 199.052 206.652 201.864 213.436C202.369 214.654 203.173 216.453 204.16 218.592C205.308 219.542 202.875 215.028 203.472 215.776C207.449 220.605 219.486 235.396 222.299 232.717Z" fill="#5B8FEB"/>
</g>
<path d="M242.94 238.907C242.94 238.907 229.307 212.89 227.367 208.328C225.427 203.766 223.963 196.578 223.487 194.606C222.798 192.292 222.734 189.827 223.303 187.478C224.021 184.152 223.596 174.66 223.917 172.48C224.239 170.3 222.936 163.481 222.195 159.661C221.455 155.842 219.779 153.127 217.517 152.83C216.86 152.749 216.193 152.837 215.576 153.087C214.959 153.336 214.411 153.74 213.981 154.262C213.981 154.262 213.04 146.13 212.127 144.443C211.215 142.756 208.241 143 206.651 143.403C205.061 143.807 204.298 149.07 204.298 149.07C204.298 149.07 202.92 144.015 202.88 141.758C202.84 139.501 200.188 137.558 198.122 138.093C196.055 138.628 194.942 139.608 194.379 144.289C193.817 148.969 194.879 156.21 194.879 156.21L193.805 156.662C193.805 156.662 189.937 142.643 188.708 138.943C187.48 135.242 186.297 131.007 185.471 128.251C184.644 125.494 183.416 121.122 180.035 121.794C176.654 122.465 177.487 130.11 177.487 130.11C177.487 130.11 182.773 153.537 183.049 155.384C183.324 157.232 184.197 163.647 184.024 165.785C183.852 167.924 183.858 173.507 183.858 173.507L178.824 167.294C178.204 165.613 177.421 164.001 176.488 162.483C174.766 159.608 170.937 156.929 168.452 157.731C165.966 158.533 167.929 161.182 168.957 162.661C169.984 164.14 170.817 168.292 170.817 170.383C170.817 172.474 172.539 173.947 174.617 177.784C176.694 181.621 187.124 194.879 188.703 197.267C189.871 198.872 191.342 200.215 193.025 201.217C193.025 201.217 199.052 206.653 201.864 213.436C204.677 220.22 213.304 239.697 213.304 239.697" stroke="#2E353A" stroke-linecap="round" stroke-linejoin="round"/>
<path d="M178.244 123.493C178.244 123.493 178.87 127.508 178.99 128.013C179.26 129.148 183.795 128.607 184.156 127.734C184.478 126.956 184.243 125.269 184.243 125.269" stroke="#2E353A" stroke-linecap="round" stroke-linejoin="round"/>
<path d="M170.478 162.845C170.855 162.448 171.089 161.93 171.14 161.376C171.191 160.822 171.057 160.267 170.759 159.804C169.692 158.158 169.095 157.79 169.095 157.79" stroke="#2E353A" stroke-linecap="round" stroke-linejoin="round"/>
<path d="M183.491 146.759C183.491 146.759 185.517 147.46 187.422 144.876" stroke="#2E353A" stroke-width="0.75" stroke-linecap="round" stroke-linejoin="round"/>
<path d="M183.732 144.936C183.732 144.936 186.435 142.839 188.502 143.012" stroke="#2E353A" stroke-width="0.75" stroke-linecap="round" stroke-linejoin="round"/>
<path d="M180.931 133.977C180.931 133.977 182.957 131.886 184.581 132.337" stroke="#2E353A" stroke-width="0.75" stroke-linecap="round" stroke-linejoin="round"/>
<path d="M182.836 133.484C183.669 133.628 184.522 133.588 185.339 133.365" stroke="#2E353A" stroke-width="0.75" stroke-linecap="round" stroke-linejoin="round"/>
<path d="M204.292 149.088L205.36 155.628" stroke="#2E353A" stroke-linecap="round" stroke-linejoin="round"/>
<path d="M213.976 154.28L215.118 161.146" stroke="#2E353A" stroke-linecap="round" stroke-linejoin="round"/>
<path d="M183.852 173.549C183.852 173.549 183.565 178.687 184.042 180.677" stroke="#2E353A" stroke-linecap="round" stroke-linejoin="round"/>
<path d="M205.366 159.109C205.366 159.109 206.542 162.334 206.255 164.455" stroke="#2E353A" stroke-width="0.75" stroke-linecap="round" stroke-linejoin="round"/>
<path d="M214.992 162.441C214.992 162.441 215.79 164.104 215.313 167.134" stroke="#2E353A" stroke-width="0.75" stroke-linecap="round" stroke-linejoin="round"/>
<path d="M78.5978 153.115C78.5978 153.115 83.4711 152.201 86.123 148.844C88.7748 145.488 95.1233 141.206 97.1897 140.445C99.2561 139.685 102.505 139.525 103.687 140.594C104.87 141.663 105.455 144.259 103.687 147.318C101.919 150.377 94.71 153.252 93.2061 154.642C91.7022 156.032 90.405 156.935 88.6141 161.057C86.8709 165.051 84.3615 168.636 81.2382 171.595C78.4314 174.19 73.2711 178.622 70.6135 180.297" fill="white"/>
<g style="mix-blend-mode:multiply" opacity="0.7">
<path d="M93.1545 149.278C92.5403 146.433 88.5625 148.013 88.5625 148.013C85.8537 151.055 82.5188 153.428 78.8045 154.957C72.5873 157.39 66.5792 160.36 60.844 163.837C61.4984 162.477 62.2101 161.105 62.9793 159.679C66.9456 152.42 73.9599 142.637 77.9033 141.372C80.337 140.6 82.7651 142.198 84.2804 143.552L84.4526 114.149H84.355C81.9902 114.606 80.2222 115.83 79.9295 117.357C79.6368 118.883 75.2055 128.5 73.7303 130.335C72.2551 132.171 67.5311 138.889 67.0891 141.33C66.8221 143.066 66.2209 144.728 65.3212 146.219C64.7472 147.134 60.006 154.612 56.6136 161.336C53.2213 168.06 51.7633 176.109 51.8207 176.566C51.8609 176.899 45.2943 201.514 41.1214 217.006C44.5654 209.997 49.9208 198.657 53.1754 190.276C54.4554 190.145 56.9351 186.558 58.99 183.635C61.4295 180.166 65.0859 179.216 72.4101 173.537C79.7343 167.858 87.9598 159.964 89.1824 156.81C90.405 153.656 93.7629 152.117 93.1545 149.278Z" fill="#5B8FEB"/>
</g>
<path d="M78.5978 153.115C78.5978 153.115 83.4711 152.201 86.123 148.844C88.7748 145.488 95.1233 141.206 97.1897 140.445C99.2561 139.685 102.505 139.525 103.687 140.594C104.87 141.663 105.455 144.259 103.687 147.318C101.919 150.377 94.71 153.252 93.2061 154.642C91.7022 156.032 90.405 156.935 88.6141 161.057C86.8709 165.051 84.3615 168.636 81.2382 171.595C78.4314 174.19 73.2711 178.622 70.6135 180.297" stroke="#2E353A" stroke-linecap="round" stroke-linejoin="round"/>
<path d="M103.831 146.124C102.947 147.496 100.731 147.651 100.731 147.651C100.731 147.651 99.8473 145.667 99.2561 144.443C98.7956 143.62 98.1346 142.936 97.3389 142.459C97.3389 142.459 98.0794 140.475 99.5546 140.475" stroke="#2E353A" stroke-linecap="round" stroke-linejoin="round"/>
<path d="M46.0635 184.092C51.5093 182.872 57.0873 182.402 62.6521 182.696C72.0714 183.166 74.31 188.731 74.31 188.731L73.8623 201.259C73.8623 201.259 68.9317 197.546 58.6169 196.156C48.3021 194.767 42.9237 195.693 42.9237 195.693L46.0635 184.092Z" fill="white" stroke="#2E353A" stroke-linecap="round" stroke-linejoin="round"/>
<path d="M74.4019 242.548L76.8299 202.34C61.1367 192.593 42.9237 195.693 42.9237 195.693L27.4257 242.548H74.4019Z" fill="#2E353A" stroke="#2E353A" stroke-linecap="round" stroke-linejoin="round"/>
<path d="M196.882 211.66C196.882 211.66 198.415 205.328 206.829 200.178C215.244 195.028 227.878 197.012 227.878 197.012L229.789 202.156C229.789 202.156 219.457 201.764 211.806 206.118C204.155 210.472 200.326 215.622 200.326 215.622L196.882 211.66Z" fill="white" stroke="#2E353A" stroke-linecap="round" stroke-linejoin="round"/>
<path d="M253.852 242.548L231.144 200.54C231.144 200.54 222.534 198.2 212.202 202.554C201.87 206.908 197.657 215.224 197.657 215.224L202.002 242.548H253.852Z" fill="#2E353A" stroke="#2E353A" stroke-linecap="round" stroke-linejoin="round"/>
<path d="M202.588 216.495C202.875 217.772 202.53 218.948 201.807 219.121C201.084 219.293 200.269 218.402 199.982 217.125C199.695 215.848 200.039 214.672 200.756 214.499C201.474 214.327 202.295 215.218 202.588 216.495Z" fill="white"/>
</svg>
