<svg width="257" height="274" viewBox="0 0 257 274" fill="none" xmlns="http://www.w3.org/2000/svg">
<path d="M257 209.555H0V209.692H257V209.555Z" fill="#EBEBEB"/>
<path d="M231.249 218.373H214.225V218.51H231.249V218.373Z" fill="#EBEBEB"/>
<path d="M170.247 219.863H165.78V220H170.247V219.863Z" fill="#EBEBEB"/>
<path d="M213.711 213.287H203.847V213.424H213.711V213.287Z" fill="#EBEBEB"/>
<path d="M49.1641 214.208H26.9644V214.345H49.1641V214.208Z" fill="#EBEBEB"/>
<path d="M56.9975 214.208H53.7438V214.345H56.9975V214.208Z" fill="#EBEBEB"/>
<path d="M115.727 216.521H67.5756V216.658H115.727V216.521Z" fill="#EBEBEB"/>
<path d="M121.818 185.115H22.5697C21.7922 185.113 21.047 184.783 20.4977 184.196C19.9484 183.609 19.6399 182.814 19.6399 181.985V33.2418C19.6467 32.4176 19.9582 31.6296 20.5068 31.0488C21.0553 30.4681 21.7967 30.1415 22.5697 30.1401H121.818C122.596 30.1401 123.343 30.4698 123.893 31.0566C124.444 31.6434 124.753 32.4393 124.753 33.2692V181.985C124.753 182.815 124.444 183.611 123.893 184.198C123.343 184.785 122.596 185.115 121.818 185.115ZM22.5697 30.2497C21.8263 30.2512 21.1138 30.5671 20.5886 31.128C20.0634 31.689 19.7684 32.4492 19.7684 33.2418V181.985C19.7684 182.778 20.0634 183.538 20.5886 184.099C21.1138 184.66 21.8263 184.976 22.5697 184.978H121.818C122.562 184.976 123.275 184.66 123.801 184.1C124.327 183.539 124.623 182.779 124.624 181.985V33.2418C124.623 32.4487 124.327 31.6885 123.801 31.1277C123.275 30.5669 122.562 30.2512 121.818 30.2497H22.5697Z" fill="#EBEBEB"/>
<path d="M233.001 185.115H133.748C132.97 185.113 132.224 184.783 131.674 184.196C131.124 183.61 130.814 182.815 130.813 181.985V33.2418C130.821 32.4171 131.134 31.6291 131.683 31.0485C132.233 30.4679 132.974 30.1415 133.748 30.1401H233.001C233.774 30.143 234.514 30.4702 235.061 31.0508C235.608 31.6314 235.919 32.4186 235.926 33.2418V181.985C235.926 182.813 235.618 183.608 235.07 184.194C234.522 184.781 233.778 185.112 233.001 185.115ZM133.748 30.2497C133.004 30.2512 132.291 30.5669 131.765 31.1277C131.239 31.6885 130.943 32.4487 130.942 33.2418V181.985C130.943 182.779 131.239 183.539 131.765 184.1C132.291 184.66 133.004 184.976 133.748 184.978H233.001C233.745 184.976 234.458 184.66 234.984 184.1C235.51 183.539 235.806 182.779 235.808 181.985V33.2418C235.806 32.4487 235.51 31.6885 234.984 31.1277C234.458 30.5669 233.745 30.2512 233.001 30.2497H133.748Z" fill="#EBEBEB"/>
<path d="M84.5479 36.0312H47.9254V168.488H84.5479V36.0312Z" fill="#FAFAFA"/>
<path d="M79.0943 36.0312H76.9561L64.1832 168.488H66.3214L79.0943 36.0312Z" fill="#F5F5F5"/>
<path d="M83.9002 36.5405H47.6889V37.7078H83.9002V36.5405Z" fill="#E0E0E0"/>
<path d="M83.9002 167.327H47.6889V169.826H83.9002V167.327Z" fill="#EBEBEB"/>
<path d="M83.2988 169.716H49.0819V169.825H83.2988V169.716Z" fill="#EBEBEB"/>
<path d="M49.0819 36.5409H83.2988V169.716H85.3497V34.9023H47.031V169.716H49.0819V36.5409Z" fill="#EBEBEB"/>
<path d="M125.303 36.0312H88.6804V168.488H125.303V36.0312Z" fill="#FAFAFA"/>
<path d="M115.141 36.0312H103.468L90.6953 168.488H102.368L115.141 36.0312Z" fill="#F5F5F5"/>
<path d="M125.683 36.5405H88.444V37.7078H125.683V36.5405Z" fill="#E0E0E0"/>
<path d="M125.683 167.327H88.444V169.826H125.683V167.327Z" fill="#EBEBEB"/>
<path d="M124.054 169.716H89.8369V169.825H124.054V169.716Z" fill="#EBEBEB"/>
<path d="M89.8369 36.5409H124.054V169.716H126.1V34.9023H87.7861V169.716H89.8369V36.5409Z" fill="#EBEBEB"/>
<path d="M165.025 36.0312H129.43V168.488H165.025V36.0312Z" fill="#FAFAFA"/>
<path d="M149.6 36.0312H147.461L134.689 168.488H136.827L149.6 36.0312Z" fill="#F5F5F5"/>
<path d="M165.41 36.5405H129.199V37.7078H165.41V36.5405Z" fill="#E0E0E0"/>
<path d="M165.41 167.327H129.199V169.826H165.41V167.327Z" fill="#EBEBEB"/>
<path d="M164.809 169.716H130.592V169.825H164.809V169.716Z" fill="#EBEBEB"/>
<path d="M130.592 36.5409H164.804V169.716H166.855V34.9023H128.541V169.716H130.592V36.5409Z" fill="#EBEBEB"/>
<path d="M206.808 36.0312H170.185V168.488H206.808V36.0312Z" fill="#FAFAFA"/>
<path d="M203.225 36.0312H191.552L178.774 168.488H190.452L203.225 36.0312Z" fill="#F5F5F5"/>
<path d="M206.16 36.5405H169.949V37.7078H206.16V36.5405Z" fill="#E0E0E0"/>
<path d="M206.16 167.327H169.949V169.826H206.16V167.327Z" fill="#EBEBEB"/>
<path d="M171.342 36.5409H205.559V169.716H207.61V34.9023H169.296V169.716H171.342V36.5409Z" fill="#EBEBEB"/>
<path d="M205.559 169.716H171.342V169.825H205.559V169.716Z" fill="#EBEBEB"/>
<path d="M75.7842 138.02H59.8861V167.332H75.7842V138.02Z" fill="#EBEBEB"/>
<path d="M72.731 133.92V141.275H71.482H64.1935H62.9393V133.92H72.731Z" fill="#EBEBEB"/>
<path d="M72.731 141.274H74.7664V139.104H72.731V141.274Z" fill="#FAFAFA"/>
<path d="M68.7938 141.274H70.8292V139.104H68.7938V141.274Z" fill="#FAFAFA"/>
<path d="M64.8514 141.274H66.8868V139.104H64.8514V141.274Z" fill="#FAFAFA"/>
<path d="M60.909 141.274H62.9444V139.104H60.909V141.274Z" fill="#F0F0F0"/>
<path d="M72.731 145.214H74.7664V143.044H72.731V145.214Z" fill="#F0F0F0"/>
<path d="M68.7938 145.214H70.8292V143.044H68.7938V145.214Z" fill="#F0F0F0"/>
<path d="M64.8514 145.214H66.8868V143.044H64.8514V145.214Z" fill="#FAFAFA"/>
<path d="M60.909 145.214H62.9444V143.044H60.909V145.214Z" fill="#FAFAFA"/>
<path d="M72.731 149.16H74.7664V146.99H72.731V149.16Z" fill="#F0F0F0"/>
<path d="M68.7938 149.16H70.8292V146.99H68.7938V149.16Z" fill="#FAFAFA"/>
<path d="M64.8514 149.16H66.8868V146.99H64.8514V149.16Z" fill="#FAFAFA"/>
<path d="M68.7938 137.866H70.8292V135.696H68.7938V137.866Z" fill="#FAFAFA"/>
<path d="M64.8514 137.866H66.8868V135.696H64.8514V137.866Z" fill="#F0F0F0"/>
<path d="M60.909 149.16H62.9444V146.99H60.909V149.16Z" fill="#F0F0F0"/>
<path d="M72.731 153.106H74.7664V150.936H72.731V153.106Z" fill="#FAFAFA"/>
<path d="M68.7938 153.106H70.8292V150.936H68.7938V153.106Z" fill="#F0F0F0"/>
<path d="M64.8514 153.106H66.8868V150.936H64.8514V153.106Z" fill="#F0F0F0"/>
<path d="M60.909 153.106H62.9444V150.936H60.909V153.106Z" fill="#FAFAFA"/>
<path d="M72.731 157.052H74.7664V154.882H72.731V157.052Z" fill="#F0F0F0"/>
<path d="M68.7938 157.052H70.8292V154.882H68.7938V157.052Z" fill="#FAFAFA"/>
<path d="M64.8514 157.052H66.8868V154.882H64.8514V157.052Z" fill="#FAFAFA"/>
<path d="M60.909 157.052H62.9444V154.882H60.909V157.052Z" fill="#F0F0F0"/>
<path d="M72.731 160.992H74.7664V158.822H72.731V160.992Z" fill="#F0F0F0"/>
<path d="M68.7938 160.992H70.8292V158.822H68.7938V160.992Z" fill="#FAFAFA"/>
<path d="M64.8514 160.992H66.8868V158.822H64.8514V160.992Z" fill="#F0F0F0"/>
<path d="M60.909 160.992H62.9444V158.822H60.909V160.992Z" fill="#FAFAFA"/>
<path d="M72.731 164.937H74.7664V162.767H72.731V164.937Z" fill="#FAFAFA"/>
<path d="M68.7938 164.937H70.8292V162.767H68.7938V164.937Z" fill="#FAFAFA"/>
<path d="M64.8514 164.937H66.8868V162.767H64.8514V164.937Z" fill="#F0F0F0"/>
<path d="M60.909 164.937H62.9444V162.767H60.909V164.937Z" fill="#F0F0F0"/>
<path d="M187.785 148.694H173.542V167.326H187.785V148.694Z" fill="#F0F0F0"/>
<path d="M174.781 150.766H178.091H179.006H179.915V152.706H179.006H178.091H174.781V150.766Z" fill="#E6E6E6"/>
<path d="M174.781 154.531H178.091H179.006H179.915V156.476H179.006H178.091H174.781V154.531Z" fill="#FAFAFA"/>
<path d="M174.781 158.295H178.091H179.006H179.915V160.241H179.006H178.091H174.781V158.295Z" fill="#E6E6E6"/>
<path d="M174.781 162.06H178.091H179.499H179.915V164.005H179.499H178.091H174.781V162.06Z" fill="#FAFAFA"/>
<path d="M181.406 150.766H184.721H185.631H186.541V152.706H185.631H184.721H181.406V150.766Z" fill="#FAFAFA"/>
<path d="M181.406 154.531H184.721H186.006H186.541V156.476H186.006H184.721H181.406V154.531Z" fill="#FAFAFA"/>
<path d="M181.406 158.295H184.721H185.631H186.541V160.241H185.631H184.721H181.406V158.295Z" fill="#E6E6E6"/>
<path d="M181.406 162.06H184.721H185.631H186.541V164.005H185.631H184.721H181.406V162.06Z" fill="#FAFAFA"/>
<path d="M119.15 155.752H106.208V167.332H119.15V155.752Z" fill="#F0F0F0"/>
<path d="M116.668 158.964H118.323V157.199H116.668V158.964Z" fill="#FAFAFA"/>
<path d="M113.46 158.964H115.115V157.199H113.46V158.964Z" fill="#FAFAFA"/>
<path d="M110.248 158.964H111.903V157.199H110.248V158.964Z" fill="#FAFAFA"/>
<path d="M107.04 158.964H108.696V157.199H107.04V158.964Z" fill="#FAFAFA"/>
<path d="M116.668 162.17H118.323V160.405H116.668V162.17Z" fill="#FAFAFA"/>
<path d="M113.46 162.17H115.115V160.405H113.46V162.17Z" fill="#FAFAFA"/>
<path d="M110.248 162.17H111.903V160.405H110.248V162.17Z" fill="#FAFAFA"/>
<path d="M107.04 162.17H108.696V160.405H107.04V162.17Z" fill="#E6E6E6"/>
<path d="M116.668 165.381H118.323V163.616H116.668V165.381Z" fill="#E6E6E6"/>
<path d="M113.46 165.381H115.115V163.616H113.46V165.381Z" fill="#E6E6E6"/>
<path d="M110.248 165.381H111.903V163.616H110.248V165.381Z" fill="#FAFAFA"/>
<path d="M107.04 165.381H108.696V163.616H107.04V165.381Z" fill="#E6E6E6"/>
<path d="M104.455 147.193H91.5126V167.332H104.455V147.193Z" fill="#F0F0F0"/>
<path d="M103.628 148.075H98.7599V153.051H103.628V148.075Z" fill="#FAFAFA"/>
<path d="M97.2077 148.075H92.3401V153.051H97.2077V148.075Z" fill="#FAFAFA"/>
<path d="M103.628 154.492H98.7599V159.468H103.628V154.492Z" fill="#FAFAFA"/>
<path d="M97.2077 154.492H92.3401V159.468H97.2077V154.492Z" fill="#FAFAFA"/>
<path d="M103.628 160.909H98.7599V165.885H103.628V160.909Z" fill="#FAFAFA"/>
<path d="M97.2077 160.909H92.3401V165.885H97.2077V160.909Z" fill="#FAFAFA"/>
<path d="M128.5 234.303C183.54 234.303 228.159 231.525 228.159 228.099C228.159 224.673 183.54 221.896 128.5 221.896C73.4596 221.896 28.8405 224.673 28.8405 228.099C28.8405 231.525 73.4596 234.303 128.5 234.303Z" fill="#F5F5F5"/>
<path d="M228.509 43.6265V164.318L214.888 178.84H136.035V43.6265H228.509Z" fill="#407BFF"/>
<path opacity="0.8" d="M228.509 43.6265V164.318L214.888 178.84H136.035V43.6265H228.509Z" fill="white"/>
<path opacity="0.2" d="M214.888 178.84V164.746H228.509L215.155 178.983" fill="black"/>
<path opacity="0.1" d="M171.028 55.3479H145.524C145.165 55.3479 144.821 55.1961 144.568 54.9258C144.314 54.6555 144.172 54.2889 144.172 53.9067C144.171 53.717 144.206 53.529 144.273 53.3535C144.341 53.178 144.44 53.0184 144.566 52.884C144.692 52.7496 144.841 52.643 145.005 52.5702C145.17 52.4974 145.346 52.46 145.524 52.46H171.028C171.387 52.4614 171.731 52.6145 171.985 52.8856C172.238 53.1568 172.38 53.5239 172.38 53.9067C172.38 54.2889 172.238 54.6555 171.984 54.9258C171.731 55.1961 171.387 55.3479 171.028 55.3479Z" fill="black"/>
<path opacity="0.1" d="M217.288 67.0427H155.804C155.626 67.0427 155.45 67.0053 155.285 66.9325C155.121 66.8597 154.972 66.7531 154.846 66.6187C154.72 66.4843 154.621 66.3247 154.553 66.1492C154.486 65.9738 154.451 65.7858 154.452 65.596C154.452 65.2138 154.594 64.8472 154.848 64.5769C155.101 64.3066 155.445 64.1548 155.804 64.1548H217.288C217.647 64.1548 217.991 64.3066 218.244 64.5769C218.498 64.8472 218.64 65.2138 218.64 65.596C218.64 65.9788 218.498 66.3459 218.245 66.6171C217.991 66.8882 217.647 67.0413 217.288 67.0427Z" fill="black"/>
<path opacity="0.1" d="M217.288 72.7254H145.524C145.165 72.7254 144.821 72.5735 144.568 72.3032C144.314 72.033 144.172 71.6664 144.172 71.2841C144.171 71.0944 144.206 70.9064 144.273 70.7309C144.341 70.5554 144.44 70.3959 144.566 70.2615C144.692 70.1271 144.841 70.0204 145.005 69.9476C145.17 69.8749 145.346 69.8374 145.524 69.8374H217.288C217.647 69.8389 217.991 69.9919 218.245 70.2631C218.498 70.5342 218.64 70.9014 218.64 71.2841C218.64 71.6664 218.498 72.033 218.244 72.3032C217.991 72.5735 217.647 72.7254 217.288 72.7254Z" fill="black"/>
<path opacity="0.1" d="M217.288 79.1477H145.524C145.346 79.1477 145.17 79.1103 145.005 79.0375C144.841 78.9647 144.692 78.8581 144.566 78.7237C144.44 78.5892 144.341 78.4297 144.273 78.2542C144.206 78.0787 144.171 77.8907 144.172 77.701C144.172 77.3188 144.314 76.9522 144.568 76.6819C144.821 76.4116 145.165 76.2598 145.524 76.2598H217.288C217.647 76.2598 217.991 76.4116 218.244 76.6819C218.498 76.9522 218.64 77.3188 218.64 77.701C218.64 78.0837 218.498 78.4509 218.245 78.7221C217.991 78.9932 217.647 79.1463 217.288 79.1477Z" fill="black"/>
<path opacity="0.1" d="M217.288 85.5651H145.524C145.165 85.5651 144.821 85.4133 144.568 85.143C144.314 84.8727 144.172 84.5061 144.172 84.1239C144.172 83.7416 144.314 83.375 144.568 83.1047C144.821 82.8345 145.165 82.6826 145.524 82.6826H217.288C217.647 82.6826 217.991 82.8345 218.244 83.1047C218.498 83.375 218.64 83.7416 218.64 84.1239C218.64 84.5061 218.498 84.8727 218.244 85.143C217.991 85.4133 217.647 85.5651 217.288 85.5651Z" fill="black"/>
<path opacity="0.1" d="M217.288 91.9875H145.524C145.165 91.9875 144.821 91.8356 144.568 91.5653C144.314 91.295 144.172 90.9285 144.172 90.5462C144.171 90.3568 144.206 90.169 144.273 89.9938C144.341 89.8186 144.441 89.6595 144.566 89.5255C144.692 89.3915 144.841 89.2854 145.006 89.2132C145.17 89.141 145.346 89.1043 145.524 89.105H217.288C217.647 89.105 217.991 89.2568 218.244 89.5271C218.498 89.7974 218.64 90.164 218.64 90.5462C218.64 90.9285 218.498 91.295 218.244 91.5653C217.991 91.8356 217.647 91.9875 217.288 91.9875Z" fill="black"/>
<path opacity="0.1" d="M217.288 98.4099H145.524C145.165 98.4099 144.821 98.2581 144.568 97.9878C144.314 97.7175 144.172 97.3509 144.172 96.9687C144.171 96.779 144.206 96.591 144.273 96.4155C144.341 96.24 144.44 96.0805 144.566 95.946C144.692 95.8116 144.841 95.705 145.005 95.6322C145.17 95.5594 145.346 95.522 145.524 95.522H217.288C217.647 95.5234 217.991 95.6765 218.245 95.9476C218.498 96.2188 218.64 96.5859 218.64 96.9687C218.64 97.3509 218.498 97.7175 218.244 97.9878C217.991 98.2581 217.647 98.4099 217.288 98.4099Z" fill="black"/>
<path opacity="0.1" d="M217.293 101.945H145.524C144.777 101.945 144.172 102.59 144.172 103.386V103.392C144.172 104.188 144.777 104.833 145.524 104.833H217.293C218.04 104.833 218.645 104.188 218.645 103.392V103.386C218.645 102.59 218.04 101.945 217.293 101.945Z" fill="black"/>
<path opacity="0.1" d="M217.288 111.244H145.524C145.165 111.244 144.821 111.092 144.568 110.822C144.314 110.552 144.172 110.185 144.172 109.803C144.172 109.421 144.314 109.054 144.568 108.784C144.821 108.514 145.165 108.362 145.524 108.362H217.288C217.647 108.362 217.991 108.514 218.244 108.784C218.498 109.054 218.64 109.421 218.64 109.803C218.64 110.185 218.498 110.552 218.244 110.822C217.991 111.092 217.647 111.244 217.288 111.244Z" fill="black"/>
<path opacity="0.1" d="M217.288 117.672H145.524C145.165 117.672 144.821 117.52 144.568 117.25C144.314 116.98 144.172 116.613 144.172 116.231C144.171 116.041 144.206 115.854 144.273 115.678C144.341 115.503 144.441 115.344 144.566 115.21C144.692 115.076 144.841 114.97 145.006 114.898C145.17 114.826 145.346 114.789 145.524 114.79H217.288C217.647 114.79 217.991 114.941 218.244 115.212C218.498 115.482 218.64 115.849 218.64 116.231C218.64 116.613 218.498 116.98 218.244 117.25C217.991 117.52 217.647 117.672 217.288 117.672Z" fill="black"/>
<path opacity="0.1" d="M217.288 124.095H145.524C145.165 124.095 144.821 123.943 144.568 123.673C144.314 123.403 144.172 123.036 144.172 122.654C144.171 122.464 144.206 122.276 144.273 122.101C144.341 121.925 144.44 121.766 144.566 121.631C144.692 121.497 144.841 121.39 145.005 121.317C145.17 121.244 145.346 121.207 145.524 121.207H217.288C217.647 121.208 217.991 121.362 218.245 121.633C218.498 121.904 218.64 122.271 218.64 122.654C218.64 123.036 218.498 123.403 218.244 123.673C217.991 123.943 217.647 124.095 217.288 124.095Z" fill="black"/>
<path opacity="0.1" d="M217.288 130.517H145.524C145.346 130.517 145.17 130.48 145.005 130.407C144.841 130.334 144.692 130.228 144.566 130.093C144.44 129.959 144.341 129.799 144.273 129.624C144.206 129.448 144.171 129.26 144.172 129.071C144.172 128.688 144.314 128.322 144.568 128.052C144.821 127.781 145.165 127.629 145.524 127.629H217.288C217.647 127.629 217.991 127.781 218.244 128.052C218.498 128.322 218.64 128.688 218.64 129.071C218.64 129.453 218.498 129.821 218.245 130.092C217.991 130.363 217.647 130.516 217.288 130.517Z" fill="black"/>
<path opacity="0.1" d="M176.168 136.935H145.524C145.165 136.935 144.821 136.783 144.568 136.513C144.314 136.242 144.172 135.876 144.172 135.493C144.172 135.111 144.314 134.745 144.568 134.474C144.821 134.204 145.165 134.052 145.524 134.052H176.168C176.527 134.052 176.871 134.204 177.124 134.474C177.378 134.745 177.52 135.111 177.52 135.493C177.52 135.876 177.378 136.242 177.124 136.513C176.871 136.783 176.527 136.935 176.168 136.935Z" fill="black"/>
<path d="M211.768 73.2022L211.67 73.1146C211.393 72.8899 211.233 72.9666 211.105 72.5337C211.012 72.2213 211.105 71.8706 210.997 71.5473C210.752 70.9907 210.472 70.4525 210.159 69.9362L208.895 67.5085C208.612 66.971 208.142 66.5746 207.586 66.4061C207.03 66.2377 206.434 66.3109 205.929 66.6098L194.287 73.5256C194.241 73.942 193.917 74.227 193.85 74.6216C193.827 74.7381 193.833 74.8591 193.867 74.9725C193.901 75.0859 193.963 75.1878 194.045 75.2682C193.915 75.2654 193.788 75.2174 193.685 75.1312C192.992 74.7202 192.807 74.3914 192.092 74.8079C191.784 74.9832 191.48 75.1696 191.177 75.3559L188.093 77.1917L178.43 82.9292L167.122 89.6587L157.7 95.2538C156.415 96.0155 154.858 96.684 153.712 97.654C154.03 97.8294 154.087 98.0979 153.804 98.3609L153.29 98.8596C153.29 98.9966 153.475 98.9966 153.593 98.9418L154.231 98.6514C153.788 99.2508 153.255 99.7675 152.653 100.18C151.642 100.806 150.556 101.282 149.425 101.594L149.97 100.865C150.011 100.805 150.062 100.728 150.026 100.657C149.99 100.586 149.924 100.58 149.862 100.575C149.589 100.542 149.317 100.575 149.117 100.361C147.359 101.457 145.519 102.498 143.73 103.561C143.226 103.862 142.854 104.364 142.696 104.957C142.538 105.549 142.607 106.185 142.887 106.723L154.627 129.191C154.765 129.458 154.952 129.693 155.176 129.882C155.4 130.072 155.657 130.212 155.932 130.296C156.207 130.379 156.495 130.404 156.779 130.369C157.063 130.333 157.338 130.239 157.587 130.09L160.676 128.232C160.676 127.843 160.964 127.41 160.748 127.054C160.718 127.011 160.698 126.96 160.692 126.906C160.692 126.835 160.753 126.78 160.81 126.742C161.127 126.528 161.489 126.403 161.864 126.38C161.992 126.38 162.162 126.44 162.141 126.572C162.141 126.451 162.804 126.199 162.912 126.161C162.964 126.457 162.774 126.775 163.097 126.835C163.421 126.895 163.915 126.287 164.125 126.177L167.209 124.342L176.975 118.549L187.687 112.187L194.806 107.956C195.063 107.797 195.366 107.611 195.613 107.48C195.702 106.977 195.931 106.515 196.271 106.153C196.785 105.775 197.597 106.192 198.024 105.655C198.106 105.551 198.157 105.425 198.229 105.315C198.373 105.137 198.547 104.99 198.743 104.882C198.867 104.778 199.018 104.715 199.175 104.701C199.329 104.701 199.494 104.838 199.473 105.003C200.532 104.74 201.488 103.978 202.423 103.413C202.763 103.211 205.739 101.72 205.729 101.485C205.687 100.756 206.104 100.131 206.083 99.3802C206.083 99.2377 205.821 98.2842 205.939 98.213C203.266 99.9118 200.491 101.457 197.767 103.068C197.674 103.129 197.325 103.255 197.253 103.364C197.253 103.364 197.227 103.413 197.217 103.441L197.14 103.622V103.666C197.029 104.038 196.899 104.404 196.749 104.762C196.749 104.811 196.168 105.578 196.122 105.397C195.896 104.515 195.608 104.378 194.976 104.74L194.071 105.288L191.198 106.992L181.519 112.746L170.113 119.519L160.61 125.164L156.626 127.525C155.831 125.991 155.031 124.459 154.226 122.928L152.684 119.974C152.528 119.565 152.297 119.192 152.005 118.878C151.784 118.703 151.409 118.747 151.214 118.588C150.736 118.199 150.391 117.492 149.939 117.037C149.631 116.73 149.163 115.809 149.291 115.3C149.446 115.365 149.6 115.437 149.754 115.486C149.673 115.149 149.691 114.793 149.805 114.467C148.263 111.699 146.845 108.806 145.369 105.978L145.272 105.797L148.87 103.66L151.496 102.098C152.037 101.851 152.553 101.548 153.038 101.194C153.372 100.887 153.712 100.504 154.066 100.175C154.304 99.9818 154.563 99.8199 154.837 99.6926L155.809 99.1884C155.859 99.1564 155.915 99.1376 155.973 99.1336C156.031 99.1404 156.088 99.1551 156.143 99.1774C156.657 99.2925 157.932 98.2787 158.394 98.0047L161.386 96.2292L170.412 90.8643L181.658 84.1896L192.914 77.4986L201.971 72.1227L206.597 69.3827L206.813 69.2566L211.814 78.8302C212.124 79.4755 212.619 79.998 213.228 80.3208C213.433 80.392 213.665 80.5454 213.639 80.7701C213.613 80.9948 213.305 81.1811 213.377 81.4113C213.449 81.6414 213.845 81.5538 213.937 81.762C214.03 81.9702 213.778 82.31 213.809 82.595C213.915 82.9361 214.073 83.2564 214.276 83.543L215.731 86.3323C216.543 87.8777 217.35 89.4285 218.167 90.9903L209.275 96.273C209.319 96.3108 209.356 96.3574 209.383 96.41L209.429 96.5361C209.606 96.6028 209.778 96.6834 209.943 96.7772C210.014 96.8194 210.073 96.8817 210.113 96.9571C210.153 97.0325 210.172 97.1181 210.169 97.2046C210.168 97.2902 210.146 97.3738 210.104 97.447C210.063 97.5202 210.004 97.5803 209.933 97.6211L209.388 97.9499C209.369 98.077 209.314 98.1948 209.23 98.2878C209.147 98.3807 209.039 98.4444 208.92 98.4705C208.857 98.4762 208.794 98.4762 208.73 98.4705C208.676 98.5128 208.614 98.542 208.549 98.5562C208.483 98.5704 208.415 98.5692 208.35 98.5527C208.234 98.5145 208.136 98.43 208.076 98.3167C208.017 98.2034 208.001 98.0701 208.031 97.9444C208.052 97.8881 208.08 97.8347 208.113 97.7855C208.074 97.7057 208.057 97.616 208.062 97.5261C208.068 97.4363 208.096 97.3497 208.144 97.2759H207.98C207.887 97.2759 207.805 97.2211 207.718 97.1937C207.255 97.4981 206.896 97.9509 206.69 98.487C206.667 98.5162 206.656 98.5535 206.659 98.5911C206.659 98.6678 206.772 98.6733 206.839 98.7062C206.993 98.7829 206.957 99.024 206.88 99.1829C206.803 99.3419 206.71 99.5446 206.813 99.6871C206.852 99.7351 206.895 99.7791 206.942 99.8186C207.163 100.087 206.823 100.865 207.363 100.547C207.325 100.378 207.349 100.2 207.43 100.049C207.521 99.8962 207.662 99.785 207.826 99.7364C208.225 99.633 208.633 99.5706 209.044 99.5501L219.761 93.1604C220.265 92.8594 220.637 92.3577 220.795 91.765C220.953 91.1724 220.884 90.5372 220.604 89.9984L220.542 89.8834L215.7 80.6167L212.904 75.2572C212.632 74.7476 212.39 74.216 212.092 73.7119C212.01 73.5248 211.901 73.3528 211.768 73.2022Z" fill="#407BFF"/>
<path d="M162.249 103.479C161.895 103.019 162.003 103.008 161.936 102.514C161.936 102.514 161.936 102.514 161.936 102.482L161.895 102.432L161.833 102.356C161.591 102.471 161.35 102.597 161.108 102.739L156.374 105.55L158.281 109.195C158.014 108.69 158.96 108.838 158.996 108.833C159.096 108.801 159.2 108.783 159.304 108.778C159.407 108.801 159.497 108.866 159.556 108.959C159.754 109.327 159.812 109.762 159.72 110.175C159.664 110.723 159.936 111.271 159.643 111.819C159.895 112.258 162.172 116.675 162.182 116.669L166.916 113.858C167.189 113.694 167.836 113.403 167.996 113.113C168.155 112.822 167.903 112.367 168.186 112.23C168.292 112.189 168.406 112.173 168.519 112.185C168.632 112.196 168.741 112.234 168.839 112.296C169.74 111.344 170.32 110.1 170.486 108.759C170.653 107.418 170.397 106.056 169.759 104.887C168.428 102.339 165.405 100.821 162.758 102.005C162.573 102.087 162.82 102.969 162.378 103.068C162.462 102.891 162.584 102.738 162.732 102.619L162.249 103.479ZM165.683 111.792L163.478 113.102C163.298 112.757 163.123 112.411 162.938 112.077C163.169 112.494 162.532 112.362 162.398 112.269C162.074 112.039 161.987 111.376 161.977 111.003C161.969 110.364 161.791 109.74 161.463 109.206C160.945 108.208 160.431 107.211 159.921 106.213L162.126 104.904C164.182 103.676 166.238 104.186 167.348 106.312C168.458 108.438 167.754 110.581 165.683 111.792Z" fill="#407BFF"/>
<path d="M177.901 94.1467C178.013 94.407 178.045 94.6986 177.993 94.9797C177.967 95.1331 177.736 95.5277 177.767 95.6263C177.849 95.8455 177.931 96.0647 178.008 96.2839C178.022 96.3198 178.041 96.3531 178.065 96.3825C178.105 96.4109 178.151 96.4261 178.199 96.4264C179.016 96.5031 178.98 96.5908 179.031 97.3251C179.078 97.9553 179.586 98.317 179.874 98.865C180.261 99.585 180.429 100.415 180.355 101.241C180.281 102.067 179.97 102.848 179.463 103.477C178.956 104.107 178.278 104.553 177.524 104.756C176.769 104.958 175.974 104.907 175.248 104.608C175.229 104.628 175.208 104.646 175.187 104.663C175.079 104.721 174.955 104.736 174.837 104.707C174.57 104.626 174.328 104.47 174.137 104.255C173.946 104.04 173.813 103.774 173.753 103.485C173.745 103.441 173.745 103.397 173.753 103.353C173.607 103.161 173.478 102.956 173.367 102.739C173.103 102.287 172.929 101.78 172.857 101.253C172.785 100.725 172.816 100.187 172.947 99.6729C173.079 99.1585 173.309 98.6787 173.623 98.2634C173.936 97.8481 174.327 97.5062 174.77 97.2593C175.413 96.8685 176.15 96.6892 176.888 96.7442L176.847 96.6785C176.405 96.0537 177.998 95.8017 177.279 95.3797C176.975 95.2043 177.027 94.4097 176.95 94.0864C175.782 94.1145 174.639 94.4516 173.624 95.0673C170.334 97.0237 169.199 100.898 170.926 104.202C171.652 105.624 172.854 106.702 174.292 107.222C174.63 107.379 174.993 107.468 175.361 107.485C175.783 107.447 175.577 107.485 175.757 107.216C175.937 106.948 175.829 106.833 176.102 106.548C176.374 106.263 176.693 106.093 176.749 105.655C176.749 105.852 176.955 105.994 176.955 106.203C176.955 106.263 176.955 106.323 176.955 106.378C176.966 106.45 176.996 106.516 177.042 106.57C177.217 106.822 177.51 107.118 177.515 107.408C178.267 107.275 178.989 106.993 179.643 106.575C182.917 104.63 184.079 100.761 182.342 97.4457C181.442 95.7523 179.751 94.2563 177.901 94.1467Z" fill="#407BFF"/>
<path d="M188.412 86.5183L191.938 93.2642L183.231 89.5926L181.236 90.7817C182.583 93.3573 184.012 95.9055 185.276 98.5304C185.364 98.2455 185.569 98.1907 185.816 98.1523C186.279 98.0866 186.263 98.3332 186.515 98.8209C186.546 98.8812 186.582 98.9414 186.639 98.9524C186.695 98.9634 186.808 98.8647 186.901 98.8757C186.993 98.8866 187.029 99.0072 187.003 99.1004C186.971 99.1916 186.928 99.2782 186.875 99.3579C186.726 99.6593 186.973 99.8511 186.942 100.125C186.942 100.268 186.495 100.848 186.546 100.947L187.06 101.89L189.445 100.476L188.808 99.2593H188.689C187.996 99.3579 188.304 98.388 188.15 97.9879C187.9 97.4212 187.617 96.8721 187.302 96.3439L185.898 93.708L192.976 96.6782C192.958 96.4615 192.982 96.243 193.048 96.037C193.105 95.922 193.562 95.7082 193.562 95.5986C193.589 95.9521 193.744 96.2805 193.994 96.5138C194.266 96.7714 194.266 96.733 194.215 97.1878L194.636 97.3687L196.62 96.1905L190.812 85.0825L188.412 86.5183Z" fill="#407BFF"/>
<path d="M200.393 91.2587L199.046 88.6885L203.888 85.8115L202.86 83.8113L198.024 86.6883L196.764 84.2717L200.033 82.3317C200.171 82.1419 200.347 81.9866 200.547 81.8769C200.649 81.8213 200.766 81.8076 200.876 81.8385L202.259 81.022C202.259 81.022 201.277 79.1533 201.185 78.9561C200.712 79.1862 201.185 79.8219 200.707 80.1288C200.804 80.2384 200.948 80.6275 200.707 80.6768C200.568 80.6768 200.465 80.4905 200.326 80.5069C200.188 80.5233 200.182 80.5946 200.11 80.5727C200.089 80.5661 200.068 80.5543 200.052 80.5381C200.035 80.522 200.021 80.5019 200.013 80.4795C199.946 80.3142 199.862 80.1579 199.761 80.0137C199.437 79.6794 196.482 81.7783 196.07 82.0249L193.321 83.6689L199.124 94.7768L201.442 93.4013L201.488 93.3356C201.658 93.1054 201.822 92.8698 202.002 92.6561C202.075 92.582 202.168 92.5351 202.268 92.5223C202.368 92.5094 202.47 92.5314 202.557 92.5848C202.599 92.6079 202.635 92.6395 202.665 92.678L207.193 89.9873L206.114 87.9213L200.393 91.2587Z" fill="#407BFF"/>
<path d="M206.577 209.451C206.577 209.451 203.194 201.593 207.055 193.839C210.915 186.084 212.04 184.26 209.578 182.676C207.116 181.092 205.98 188.874 205.98 188.874C205.98 188.874 203.924 183.514 205.615 177.914C207.306 172.313 208.406 163.172 206.068 162.192C203.729 161.211 205.621 173.584 203.59 177.804C202.555 174.842 201.886 171.749 201.601 168.603C201.324 164.099 201.76 156.909 199.91 155.062C198.06 153.215 196.883 154.514 198.697 164.433C199.788 170.374 200.391 176.404 200.501 182.457C200.501 182.457 196.487 169.414 193.819 169.036C191.151 168.658 191.131 172.872 193.439 176.538C195.747 180.204 200.167 186.758 200.892 190.156C200.892 190.156 196.492 180.347 192.529 183.35C188.566 186.353 195.978 192.288 199.278 194.43C202.578 196.573 204.875 209.994 204.875 209.994L206.577 209.451Z" fill="#407BFF"/>
<path opacity="0.2" d="M206.577 209.451C206.577 209.451 203.194 201.593 207.055 193.839C210.915 186.084 212.04 184.26 209.578 182.676C207.116 181.092 205.98 188.874 205.98 188.874C205.98 188.874 203.924 183.514 205.615 177.914C207.306 172.313 208.406 163.172 206.068 162.192C203.729 161.211 205.621 173.584 203.59 177.804C202.555 174.842 201.886 171.749 201.601 168.603C201.324 164.099 201.76 156.909 199.91 155.062C198.06 153.215 196.883 154.514 198.697 164.433C199.788 170.374 200.391 176.404 200.501 182.457C200.501 182.457 196.487 169.414 193.819 169.036C191.151 168.658 191.131 172.872 193.439 176.538C195.747 180.204 200.167 186.758 200.892 190.156C200.892 190.156 196.492 180.347 192.529 183.35C188.566 186.353 195.978 192.288 199.278 194.43C202.578 196.573 204.875 209.994 204.875 209.994L206.577 209.451Z" fill="black"/>
<path d="M203.904 212.679C203.904 212.679 207.199 204.76 203.251 197.072C199.303 189.383 198.157 187.575 200.604 185.947C203.051 184.32 204.264 192.09 204.264 192.09C204.264 192.09 206.278 186.703 204.505 181.13C202.732 175.557 201.55 166.433 203.878 165.419C206.207 164.405 204.454 176.807 206.53 180.988C207.533 178.013 208.165 174.91 208.412 171.76C208.643 167.249 208.124 160.065 209.954 158.191C211.783 156.317 212.981 157.577 211.275 167.545C210.252 173.5 209.717 179.538 209.676 185.591C209.676 185.591 213.541 172.488 216.23 172.066C218.918 171.644 218.959 175.864 216.697 179.563C214.436 183.262 210.067 189.893 209.373 193.263C209.373 193.263 213.665 183.399 217.658 186.331C221.652 189.263 214.312 195.318 211.038 197.51C207.764 199.702 205.6 213.172 205.6 213.172L203.904 212.679Z" fill="#407BFF"/>
<path d="M219.087 207.034H191.897L194.097 227.781H216.887L219.087 207.034Z" fill="#263238"/>
<path d="M79.9938 76.583H62.0501C61.3589 76.583 60.6961 76.8757 60.2074 77.3968C59.7187 77.9178 59.4441 78.6245 59.4441 79.3614V97.9605C59.4441 98.6973 59.7187 99.404 60.2074 99.9251C60.6961 100.446 61.3589 100.739 62.0501 100.739H67.7915L63.9262 106.339L70.6082 100.739H79.9887C80.6798 100.739 81.3427 100.446 81.8314 99.9251C82.3201 99.404 82.5947 98.6973 82.5947 97.9605V79.3614C82.5947 78.6255 82.3208 77.9196 81.8332 77.3987C81.3456 76.8778 80.6841 76.5845 79.9938 76.583Z" fill="#407BFF"/>
<path opacity="0.6" d="M79.9938 76.583H62.0501C61.3589 76.583 60.6961 76.8757 60.2074 77.3968C59.7187 77.9178 59.4441 78.6245 59.4441 79.3614V97.9605C59.4441 98.6973 59.7187 99.404 60.2074 99.9251C60.6961 100.446 61.3589 100.739 62.0501 100.739H67.7915L63.9262 106.339L70.6082 100.739H79.9887C80.6798 100.739 81.3427 100.446 81.8314 99.9251C82.3201 99.404 82.5947 98.6973 82.5947 97.9605V79.3614C82.5947 78.6255 82.3208 77.9196 81.8332 77.3987C81.3456 76.8778 80.6841 76.5845 79.9938 76.583Z" fill="white"/>
<path d="M71.0245 97.3467C75.5239 97.3467 79.1714 93.4579 79.1714 88.6609C79.1714 83.8639 75.5239 79.9751 71.0245 79.9751C66.5251 79.9751 62.8776 83.8639 62.8776 88.6609C62.8776 93.4579 66.5251 97.3467 71.0245 97.3467Z" fill="#407BFF"/>
<path opacity="0.2" d="M77.8204 90.3661C78.7065 86.3631 76.3812 82.3521 72.6265 81.4072C68.8718 80.4624 65.1096 82.9416 64.2234 86.9447C63.3372 90.9478 65.6626 94.9588 69.4173 95.9036C73.172 96.8484 76.9342 94.3692 77.8204 90.3661Z" fill="black"/>
<path d="M70.1558 92.2172C70.0612 92.2194 69.9671 92.2017 69.8789 92.165C69.7907 92.1283 69.7101 92.0734 69.6418 92.0035L66.6761 88.9073C66.5397 88.7663 66.4615 88.5734 66.4586 88.371C66.4557 88.1685 66.5284 87.9731 66.6606 87.8278C66.7929 87.6824 66.9738 87.599 67.1637 87.596C67.3536 87.5929 67.5369 87.6704 67.6732 87.8113L70.1044 90.3486L74.309 85.3453C74.4379 85.2068 74.6118 85.1263 74.7947 85.1205C74.9777 85.1146 75.1558 85.1838 75.2922 85.3139C75.4287 85.4439 75.5132 85.6249 75.5282 85.8193C75.5432 86.0138 75.4876 86.207 75.3729 86.3591L70.6698 91.9542C70.605 92.0316 70.5259 92.0939 70.4374 92.1372C70.349 92.1806 70.2532 92.2041 70.1558 92.2063V92.2172Z" fill="white"/>
<path d="M47.7506 215.32L62.5589 213.763V195.959H68.4288V213.758L83.2988 215.32C84.0114 215.393 84.6726 215.747 85.1535 216.313C85.6344 216.878 85.9005 217.614 85.8997 218.378V220.75H45.1498V218.378C45.149 217.614 45.415 216.878 45.8959 216.313C46.3768 215.747 47.0381 215.393 47.7506 215.32Z" fill="#263238"/>
<path opacity="0.1" d="M47.7506 215.32L62.5589 213.763V195.959H68.4288V213.758L83.2988 215.32C84.0114 215.393 84.6726 215.747 85.1535 216.313C85.6344 216.878 85.9005 217.614 85.8997 218.378V220.75H45.1498V218.378C45.149 217.614 45.415 216.878 45.8959 216.313C46.3768 215.747 47.0381 215.393 47.7506 215.32Z" fill="white"/>
<path d="M84.332 227.782C86.4525 227.782 88.1716 225.949 88.1716 223.688C88.1716 221.427 86.4525 219.595 84.332 219.595C82.2115 219.595 80.4924 221.427 80.4924 223.688C80.4924 225.949 82.2115 227.782 84.332 227.782Z" fill="#263238"/>
<path d="M46.7175 227.782C48.838 227.782 50.557 225.949 50.557 223.688C50.557 221.427 48.838 219.595 46.7175 219.595C44.5969 219.595 42.8779 221.427 42.8779 223.688C42.8779 225.949 44.5969 227.782 46.7175 227.782Z" fill="#263238"/>
<path d="M67.3134 200.727H63.6538C63.0908 200.727 62.5508 200.488 62.1527 200.064C61.7546 199.639 61.5309 199.064 61.5309 198.463V180.96H69.4363V198.463C69.4363 199.064 69.2126 199.639 68.8145 200.064C68.4164 200.488 67.8765 200.727 67.3134 200.727Z" fill="#263238"/>
<path opacity="0.2" d="M67.3134 200.727H63.6538C63.0908 200.727 62.5508 200.488 62.1527 200.064C61.7546 199.639 61.5309 199.064 61.5309 198.463V180.96H69.4363V198.463C69.4363 199.064 69.2126 199.639 68.8145 200.064C68.4164 200.488 67.8765 200.727 67.3134 200.727Z" fill="white"/>
<path d="M44.9956 146.656C44.9956 146.656 49.3954 175.908 58.082 180.966H49.2515C49.2515 180.966 40.5135 170.992 37.8818 146.656H44.9956Z" fill="#263238"/>
<path opacity="0.1" d="M44.9956 146.656C44.9956 146.656 49.3954 175.908 58.082 180.966H49.2515C49.2515 180.966 40.5135 170.992 37.8818 146.656H44.9956Z" fill="white"/>
<path d="M48.83 176.829H83.2269C83.9085 176.829 84.5622 177.117 85.0441 177.631C85.5261 178.145 85.7969 178.842 85.7969 179.569V183.235H46.26V179.569C46.26 178.842 46.5308 178.145 47.0127 177.631C47.4947 177.117 48.1484 176.829 48.83 176.829Z" fill="#407BFF"/>
<path d="M86.3931 180.029H45.6278C45.0572 180.029 44.5946 180.522 44.5946 181.13V182.128C44.5946 182.736 45.0572 183.229 45.6278 183.229H86.3931C86.9637 183.229 87.4263 182.736 87.4263 182.128V181.13C87.4263 180.522 86.9637 180.029 86.3931 180.029Z" fill="#263238"/>
<path opacity="0.6" d="M86.3931 180.029H45.6278C45.0572 180.029 44.5946 180.522 44.5946 181.13V182.128C44.5946 182.736 45.0572 183.229 45.6278 183.229H86.3931C86.9637 183.229 87.4263 182.736 87.4263 182.128V181.13C87.4263 180.522 86.9637 180.029 86.3931 180.029Z" fill="white"/>
<path d="M36.8384 152.607H50.9682C55.1111 152.607 57.7993 149.067 56.9769 144.699L55.8769 138.868C55.0545 134.484 51.0299 130.966 46.8922 130.966H32.7624C28.6195 130.966 25.9313 134.506 26.7537 138.868L27.8537 144.699C28.6761 149.056 32.6955 152.607 36.8384 152.607Z" fill="#407BFF"/>
<path d="M111.816 201.604L108.577 202.958L106.249 198.278L104.131 194.02L107.719 191.729L109.888 196.951L111.816 201.604Z" fill="#E4897B"/>
<path opacity="0.2" d="M109.888 196.951L106.249 198.278L104.131 194.02L107.719 191.729L109.888 196.951Z" fill="black"/>
<path d="M109.215 194.397L104.81 196.918C104.81 196.918 88.1613 165.709 85.6016 165.972C83.0418 166.236 58.7553 182.73 51.3486 176.637C43.9419 170.543 51.1481 152.196 51.1481 152.196C51.1481 152.196 66.4705 147.527 68.1101 151.1C68.5423 152.17 68.9097 153.268 69.2101 154.388C69.5339 155.511 69.7806 156.459 69.7806 156.459C70.2484 156.256 85.3805 149.642 92.1345 153.171C99.0272 156.799 109.215 194.397 109.215 194.397Z" fill="#263238"/>
<path opacity="0.3" d="M109.215 194.397L104.81 196.918C104.81 196.918 88.1613 165.709 85.6016 165.972C83.0418 166.236 58.7553 182.73 51.3486 176.637C43.9419 170.543 51.1481 152.196 51.1481 152.196C51.1481 152.196 66.4705 147.527 68.1101 151.1C68.5423 152.17 68.9097 153.268 69.2101 154.388C69.5339 155.511 69.7806 156.459 69.7806 156.459C70.2484 156.256 85.3805 149.642 92.1345 153.171C99.0272 156.799 109.215 194.397 109.215 194.397Z" fill="white"/>
<path d="M85.2829 219.847L81.8288 219.425L81.8082 214.23L81.8031 209.462L85.9819 209.254L85.6118 214.86L85.2829 219.847Z" fill="#E4897B"/>
<path opacity="0.2" d="M85.6016 214.975L81.798 214.328V209.512L85.9768 209.276L85.6016 214.975Z" fill="black"/>
<path d="M102.656 195.367L109.102 191.926L109.775 194.841L104.892 197.526L102.656 195.367Z" fill="#407BFF"/>
<path d="M62.7903 176.686C62.7903 176.686 63.8491 176.56 80.1377 173.343C80.1377 173.343 80.5078 195.548 81.2788 212.103L86.2955 212.273C86.2955 212.273 93.4915 175.557 92.6434 169.989C91.7953 164.422 85.6067 163.693 85.6067 163.693C85.6067 163.693 74.859 172.62 62.7903 176.686Z" fill="#263238"/>
<path opacity="0.4" d="M62.7903 176.686C62.7903 176.686 63.8491 176.56 80.1377 173.343C80.1377 173.343 80.5078 195.548 81.2788 212.103L86.2955 212.273C86.2955 212.273 93.4915 175.557 92.6434 169.989C91.7953 164.422 85.6067 163.693 85.6067 163.693C85.6067 163.693 74.859 172.62 62.7903 176.686Z" fill="white"/>
<path opacity="0.3" d="M62.7903 176.686C62.7903 176.686 63.8491 176.56 80.1377 173.343C80.1377 173.343 80.5078 195.548 81.2788 212.103L86.2955 212.273C86.2955 212.273 93.4915 175.557 92.6434 169.989C91.7953 164.422 85.6067 163.693 85.6067 163.693C85.6067 163.693 74.859 172.62 62.7903 176.686Z" fill="black"/>
<path d="M80.3588 210.623L87.2001 210.454L86.2646 213.457L80.7134 213.511L80.3588 210.623Z" fill="#407BFF"/>
<path opacity="0.3" d="M69.8012 156.47L60.9244 159.841C60.9244 159.841 65.5915 156.125 69.2307 154.399C69.5545 155.522 69.8012 156.47 69.8012 156.47Z" fill="black"/>
<path d="M50.1201 151.067L50.4491 153.692L67.0873 149.927L66.7018 146.826L50.1201 151.067Z" fill="#263238"/>
<path opacity="0.2" d="M50.1201 151.067L50.4491 153.692L67.0873 149.927L66.7018 146.826L50.1201 151.067Z" fill="black"/>
<path d="M55.6329 149.16L54.8041 149.324L55.587 153.823L56.4158 153.659L55.6329 149.16Z" fill="#263238"/>
<path d="M62.8882 148.021L59.2578 148.894L59.8782 151.828L63.5085 150.956L62.8882 148.021Z" fill="white"/>
<path d="M65.2224 146.188L64.3963 146.35L65.1688 150.834L65.9949 150.673L65.2224 146.188Z" fill="#263238"/>
<path opacity="0.3" d="M55.6329 149.16L54.8041 149.324L55.587 153.823L56.4158 153.659L55.6329 149.16Z" fill="white"/>
<path opacity="0.3" d="M65.2224 146.188L64.3963 146.35L65.1688 150.834L65.9949 150.673L65.2224 146.188Z" fill="white"/>
<path d="M118.251 207.73C117.71 207.554 117.144 207.485 116.58 207.528C116.58 207.528 114.488 206.596 111.954 202.163L109.796 202.464C109.432 202.522 109.094 202.698 108.828 202.967C108.561 203.237 108.379 203.587 108.305 203.971C108.289 204.08 108.289 204.191 108.305 204.3C108.398 204.856 108.525 205.405 108.685 205.944C109.239 207.725 109.893 209.469 110.644 211.166L110.993 211.013L109.878 207.692C109.508 206.558 110.798 207.517 111.481 208.613C112.165 209.709 113.137 210.772 115.444 209.84C118.127 208.722 119.191 208.13 118.251 207.73Z" fill="#263238"/>
<path d="M111.415 200.984C111.415 200.984 114.879 206.596 116.58 207.527C116.58 207.527 114.673 209.171 112.129 206.53C108.845 203.138 108.295 204.3 108.295 204.3C108.265 203.635 108.295 202.969 108.382 202.311C108.644 201.023 111.415 200.984 111.415 200.984Z" fill="#E4897B"/>
<path d="M90.464 226.379C89.9717 226.076 89.4317 225.872 88.8706 225.776C88.8706 225.776 87.0459 224.346 85.581 219.403L83.4171 219.151C83.0499 219.113 82.681 219.199 82.3614 219.395C82.0419 219.592 81.7875 219.889 81.6335 220.247C81.5874 220.345 81.5562 220.45 81.541 220.559C81.505 221.119 81.505 221.681 81.541 222.241C81.6804 224.112 81.9276 225.971 82.2811 227.809L82.6564 227.749L82.3223 224.23C82.2143 223.036 83.2577 224.296 83.6792 225.535C84.1007 226.773 84.8049 228.05 87.2515 227.727C90.1094 227.316 91.271 227.009 90.464 226.379Z" fill="#263238"/>
<path d="M85.324 218.104C85.324 218.104 87.4417 224.433 88.886 225.776C88.886 225.776 86.6707 226.872 84.774 223.682C82.3325 219.556 81.5461 220.548 81.5461 220.548C81.6611 219.896 81.8332 219.258 82.0601 218.641C82.605 217.435 85.324 218.104 85.324 218.104Z" fill="#E4897B"/>
<path d="M46.4964 106.312L42.148 107.243C41.9781 107.396 41.7774 107.505 41.5616 107.561C41.3458 107.617 41.1208 107.619 40.9041 107.567C39.6088 107.019 37.743 105.413 37.5066 104.827C37.1571 103.999 37.5066 101.572 38.4215 101.133C39.3364 100.695 42.4872 104.75 42.4872 104.75L47.1595 103.627L46.4964 106.312Z" fill="#E4897B"/>
<path d="M60.21 121.722C60.21 121.722 59.8142 106.701 58.1848 106.06C56.5554 105.419 44.3068 107.211 44.3068 107.211L44.0087 103.78C44.0087 103.78 58.2619 101.44 61.0221 102.827C63.7823 104.213 64.692 126.599 64.1883 130.912L60.21 121.722Z" fill="#407BFF"/>
<path opacity="0.6" d="M60.21 121.722C60.21 121.722 59.8142 106.701 58.1848 106.06C56.5554 105.419 44.3068 107.211 44.3068 107.211L44.0087 103.78C44.0087 103.78 58.2619 101.44 61.0221 102.827C63.7823 104.213 64.692 126.599 64.1883 130.912L60.21 121.722Z" fill="white"/>
<path d="M44.5175 107.539L43.6643 103.769L44.8876 103.298L45.6638 107.654L44.5175 107.539Z" fill="#407BFF"/>
<path opacity="0.7" d="M44.5175 107.539L43.6643 103.769L44.8876 103.298L45.6638 107.654L44.5175 107.539Z" fill="white"/>
<path d="M60.138 119.848C60.138 119.848 59.0432 124.418 53.7695 125.876C48.4959 127.333 42.662 123.525 42.662 123.525L43.8236 134.43L50.2795 151.61L66.7789 147.023C66.7789 147.023 65.792 127.037 60.138 119.848Z" fill="#407BFF"/>
<path opacity="0.7" d="M60.138 119.848C60.138 119.848 59.0432 124.418 53.7695 125.876C48.4959 127.333 42.662 123.525 42.662 123.525L43.8236 134.43L50.2795 151.61L66.7789 147.023C66.7789 147.023 65.792 127.037 60.138 119.848Z" fill="white"/>
<path opacity="0.6" d="M63.0055 137.97L64.9368 137.32C65.1507 137.248 65.2694 137.005 65.2019 136.777L64.0513 132.889C63.9838 132.661 63.7558 132.534 63.5419 132.606L61.6106 133.256C61.3967 133.328 61.278 133.571 61.3455 133.799L62.4961 137.687C62.5636 137.915 62.7916 138.042 63.0055 137.97Z" fill="#407BFF"/>
<path opacity="0.2" d="M62.6122 136.785L64.8082 136.046L63.8602 132.842L61.6642 133.581L62.6122 136.785Z" fill="black"/>
<path d="M62.5387 131.684L62.0534 131.847L62.6117 133.734L63.0969 133.571L62.5387 131.684Z" fill="#263238"/>
<path d="M48.9225 102.777C44.8568 102.777 42.1737 107.37 43.1246 114.653C44.0755 121.935 47.8842 124.034 47.8842 124.034L47.6427 122.275C51.8709 123.298 56.2302 123.558 60.5389 123.042C60.5389 123.042 58.5754 117.102 59.2128 111.036C59.2128 111.036 60.5029 102.766 48.9225 102.777Z" fill="#263238"/>
<path opacity="0.2" d="M56.9975 124.396L58.6577 130.972L55.7382 128.599C55.7382 128.599 58.5806 135.526 59.3362 139.559C59.3362 139.559 56.8792 132.693 54.7616 128.928L53.5228 132.698L48.5422 127.289C48.5422 127.289 52.942 123.694 56.9975 124.396Z" fill="black"/>
<path d="M54.5714 126.517L49.5033 126.681C51.7495 123.618 47.6889 118.28 47.6889 118.28L52.6953 119.437C53.8878 124.719 55.9489 124.878 55.9489 124.878L54.5714 126.517Z" fill="#E4897B"/>
<path opacity="0.2" d="M54.0934 123.229C52.1595 123.056 50.3609 122.101 49.0664 120.56C48.6665 119.768 48.2058 119.013 47.6889 118.302L52.6953 119.464C52.9604 120.793 53.433 122.066 54.0934 123.229Z" fill="black"/>
<path d="M52.6901 105.008C57.054 105.397 58.267 108.011 58.2105 112.839C58.1437 118.867 56.5606 123.015 51.2047 121.251C43.9264 118.856 45.4376 104.361 52.6901 105.008Z" fill="#E4897B"/>
<path d="M55.4092 112.34C55.7047 113.067 56.0809 113.753 56.5297 114.384C56.386 114.564 56.1989 114.698 55.9887 114.772C55.7785 114.847 55.5532 114.858 55.3372 114.806L55.4092 112.34Z" fill="#DE5753"/>
<path d="M52.4537 111.562L53.3995 111.233C53.3995 111.233 52.8957 112.033 52.4537 111.562Z" fill="#263238"/>
<path d="M52.7827 111.447C52.6068 111.354 52.4055 111.334 52.2164 111.388C52.0272 111.443 51.8631 111.569 51.7547 111.743C51.916 111.664 52.0913 111.623 52.2687 111.623C52.446 111.623 52.6213 111.664 52.7827 111.743V111.447Z" fill="#263238"/>
<path d="M51.0248 109.227C50.9762 109.226 50.93 109.204 50.8963 109.167C50.8784 109.149 50.8641 109.127 50.8544 109.103C50.8446 109.079 50.8396 109.054 50.8396 109.027C50.8396 109.001 50.8446 108.975 50.8544 108.951C50.8641 108.927 50.8784 108.906 50.8963 108.888C51.1829 108.62 51.5239 108.428 51.8923 108.325C52.2607 108.222 52.6464 108.212 53.0191 108.296C53.0675 108.307 53.1098 108.338 53.1368 108.382C53.1638 108.426 53.1732 108.48 53.163 108.531C53.1528 108.583 53.1238 108.628 53.0823 108.657C53.0409 108.686 52.9904 108.696 52.942 108.685C52.631 108.617 52.3097 108.625 52.0019 108.707C51.694 108.79 51.4075 108.945 51.1636 109.162C51.1463 109.183 51.125 109.199 51.101 109.211C51.077 109.222 51.051 109.228 51.0248 109.227Z" fill="#263238"/>
<path d="M57.8713 109.309C57.8305 109.311 57.7905 109.298 57.7582 109.271C57.5525 109.07 57.3073 108.921 57.0406 108.833C56.7738 108.746 56.4922 108.723 56.2162 108.767C56.1926 108.774 56.1679 108.776 56.1436 108.772C56.1193 108.769 56.0959 108.761 56.0747 108.748C56.0534 108.735 56.0348 108.717 56.0198 108.697C56.0049 108.676 55.9939 108.652 55.9875 108.627C55.981 108.602 55.9793 108.576 55.9825 108.55C55.9856 108.524 55.9934 108.499 56.0056 108.476C56.0178 108.454 56.034 108.434 56.0534 108.418C56.0728 108.402 56.0949 108.39 56.1185 108.383C56.4517 108.321 56.7939 108.34 57.1191 108.439C57.4442 108.539 57.7437 108.717 57.9946 108.959C58.0327 108.992 58.0572 109.04 58.0629 109.092C58.0687 109.144 58.0552 109.196 58.0255 109.238C58.0068 109.262 57.9832 109.281 57.9564 109.294C57.9296 109.306 57.9004 109.311 57.8713 109.309Z" fill="#263238"/>
<path d="M47.288 112.427C47.288 112.427 49.6267 108.789 49.5496 105.808C49.5496 105.808 58.4983 102.804 58.1951 112.208C58.1951 112.208 59.6857 103.988 52.1967 103.117C44.7077 102.246 43.8391 113.984 47.4422 117.82C47.4422 117.82 45.8539 114.707 47.288 112.427Z" fill="#263238"/>
<path d="M47.9408 113.474C47.9408 112.932 47.739 112.411 47.3796 112.027C47.0202 111.643 46.5325 111.426 46.0236 111.425C44.6563 111.463 43.7825 114.368 47.0927 115.381C47.5656 115.524 47.8791 115.047 47.9408 113.474Z" fill="#E4897B"/>
<path d="M55.3732 116.176C55.0531 116.635 54.7662 117.118 54.5148 117.623C54.4275 117.59 54.3349 117.563 54.2476 117.524C53.0397 117.069 52.6182 116.428 52.5205 115.88C52.4745 115.602 52.4939 115.316 52.5771 115.047C52.6199 114.893 52.6821 114.745 52.7621 114.609C53.3901 115.245 54.1409 115.728 54.962 116.023C55.2087 116.121 55.3732 116.176 55.3732 116.176Z" fill="#263238"/>
<path d="M54.962 116.011L54.6999 116.433C53.5588 116.001 52.8135 115.535 52.5771 115.036C52.6199 114.882 52.6821 114.734 52.7621 114.598C53.3901 115.234 54.1409 115.717 54.962 116.011Z" fill="white"/>
<path d="M54.2476 117.524C53.0397 117.069 52.6182 116.428 52.5205 115.88C52.9775 116.059 53.4005 116.325 53.7695 116.664C54.0088 116.89 54.1759 117.191 54.2476 117.524Z" fill="#DE5753"/>
<path d="M52.5719 105.353C52.5719 105.353 50.2127 112.855 45.6997 112.34C41.1868 111.825 48.9225 102.761 48.9225 102.761C48.9225 102.761 56.5349 100.443 59.8502 104.953C63.1655 109.463 58.2105 112.197 58.2105 112.197C58.2105 112.197 58.9507 106.312 52.5719 105.353Z" fill="#263238"/>
<path d="M48.9739 111.737C48.9478 111.736 48.9226 111.727 48.9008 111.712C48.8791 111.696 48.8617 111.675 48.8506 111.65C48.8388 111.615 48.8403 111.576 48.8547 111.543C48.8691 111.509 48.8953 111.482 48.9277 111.469C52.5257 110.006 52.4434 104.86 52.4434 104.805C52.4419 104.787 52.4441 104.769 52.4497 104.752C52.4553 104.735 52.4642 104.72 52.4759 104.707C52.4876 104.694 52.5017 104.684 52.5174 104.677C52.5331 104.67 52.5499 104.667 52.5668 104.668C52.6002 104.669 52.6321 104.683 52.6566 104.707C52.6812 104.731 52.6967 104.764 52.7004 104.8C52.7004 104.854 52.7827 110.192 49.0202 111.726L48.9739 111.737Z" fill="#263238"/>
<path d="M56.8844 112.017L57.8301 111.693C57.8301 111.693 57.3213 112.488 56.8844 112.017Z" fill="#263238"/>
<path d="M57.2133 111.901C57.0371 111.809 56.8351 111.788 56.6455 111.844C56.456 111.899 56.2923 112.027 56.1853 112.203C56.3443 112.118 56.5185 112.072 56.696 112.066C56.8734 112.06 57.0499 112.096 57.2133 112.17V111.901Z" fill="#263238"/>
<path d="M50.2178 124.467L54.0368 126.539L53.9751 130.665L48.5165 127.273L50.2178 124.467Z" fill="#407BFF"/>
<path d="M54.6176 123.689L54.8438 126.193L57.3367 129.005L56.9975 124.379L54.6176 123.689Z" fill="#407BFF"/>
<path d="M36.972 95.3519L35.3786 90.9679C35.4077 90.7335 35.3852 90.4951 35.313 90.2716C35.2407 90.0481 35.1206 89.8456 34.9623 89.6801C33.852 88.7978 31.5596 87.9977 30.9839 88.0909C30.1461 88.2224 28.4139 89.839 28.563 90.8967C28.712 91.9543 33.6053 92.6064 33.6053 92.6064L35.2296 97.4124L36.972 95.3519Z" fill="#E4897B"/>
<path d="M43.8339 134.43C43.8339 134.43 46.9179 131.816 45.6895 126.04L42.3742 110.06L36.679 93.5547L33.8932 95.0562C33.8932 95.0562 38.5706 111.184 39.0023 112.274C39.2233 112.822 40.1023 121.19 41.2999 126.796C42.3999 131.959 43.8339 134.43 43.8339 134.43Z" fill="#407BFF"/>
<path opacity="0.6" d="M43.8339 134.43C43.8339 134.43 46.9179 131.816 45.6895 126.04L42.3742 110.06L36.679 93.5547L33.8932 95.0562C33.8932 95.0562 38.5706 111.184 39.0023 112.274C39.2233 112.822 40.1023 121.19 41.2999 126.796C42.3999 131.959 43.8339 134.43 43.8339 134.43Z" fill="white"/>
<path d="M33.4049 94.5848L36.6585 92.8477L37.3678 94.0039L33.5642 95.8014L33.4049 94.5848Z" fill="#407BFF"/>
<path opacity="0.7" d="M33.4049 94.5848L36.6585 92.8477L37.3678 94.0039L33.5642 95.8014L33.4049 94.5848Z" fill="white"/>
<path opacity="0.6" d="M50.2178 124.467L54.0368 126.539L53.9751 130.665L48.5165 127.273L50.2178 124.467Z" fill="white"/>
<path opacity="0.6" d="M54.6176 123.689L54.8438 126.193L57.3367 129.005L56.9975 124.379L54.6176 123.689Z" fill="white"/>
<path d="M163.072 115.853H147.672V128.61H163.072V115.853Z" fill="white"/>
<path opacity="0.1" d="M163.072 115.853H159.124V128.61H163.072V115.853Z" fill="black"/>
<path d="M146.788 139.877H164.197V116.724H158.59L146.788 122.747V139.877Z" fill="#407BFF"/>
<path opacity="0.2" d="M164.197 116.724H158.59V139.877H164.197V116.724Z" fill="black"/>
<path opacity="0.7" d="M156.734 127.312H148.582V131.476H156.734V127.312Z" fill="white"/>
<path opacity="0.7" d="M156.734 132.868H148.582V133.465H156.734V132.868Z" fill="white"/>
<path opacity="0.7" d="M163.652 134.616H159.124V138.151H163.652V134.616Z" fill="white"/>
<path d="M156.528 115.157H141.129V128.61H156.528V115.157Z" fill="white"/>
<path opacity="0.1" d="M156.528 115.157H152.581V128.61H156.528V115.157Z" fill="black"/>
<path d="M140.245 139.877H157.654V116.724H152.046L140.245 122.747V139.877Z" fill="#407BFF"/>
<path opacity="0.2" d="M157.654 116.724H152.046V139.877H157.654V116.724Z" fill="black"/>
<path opacity="0.7" d="M150.191 127.312H142.039V131.476H150.191V127.312Z" fill="white"/>
<path opacity="0.7" d="M150.191 132.868H142.039V133.465H150.191V132.868Z" fill="white"/>
<path opacity="0.7" d="M157.109 134.616H152.581V138.151H157.109V134.616Z" fill="white"/>
<path d="M129.43 227.782H132.581L138.235 143.801H134.056L129.43 227.782Z" fill="#263238"/>
<path opacity="0.1" d="M129.43 227.781H132.581L137.958 147.971L138.235 143.938H134.056L133.835 147.971L129.43 227.781Z" fill="white"/>
<path opacity="0.2" d="M133.835 147.773H137.958L138.235 143.938H134.056L133.835 147.773Z" fill="black"/>
<path d="M106.321 227.782H109.472L109.986 143.801H105.807L106.321 227.782Z" fill="#263238"/>
<path opacity="0.1" d="M105.802 143.938L105.889 157.484L106.316 227.781H109.467L109.898 157.484L109.981 143.938H105.802Z" fill="white"/>
<path opacity="0.2" d="M105.802 143.938L105.889 157.637H109.898L109.981 143.938H105.802Z" fill="black"/>
<path d="M72.8903 227.782H76.0412L81.6952 143.801H77.5163L72.8903 227.782Z" fill="#263238"/>
<path opacity="0.1" d="M72.8903 227.781H76.0412L81.4227 147.971L81.6952 143.938H77.5163L77.2953 147.971L72.8903 227.781Z" fill="white"/>
<path opacity="0.2" d="M77.2953 147.773H81.4227L81.6952 143.938H77.5163L77.2953 147.773Z" fill="black"/>
<path d="M165.451 227.782H168.602L163.971 143.801H159.792L165.451 227.782Z" fill="#263238"/>
<path opacity="0.1" d="M159.792 143.938L160.075 147.971L165.451 227.781H168.597L164.197 147.971L163.971 143.938H159.792Z" fill="white"/>
<path opacity="0.2" d="M163.971 143.938H159.792L160.075 147.773H164.197L163.971 143.938Z" fill="black"/>
<path d="M166.176 145.905H75.3215C75.1757 145.905 75.0314 145.875 74.8967 145.815C74.762 145.756 74.6396 145.669 74.5365 145.559C74.4334 145.449 74.3516 145.318 74.2958 145.175C74.24 145.031 74.2113 144.877 74.2113 144.722V141.702H167.286V144.722C167.286 144.877 167.258 145.031 167.202 145.175C167.146 145.318 167.064 145.449 166.961 145.559C166.858 145.669 166.736 145.756 166.601 145.815C166.466 145.875 166.322 145.905 166.176 145.905Z" fill="#407BFF"/>
<path opacity="0.4" d="M166.176 145.905H75.3215C75.1757 145.905 75.0314 145.875 74.8967 145.815C74.762 145.756 74.6396 145.669 74.5365 145.559C74.4334 145.449 74.3516 145.318 74.2958 145.175C74.24 145.031 74.2113 144.877 74.2113 144.722V141.702H167.286V144.722C167.286 144.877 167.258 145.031 167.202 145.175C167.146 145.318 167.064 145.449 166.961 145.559C166.858 145.669 166.736 145.756 166.601 145.815C166.466 145.875 166.322 145.905 166.176 145.905Z" fill="white"/>
<path opacity="0.2" d="M74.2113 143.801H167.286V141.696H74.2113V143.801Z" fill="black"/>
<path d="M72.2581 142.244H169.234C169.38 142.245 169.525 142.215 169.66 142.156C169.795 142.096 169.918 142.009 170.021 141.899C170.124 141.789 170.206 141.658 170.262 141.514C170.317 141.371 170.345 141.216 170.345 141.061C170.345 140.747 170.228 140.446 170.02 140.224C169.811 140.002 169.529 139.877 169.234 139.877H72.2581C71.9632 139.877 71.6803 140.001 71.4712 140.223C71.2622 140.445 71.1441 140.746 71.1427 141.061C71.1427 141.217 71.1716 141.371 71.2277 141.515C71.2838 141.659 71.3661 141.79 71.4697 141.9C71.5734 142.01 71.6964 142.097 71.8317 142.156C71.967 142.215 72.1119 142.245 72.2581 142.244Z" fill="#407BFF"/>
<path opacity="0.4" d="M72.2581 142.244H169.234C169.38 142.245 169.525 142.215 169.66 142.156C169.795 142.096 169.918 142.009 170.021 141.899C170.124 141.789 170.206 141.658 170.262 141.514C170.317 141.371 170.345 141.216 170.345 141.061C170.345 140.747 170.228 140.446 170.02 140.224C169.811 140.002 169.529 139.877 169.234 139.877H72.2581C71.9632 139.877 71.6803 140.001 71.4712 140.223C71.2622 140.445 71.1441 140.746 71.1427 141.061C71.1427 141.217 71.1716 141.371 71.2277 141.515C71.2838 141.659 71.3661 141.79 71.4697 141.9C71.5734 142.01 71.6964 142.097 71.8317 142.156C71.967 142.215 72.1119 142.245 72.2581 142.244Z" fill="white"/>
<path d="M148.397 139.866V138.014H149.564L148.397 137.29H149.271L148.104 136.479H146.999V135.548H148.284L146.999 135.005V132.983H148.284V131.662H149.564L148.284 131.202V130.26H149.199L148.448 129.465L147.801 128.769H127.94V129.717H126.629L128.089 130.419V131.202H125.411V132.66H124.224L125.411 133.296V134.923H126.254V135.701H127.94V138.014H126.994L127.77 138.841V139.877L148.397 139.866Z" fill="#407BFF"/>
<path opacity="0.7" d="M148.397 139.866V138.014H149.564L148.397 137.29H149.271L148.104 136.479H146.999V135.548H148.284L146.999 135.005V132.983H148.284V131.662H149.564L148.284 131.202V130.26H149.199L148.448 129.465L147.801 128.769H127.94V129.717H126.629L128.089 130.419V131.202H125.411V132.66H124.224L125.411 133.296V134.923H126.254V135.701H127.94V138.014H126.994L127.77 138.841V139.877L148.397 139.866Z" fill="white"/>
<path opacity="0.1" d="M148.397 139.866V138.014H149.564L148.397 137.29H149.271L148.104 136.479H146.999V135.548H148.284L146.999 135.005V132.983H148.284V131.662H149.564L148.284 131.202V130.26H149.199L148.448 129.465L147.801 128.769H137.341V129.717H136.03L137.485 130.419V131.202H134.807V132.66H133.619L134.807 133.296V134.923H135.65V135.701H137.341V138.014H136.395L137.166 138.841V139.877L148.397 139.866Z" fill="black"/>
<path opacity="0.1" d="M128.089 131.202H137.485L128.089 130.84V131.202Z" fill="black"/>
<path opacity="0.1" d="M127.94 135.701H137.341L137.382 136.403L127.94 135.701Z" fill="black"/>
<path opacity="0.1" d="M126.254 134.923H135.65L126.254 135.274V134.923Z" fill="black"/>
<path opacity="0.1" d="M127.94 138.014H137.341L127.94 137.646V138.014Z" fill="black"/>
<path opacity="0.1" d="M127.77 138.841H137.166V139.225L127.77 138.841Z" fill="black"/>
<path opacity="0.1" d="M125.411 132.66H134.807L125.411 132.342V132.66Z" fill="black"/>
<path opacity="0.1" d="M127.94 129.717H137.341L127.94 129.366V129.717Z" fill="black"/>
<path opacity="0.1" d="M148.284 130.26H138.749L148.284 130.572V130.26Z" fill="black"/>
<path opacity="0.1" d="M137.485 131.202H148.284L138.492 131.542L137.485 131.202Z" fill="black"/>
<path opacity="0.1" d="M134.807 132.66L148.284 132.983V132.66H134.807Z" fill="black"/>
<path opacity="0.1" d="M134.807 133.295H141.473L134.807 133.641V133.295Z" fill="black"/>
<path opacity="0.1" d="M146.999 135.005L137.341 134.923L146.999 134.693V135.005Z" fill="black"/>
<path opacity="0.1" d="M146.999 135.548H137.166L146.999 135.899V135.548Z" fill="black"/>
<path opacity="0.1" d="M148.397 137.291H137.485V137.647L148.397 137.291Z" fill="black"/>
<path opacity="0.1" d="M148.397 138.014H140.492L148.397 138.249V138.014Z" fill="black"/>
<path d="M123.108 137.477V139.236C123.108 139.685 122.594 139.871 122.188 139.871H89.2304C88.8089 139.871 88.3 139.685 88.3 139.236V137.477H123.108Z" fill="#263238"/>
<path opacity="0.4" d="M123.108 137.477V139.236C123.108 139.685 122.594 139.871 122.188 139.871H89.2304C88.8089 139.871 88.3 139.685 88.3 139.236V137.477H123.108Z" fill="white"/>
<path opacity="0.2" d="M123.108 137.477V139.236C123.108 139.685 122.594 139.871 122.188 139.871H100.451C100.03 139.871 99.5258 139.685 99.5258 139.236V137.477H123.108Z" fill="black"/>
<path d="M128.623 119.217L124.696 138.195C124.629 138.503 124.467 138.778 124.236 138.976C124.005 139.175 123.718 139.285 123.422 139.291H101.993C101.86 139.287 101.729 139.251 101.611 139.185C101.493 139.119 101.391 139.025 101.312 138.91C101.234 138.795 101.182 138.662 101.16 138.521C101.138 138.381 101.147 138.237 101.186 138.101L105.103 119.272C105.183 118.985 105.353 118.735 105.585 118.566C105.817 118.396 106.097 118.317 106.377 118.341H127.811C128.387 118.319 128.747 118.598 128.623 119.217Z" fill="#263238"/>
<path opacity="0.4" d="M128.623 119.217L124.696 138.194C124.629 138.502 124.467 138.778 124.236 138.976C124.005 139.175 123.718 139.285 123.422 139.29H102.718C102.584 139.287 102.454 139.251 102.335 139.185C102.217 139.119 102.115 139.025 102.037 138.91C101.959 138.794 101.907 138.662 101.885 138.521C101.863 138.381 101.872 138.237 101.911 138.101L105.833 119.272C105.912 118.984 106.082 118.734 106.315 118.564C106.547 118.395 106.827 118.316 107.107 118.34H127.811C128.387 118.318 128.747 118.598 128.623 119.217Z" fill="white"/>
<path opacity="0.2" d="M118.056 128.862C118.056 130.506 116.421 131.805 115.223 131.805C114.026 131.805 113.316 130.484 113.681 128.862C114.046 127.24 115.223 125.974 116.385 125.925C116.046 127.569 116.776 128.862 117.968 128.862H118.056Z" fill="black"/>
</svg>
