<svg width="257" height="261" viewBox="0 0 257 261" fill="none" xmlns="http://www.w3.org/2000/svg">
<path d="M257 199.613H0V199.743H257V199.613Z" fill="#EBEBEB"/>
<path d="M231.249 208.012H214.225V208.142H231.249V208.012Z" fill="#EBEBEB"/>
<path d="M170.247 209.432H165.78V209.562H170.247V209.432Z" fill="#EBEBEB"/>
<path d="M213.711 203.167H203.847V203.297H213.711V203.167Z" fill="#EBEBEB"/>
<path d="M49.1641 204.044H26.9644V204.174H49.1641V204.044Z" fill="#EBEBEB"/>
<path d="M56.9975 204.044H53.7438V204.174H56.9975V204.044Z" fill="#EBEBEB"/>
<path d="M115.727 206.248H67.5756V206.378H115.727V206.248Z" fill="#EBEBEB"/>
<path d="M121.818 176.332H22.5697C21.7922 176.33 21.047 176.016 20.4977 175.457C19.9484 174.898 19.6399 174.141 19.6399 173.351V31.6645C19.6467 30.8794 19.9582 30.1287 20.5068 29.5756C21.0553 29.0224 21.7967 28.7113 22.5697 28.71H121.818C122.596 28.71 123.343 29.024 123.893 29.583C124.444 30.1419 124.753 30.9001 124.753 31.6906V173.351C124.753 174.141 124.444 174.9 123.893 175.459C123.343 176.018 122.596 176.332 121.818 176.332ZM22.5697 28.8144C21.8263 28.8157 21.1138 29.1166 20.5886 29.651C20.0634 30.1853 19.7684 30.9095 19.7684 31.6645V173.351C19.7684 174.106 20.0634 174.83 20.5886 175.364C21.1138 175.899 21.8263 176.2 22.5697 176.201H121.818C122.562 176.2 123.275 175.899 123.801 175.365C124.327 174.831 124.623 174.106 124.624 173.351V31.6645C124.623 30.909 124.327 30.1849 123.801 29.6507C123.275 29.1165 122.562 28.8157 121.818 28.8144H22.5697Z" fill="#EBEBEB"/>
<path d="M233.001 176.332H133.748C132.97 176.33 132.224 176.016 131.674 175.457C131.124 174.898 130.814 174.141 130.813 173.351V31.6645C130.821 30.8789 131.134 30.1283 131.683 29.5752C132.233 29.0222 132.974 28.7113 133.748 28.71H233.001C233.774 28.7127 234.514 29.0243 235.061 29.5774C235.608 30.1304 235.919 30.8803 235.926 31.6645V173.351C235.926 174.14 235.618 174.896 235.07 175.455C234.522 176.014 233.778 176.329 233.001 176.332ZM133.748 28.8144C133.004 28.8157 132.291 29.1165 131.765 29.6507C131.239 30.1849 130.943 30.909 130.942 31.6645V173.351C130.943 174.106 131.239 174.831 131.765 175.365C132.291 175.899 133.004 176.2 133.748 176.201H233.001C233.745 176.2 234.458 175.899 234.984 175.365C235.51 174.831 235.806 174.106 235.808 173.351V31.6645C235.806 30.909 235.51 30.1849 234.984 29.6507C234.458 29.1165 233.745 28.8157 233.001 28.8144H133.748Z" fill="#EBEBEB"/>
<path d="M32.5876 143.221L224.418 143.221V38.7899L32.5876 38.7899V143.221Z" fill="#CEDDF9"/>
<path d="M168.556 70.3289C170.247 67.484 174.657 65.182 178.445 65.182C179.247 65.169 180.045 65.2961 180.805 65.5578C183.528 63.3781 186.868 62.1448 190.334 62.0396C194.313 62.0396 196.41 64.1276 195.603 66.9463C199.232 67.129 200.83 69.4728 199.16 72.3334C197.422 75.3192 192.807 77.7361 188.849 77.7361H166.053C163.252 77.7361 161.972 76.0239 163.205 73.9098C164.156 72.276 166.325 70.8822 168.556 70.3289Z" fill="white"/>
<path d="M122.568 56.8196C123.596 55.0813 126.295 53.6876 128.603 53.6876C129.092 53.6773 129.579 53.7551 130.042 53.9172C131.706 52.5843 133.747 51.8303 135.866 51.7666C138.292 51.7666 139.572 53.0507 139.078 54.7629C141.293 54.8725 142.27 56.3289 141.252 58.0515C140.235 59.7741 137.372 61.3505 134.956 61.3505H121.042C119.33 61.3505 118.549 60.3065 119.299 59.012C120.081 57.8915 121.247 57.1092 122.568 56.8196Z" fill="white"/>
<path d="M55.7536 67.0977C56.7816 65.3594 59.4801 63.9657 61.7879 63.9657C62.2761 63.9595 62.7616 64.0408 63.222 64.2058C64.8834 62.8723 66.9237 62.1181 69.0405 62.0552C71.4666 62.0552 72.7464 63.3341 72.253 65.0515C74.4683 65.1611 75.4449 66.6175 74.4272 68.3401C73.4095 70.0627 70.5465 71.6339 68.1307 71.6339H54.227C52.5154 71.6339 51.7341 70.5899 52.4897 69.3005C53.2689 68.1784 54.4331 67.3926 55.7536 67.0977Z" fill="white"/>
<path d="M84.2754 59.4087H68.4134V133.653H84.2754V59.4087Z" fill="#E6E6E6"/>
<path d="M96.8068 133.658H82.497V74.312L96.8068 88.7871V133.658Z" fill="#E6E6E6"/>
<path d="M63.5201 83.9321H47.6581V133.653H63.5201V83.9321Z" fill="#E6E6E6"/>
<path d="M109.461 77.7363H101.376V133.658H109.461V77.7363Z" fill="#E6E6E6"/>
<path d="M120.985 92.0181H112.9V133.653H120.985V92.0181Z" fill="#E6E6E6"/>
<path d="M127.102 105.694H119.017V133.653H127.102V105.694Z" fill="#E6E6E6"/>
<path d="M160.656 105.694H152.571V133.653H160.656V105.694Z" fill="#E6E6E6"/>
<path d="M152.92 114.521H144.835V133.658H152.92V114.521Z" fill="#E6E6E6"/>
<path d="M45.4376 105.694H37.3524V133.653H45.4376V105.694Z" fill="#E6E6E6"/>
<path d="M115.187 101.049H41.9938V133.658H115.187V101.049Z" fill="#E6E6E6"/>
<path d="M160.656 120.587H87.4622V133.658H160.656V120.587Z" fill="#E6E6E6"/>
<path d="M150.916 143.221H175.485V68.9771H150.916V143.221Z" fill="#F0F0F0"/>
<path d="M131.497 143.221H153.671V83.8804L131.497 98.3502V143.221Z" fill="#F0F0F0"/>
<path d="M183.071 143.221H207.641V93.5007H183.071V143.221Z" fill="#F0F0F0"/>
<path d="M111.898 143.221H124.424V87.2993H111.898V143.221Z" fill="#F0F0F0"/>
<path d="M94.0363 143.221H106.562V105.909H94.0363V143.221Z" fill="#F0F0F0"/>
<path d="M84.5736 143.221H97.0997V115.263H84.5736V143.221Z" fill="#F0F0F0"/>
<path d="M32.5876 143.221H45.1138V115.263H32.5876V143.221Z" fill="#F0F0F0"/>
<path d="M44.5689 143.221H57.0951V124.085H44.5689V143.221Z" fill="#F0F0F0"/>
<path d="M211.084 143.221H223.611V115.263H211.084V143.221Z" fill="#F0F0F0"/>
<path d="M103.026 143.227H216.415V110.617L103.026 110.617V143.227Z" fill="#F0F0F0"/>
<path d="M32.5876 143.227H145.976V130.156H32.5876V143.227Z" fill="#F0F0F0"/>
<path d="M223.611 143.221H224.418V38.7899H223.611V143.221Z" fill="#EBEBEB"/>
<path d="M46.8511 185.994C46.5844 185.991 46.326 185.9 46.1161 185.733C45.8705 185.534 45.7126 185.244 45.6769 184.927C45.6413 184.61 45.7308 184.291 45.9259 184.041C46.5992 183.18 44.9647 181.186 43.2377 179.072C39.5523 174.577 33.9857 167.776 41.5877 159.982C46.3833 155.06 46.2805 153.024 46.0133 152.377C45.5404 151.239 43.3507 150.988 42.5849 150.988C42.27 150.988 41.968 150.861 41.7453 150.635C41.5226 150.409 41.3975 150.102 41.3975 149.782C41.3975 149.463 41.5226 149.156 41.7453 148.93C41.968 148.704 42.27 148.577 42.5849 148.577C43.0269 148.577 47.0567 148.613 48.2389 151.437C49.2669 153.885 47.6529 157.231 43.3199 161.679C37.2341 167.917 41.4181 173.027 45.1086 177.532C47.4679 180.419 49.6986 183.143 47.8277 185.534C47.7126 185.684 47.564 185.804 47.3941 185.884C47.2243 185.964 47.0381 186.001 46.8511 185.994Z" fill="#E0E0E0"/>
<path d="M29.6938 175.142H54.9928L49.3902 199.613H35.2964L29.6938 175.142Z" fill="#F5F5F5"/>
<path d="M29.4317 176.233H55.255C55.5404 176.233 55.8142 176.118 56.0165 175.913C56.2187 175.709 56.3331 175.431 56.3344 175.142C56.3331 174.851 56.2189 174.573 56.0168 174.368C55.8146 174.163 55.5409 174.047 55.255 174.045H29.4317C29.1458 174.047 28.872 174.163 28.6699 174.368C28.4678 174.573 28.3536 174.851 28.3523 175.142C28.3536 175.431 28.4679 175.709 28.6702 175.913C28.8725 176.118 29.1463 176.233 29.4317 176.233Z" fill="#EBEBEB"/>
<path d="M51.2355 149.365L27.3294 157.383C27.3294 157.383 18.6685 151.443 24.9598 148.77C21.9683 143.586 21.588 133.481 31.2152 130.547C40.8424 127.613 40.1691 141.9 40.1691 141.9C40.1691 141.9 52.0373 129.148 51.4771 144.296C53.7438 143.665 63.3505 145.972 51.2355 149.365Z" fill="#E0E0E0"/>
<path d="M31.282 160.342H60.2716C60.2716 160.342 67.92 154.861 59.9118 155.122C61.5001 148.133 57.018 140.475 46.9025 140.183C36.787 139.89 40.3439 151.286 40.3439 151.286C40.3439 151.286 23.351 147.172 28.5219 155.671C20.0717 156.078 24.4304 158.286 31.282 160.342Z" fill="#E6E6E6"/>
<path d="M54.4275 161.925L31.6573 162.76C31.0625 162.767 30.4756 162.621 29.9515 162.335C29.4274 162.05 28.9832 161.633 28.6606 161.126C27.7971 159.884 27.5761 158.344 31.2306 157.89C30.0639 154.236 32.639 147.862 42.0555 147.371C51.472 146.881 46.7483 155.723 46.7483 155.723C46.7483 155.723 60.9912 149.407 56.1288 158.798C58.3082 158.714 66.1878 161.497 54.4275 161.925Z" fill="#E0E0E0"/>
<path d="M201.303 155.06H81.8494V157.383H201.303V155.06Z" fill="#F0F0F0"/>
<path d="M201.303 157.383H214.225V155.06H201.303V157.383Z" fill="#E6E6E6"/>
<path d="M83.6483 158.547L212.231 158.547V157.383L83.6483 157.383V158.547Z" fill="#E0E0E0"/>
<path d="M83.6432 157.968V199.613H84.9077V157.968H83.6432Z" fill="#E0E0E0"/>
<path d="M200.033 157.962V199.607H201.298V157.962H200.033Z" fill="#E0E0E0"/>
<path d="M210.961 157.968V199.613H212.225V157.968H210.961Z" fill="#E0E0E0"/>
<path d="M94.5657 157.968V199.613H95.8302V157.968H94.5657Z" fill="#E0E0E0"/>
<path d="M128.5 223.186C183.54 223.186 228.159 220.541 228.159 217.277C228.159 214.014 183.54 211.368 128.5 211.368C73.4596 211.368 28.8405 214.014 28.8405 217.277C28.8405 220.541 73.4596 223.186 128.5 223.186Z" fill="#F5F5F5"/>
<path d="M202.83 132.891H125.066V135.125H202.83V132.891Z" fill="#5B8FEB"/>
<path opacity="0.2" d="M202.83 132.891H184.783V135.125H202.83V132.891Z" fill="black"/>
<path d="M187.014 218.582L182.953 135.12H183.971L188.031 218.582H187.014Z" fill="#5B8FEB"/>
<path opacity="0.7" d="M187.014 218.582L182.953 135.12H183.971L188.031 218.582H187.014Z" fill="white"/>
<path d="M205.06 218.582L200.995 135.12H202.017L206.078 218.582H205.06Z" fill="#5B8FEB"/>
<path d="M205.06 218.582L200.995 135.12H202.017L206.078 218.582H205.06Z" fill="#5B8FEB"/>
<path opacity="0.7" d="M205.06 218.582L200.995 135.12H202.017L206.078 218.582H205.06Z" fill="white"/>
<path d="M140.877 218.582L144.943 135.12H143.92L139.859 218.582H140.877Z" fill="#5B8FEB"/>
<path opacity="0.7" d="M140.877 218.582L144.943 135.12H143.92L139.859 218.582H140.877Z" fill="white"/>
<path d="M122.836 218.582L126.896 135.12H125.879L121.813 218.582H122.836Z" fill="#5B8FEB"/>
<path opacity="0.7" d="M122.836 218.582L126.896 135.12H125.879L121.813 218.582H122.836Z" fill="white"/>
<path d="M170.854 115.884H195.834C196.019 115.879 196.202 115.916 196.371 115.993C196.54 116.07 196.69 116.184 196.809 116.327C196.928 116.471 197.015 116.639 197.061 116.821C197.108 117.003 197.113 117.193 197.078 117.377L194.976 131.419C194.905 131.827 194.699 132.198 194.391 132.47C194.083 132.742 193.692 132.898 193.285 132.912H168.304C168.119 132.917 167.936 132.879 167.767 132.803C167.598 132.726 167.448 132.612 167.328 132.469C167.208 132.326 167.122 132.157 167.074 131.975C167.027 131.794 167.021 131.604 167.055 131.419L169.157 117.377C169.23 116.969 169.438 116.598 169.746 116.327C170.055 116.055 170.446 115.899 170.854 115.884Z" fill="#5B8FEB"/>
<path d="M170.468 115.884H195.469C195.654 115.879 195.837 115.916 196.006 115.993C196.175 116.07 196.325 116.184 196.444 116.327C196.563 116.471 196.65 116.639 196.696 116.821C196.743 117.003 196.748 117.193 196.713 117.377L194.611 131.419C194.54 131.827 194.334 132.198 194.026 132.47C193.718 132.742 193.327 132.898 192.92 132.912H167.919C167.734 132.917 167.55 132.879 167.381 132.803C167.212 132.726 167.062 132.612 166.942 132.469C166.823 132.326 166.736 132.157 166.689 131.975C166.642 131.794 166.635 131.604 166.67 131.419L168.772 117.377C168.843 116.969 169.051 116.598 169.36 116.326C169.669 116.054 170.06 115.898 170.468 115.884Z" fill="#5B8FEB"/>
<path opacity="0.2" d="M170.468 115.884H195.469C195.654 115.879 195.837 115.916 196.006 115.993C196.175 116.07 196.325 116.184 196.444 116.327C196.563 116.471 196.65 116.639 196.696 116.821C196.743 117.003 196.748 117.193 196.713 117.377L194.611 131.419C194.54 131.827 194.334 132.198 194.026 132.47C193.718 132.742 193.327 132.898 192.92 132.912H167.919C167.734 132.917 167.55 132.879 167.381 132.803C167.212 132.726 167.062 132.612 166.942 132.469C166.823 132.326 166.736 132.157 166.689 131.975C166.642 131.794 166.635 131.604 166.67 131.419L168.772 117.377C168.843 116.969 169.051 116.598 169.36 116.326C169.669 116.054 170.06 115.898 170.468 115.884Z" fill="white"/>
<path opacity="0.8" d="M167.919 132.442C167.8 132.445 167.682 132.422 167.572 132.374C167.463 132.327 167.366 132.255 167.286 132.165C167.208 132.069 167.151 131.957 167.12 131.836C167.089 131.715 167.084 131.589 167.107 131.466L169.209 117.45C169.265 117.148 169.42 116.874 169.648 116.672C169.877 116.47 170.166 116.353 170.468 116.338H195.469C195.588 116.335 195.706 116.358 195.815 116.406C195.924 116.453 196.022 116.525 196.101 116.615C196.179 116.712 196.235 116.824 196.265 116.945C196.295 117.066 196.299 117.192 196.276 117.314L194.179 131.356C194.123 131.658 193.968 131.932 193.739 132.134C193.511 132.336 193.222 132.453 192.92 132.468L167.919 132.442Z" fill="white"/>
<path d="M160.62 132.333H193.778C193.847 132.331 193.916 132.344 193.979 132.373C194.043 132.402 194.099 132.444 194.144 132.498C194.189 132.552 194.221 132.615 194.239 132.683C194.256 132.751 194.259 132.822 194.246 132.891H159.982C160.01 132.738 160.088 132.599 160.204 132.497C160.32 132.396 160.467 132.337 160.62 132.333Z" fill="#5B8FEB"/>
<path d="M133.26 211.817L129.985 213.691L125.935 205.725L129.209 203.851L133.26 211.817Z" fill="#FFB573"/>
<path d="M129.59 213.033L133.404 211.128C133.435 211.11 133.469 211.099 133.504 211.095C133.539 211.091 133.575 211.095 133.609 211.105C133.643 211.115 133.674 211.132 133.702 211.155C133.729 211.177 133.752 211.206 133.769 211.237L135.434 214.207C135.513 214.368 135.527 214.554 135.472 214.725C135.417 214.896 135.298 215.038 135.141 215.121C133.799 215.758 133.126 215.998 131.45 216.833C130.422 217.355 127.96 218.634 126.537 219.349C125.113 220.064 124.481 218.608 124.995 218.175C127.421 216.243 128.51 214.782 129.107 213.534C129.206 213.315 129.377 213.138 129.59 213.033Z" fill="#263238"/>
<path opacity="0.2" d="M129.209 203.851L125.935 205.725L128.022 209.833L131.399 208.152L129.209 203.851Z" fill="black"/>
<path d="M126.542 125.765C126.542 125.765 115.969 147.35 112.797 157.889C109.328 169.43 125.812 208.492 125.812 208.492L131.831 205.814C131.831 205.814 121.037 167.128 122.913 162.838C128.053 150.988 140.06 126.016 140.06 126.016L126.542 125.765Z" fill="#263238"/>
<path opacity="0.3" d="M130.52 138.706C127.636 143.618 126.408 152.471 126.228 158.228C127.857 154.668 129.605 150.962 131.24 147.517C132.34 144.233 133.409 141.07 134.406 138.361C134.185 136.487 132.705 134.973 130.52 138.706Z" fill="black"/>
<path d="M132.607 206.268L126.033 209.765L124.146 207.505L131.928 203.298L132.607 206.268Z" fill="#5B8FEB"/>
<path d="M128.675 214.234C128.975 214.073 129.257 213.881 129.518 213.66C129.532 213.649 129.543 213.635 129.548 213.618C129.554 213.601 129.554 213.583 129.549 213.566C129.544 213.549 129.535 213.534 129.522 213.523C129.509 213.512 129.493 213.505 129.477 213.503C129.333 213.477 128.048 213.289 127.714 213.665C127.676 213.707 127.649 213.759 127.635 213.814C127.622 213.87 127.622 213.928 127.636 213.983C127.653 214.069 127.69 214.15 127.745 214.217C127.799 214.285 127.87 214.337 127.95 214.37C128.2 214.417 128.458 214.369 128.675 214.234ZM129.245 213.649C128.695 214.077 128.243 214.281 128.007 214.203C127.954 214.181 127.908 214.145 127.874 214.099C127.84 214.053 127.818 213.999 127.811 213.942C127.803 213.915 127.801 213.887 127.806 213.859C127.812 213.832 127.824 213.806 127.842 213.785C128.022 213.587 128.726 213.592 129.245 213.649Z" fill="#5B8FEB"/>
<path d="M129.528 213.67C129.54 213.664 129.551 213.655 129.559 213.644C129.568 213.631 129.572 213.615 129.572 213.6C129.572 213.584 129.568 213.568 129.559 213.555C129.559 213.513 129.143 212.485 128.634 212.318C128.569 212.296 128.501 212.29 128.434 212.3C128.367 212.31 128.303 212.336 128.248 212.375C128.18 212.41 128.126 212.467 128.095 212.538C128.065 212.608 128.059 212.687 128.079 212.762C128.181 213.174 129.035 213.644 129.471 213.68L129.528 213.67ZM128.387 212.506C128.419 212.491 128.454 212.483 128.49 212.483C128.525 212.483 128.56 212.491 128.593 212.506C128.896 212.605 129.194 213.158 129.343 213.487C128.927 213.383 128.315 213.007 128.258 212.73C128.258 212.678 128.258 212.61 128.351 212.542L128.387 212.506Z" fill="#5B8FEB"/>
<path d="M133.691 96.8254C133.034 98.1773 132.37 99.3675 131.635 100.589C130.9 101.81 130.155 102.985 129.333 104.144C128.932 104.728 128.505 105.297 128.089 105.872C127.672 106.446 127.215 107.004 126.742 107.552C125.815 108.683 124.821 109.755 123.766 110.763C123.509 111.024 123.206 111.285 122.928 111.52C122.65 111.78 122.358 112.026 122.054 112.256L121.124 112.955C121.021 113.023 121.047 113.018 120.733 113.227C120.487 113.383 120.225 113.513 119.952 113.613C119.402 113.812 118.815 113.883 118.234 113.82C117.653 113.758 117.093 113.564 116.596 113.253C116.343 113.092 116.109 112.902 115.897 112.689C115.792 112.58 115.694 112.465 115.604 112.344C115.528 112.252 115.46 112.154 115.398 112.052C115.163 111.645 114.957 111.221 114.781 110.784C114.481 110.032 114.241 109.257 114.062 108.466C113.751 107.039 113.543 105.591 113.44 104.133C113.333 102.715 113.305 101.291 113.358 99.8686C113.372 99.4643 113.53 99.0788 113.802 98.7831C114.074 98.4873 114.441 98.3011 114.838 98.2586C115.234 98.216 115.632 98.3201 115.959 98.5516C116.285 98.7831 116.519 99.1266 116.616 99.5189V99.5763C117.19 102.085 117.927 104.552 118.821 106.963C119.019 107.476 119.258 107.972 119.536 108.445C119.638 108.628 119.755 108.803 119.885 108.967C119.921 109.019 119.885 108.92 119.829 108.878C119.791 108.825 119.75 108.775 119.705 108.727C119.615 108.628 119.511 108.542 119.397 108.471C119.187 108.33 118.948 108.24 118.698 108.21C118.456 108.18 118.211 108.204 117.978 108.278C117.763 108.325 117.408 108.602 117.644 108.398L118.261 107.803C118.667 107.396 119.078 106.957 119.474 106.514C121.083 104.59 122.555 102.553 123.879 100.417C124.558 99.331 125.231 98.2243 125.879 97.1125C126.526 96.0006 127.184 94.8313 127.76 93.7769L127.801 93.7038C128.21 92.9133 128.911 92.3201 129.751 92.0549C130.591 91.7896 131.5 91.8739 132.278 92.2892C133.056 92.7045 133.64 93.4169 133.902 94.2695C134.163 95.1222 134.08 96.0453 133.671 96.8358L133.691 96.8254Z" fill="#263238"/>
<path opacity="0.3" d="M124.614 105.965C124.296 107.511 124.124 109.084 124.1 110.663C124.27 110.496 124.429 110.329 124.588 110.141C125.852 108.831 127.029 107.436 128.109 105.965C128.558 105.367 128.99 104.758 129.405 104.138C129.662 103.475 129.919 102.813 130.114 102.139C130.186 101.915 130.253 101.701 130.32 101.476C128.649 100.631 125.616 101.461 124.614 105.965Z" fill="black"/>
<path d="M116.195 98.1719L115.779 95.4731L112.473 97.0391C112.723 97.9294 113.057 98.793 113.471 99.6178C113.566 99.8114 113.705 99.9794 113.876 100.108C114.048 100.236 114.247 100.322 114.457 100.357C114.667 100.392 114.883 100.376 115.085 100.31C115.288 100.244 115.473 100.13 115.624 99.978C115.857 99.7471 116.031 99.4618 116.131 99.147C116.23 98.8321 116.252 98.4974 116.195 98.1719Z" fill="#FFB573"/>
<path d="M113.918 93.6621L111.451 95.3899L112.473 97.0186L115.779 95.4735L113.918 93.6621Z" fill="#FFB573"/>
<path d="M122.764 216.88L119.078 216.024L120.559 207.239L124.244 208.095L122.764 216.88Z" fill="#FFB573"/>
<path d="M118.981 215.544L123.124 216.51C123.158 216.516 123.192 216.529 123.222 216.549C123.251 216.568 123.277 216.594 123.297 216.623C123.317 216.653 123.331 216.686 123.339 216.721C123.346 216.757 123.346 216.793 123.339 216.828L122.789 220.206C122.751 220.382 122.646 220.535 122.497 220.633C122.348 220.731 122.166 220.765 121.993 220.728C120.559 220.362 119.89 220.117 118.066 219.684C116.945 219.423 113.83 218.822 112.283 218.462C110.736 218.102 111.132 216.557 111.821 216.567C114.905 216.625 117.069 216.212 118.297 215.622C118.51 215.52 118.751 215.492 118.981 215.544Z" fill="#263238"/>
<path opacity="0.2" d="M124.244 208.1L120.554 207.239L119.793 211.77L123.483 212.626L124.244 208.1Z" fill="black"/>
<path d="M133.928 125.901C133.928 125.901 127.837 151.635 126.012 162.498C124.018 174.389 118.456 210.324 118.456 210.324L125.21 211.89C125.21 211.89 133.64 177.631 136.667 166.1C139.957 153.572 146.773 138.434 146.773 126.141C142.692 126.141 133.928 125.901 133.928 125.901Z" fill="#263238"/>
<path d="M125.483 211.958L117.249 210.042L117.434 207.343L126.331 209.844L125.483 211.958Z" fill="#5B8FEB"/>
<path d="M117.526 215.894C117.865 215.962 118.209 215.993 118.554 215.988C118.571 215.988 118.588 215.983 118.602 215.973C118.617 215.964 118.629 215.951 118.636 215.935C118.646 215.921 118.651 215.904 118.651 215.886C118.651 215.868 118.646 215.851 118.636 215.836C118.539 215.727 117.66 214.761 117.166 214.834C117.11 214.843 117.057 214.867 117.012 214.902C116.967 214.938 116.932 214.984 116.909 215.038C116.866 215.113 116.843 215.198 116.843 215.286C116.843 215.373 116.866 215.458 116.909 215.534C117.066 215.724 117.285 215.852 117.526 215.894ZM118.333 215.805C117.644 215.805 117.161 215.654 117.028 215.44C117 215.389 116.985 215.333 116.985 215.275C116.985 215.217 117 215.161 117.028 215.111C117.039 215.085 117.056 215.063 117.077 215.046C117.099 215.028 117.124 215.017 117.151 215.012C117.423 214.97 117.968 215.429 118.333 215.805Z" fill="#5B8FEB"/>
<path d="M118.523 215.988H118.564C118.579 215.985 118.592 215.978 118.603 215.968C118.614 215.957 118.622 215.945 118.626 215.93C118.626 215.888 118.965 214.829 118.672 214.364C118.636 214.306 118.587 214.258 118.529 214.223C118.471 214.187 118.406 214.166 118.338 214.161C118.264 214.145 118.187 214.155 118.119 214.19C118.052 214.225 117.998 214.283 117.968 214.354C117.788 214.74 118.163 215.648 118.482 215.956L118.523 215.988ZM118.359 214.349C118.393 214.356 118.426 214.371 118.455 214.391C118.485 214.412 118.509 214.438 118.528 214.469C118.656 214.874 118.656 215.311 118.528 215.716C118.244 215.354 118.109 214.893 118.153 214.432C118.153 214.385 118.215 214.328 118.343 214.343L118.359 214.349Z" fill="#5B8FEB"/>
<path d="M128.695 94.5806C128.903 93.9414 129.275 93.3706 129.775 92.9279C130.274 92.4853 130.881 92.1871 131.533 92.0645C132.47 91.8553 133.419 91.7088 134.375 91.6261C137.242 91.5113 140.113 91.5636 142.974 91.7827C144.47 91.8871 145.997 92.1011 147.215 92.3047H147.256C147.574 92.3579 147.879 92.4756 148.152 92.6507C148.425 92.8258 148.66 93.0547 148.844 93.3239C149.028 93.5931 149.157 93.8971 149.223 94.2179C149.29 94.5387 149.292 94.8697 149.23 95.1913C148.183 100.318 147.467 105.509 147.086 110.731C146.654 118.326 146.947 124.303 146.773 126.135L126.542 125.76C125.642 107.187 127.385 98.7827 128.695 94.5806Z" fill="white"/>
<path d="M142.404 91.4126C141.376 95.4163 134.879 102.51 134.092 113.655C134.38 119.768 134.139 123.938 134.879 128.031L147.266 127.697C147.456 125.76 146.053 119.533 146.973 113.222C147.868 107.104 149.137 98.7832 149.857 95.0666C149.919 94.7293 149.916 94.3828 149.846 94.0469C149.776 93.7111 149.642 93.3924 149.451 93.1093C149.26 92.8261 149.016 92.584 148.733 92.3967C148.45 92.2095 148.133 92.0808 147.801 92.0181H147.754C146.469 91.8041 144.861 91.5744 143.283 91.47L142.404 91.4126Z" fill="#263238"/>
<path opacity="0.2" d="M145.292 121.678C145.272 121.678 145.253 121.673 145.235 121.664C145.217 121.655 145.202 121.642 145.19 121.626C143.903 119.9 142.893 117.977 142.198 115.931C142.192 115.914 142.19 115.897 142.191 115.88C142.192 115.862 142.197 115.845 142.205 115.83C142.212 115.814 142.223 115.8 142.236 115.789C142.249 115.778 142.264 115.769 142.28 115.764C142.314 115.754 142.35 115.758 142.38 115.774C142.411 115.791 142.434 115.819 142.445 115.852C143.128 117.872 144.124 119.768 145.395 121.469C145.416 121.497 145.424 121.532 145.42 121.566C145.415 121.6 145.397 121.631 145.369 121.652C145.347 121.667 145.32 121.676 145.292 121.678Z" fill="white"/>
<path opacity="0.3" d="M146.845 99.7484C145.961 103.402 146.264 108.461 146.999 113.075C147.754 107.897 148.777 101.173 149.502 97.0079C148.644 96.4128 147.544 96.8356 146.845 99.7484Z" fill="black"/>
<path d="M127.657 94.6537C127.886 93.9411 128.294 93.3013 128.84 92.7971C129.386 92.2928 130.052 91.9414 130.772 91.7775C132.123 91.5869 133.484 91.4702 134.848 91.4277C133.697 95.2175 134.37 106.31 134.879 115.064C133.337 119.48 133.455 122.722 133.429 128.03L124.953 127.279C124.028 107.803 126.387 98.1929 127.657 94.6537Z" fill="#263238"/>
<path d="M134.781 91.6005C137.295 91.0471 137.762 89.5125 137.624 87.7585C137.592 87.3254 137.534 86.8948 137.449 86.4692L140.63 83.8592L142.964 81.9644C142.275 84.7623 141.463 89.8779 143.303 91.7884C143.303 91.7884 141.705 94.3514 137.433 94.0382C133.82 93.7981 134.781 91.6005 134.781 91.6005Z" fill="#FFB573"/>
<path d="M138.533 93.417L137.824 94.0852L140.014 94.9256L139.751 94.0747L138.533 93.417Z" fill="#E0E0E0"/>
<path d="M139.33 96.0737C139.33 96.0737 139.33 93.8865 138.533 93.4167C140.166 93.0209 141.665 92.1902 142.877 91.0103L144.177 91.5323C144.177 91.5323 143.699 94.0587 139.33 96.0737Z" fill="#F5F5F5"/>
<path d="M137.325 93.2446L137.824 94.085L135.496 94.2886L135.979 93.5422L137.325 93.2446Z" fill="#E0E0E0"/>
<path d="M135.346 95.6247C135.466 95.0965 135.707 94.6048 136.052 94.1907C136.396 93.7766 136.833 93.4522 137.325 93.2444C136.071 92.8633 136.035 91.0938 136.035 91.0938L134.807 91.3339C134.807 91.3339 133.547 93.6933 135.346 95.6247Z" fill="#F5F5F5"/>
<path opacity="0.2" d="M137.449 86.4692C137.534 86.8947 137.593 87.3253 137.624 87.7585C138.795 87.5393 140.379 86.3073 140.564 85.0963C140.631 84.6965 140.653 84.2902 140.63 83.8853L137.449 86.4692Z" fill="black"/>
<path d="M133.157 73.6748C132.79 74.3638 132.613 75.1403 132.644 75.9229C132.675 76.7054 132.912 77.4651 133.332 78.1223L135.85 74.938L133.157 73.6748Z" fill="#263238"/>
<path d="M143.319 77.2086C143.139 81.0297 143.226 83.2638 141.36 85.3153C140.761 85.9861 139.993 86.4781 139.138 86.7381C138.284 86.9981 137.376 87.0162 136.512 86.7906C135.648 86.565 134.862 86.1042 134.237 85.4578C133.612 84.8115 133.173 84.0041 132.967 83.1229C132.119 79.7403 132.55 74.061 136.195 72.3645C136.974 71.9766 137.841 71.8037 138.707 71.863C139.573 71.9222 140.409 72.2117 141.131 72.7023C141.852 73.1929 142.434 73.8674 142.818 74.6583C143.202 75.4492 143.375 76.3287 143.319 77.2086Z" fill="#FFB573"/>
<path d="M145.632 73.2728C144.007 67.9902 127.811 65.2601 134.092 74.1968L140.98 73.2415L141.237 75.0372C141.588 76.4422 142.059 77.8134 142.645 79.1349L142.357 80.7583L142.656 83.3996C142.656 83.3996 145.519 80.1737 146.968 78.6442C149.137 76.3683 146.937 73.1423 145.632 73.2728Z" fill="#263238"/>
<path d="M133.29 74.3165C135.089 75.6632 139.793 75.919 139.793 75.919C139.471 75.2132 138.977 74.6023 138.359 74.1442C140.245 75.3866 141.921 76.8169 145.071 76.9369C144.65 75.755 143.996 74.6725 143.149 73.7553C142.303 72.8382 141.281 72.1056 140.147 71.6021C136.354 69.8743 129.914 71.7952 133.29 74.3165Z" fill="#263238"/>
<path d="M144.876 68.5947C144.876 68.5947 144.177 69.075 144.018 70.7454C143.858 72.4158 145.524 74.5716 145.524 74.5716L145.935 73.5015C144.377 71.4605 144.876 68.5947 144.876 68.5947Z" fill="#263238"/>
<path d="M144.372 80.0902C144.051 80.8514 143.481 81.4765 142.758 81.8598C141.838 82.3192 141.35 81.4735 141.586 80.44C141.797 79.5108 142.537 78.1536 143.473 78.1223C144.408 78.091 144.773 79.1297 144.372 80.0902Z" fill="#FFB573"/>
<path d="M137.572 78.6285C137.572 78.9365 137.418 79.1975 137.223 79.2079C137.027 79.2184 136.858 78.973 136.852 78.6598C136.847 78.3466 137.007 78.0909 137.207 78.0804C137.408 78.07 137.567 78.2997 137.572 78.6285Z" fill="#263238"/>
<path d="M134.154 78.8217C134.154 79.1349 134 79.3907 133.799 79.4011C133.599 79.4116 133.434 79.1662 133.434 78.8791C133.434 78.592 133.589 78.3101 133.784 78.2997C133.979 78.2893 134.123 78.4876 134.154 78.8217Z" fill="#263238"/>
<path d="M135.305 78.8218C134.955 79.7904 134.477 80.7068 133.887 81.5466C134.1 81.688 134.341 81.78 134.594 81.8161C134.846 81.8522 135.103 81.8314 135.346 81.7554L135.305 78.8218Z" fill="#ED893E"/>
<path d="M136.601 82.5277C136.951 82.4735 137.286 82.3474 137.587 82.1571C137.887 81.9669 138.146 81.7164 138.348 81.421C138.36 81.4007 138.364 81.3765 138.36 81.3533C138.355 81.33 138.342 81.3095 138.323 81.2958C138.312 81.2892 138.301 81.2849 138.29 81.2829C138.278 81.281 138.266 81.2815 138.254 81.2844C138.243 81.2873 138.232 81.2926 138.222 81.3C138.213 81.3073 138.205 81.3165 138.199 81.3271C137.97 81.6382 137.675 81.8934 137.336 82.074C136.997 82.2546 136.623 82.3561 136.241 82.3711C136.217 82.3737 136.194 82.3853 136.178 82.4036C136.162 82.4219 136.153 82.4457 136.153 82.4703C136.156 82.4933 136.167 82.5146 136.184 82.5301C136.201 82.5455 136.223 82.5539 136.246 82.5538C136.365 82.5536 136.483 82.5449 136.601 82.5277Z" fill="#263238"/>
<path d="M139.124 77.2976C139.154 77.2922 139.182 77.2797 139.207 77.261C139.243 77.2304 139.266 77.1864 139.271 77.1385C139.276 77.0906 139.262 77.0427 139.232 77.0052C139.061 76.7778 138.838 76.5964 138.581 76.4772C138.325 76.358 138.044 76.3045 137.762 76.3214C137.737 76.3212 137.712 76.3265 137.688 76.3369C137.665 76.3474 137.644 76.3627 137.627 76.382C137.61 76.4013 137.597 76.424 137.589 76.4487C137.582 76.4734 137.579 76.4994 137.582 76.5252C137.585 76.5509 137.593 76.5757 137.606 76.5979C137.619 76.6201 137.637 76.6393 137.658 76.6541C137.679 76.6689 137.703 76.679 137.728 76.6837C137.753 76.6885 137.779 76.6877 137.803 76.6816C138.022 76.6697 138.241 76.7108 138.441 76.8016C138.641 76.8923 138.817 77.0301 138.955 77.2036C138.97 77.2349 138.995 77.2607 139.025 77.2775C139.055 77.2943 139.09 77.3013 139.124 77.2976Z" fill="#263238"/>
<path d="M132.612 77.71C132.641 77.705 132.668 77.6929 132.692 77.6747C132.715 77.6565 132.733 77.6327 132.746 77.6056C132.838 77.3882 132.979 77.1956 133.157 77.0434C133.336 76.8911 133.547 76.7833 133.774 76.7286C133.797 76.7249 133.819 76.7164 133.839 76.7038C133.859 76.6912 133.876 76.6746 133.889 76.6552C133.903 76.6357 133.912 76.6137 133.917 76.5904C133.922 76.5672 133.922 76.5432 133.918 76.5198C133.91 76.4721 133.884 76.4294 133.846 76.401C133.807 76.3726 133.759 76.3609 133.712 76.3684C133.433 76.438 133.174 76.5722 132.954 76.7606C132.735 76.949 132.561 77.1864 132.448 77.4542C132.434 77.4841 132.429 77.517 132.433 77.5496C132.436 77.5822 132.449 77.6132 132.468 77.6393C132.487 77.6655 132.513 77.6858 132.543 77.6983C132.573 77.7107 132.606 77.7147 132.638 77.71H132.612Z" fill="#263238"/>
<path d="M150.432 94.283C150.777 95.066 151.07 95.7759 151.352 96.5224C151.635 97.2688 151.918 98.0101 152.185 98.7565C152.699 100.249 153.213 101.768 153.624 103.308C154.547 106.448 155.143 109.678 155.403 112.944C155.575 116.1 155.575 119.263 155.403 122.419C155.254 125.551 155.012 128.615 154.606 131.71C154.552 132.116 154.354 132.489 154.049 132.757C153.744 133.025 153.354 133.171 152.95 133.167C152.547 133.163 152.159 133.01 151.859 132.736C151.559 132.462 151.368 132.086 151.322 131.679C150.987 128.631 150.725 125.572 150.453 122.539C150.319 121.022 150.175 119.513 150.021 118.013C149.882 116.515 149.697 115.027 149.507 113.613C149.015 110.775 148.3 107.982 147.369 105.261C146.906 103.867 146.428 102.468 145.919 101.085C145.411 99.7014 144.866 98.2815 144.377 96.9713L144.347 96.8982C144.05 96.0832 144.074 95.1834 144.415 94.3863C144.755 93.5891 145.386 92.9563 146.175 92.6197C146.963 92.2831 147.85 92.2688 148.649 92.5796C149.448 92.8905 150.098 93.5026 150.463 94.2882L150.432 94.283Z" fill="#263238"/>
<path d="M151.373 131.449L149.23 132.493L152.864 133.814C152.864 133.814 155.326 133.026 154.169 131.648L153.522 131.439C152.468 131.079 151.949 131.115 151.373 131.449Z" fill="#FFB573"/>
<path d="M148.001 134.832L151.841 135.579L152.864 133.793L149.23 132.473L148.001 134.832Z" fill="#FFB573"/>
<path d="M89.8575 44.4272H72.6128V45.0119H89.8575V44.4272Z" fill="#5B8FEB"/>
<path d="M63.0781 47.502L62.6566 47.1001C63.4475 46.2454 64.4034 45.5655 65.4647 45.103C66.5259 44.6404 67.6697 44.4051 68.8246 44.4118V44.9912C67.7481 44.985 66.682 45.2049 65.6931 45.637C64.7042 46.0691 63.8139 46.704 63.0781 47.502Z" fill="#5B8FEB"/>
<path d="M68.8452 46.4578H101.813C103.67 46.4886 105.45 47.2221 106.802 48.5149C108.155 49.8076 108.984 51.5665 109.127 53.4473L110.376 73.4921L110.777 79.9963L103.972 73.4974H70.5311C68.6752 73.4666 66.8973 72.7336 65.5455 71.4418C64.1937 70.15 63.3651 68.3925 63.222 66.513L62.4099 53.463C62.3407 52.5649 62.4562 51.6619 62.749 50.8115C63.0417 49.9611 63.5054 49.1818 64.1105 48.5231C64.7157 47.8644 65.449 47.3406 66.2641 46.9851C67.0792 46.6295 67.9581 46.45 68.8452 46.4578Z" fill="#5B8FEB"/>
<path d="M70.5876 56.0366H101.741C101.889 56.0378 102.035 56.0078 102.171 55.9488C102.306 55.8897 102.428 55.8027 102.529 55.6934C102.63 55.5841 102.708 55.4547 102.757 55.3134C102.806 55.1722 102.826 55.0221 102.815 54.8726C102.79 54.559 102.651 54.2663 102.425 54.0512C102.199 53.8361 101.902 53.7139 101.592 53.7085H70.4437C70.2962 53.7074 70.15 53.7373 70.0143 53.7964C69.8787 53.8555 69.7566 53.9424 69.6557 54.0518C69.5548 54.1611 69.4773 54.2905 69.428 54.4318C69.3787 54.573 69.3588 54.7231 69.3695 54.8726C69.3937 55.1857 69.5319 55.4784 69.7571 55.6936C69.9823 55.9088 70.2784 56.0311 70.5876 56.0366Z" fill="white"/>
<path d="M70.932 61.4029H102.086C102.233 61.404 102.379 61.3741 102.515 61.315C102.651 61.2559 102.773 61.169 102.874 61.0597C102.974 60.9503 103.052 60.8209 103.101 60.6797C103.151 60.5384 103.17 60.3883 103.16 60.2389C103.135 59.9249 102.997 59.6314 102.77 59.4161C102.544 59.2008 102.247 59.079 101.936 59.0748H70.7778C70.63 59.0729 70.4835 59.1023 70.3475 59.1611C70.2115 59.2199 70.0891 59.3068 69.988 59.4163C69.887 59.5259 69.8095 59.6556 69.7605 59.7972C69.7115 59.9388 69.6921 60.0892 69.7036 60.2389C69.728 60.5537 69.8676 60.8479 70.095 61.0634C70.3224 61.2788 70.621 61.4 70.932 61.4029Z" fill="white"/>
<path d="M81.8648 66.7689H102.425C102.573 66.7701 102.719 66.74 102.855 66.6806C102.991 66.6213 103.114 66.5338 103.215 66.4239C103.316 66.314 103.393 66.184 103.442 66.0421C103.491 65.9002 103.51 65.7495 103.499 65.5996C103.476 65.2861 103.338 64.9927 103.113 64.7773C102.887 64.5618 102.59 64.4399 102.281 64.4356H81.726C81.5785 64.4345 81.4323 64.4644 81.2966 64.5235C81.161 64.5825 81.0389 64.6695 80.938 64.7788C80.8371 64.8882 80.7596 65.0176 80.7103 65.1588C80.661 65.3001 80.6411 65.4502 80.6518 65.5996C80.6735 65.9132 80.8101 66.2072 81.0346 66.4236C81.2592 66.64 81.5553 66.7632 81.8648 66.7689Z" fill="white"/>
<path d="M80.5387 80.0019H47.5707C46.684 79.9914 45.8049 80.1682 44.9891 80.5213C44.1733 80.8743 43.4388 81.3958 42.8322 82.0527C42.2255 82.7095 41.76 83.4873 41.4653 84.3366C41.1705 85.186 41.0529 86.0883 41.12 86.9863L42.0452 101.686L42.4461 108.185L48.4445 101.686H81.8854C82.7719 101.695 83.6505 101.517 84.4657 101.163C85.2809 100.809 86.0147 100.287 86.6207 99.6296C87.2267 98.9725 87.6917 98.1946 87.9861 97.3454C88.2805 96.4961 88.3979 95.594 88.3309 94.6962L87.8529 86.9863C87.7097 85.1059 86.8804 83.3476 85.5275 82.0557C84.1746 80.7638 82.3955 80.0314 80.5387 80.0019Z" fill="#5B8FEB"/>
<path opacity="0.5" d="M80.5387 80.0019H47.5707C46.684 79.9914 45.8049 80.1682 44.9891 80.5213C44.1733 80.8743 43.4388 81.3958 42.8322 82.0527C42.2255 82.7095 41.76 83.4873 41.4653 84.3366C41.1705 85.186 41.0529 86.0883 41.12 86.9863L42.0452 101.686L42.4461 108.185L48.4445 101.686H81.8854C82.7719 101.695 83.6505 101.517 84.4657 101.163C85.2809 100.809 86.0147 100.287 86.6207 99.6296C87.2267 98.9725 87.6917 98.1946 87.9861 97.3454C88.2805 96.4961 88.3979 95.594 88.3309 94.6962L87.8529 86.9863C87.7097 85.1059 86.8804 83.3476 85.5275 82.0557C84.1746 80.7638 82.3955 80.0314 80.5387 80.0019Z" fill="white"/>
<path d="M79.9887 89.5752H48.83C48.5208 89.5697 48.2247 89.4474 47.9995 89.2322C47.7743 89.017 47.6361 88.7243 47.6118 88.4112C47.6012 88.2617 47.6211 88.1116 47.6704 87.9703C47.7197 87.8291 47.7972 87.6997 47.8981 87.5904C47.999 87.481 48.1211 87.3941 48.2567 87.335C48.3923 87.2759 48.5385 87.246 48.6861 87.2471H79.8345C80.1446 87.2513 80.4419 87.3731 80.6682 87.5884C80.8945 87.8037 81.0335 88.0972 81.0578 88.4112C81.0684 88.5602 81.0486 88.7098 80.9997 88.8507C80.9507 88.9916 80.8736 89.1208 80.7733 89.23C80.6729 89.3393 80.5515 89.4264 80.4164 89.4858C80.2814 89.5452 80.1358 89.5756 79.9887 89.5752Z" fill="white"/>
<path d="M69.7138 94.9517H49.1538C48.8441 94.9463 48.5474 94.8242 48.3213 94.609C48.0952 94.3939 47.956 94.1012 47.9305 93.7876C47.9199 93.6382 47.9398 93.4881 47.9891 93.3468C48.0383 93.2055 48.1159 93.0762 48.2168 92.9668C48.3177 92.8575 48.4398 92.7705 48.5754 92.7115C48.711 92.6524 48.8572 92.6225 49.0048 92.6236H69.5648C69.8747 92.6267 70.1721 92.7482 70.3978 92.9639C70.6235 93.1796 70.761 93.4737 70.7829 93.7876C70.7936 93.9367 70.7738 94.0863 70.7248 94.2272C70.6759 94.3681 70.5988 94.4972 70.4984 94.6065C70.3981 94.7158 70.2766 94.8028 70.1416 94.8622C70.0066 94.9216 69.861 94.9521 69.7138 94.9517Z" fill="white"/>
<path d="M72.6899 108.184H105.653C107.51 108.214 109.29 108.947 110.643 110.24C111.996 111.533 112.825 113.293 112.967 115.174L113.944 130.834L114.35 137.333L107.544 130.834H74.0983C72.241 130.803 70.4618 130.07 69.109 128.777C67.7563 127.484 66.9272 125.725 66.784 123.844L66.2443 115.153C66.1803 114.257 66.3 113.357 66.5957 112.51C66.8915 111.664 67.3569 110.888 67.9626 110.234C68.5683 109.579 69.3011 109.058 70.1148 108.706C70.9284 108.353 71.8053 108.176 72.6899 108.184Z" fill="#5B8FEB"/>
<path d="M87.4057 118.682C87.4533 119.344 87.7437 119.964 88.2195 120.419C88.6954 120.875 89.3221 121.132 89.9757 121.141C90.2879 121.144 90.5975 121.082 90.8848 120.958C91.172 120.834 91.4307 120.65 91.6444 120.419C91.858 120.188 92.022 119.914 92.1258 119.615C92.2297 119.316 92.2711 118.998 92.2476 118.682C92.1978 118.021 91.9067 117.402 91.4313 116.947C90.9559 116.493 90.3306 116.234 89.6776 116.223C89.3652 116.219 89.0552 116.28 88.7676 116.404C88.48 116.528 88.221 116.712 88.0072 116.943C87.7933 117.175 87.6294 117.449 87.5259 117.748C87.4223 118.048 87.3814 118.366 87.4057 118.682Z" fill="white"/>
<path d="M79.3308 119.507C79.3783 120.169 79.6687 120.789 80.1446 121.244C80.6204 121.699 81.2471 121.957 81.9008 121.965C82.2128 121.969 82.5221 121.907 82.8091 121.783C83.0962 121.658 83.3545 121.475 83.5678 121.243C83.781 121.012 83.9445 120.738 84.0478 120.439C84.151 120.14 84.1918 119.823 84.1675 119.507C84.1176 118.845 83.8266 118.227 83.3512 117.772C82.8758 117.317 82.2505 117.059 81.5975 117.048C81.2855 117.044 80.9761 117.106 80.6891 117.231C80.4021 117.355 80.1437 117.539 79.9305 117.77C79.7172 118.001 79.5538 118.275 79.4505 118.574C79.3472 118.873 79.3065 119.191 79.3308 119.507Z" fill="white"/>
<path d="M95.6554 120.744C95.7053 121.405 95.9964 122.024 96.4717 122.478C96.9471 122.933 97.5724 123.191 98.2254 123.203C98.5374 123.206 98.8468 123.144 99.1338 123.02C99.4208 122.896 99.6792 122.712 99.8924 122.481C100.106 122.249 100.269 121.975 100.372 121.676C100.476 121.377 100.516 121.06 100.492 120.744C100.445 120.082 100.154 119.462 99.6783 119.007C99.2025 118.551 98.5758 118.294 97.9221 118.285C97.6104 118.282 97.3014 118.345 97.0147 118.469C96.7281 118.594 96.47 118.778 96.2569 119.009C96.0438 119.24 95.8803 119.514 95.7768 119.812C95.6732 120.111 95.6319 120.428 95.6554 120.744Z" fill="white"/>
</svg>
