<svg width="343" height="285" viewBox="0 0 343 285" fill="none" xmlns="http://www.w3.org/2000/svg">
<path opacity="0.7" d="M74.6447 81.5189C76.9515 77.0905 77.9707 70.4967 75.8117 65.6938C73.8122 61.2642 69.502 59.1251 65.5311 59.0059C62.0962 58.9033 59.3692 60.1493 56.6889 62.5961C55.3069 63.8588 53.9104 65.2097 52.2464 65.9454C50.9471 66.5201 49.6109 66.916 48.2707 67.3548C43.4246 68.9442 40.438 74.3349 41.0886 80.131C41.5904 84.5857 44.4108 88.7291 48.0091 90.3841C50.7993 91.6671 53.7315 90.7192 56.4273 89.5984C57.8803 88.9938 59.3449 88.369 60.8786 88.0876C62.3617 87.8146 63.7961 88.1556 65.2647 87.9589C68.8834 87.4748 72.614 85.4215 74.6447 81.5189Z" fill="#CEDDF9"/>
<path d="M64.0478 80.8V85H46.4878V80.8H52.7278V62.44L46.9278 65.92V61.32L54.8478 56.52H57.8478V80.8H64.0478Z" fill="#21427C"/>
<path d="M299.307 169.177C312.922 147.116 318.938 114.268 306.195 90.3415C294.394 68.2744 268.954 57.618 245.518 57.024C225.244 56.5132 209.149 62.7205 193.329 74.9094C185.173 81.1998 176.93 87.9299 167.109 91.5948C159.441 94.4579 151.554 96.43 143.644 98.6159C115.042 106.534 97.4141 133.389 101.254 162.263C104.216 184.455 120.862 205.096 142.1 213.341C158.568 219.733 175.874 215.01 191.785 209.427C200.361 206.415 209.005 203.302 218.057 201.901C226.811 200.54 235.277 202.239 243.945 201.259C265.303 198.848 287.322 188.619 299.307 169.177Z" fill="#5B8FEB"/>
<path opacity="0.7" d="M299.307 169.177C312.922 147.116 318.938 114.268 306.195 90.3415C294.394 68.2744 268.954 57.618 245.518 57.024C225.244 56.5132 209.149 62.7205 193.329 74.9094C185.173 81.1998 176.93 87.9299 167.109 91.5948C159.441 94.4579 151.554 96.43 143.644 98.6159C115.042 106.534 97.4141 133.389 101.254 162.263C104.216 184.455 120.862 205.096 142.1 213.341C158.568 219.733 175.874 215.01 191.785 209.427C200.361 206.415 209.005 203.302 218.057 201.901C226.811 200.54 235.277 202.239 243.945 201.259C265.303 198.848 287.322 188.619 299.307 169.177Z" fill="white"/>
<path d="M306.063 179.976H303.635H193.726H191.298V185.013H193.726V236.21H303.635V185.013H306.063V179.976Z" fill="#5B8FEB"/>
<path opacity="0.5" d="M306.063 179.976H303.635H193.726H191.298V185.013H193.726V236.21H303.635V185.013H306.063V179.976Z" fill="white"/>
<path d="M196.67 206.712H226.644V190.151H196.67V206.712ZM197.279 190.763H226.036V206.118H197.279V190.763Z" fill="white"/>
<path d="M233.894 206.712H263.874V190.151H233.894V206.712ZM234.514 190.781H263.277V206.118H234.514V190.781Z" fill="white"/>
<path d="M271.124 190.151V206.712H301.098V190.151H271.124ZM300.49 206.118H271.732V190.781H300.49V206.118Z" fill="white"/>
<path d="M196.67 228.975H226.644V212.396H196.67V228.975ZM197.279 213.026H226.036V228.345H197.279V213.026Z" fill="white"/>
<path d="M233.894 228.975H263.874V212.396H233.894V228.975ZM234.514 213.026H263.277V228.345H234.514V213.026Z" fill="white"/>
<path d="M271.124 228.975H301.098V212.396H271.124V228.975ZM271.732 213.026H300.49V228.345H271.732V213.026Z" fill="white"/>
<path d="M211.979 200.54C214.667 200.54 216.846 199.695 216.846 198.651C216.846 197.608 214.667 196.762 211.979 196.762C209.29 196.762 207.111 197.608 207.111 198.651C207.111 199.695 209.29 200.54 211.979 200.54Z" fill="white"/>
<path d="M249.025 200.54C251.713 200.54 253.892 199.695 253.892 198.651C253.892 197.608 251.713 196.762 249.025 196.762C246.336 196.762 244.157 197.608 244.157 198.651C244.157 199.695 246.336 200.54 249.025 200.54Z" fill="white"/>
<path d="M287.144 200.54C289.832 200.54 292.012 199.695 292.012 198.651C292.012 197.608 289.832 196.762 287.144 196.762C284.456 196.762 282.277 197.608 282.277 198.651C282.277 199.695 284.456 200.54 287.144 200.54Z" fill="white"/>
<path d="M211.979 219.008C209.292 219.008 207.111 219.851 207.111 220.897C207.111 221.942 209.292 222.78 211.979 222.78C214.665 222.78 216.846 221.936 216.846 220.897C216.846 219.857 214.665 219.008 211.979 219.008Z" fill="white"/>
<path d="M249.025 219.008C246.338 219.008 244.157 219.851 244.157 220.897C244.157 221.942 246.338 222.78 249.025 222.78C251.711 222.78 253.892 221.936 253.892 220.897C253.892 219.857 251.734 219.008 249.025 219.008Z" fill="white"/>
<path d="M287.144 219.008C284.458 219.008 282.282 219.851 282.282 220.897C282.282 221.942 284.458 222.78 287.144 222.78C289.83 222.78 292.012 221.936 292.012 220.897C292.012 219.857 289.836 219.008 287.144 219.008Z" fill="white"/>
<path d="M177.791 175.575C175.576 178.978 172.488 183.404 170.84 186.956C171.466 184.615 172.08 182.4 172.637 180.422C173.481 178.705 175.742 174.375 178.377 171.512C181.689 167.841 183.107 165.483 181.321 165.281C180.087 165.138 176.471 170.122 174.204 175.07C174.697 173.377 175.088 172.1 175.352 171.333C175.461 170.989 175.564 170.615 175.668 170.217C178.013 166.821 180.149 163.276 182.062 159.602C185.408 153.133 186.487 147.027 184.255 149.652C182.2 152.07 178.624 164.093 175.782 169.747C176.023 168.773 176.253 167.698 176.454 166.635C176.856 165.607 177.384 164.562 177.682 163.611C178.147 162.15 178.555 160.677 178.882 159.174C179.422 156.839 179.695 154.447 179.697 152.046C179.755 149.226 179.012 146.451 177.562 144.063C177.177 143.469 174.824 139.828 174.118 141.687C174.026 141.997 174.008 142.325 174.066 142.643C174.41 145.738 175.495 148.583 176.167 151.595C177.171 156.103 176.506 163.671 176.167 166.89C176.041 167.401 175.88 168.031 175.69 168.761C176.155 163.154 173.808 156.507 171.632 155.343C168.94 153.906 171.581 159.549 173.659 164.479C174.643 166.636 175.106 169.009 175.007 171.393C174.583 173.009 174.095 174.832 173.59 176.674C173.486 176.923 173.394 177.178 173.303 177.428C173.536 176.226 173.631 175 173.584 173.775C173.389 170.555 169.864 164.11 167.522 165.019C165.181 165.928 169.147 169.326 171.265 173.282C172.376 175.469 172.803 177.96 172.488 180.41C172.488 180.558 172.442 180.701 172.424 180.837C172.178 181.681 171.937 182.489 171.707 183.261C171.133 185.043 170.645 186.754 170.157 188.405C170.757 186.009 171.019 183.537 170.938 181.063C170.645 176.347 167.976 171.892 165.772 171.28C163.568 170.668 167.775 178.366 169.187 182.691C169.955 185.216 170.085 187.903 169.566 190.496C168.883 192.836 168.24 195.147 167.58 197.588C167.764 194.39 167.697 191.182 167.379 187.995C166.948 182.744 163.935 179.394 161.857 179.531C159.779 179.667 161.949 182.649 164.945 189.035C166.527 192.387 167.232 196.111 166.989 199.834C166.719 200.861 166.415 201.919 166.162 203.023C165.841 204.283 165.588 205.655 165.358 207.057C165.06 205.803 164.612 203.974 164.09 201.954C163.482 199.722 163.04 197.444 162.77 195.141C162.488 192.462 161.805 189.118 159.268 187.728C159.096 187.604 158.899 187.52 158.692 187.482C158.485 187.445 158.273 187.455 158.07 187.512C157.867 187.568 157.679 187.67 157.518 187.81C157.357 187.95 157.228 188.125 157.139 188.322C156.906 188.897 156.854 189.532 156.99 190.14C157.326 191.962 157.906 193.727 158.712 195.385C158.213 196.373 157.987 197.485 158.057 198.598C158.057 199.014 158.092 199.43 158.12 199.845C157.896 199.418 157.684 199.026 157.483 198.657C157.118 198.028 156.67 197.454 156.152 196.953C156.282 195.968 156.347 194.976 156.347 193.983C156.347 192.682 154.872 189.361 153.54 191.821C153.006 192.807 153.109 194.737 153.058 196.02C152.696 196.377 152.587 197.101 152.891 198.242C152.685 201.212 152.644 204.253 153.339 207.152L152.88 206.326C152.233 202.89 151.849 199.406 151.732 195.907C151.565 190.128 152.455 185.388 150.934 183.606C149.413 181.824 148.563 188.09 149.212 194.921C149.517 198.038 150.32 201.081 151.588 203.926C150.096 201.152 148.621 198.325 147.226 195.61C146.652 194.155 145.228 190.217 145.578 186.225C146.02 181.194 146.342 177.072 144.494 174.238C142.645 171.405 142.261 173.246 143.168 179.151C143.788 183.202 144.448 188.619 145.584 192.379C144.505 190.223 143.489 188.173 142.582 186.32C142.066 184.467 140.86 179.709 140.86 175.759C140.86 170.734 140.344 168.037 138.909 169.124C137.91 169.89 138.553 176.091 140.16 181.307C139.408 179.721 138.84 178.503 138.513 177.784C138.363 177.458 138.197 177.107 138.007 176.745C137.482 172.608 136.706 168.509 135.683 164.473C133.863 157.38 130.62 152.153 130.723 155.652C130.815 158.871 136.13 170.181 137.789 176.323C137.319 175.438 136.773 174.494 136.222 173.573C135.838 172.533 135.533 171.399 135.126 170.496C134.5 169.1 133.829 167.734 133.077 166.403C131.928 164.311 130.547 162.365 128.961 160.606C127.124 158.441 124.703 156.894 122.01 156.163C121.333 155.996 117.223 154.975 117.923 156.876C118.054 157.165 118.251 157.418 118.497 157.612C120.793 159.632 123.456 160.944 125.959 162.673C129.667 165.263 134.173 171.262 136.033 173.87L136.917 175.575C133.559 171.143 127.457 167.948 125.104 168.637C122.188 169.486 127.836 171.743 132.606 173.876C134.749 174.757 136.653 176.166 138.151 177.98C138.909 179.465 139.752 181.134 140.596 182.839C140.694 183.095 140.786 183.344 140.883 183.594C140.263 182.55 139.525 181.587 138.685 180.725C136.417 178.515 129.587 176.287 128.479 178.604C127.371 180.921 132.497 180.612 136.664 182.002C138.909 182.817 140.855 184.329 142.238 186.332C142.318 186.451 142.393 186.576 142.473 186.688C142.852 187.472 143.208 188.239 143.546 188.963C144.327 190.668 145.073 192.266 145.802 193.816C144.664 191.634 143.228 189.634 141.537 187.876C138.208 184.633 133.318 183.267 131.292 184.396C129.265 185.524 137.428 188.156 141.314 190.336C143.541 191.64 145.408 193.513 146.738 195.777C147.783 197.968 148.833 200.113 149.964 202.364C147.989 199.897 145.826 197.599 143.495 195.491C139.712 191.957 135.298 191.636 133.869 193.205C132.44 194.773 135.993 195.42 142.387 197.957C145.752 199.289 148.721 201.511 150.997 204.401C151.479 205.346 151.973 206.314 152.501 207.324C153.075 208.464 153.804 209.652 154.573 210.834C153.528 210.134 151.99 209.112 150.28 208.007C148.36 206.805 146.535 205.448 144.821 203.95C142.846 202.198 140.143 200.232 137.359 201.01C137.152 201.041 136.953 201.119 136.779 201.238C136.604 201.358 136.456 201.515 136.347 201.7C136.237 201.885 136.168 202.092 136.145 202.307C136.121 202.523 136.144 202.741 136.211 202.946C136.414 203.534 136.794 204.038 137.296 204.384C139.913 206.48 143.432 207.49 146.48 208.732C149.273 209.869 152.136 210.814 155.049 211.559C155.773 212.634 156.525 213.698 157.282 214.707L155.916 214.749C154.298 214.802 146.996 211.375 143.288 210.276C139.58 209.177 136.113 211.256 139.999 213.418C143.885 215.581 154.452 215.099 154.452 215.099L157.5 215.004C158.218 215.955 158.918 216.858 159.584 217.683H145.102V221.841H147.972L150.268 236.626H169.514L171.839 221.841H174.709V217.683H165.117C165.04 215.886 165.086 214.086 165.255 212.296C165.895 211.622 166.606 211.025 167.373 210.514C171.586 207.502 178.727 207.253 180.627 201.449C181.086 200.053 180.564 198.26 178.951 198.337C177.803 198.39 176.557 199.448 175.834 200.309C173.423 203.19 171.609 206.178 168.475 208.363C167.399 209.22 166.364 210.132 165.376 211.096C165.485 210.151 165.623 209.142 165.8 208.061C166.558 206.671 167.422 205.346 168.383 204.099C170.949 200.802 174.852 198.871 177.625 195.729C178.474 194.767 179.594 191.31 176.999 192.165C175.851 192.545 174.485 194.357 173.555 195.183C171.001 197.559 168.389 200.089 166.725 203.213C166.793 202.905 166.868 202.619 166.937 202.287C168.728 199.315 170.745 196.497 172.97 193.858C176.655 189.522 180.432 186.682 180.495 184.306C180.558 181.93 175.805 185.91 171.77 191.351C169.94 193.847 168.52 196.639 167.568 199.614C168.309 196.537 169.095 193.424 169.864 190.442C170.392 188.957 171.959 185.096 174.847 182.418C178.492 179.05 181.442 176.27 181.964 172.914C182.487 169.557 181.023 170.621 177.791 175.575ZM157.409 213.781C156.863 213.014 156.295 212.183 155.687 211.262C155.324 209.701 155.082 208.112 154.963 206.51C154.89 205.147 154.951 203.78 155.147 202.429C156.127 203.685 157.167 204.888 158.264 206.035C158.238 207.223 158.097 208.405 157.845 209.563C157.63 210.96 157.484 212.368 157.409 213.781ZM160.531 217.695C159.791 216.881 158.981 215.913 158.103 214.725C158.125 213.783 158.25 212.846 158.476 211.933C158.827 210.494 159.331 209.099 159.98 207.775C161.34 209.112 162.339 209.997 162.339 209.997L164.635 212.082C164.457 214.155 164.354 216.103 164.291 217.683L160.531 217.695ZM164.664 211.72L163.636 210.787C163.062 210.252 162.029 208.185 160.904 205.803C161.384 204.801 161.81 203.772 162.179 202.72C163.395 205.055 164.475 206.878 165.112 207.847C164.928 209.136 164.784 210.448 164.664 211.72Z" fill="#5B8FEB"/>
<path opacity="0.5" d="M177.791 175.575C175.576 178.978 172.488 183.404 170.84 186.956C171.466 184.615 172.08 182.4 172.637 180.422C173.481 178.705 175.742 174.375 178.377 171.512C181.689 167.841 183.107 165.483 181.321 165.281C180.087 165.138 176.471 170.122 174.204 175.07C174.697 173.377 175.088 172.1 175.352 171.333C175.461 170.989 175.564 170.615 175.668 170.217C178.013 166.821 180.149 163.276 182.062 159.602C185.408 153.133 186.487 147.027 184.255 149.652C182.2 152.07 178.624 164.093 175.782 169.747C176.023 168.773 176.253 167.698 176.454 166.635C176.856 165.607 177.384 164.562 177.682 163.611C178.147 162.15 178.555 160.677 178.882 159.174C179.422 156.839 179.695 154.447 179.697 152.046C179.755 149.226 179.012 146.451 177.562 144.063C177.177 143.469 174.824 139.828 174.118 141.687C174.026 141.997 174.008 142.325 174.066 142.643C174.41 145.738 175.495 148.583 176.167 151.595C177.171 156.103 176.506 163.671 176.167 166.89C176.041 167.401 175.88 168.031 175.69 168.761C176.155 163.154 173.808 156.507 171.632 155.343C168.94 153.906 171.581 159.549 173.659 164.479C174.643 166.636 175.106 169.009 175.007 171.393C174.583 173.009 174.095 174.832 173.59 176.674C173.486 176.923 173.394 177.178 173.303 177.428C173.536 176.226 173.631 175 173.584 173.775C173.389 170.555 169.864 164.11 167.522 165.019C165.181 165.928 169.147 169.326 171.265 173.282C172.376 175.469 172.803 177.96 172.488 180.41C172.488 180.558 172.442 180.701 172.424 180.837C172.178 181.681 171.937 182.489 171.707 183.261C171.133 185.043 170.645 186.754 170.157 188.405C170.757 186.009 171.019 183.537 170.938 181.063C170.645 176.347 167.976 171.892 165.772 171.28C163.568 170.668 167.775 178.366 169.187 182.691C169.955 185.216 170.085 187.903 169.566 190.496C168.883 192.836 168.24 195.147 167.58 197.588C167.764 194.39 167.697 191.182 167.379 187.995C166.948 182.744 163.935 179.394 161.857 179.531C159.779 179.667 161.949 182.649 164.945 189.035C166.527 192.387 167.232 196.111 166.989 199.834C166.719 200.861 166.415 201.919 166.162 203.023C165.841 204.283 165.588 205.655 165.358 207.057C165.06 205.803 164.612 203.974 164.09 201.954C163.482 199.722 163.04 197.444 162.77 195.141C162.488 192.462 161.805 189.118 159.268 187.728C159.096 187.604 158.899 187.52 158.692 187.482C158.485 187.445 158.273 187.455 158.07 187.512C157.867 187.568 157.679 187.67 157.518 187.81C157.357 187.95 157.228 188.125 157.139 188.322C156.906 188.897 156.854 189.532 156.99 190.14C157.326 191.962 157.906 193.727 158.712 195.385C158.213 196.373 157.987 197.485 158.057 198.598C158.057 199.014 158.092 199.43 158.12 199.845C157.896 199.418 157.684 199.026 157.483 198.657C157.118 198.028 156.67 197.454 156.152 196.953C156.282 195.968 156.347 194.976 156.347 193.983C156.347 192.682 154.872 189.361 153.54 191.821C153.006 192.807 153.109 194.737 153.058 196.02C152.696 196.377 152.587 197.101 152.891 198.242C152.685 201.212 152.644 204.253 153.339 207.152L152.88 206.326C152.233 202.89 151.849 199.406 151.732 195.907C151.565 190.128 152.455 185.388 150.934 183.606C149.413 181.824 148.563 188.09 149.212 194.921C149.517 198.038 150.32 201.081 151.588 203.926C150.096 201.152 148.621 198.325 147.226 195.61C146.652 194.155 145.228 190.217 145.578 186.225C146.02 181.194 146.342 177.072 144.494 174.238C142.645 171.405 142.261 173.246 143.168 179.151C143.788 183.202 144.448 188.619 145.584 192.379C144.505 190.223 143.489 188.173 142.582 186.32C142.066 184.467 140.86 179.709 140.86 175.759C140.86 170.734 140.344 168.037 138.909 169.124C137.91 169.89 138.553 176.091 140.16 181.307C139.408 179.721 138.84 178.503 138.513 177.784C138.363 177.458 138.197 177.107 138.007 176.745C137.482 172.608 136.706 168.509 135.683 164.473C133.863 157.38 130.62 152.153 130.723 155.652C130.815 158.871 136.13 170.181 137.789 176.323C137.319 175.438 136.773 174.494 136.222 173.573C135.838 172.533 135.533 171.399 135.126 170.496C134.5 169.1 133.829 167.734 133.077 166.403C131.928 164.311 130.547 162.365 128.961 160.606C127.124 158.441 124.703 156.894 122.01 156.163C121.333 155.996 117.223 154.975 117.923 156.876C118.054 157.165 118.251 157.418 118.497 157.612C120.793 159.632 123.456 160.944 125.959 162.673C129.667 165.263 134.173 171.262 136.033 173.87L136.917 175.575C133.559 171.143 127.457 167.948 125.104 168.637C122.188 169.486 127.836 171.743 132.606 173.876C134.749 174.757 136.653 176.166 138.151 177.98C138.909 179.465 139.752 181.134 140.596 182.839C140.694 183.095 140.786 183.344 140.883 183.594C140.263 182.55 139.525 181.587 138.685 180.725C136.417 178.515 129.587 176.287 128.479 178.604C127.371 180.921 132.497 180.612 136.664 182.002C138.909 182.817 140.855 184.329 142.238 186.332C142.318 186.451 142.393 186.576 142.473 186.688C142.852 187.472 143.208 188.239 143.546 188.963C144.327 190.668 145.073 192.266 145.802 193.816C144.664 191.634 143.228 189.634 141.537 187.876C138.208 184.633 133.318 183.267 131.292 184.396C129.265 185.524 137.428 188.156 141.314 190.336C143.541 191.64 145.408 193.513 146.738 195.777C147.783 197.968 148.833 200.113 149.964 202.364C147.989 199.897 145.826 197.599 143.495 195.491C139.712 191.957 135.298 191.636 133.869 193.205C132.44 194.773 135.993 195.42 142.387 197.957C145.752 199.289 148.721 201.511 150.997 204.401C151.479 205.346 151.973 206.314 152.501 207.324C153.075 208.464 153.804 209.652 154.573 210.834C153.528 210.134 151.99 209.112 150.28 208.007C148.36 206.805 146.535 205.448 144.821 203.95C142.846 202.198 140.143 200.232 137.359 201.01C137.152 201.041 136.953 201.119 136.779 201.238C136.604 201.358 136.456 201.515 136.347 201.7C136.237 201.885 136.168 202.092 136.145 202.307C136.121 202.523 136.144 202.741 136.211 202.946C136.414 203.534 136.794 204.038 137.296 204.384C139.913 206.48 143.432 207.49 146.48 208.732C149.273 209.869 152.136 210.814 155.049 211.559C155.773 212.634 156.525 213.698 157.282 214.707L155.916 214.749C154.298 214.802 146.996 211.375 143.288 210.276C139.58 209.177 136.113 211.256 139.999 213.418C143.885 215.581 154.452 215.099 154.452 215.099L157.5 215.004C158.218 215.955 158.918 216.858 159.584 217.683H145.102V221.841H147.972L150.268 236.626H169.514L171.839 221.841H174.709V217.683H165.117C165.04 215.886 165.086 214.086 165.255 212.296C165.895 211.622 166.606 211.025 167.373 210.514C171.586 207.502 178.727 207.253 180.627 201.449C181.086 200.053 180.564 198.26 178.951 198.337C177.803 198.39 176.557 199.448 175.834 200.309C173.423 203.19 171.609 206.178 168.475 208.363C167.399 209.22 166.364 210.132 165.376 211.096C165.485 210.151 165.623 209.142 165.8 208.061C166.558 206.671 167.422 205.346 168.383 204.099C170.949 200.802 174.852 198.871 177.625 195.729C178.474 194.767 179.594 191.31 176.999 192.165C175.851 192.545 174.485 194.357 173.555 195.183C171.001 197.559 168.389 200.089 166.725 203.213C166.793 202.905 166.868 202.619 166.937 202.287C168.728 199.315 170.745 196.497 172.97 193.858C176.655 189.522 180.432 186.682 180.495 184.306C180.558 181.93 175.805 185.91 171.77 191.351C169.94 193.847 168.52 196.639 167.568 199.614C168.309 196.537 169.095 193.424 169.864 190.442C170.392 188.957 171.959 185.096 174.847 182.418C178.492 179.05 181.442 176.27 181.964 172.914C182.487 169.557 181.023 170.621 177.791 175.575ZM157.409 213.781C156.863 213.014 156.295 212.183 155.687 211.262C155.324 209.701 155.082 208.112 154.963 206.51C154.89 205.147 154.951 203.78 155.147 202.429C156.127 203.685 157.167 204.888 158.264 206.035C158.238 207.223 158.097 208.405 157.845 209.563C157.63 210.96 157.484 212.368 157.409 213.781ZM160.531 217.695C159.791 216.881 158.981 215.913 158.103 214.725C158.125 213.783 158.25 212.846 158.476 211.933C158.827 210.494 159.331 209.099 159.98 207.775C161.34 209.112 162.339 209.997 162.339 209.997L164.635 212.082C164.457 214.155 164.354 216.103 164.291 217.683L160.531 217.695ZM164.664 211.72L163.636 210.787C163.062 210.252 162.029 208.185 160.904 205.803C161.384 204.801 161.81 203.772 162.179 202.72C163.395 205.055 164.475 206.878 165.112 207.847C164.928 209.136 164.784 210.448 164.664 211.72Z" fill="white"/>
<path d="M121.178 63.7124V123.944H165.376V63.7124H121.178ZM162.311 119.744H124.266V67.9179H162.311V119.744Z" fill="#5B8FEB"/>
<path opacity="0.5" d="M121.178 63.7124V123.944H165.376V63.7124H121.178ZM162.311 119.744H124.266V67.9179H162.311V119.744Z" fill="white"/>
<path d="M275.842 93.0977V137.576H308.491V93.0977H275.842ZM306.212 134.47H278.138V96.228H306.23L306.212 134.47Z" fill="#5B8FEB"/>
<path opacity="0.5" d="M275.842 93.0977V137.576H308.491V93.0977H275.842ZM306.212 134.47H278.138V96.228H306.23L306.212 134.47Z" fill="white"/>
<path d="M89.1657 242.839C90.8131 237.065 107.878 177.048 107.821 176.596C107.763 176.145 109.216 168.084 112.614 161.366C116.012 154.648 120.73 147.164 121.321 146.249C122.221 144.758 122.822 143.096 123.089 141.36C123.531 138.919 128.255 132.195 129.73 130.365C131.205 128.536 135.631 118.913 135.93 117.386C136.228 115.86 137.99 114.636 140.355 114.179C142.72 113.721 145.963 113.264 145.963 113.264C146.563 113.995 146.925 114.903 146.996 115.86C146.996 117.232 141.681 150.062 141.388 155.563C141.095 161.063 141.83 164.11 139.471 169.765C137.112 175.42 130.172 178.925 126.78 181.218C123.388 183.51 123.646 183.986 123.646 183.986C123.646 183.986 125.563 238.948 125.517 243.267" fill="white"/>
<g style="mix-blend-mode:multiply" opacity="0.7">
<path d="M149.154 149.278C148.54 146.433 144.562 148.013 144.562 148.013C141.854 151.055 138.519 153.428 134.804 154.957C128.587 157.39 122.579 160.36 116.844 163.837C117.498 162.477 118.21 161.105 118.979 159.679C122.946 152.42 129.96 142.637 133.903 141.372C136.337 140.6 138.765 142.198 140.28 143.552L140.453 114.149H140.355C137.99 114.606 136.222 115.83 135.929 117.357C135.637 118.883 131.205 128.5 129.73 130.335C128.255 132.171 123.531 138.889 123.089 141.33C122.822 143.066 122.221 144.728 121.321 146.219C120.747 147.134 116.006 154.612 112.614 161.336C109.221 168.06 107.763 176.109 107.821 176.566C107.861 176.899 101.294 201.514 97.1214 217.006C100.565 209.997 105.921 198.657 109.175 190.276C110.455 190.145 112.935 186.558 114.99 183.635C117.429 180.166 121.086 179.216 128.41 173.537C135.734 167.858 143.96 159.964 145.182 156.81C146.405 153.656 149.763 152.117 149.154 149.278Z" fill="#5B8FEB"/>
</g>
<path d="M89.1657 242.839C90.8131 237.065 107.878 177.048 107.821 176.596C107.763 176.145 109.216 168.084 112.614 161.366C116.012 154.648 120.73 147.163 121.321 146.249C122.221 144.758 122.822 143.096 123.089 141.36C123.531 138.919 128.255 132.195 129.73 130.365C131.205 128.536 135.631 118.913 135.929 117.386C136.228 115.86 137.99 114.636 140.355 114.179C142.72 113.721 145.963 113.264 145.963 113.264C146.563 113.995 146.925 114.903 146.996 115.86C146.996 117.232 141.681 150.062 141.388 155.563C141.095 161.063 141.83 164.11 139.471 169.765C137.112 175.42 130.172 178.925 126.78 181.218C123.388 183.51 123.646 183.986 123.646 183.986C123.646 183.986 125.563 238.948 125.517 243.267" stroke="#2E353A" stroke-linecap="round" stroke-linejoin="round"/>
<path d="M140.057 150.674C140.057 150.674 138.438 150.519 136.813 147.466" stroke="#2E353A" stroke-linecap="round" stroke-linejoin="round"/>
<path d="M138.289 130.977C138.289 130.977 142.881 131.892 143.455 135.859" stroke="#2E353A" stroke-linecap="round" stroke-linejoin="round"/>
<path d="M139.764 118.604C140.78 119.404 141.62 120.417 142.231 121.577C142.841 122.737 143.207 124.017 143.305 125.334" stroke="#2E353A" stroke-linecap="round" stroke-linejoin="round"/>
<path d="M288.556 150.686L288.194 87.2645C288.193 85.416 287.482 83.6438 286.219 82.3373C284.955 81.0308 283.242 80.2969 281.456 80.2969H147.341C145.555 80.2969 143.842 81.031 142.58 82.3376C141.317 83.6443 140.608 85.4166 140.608 87.2645L140.24 150.686C140.239 151.61 140.415 152.526 140.756 153.38C141.098 154.235 141.599 155.011 142.231 155.665C142.863 156.319 143.613 156.837 144.438 157.191C145.264 157.544 146.149 157.726 147.042 157.725H281.754C282.648 157.726 283.533 157.544 284.358 157.191C285.184 156.837 285.934 156.319 286.566 155.665C287.197 155.011 287.698 154.235 288.04 153.38C288.381 152.526 288.557 151.61 288.556 150.686Z" fill="#2E353A" stroke="#363636" stroke-width="0.868674" stroke-linecap="round" stroke-linejoin="round"/>
<path d="M281.019 154.28L280.727 83.7065H148.07L147.783 154.28H281.019Z" fill="white" stroke="#363636" stroke-width="0.651505" stroke-linecap="round" stroke-linejoin="round"/>
<path d="M280.727 83.7065H148.07L148.058 87.229H160.801L164.061 92.0522H280.761L280.727 83.7065Z" fill="#5B8FEB" stroke="#2E353A" stroke-linecap="round" stroke-linejoin="round"/>
<g style="mix-blend-mode:multiply" opacity="0.5">
<path d="M280.727 97.7485L187.48 154.28H281.019L280.727 97.7485Z" fill="#5B8FEB"/>
</g>
<path d="M285.464 118.974C285.471 118.387 285.017 117.905 284.45 117.897C283.883 117.89 283.417 118.359 283.409 118.947C283.402 119.534 283.856 120.016 284.423 120.023C284.991 120.031 285.457 119.561 285.464 118.974Z" fill="white"/>
<path d="M158.287 109.492C161.321 109.492 163.78 106.947 163.78 103.807C163.78 100.668 161.321 98.1228 158.287 98.1228C155.253 98.1228 152.794 100.668 152.794 103.807C152.794 106.947 155.253 109.492 158.287 109.492Z" fill="#5B8FEB" stroke="#2E353A" stroke-linecap="round" stroke-linejoin="round"/>
<path d="M158.287 132.866C161.321 132.866 163.78 130.321 163.78 127.181C163.78 124.042 161.321 121.497 158.287 121.497C155.253 121.497 152.794 124.042 152.794 127.181C152.794 130.321 155.253 132.866 158.287 132.866Z" fill="white" stroke="#2E353A" stroke-linecap="round" stroke-linejoin="round"/>
<path d="M195.826 109.492C198.86 109.492 201.32 106.947 201.32 103.807C201.32 100.668 198.86 98.1228 195.826 98.1228C192.793 98.1228 190.333 100.668 190.333 103.807C190.333 106.947 192.793 109.492 195.826 109.492Z" fill="white" stroke="#2E353A" stroke-linecap="round" stroke-linejoin="round"/>
<path d="M195.826 132.866C198.86 132.866 201.32 130.321 201.32 127.181C201.32 124.042 198.86 121.497 195.826 121.497C192.793 121.497 190.333 124.042 190.333 127.181C190.333 130.321 192.793 132.866 195.826 132.866Z" fill="#5B8FEB" stroke="#2E353A" stroke-linecap="round" stroke-linejoin="round"/>
<path d="M233.372 109.492C236.406 109.492 238.865 106.947 238.865 103.807C238.865 100.668 236.406 98.1228 233.372 98.1228C230.338 98.1228 227.879 100.668 227.879 103.807C227.879 106.947 230.338 109.492 233.372 109.492Z" fill="#5B8FEB" stroke="#2E353A" stroke-linecap="round" stroke-linejoin="round"/>
<path d="M233.372 132.866C236.406 132.866 238.865 130.321 238.865 127.181C238.865 124.042 236.406 121.497 233.372 121.497C230.338 121.497 227.879 124.042 227.879 127.181C227.879 130.321 230.338 132.866 233.372 132.866Z" fill="#5B8FEB" stroke="#2E353A" stroke-width="2" stroke-linecap="round" stroke-linejoin="round"/>
<path d="M270.911 109.492C273.945 109.492 276.405 106.947 276.405 103.807C276.405 100.668 273.945 98.1228 270.911 98.1228C267.878 98.1228 265.418 100.668 265.418 103.807C265.418 106.947 267.878 109.492 270.911 109.492Z" fill="#5B8FEB" stroke="#2E353A" stroke-linecap="round" stroke-linejoin="round"/>
<path d="M270.911 132.866C273.945 132.866 276.405 130.321 276.405 127.181C276.405 124.042 273.945 121.497 270.911 121.497C267.878 121.497 265.418 124.042 265.418 127.181C265.418 130.321 267.878 132.866 270.911 132.866Z" fill="white" stroke="#2E353A" stroke-linecap="round" stroke-linejoin="round"/>
<path d="M167.832 111.506H185.827" stroke="#2E353A" stroke-linecap="round" stroke-linejoin="round"/>
<path d="M167.832 115.8H185.827" stroke="#2E353A" stroke-linecap="round" stroke-linejoin="round"/>
<path d="M167.832 120.101H185.827" stroke="#2E353A" stroke-linecap="round" stroke-linejoin="round"/>
<path d="M204.861 111.506H222.856" stroke="#2E353A" stroke-linecap="round" stroke-linejoin="round"/>
<path d="M204.861 115.8H222.856" stroke="#2E353A" stroke-linecap="round" stroke-linejoin="round"/>
<path d="M204.861 120.101H222.856" stroke="#2E353A" stroke-linecap="round" stroke-linejoin="round"/>
<path d="M244.312 111.506H262.307" stroke="#2E353A" stroke-linecap="round" stroke-linejoin="round"/>
<path d="M244.312 115.8H262.307" stroke="#2E353A" stroke-linecap="round" stroke-linejoin="round"/>
<path d="M244.312 120.101H262.307" stroke="#2E353A" stroke-linecap="round" stroke-linejoin="round"/>
<path d="M167.832 135.824H185.827" stroke="#2E353A" stroke-linecap="round" stroke-linejoin="round"/>
<path d="M167.832 140.125H185.827" stroke="#2E353A" stroke-linecap="round" stroke-linejoin="round"/>
<path d="M167.832 144.419H185.827" stroke="#2E353A" stroke-linecap="round" stroke-linejoin="round"/>
<path d="M204.861 135.824H222.856" stroke="#2E353A" stroke-linecap="round" stroke-linejoin="round"/>
<path d="M204.861 140.125H222.856" stroke="#2E353A" stroke-linecap="round" stroke-linejoin="round"/>
<path d="M204.861 144.419H222.856" stroke="#2E353A" stroke-linecap="round" stroke-linejoin="round"/>
<path d="M244.312 135.824H262.307" stroke="#2E353A" stroke-linecap="round" stroke-linejoin="round"/>
<path d="M244.312 140.125H262.307" stroke="#2E353A" stroke-linecap="round" stroke-linejoin="round"/>
<path d="M244.312 144.419H262.307" stroke="#2E353A" stroke-linecap="round" stroke-linejoin="round"/>
<path d="M222.535 127.472H225.944" stroke="#2E353A" stroke-linecap="round" stroke-linejoin="round"/>
<path d="M233.733 120.421V116.014" stroke="#2E353A" stroke-linecap="round" stroke-linejoin="round"/>
<path d="M226.185 120.927L228.378 122.691" stroke="#2E353A" stroke-linecap="round" stroke-linejoin="round"/>
<path d="M228.866 132.005L226.185 133.519" stroke="#2E353A" stroke-linecap="round" stroke-linejoin="round"/>
<path d="M245.173 127.472H241.764" stroke="#2E353A" stroke-linecap="round" stroke-linejoin="round"/>
<path d="M241.517 120.927L239.33 122.691" stroke="#2E353A" stroke-linecap="round" stroke-linejoin="round"/>
<path d="M231.081 139.15L233.951 149.759" stroke="#2E353A" stroke-linecap="round" stroke-linejoin="round"/>
<path d="M228.206 137.873L229.847 143.392" stroke="#2E353A" stroke-linecap="round" stroke-linejoin="round"/>
<path d="M298.94 238.907C298.94 238.907 285.307 212.89 283.367 208.328C281.427 203.766 279.963 196.578 279.487 194.606C278.798 192.292 278.734 189.827 279.303 187.478C280.021 184.152 279.596 174.66 279.917 172.48C280.239 170.3 278.936 163.481 278.195 159.661C277.455 155.842 275.779 153.127 273.517 152.83C272.86 152.749 272.193 152.837 271.576 153.087C270.959 153.336 270.411 153.74 269.981 154.262C269.981 154.262 269.04 146.13 268.127 144.443C267.215 142.756 264.241 143 262.651 143.403C261.061 143.807 260.298 149.07 260.298 149.07C260.298 149.07 258.92 144.015 258.88 141.758C258.84 139.501 256.188 137.558 254.122 138.093C252.055 138.628 250.942 139.608 250.379 144.289C249.817 148.969 250.879 156.21 250.879 156.21L249.805 156.662C249.805 156.662 245.937 142.643 244.708 138.943C243.48 135.242 242.297 131.007 241.471 128.251C240.644 125.494 239.416 121.122 236.035 121.794C232.654 122.465 233.487 130.11 233.487 130.11C233.487 130.11 238.773 153.537 239.049 155.384C239.324 157.232 240.197 163.647 240.024 165.785C239.852 167.924 239.858 173.507 239.858 173.507L234.824 167.294C234.204 165.613 233.421 164.001 232.488 162.483C230.766 159.608 226.937 156.929 224.452 157.731C221.966 158.533 223.929 161.182 224.957 162.661C225.984 164.14 226.817 168.292 226.817 170.383C226.817 172.474 228.539 173.947 230.617 177.784C232.694 181.621 243.124 194.879 244.703 197.267C245.871 198.872 247.342 200.215 249.025 201.217C249.025 201.217 255.052 206.653 257.864 213.436C260.677 220.22 269.304 239.697 269.304 239.697" fill="white"/>
<g style="mix-blend-mode:multiply" opacity="0.7">
<path d="M278.299 232.717C281.117 230.044 281.817 208.452 281.461 200.415C281.461 200.35 281.461 200.273 281.461 200.202C280.457 197.517 279.676 195.337 279.498 194.606C278.809 192.292 278.746 189.827 279.315 187.478C280.032 184.152 279.607 174.66 279.929 172.48C280.118 171.191 279.734 168.256 279.24 165.286C277.197 165.102 273.454 167.009 273.454 167.009C273.454 167.009 270.504 162.566 268.581 162.411C266.658 162.257 263.323 165.381 263.323 165.381C263.323 165.381 261.412 158.717 257.485 159.4C253.559 160.083 252.457 159.4 250.907 159.471C249.358 159.542 248.101 155.64 246.551 151.808C245.001 147.977 242.78 133.65 241.465 130.68C241.465 130.68 239.404 124.704 236.735 126.694C234.066 128.684 236.575 135.188 237.826 139.091C239.077 142.993 239.749 150.407 240.765 153.941C241.913 157.879 241.339 163.73 242.389 168.019C243.44 172.307 246.138 173.697 244.651 179.305C243.164 184.912 239.915 183.124 236.293 179.827C232.671 176.531 230.881 168.981 228.831 169.729C228.121 169.915 227.435 170.189 226.788 170.543C226.834 172.598 228.51 174.107 230.588 177.861C232.666 181.615 243.124 194.879 244.703 197.267C245.871 198.872 247.342 200.215 249.025 201.217C249.025 201.217 255.052 206.652 257.864 213.436C258.369 214.654 259.173 216.453 260.16 218.592C261.308 219.542 258.875 215.028 259.472 215.776C263.449 220.605 275.486 235.396 278.299 232.717Z" fill="#5B8FEB"/>
</g>
<path d="M298.94 238.907C298.94 238.907 285.307 212.89 283.367 208.328C281.427 203.766 279.963 196.578 279.487 194.606C278.798 192.292 278.734 189.827 279.303 187.478C280.021 184.152 279.596 174.66 279.917 172.48C280.239 170.3 278.936 163.481 278.195 159.661C277.455 155.842 275.779 153.127 273.517 152.83C272.86 152.749 272.193 152.837 271.576 153.087C270.959 153.336 270.411 153.74 269.981 154.262C269.981 154.262 269.04 146.13 268.127 144.443C267.215 142.756 264.241 143 262.651 143.403C261.061 143.807 260.298 149.07 260.298 149.07C260.298 149.07 258.92 144.015 258.88 141.758C258.84 139.501 256.188 137.558 254.122 138.093C252.055 138.628 250.942 139.608 250.379 144.289C249.817 148.969 250.879 156.21 250.879 156.21L249.805 156.662C249.805 156.662 245.937 142.643 244.708 138.943C243.48 135.242 242.297 131.007 241.471 128.251C240.644 125.494 239.416 121.122 236.035 121.794C232.654 122.465 233.487 130.11 233.487 130.11C233.487 130.11 238.773 153.537 239.049 155.384C239.324 157.232 240.197 163.647 240.024 165.785C239.852 167.924 239.858 173.507 239.858 173.507L234.824 167.294C234.204 165.613 233.421 164.001 232.488 162.483C230.766 159.608 226.937 156.929 224.452 157.731C221.966 158.533 223.929 161.182 224.957 162.661C225.984 164.14 226.817 168.292 226.817 170.383C226.817 172.474 228.539 173.947 230.617 177.784C232.694 181.621 243.124 194.879 244.703 197.267C245.871 198.872 247.342 200.215 249.025 201.217C249.025 201.217 255.052 206.653 257.864 213.436C260.677 220.22 269.304 239.697 269.304 239.697" stroke="#2E353A" stroke-linecap="round" stroke-linejoin="round"/>
<path d="M234.244 123.493C234.244 123.493 234.87 127.508 234.99 128.013C235.26 129.148 239.795 128.607 240.156 127.734C240.478 126.956 240.243 125.269 240.243 125.269" stroke="#2E353A" stroke-linecap="round" stroke-linejoin="round"/>
<path d="M226.478 162.845C226.855 162.448 227.089 161.93 227.14 161.376C227.191 160.822 227.057 160.267 226.759 159.804C225.692 158.158 225.095 157.79 225.095 157.79" stroke="#2E353A" stroke-linecap="round" stroke-linejoin="round"/>
<path d="M239.491 146.759C239.491 146.759 241.517 147.46 243.422 144.876" stroke="#2E353A" stroke-width="0.75" stroke-linecap="round" stroke-linejoin="round"/>
<path d="M239.732 144.936C239.732 144.936 242.435 142.839 244.502 143.012" stroke="#2E353A" stroke-width="0.75" stroke-linecap="round" stroke-linejoin="round"/>
<path d="M236.931 133.977C236.931 133.977 238.957 131.886 240.581 132.337" stroke="#2E353A" stroke-width="0.75" stroke-linecap="round" stroke-linejoin="round"/>
<path d="M238.836 133.484C239.669 133.628 240.522 133.588 241.339 133.365" stroke="#2E353A" stroke-width="0.75" stroke-linecap="round" stroke-linejoin="round"/>
<path d="M260.292 149.088L261.36 155.628" stroke="#2E353A" stroke-linecap="round" stroke-linejoin="round"/>
<path d="M269.976 154.28L271.118 161.146" stroke="#2E353A" stroke-linecap="round" stroke-linejoin="round"/>
<path d="M239.852 173.549C239.852 173.549 239.565 178.687 240.042 180.677" stroke="#2E353A" stroke-linecap="round" stroke-linejoin="round"/>
<path d="M261.366 159.109C261.366 159.109 262.542 162.334 262.255 164.455" stroke="#2E353A" stroke-width="0.75" stroke-linecap="round" stroke-linejoin="round"/>
<path d="M270.992 162.441C270.992 162.441 271.79 164.104 271.313 167.134" stroke="#2E353A" stroke-width="0.75" stroke-linecap="round" stroke-linejoin="round"/>
<path d="M134.598 153.115C134.598 153.115 139.471 152.201 142.123 148.844C144.775 145.488 151.123 141.206 153.19 140.445C155.256 139.685 158.505 139.525 159.687 140.594C160.87 141.663 161.455 144.259 159.687 147.318C157.919 150.377 150.71 153.252 149.206 154.642C147.702 156.032 146.405 156.935 144.614 161.057C142.871 165.051 140.362 168.636 137.238 171.595C134.431 174.19 129.271 178.622 126.613 180.297" fill="white"/>
<g style="mix-blend-mode:multiply" opacity="0.7">
<path d="M149.154 149.278C148.54 146.433 144.562 148.013 144.562 148.013C141.854 151.055 138.519 153.428 134.804 154.957C128.587 157.39 122.579 160.36 116.844 163.837C117.498 162.477 118.21 161.105 118.979 159.679C122.946 152.42 129.96 142.637 133.903 141.372C136.337 140.6 138.765 142.198 140.28 143.552L140.453 114.149H140.355C137.99 114.606 136.222 115.83 135.929 117.357C135.637 118.883 131.205 128.5 129.73 130.335C128.255 132.171 123.531 138.889 123.089 141.33C122.822 143.066 122.221 144.728 121.321 146.219C120.747 147.134 116.006 154.612 112.614 161.336C109.221 168.06 107.763 176.109 107.821 176.566C107.861 176.899 101.294 201.514 97.1214 217.006C100.565 209.997 105.921 198.657 109.175 190.276C110.455 190.145 112.935 186.558 114.99 183.635C117.429 180.166 121.086 179.216 128.41 173.537C135.734 167.858 143.96 159.964 145.182 156.81C146.405 153.656 149.763 152.117 149.154 149.278Z" fill="#5B8FEB"/>
</g>
<path d="M134.598 153.115C134.598 153.115 139.471 152.201 142.123 148.844C144.775 145.488 151.123 141.206 153.19 140.445C155.256 139.685 158.505 139.525 159.687 140.594C160.87 141.663 161.455 144.259 159.687 147.318C157.919 150.377 150.71 153.252 149.206 154.642C147.702 156.032 146.405 156.935 144.614 161.057C142.871 165.051 140.362 168.636 137.238 171.595C134.431 174.19 129.271 178.622 126.613 180.297" stroke="#2E353A" stroke-linecap="round" stroke-linejoin="round"/>
<path d="M159.831 146.124C158.947 147.496 156.731 147.651 156.731 147.651C156.731 147.651 155.847 145.667 155.256 144.443C154.796 143.62 154.135 142.936 153.339 142.459C153.339 142.459 154.079 140.475 155.555 140.475" stroke="#2E353A" stroke-linecap="round" stroke-linejoin="round"/>
<path d="M102.064 184.092C107.509 182.872 113.087 182.402 118.652 182.696C128.071 183.166 130.31 188.731 130.31 188.731L129.862 201.259C129.862 201.259 124.932 197.546 114.617 196.156C104.302 194.767 98.9237 195.693 98.9237 195.693L102.064 184.092Z" fill="white" stroke="#2E353A" stroke-linecap="round" stroke-linejoin="round"/>
<path d="M130.402 242.548L132.83 202.34C117.137 192.593 98.9237 195.693 98.9237 195.693L83.4257 242.548H130.402Z" fill="#2E353A" stroke="#2E353A" stroke-linecap="round" stroke-linejoin="round"/>
<path d="M252.882 211.66C252.882 211.66 254.415 205.328 262.829 200.178C271.244 195.028 283.878 197.012 283.878 197.012L285.789 202.156C285.789 202.156 275.457 201.764 267.806 206.118C260.155 210.472 256.326 215.622 256.326 215.622L252.882 211.66Z" fill="white" stroke="#2E353A" stroke-linecap="round" stroke-linejoin="round"/>
<path d="M309.852 242.548L287.144 200.54C287.144 200.54 278.534 198.2 268.202 202.554C257.87 206.908 253.657 215.224 253.657 215.224L258.002 242.548H309.852Z" fill="#2E353A" stroke="#2E353A" stroke-linecap="round" stroke-linejoin="round"/>
<path d="M258.588 216.495C258.875 217.772 258.53 218.948 257.807 219.121C257.084 219.293 256.269 218.402 255.982 217.125C255.695 215.848 256.039 214.672 256.756 214.499C257.474 214.327 258.295 215.218 258.588 216.495Z" fill="white"/>
</svg>
