<svg width="260" height="150" viewBox="0 0 260 150" fill="none" xmlns="http://www.w3.org/2000/svg">
<path d="M5 20L9.33013 27.5H0.669873L5 20Z" fill="#21427C"/>
<path d="M5 50L9.33013 57.5H0.669873L5 50Z" fill="#21427C"/>
<path d="M5 80L9.33013 87.5H0.669873L5 80Z" fill="#21427C"/>
<path d="M5 110L9.33013 117.5H0.669873L5 110Z" fill="#21427C"/>
<path d="M5 140L9.33013 147.5H0.669873L5 140Z" fill="#21427C"/>
<path d="M5 20L9.33013 27.5H0.669873L5 20Z" fill="#21427C"/>
<path d="M5 50L9.33013 57.5H0.669873L5 50Z" fill="#21427C"/>
<path d="M5 80L9.33013 87.5H0.669873L5 80Z" fill="#21427C"/>
<path d="M5 110L9.33013 117.5H0.669873L5 110Z" fill="#21427C"/>
<path d="M5 140L9.33013 147.5H0.669873L5 140Z" fill="#21427C"/>
<path d="M35 20L39.3301 27.5H30.6699L35 20Z" fill="#21427C"/>
<path d="M35 50L39.3301 57.5H30.6699L35 50Z" fill="#21427C"/>
<path d="M35 80L39.3301 87.5H30.6699L35 80Z" fill="#21427C"/>
<path d="M35 110L39.3301 117.5H30.6699L35 110Z" fill="#21427C"/>
<path d="M35 140L39.3301 147.5H30.6699L35 140Z" fill="#21427C"/>
<path d="M65 20L69.3301 27.5H60.6699L65 20Z" fill="#21427C"/>
<path d="M65 50L69.3301 57.5H60.6699L65 50Z" fill="#21427C"/>
<path d="M65 80L69.3301 87.5H60.6699L65 80Z" fill="#21427C"/>
<path d="M65 110L69.3301 117.5H60.6699L65 110Z" fill="#21427C"/>
<path d="M65 140L69.3301 147.5H60.6699L65 140Z" fill="#21427C"/>
<path d="M95 20L99.3301 27.5H90.6699L95 20Z" fill="#21427C"/>
<path d="M95 50L99.3301 57.5H90.6699L95 50Z" fill="#21427C"/>
<path d="M95 80L99.3301 87.5H90.6699L95 80Z" fill="#21427C"/>
<path d="M95 110L99.3301 117.5H90.6699L95 110Z" fill="#21427C"/>
<path d="M95 140L99.3301 147.5H90.6699L95 140Z" fill="#21427C"/>
<path d="M125 20L129.33 27.5H120.67L125 20Z" fill="#21427C"/>
<path d="M125 50L129.33 57.5H120.67L125 50Z" fill="#21427C"/>
<path d="M125 80L129.33 87.5H120.67L125 80Z" fill="#21427C"/>
<path d="M125 110L129.33 117.5H120.67L125 110Z" fill="#21427C"/>
<path d="M125 140L129.33 147.5H120.67L125 140Z" fill="#21427C"/>
<path d="M155 20L159.33 27.5H150.67L155 20Z" fill="#21427C"/>
<path d="M155 50L159.33 57.5H150.67L155 50Z" fill="#21427C"/>
<path d="M155 80L159.33 87.5H150.67L155 80Z" fill="#21427C"/>
<path d="M155 110L159.33 117.5H150.67L155 110Z" fill="#21427C"/>
<path d="M155 140L159.33 147.5H150.67L155 140Z" fill="#21427C"/>
<path d="M185 20L189.33 27.5H180.67L185 20Z" fill="#21427C"/>
<path d="M185 50L189.33 57.5H180.67L185 50Z" fill="#21427C"/>
<path d="M185 80L189.33 87.5H180.67L185 80Z" fill="#21427C"/>
<path d="M185 110L189.33 117.5H180.67L185 110Z" fill="#21427C"/>
<path d="M185 140L189.33 147.5H180.67L185 140Z" fill="#21427C"/>
<path d="M215 20L219.33 27.5H210.67L215 20Z" fill="#21427C"/>
<path d="M215 50L219.33 57.5H210.67L215 50Z" fill="#21427C"/>
<path d="M215 80L219.33 87.5H210.67L215 80Z" fill="#21427C"/>
<path d="M215 110L219.33 117.5H210.67L215 110Z" fill="#21427C"/>
<path d="M215 140L219.33 147.5H210.67L215 140Z" fill="#21427C"/>
<path d="M245 20L249.33 27.5H240.67L245 20Z" fill="#21427C"/>
<path d="M245 50L249.33 57.5H240.67L245 50Z" fill="#21427C"/>
<path d="M245 80L249.33 87.5H240.67L245 80Z" fill="#21427C"/>
<path d="M245 110L249.33 117.5H240.67L245 110Z" fill="#21427C"/>
<path d="M245 140L249.33 147.5H240.67L245 140Z" fill="#21427C"/>
</svg>
