<svg width="520" height="320" viewBox="0 0 520 320" fill="none" xmlns="http://www.w3.org/2000/svg">
<path d="M425 10L429.33 17.5H420.67L425 10Z" fill="#21427C"/>
<path d="M425 40L429.33 47.5H420.67L425 40Z" fill="#21427C"/>
<path d="M425 70L429.33 77.5H420.67L425 70Z" fill="#21427C"/>
<path d="M425 100L429.33 107.5H420.67L425 100Z" fill="#21427C"/>
<path d="M425 130L429.33 137.5H420.67L425 130Z" fill="#21427C"/>
<path d="M425 160L429.33 167.5H420.67L425 160Z" fill="#21427C"/>
<path d="M425 190L429.33 197.5H420.67L425 190Z" fill="#21427C"/>
<path d="M425 220L429.33 227.5H420.67L425 220Z" fill="#21427C"/>
<path d="M425 250L429.33 257.5H420.67L425 250Z" fill="#21427C"/>
<path d="M425 280L429.33 287.5H420.67L425 280Z" fill="#21427C"/>
<path d="M425 310L429.33 317.5H420.67L425 310Z" fill="#21427C"/>
<path d="M455 10L459.33 17.5H450.67L455 10Z" fill="#21427C"/>
<path d="M455 40L459.33 47.5H450.67L455 40Z" fill="#21427C"/>
<path d="M455 70L459.33 77.5H450.67L455 70Z" fill="#21427C"/>
<path d="M455 100L459.33 107.5H450.67L455 100Z" fill="#21427C"/>
<path d="M455 130L459.33 137.5H450.67L455 130Z" fill="#21427C"/>
<path d="M455 160L459.33 167.5H450.67L455 160Z" fill="#21427C"/>
<path d="M455 190L459.33 197.5H450.67L455 190Z" fill="#21427C"/>
<path d="M455 220L459.33 227.5H450.67L455 220Z" fill="#21427C"/>
<path d="M455 250L459.33 257.5H450.67L455 250Z" fill="#21427C"/>
<path d="M455 280L459.33 287.5H450.67L455 280Z" fill="#21427C"/>
<path d="M455 310L459.33 317.5H450.67L455 310Z" fill="#21427C"/>
<path d="M485 10L489.33 17.5H480.67L485 10Z" fill="#21427C"/>
<path d="M485 40L489.33 47.5H480.67L485 40Z" fill="#21427C"/>
<path d="M485 70L489.33 77.5H480.67L485 70Z" fill="#21427C"/>
<path d="M485 100L489.33 107.5H480.67L485 100Z" fill="#21427C"/>
<path d="M485 130L489.33 137.5H480.67L485 130Z" fill="#21427C"/>
<path d="M485 160L489.33 167.5H480.67L485 160Z" fill="#21427C"/>
<path d="M485 190L489.33 197.5H480.67L485 190Z" fill="#21427C"/>
<path d="M485 220L489.33 227.5H480.67L485 220Z" fill="#21427C"/>
<path d="M485 250L489.33 257.5H480.67L485 250Z" fill="#21427C"/>
<path d="M485 280L489.33 287.5H480.67L485 280Z" fill="#21427C"/>
<path d="M485 310L489.33 317.5H480.67L485 310Z" fill="#21427C"/>
<path d="M515 10L519.33 17.5H510.67L515 10Z" fill="#21427C"/>
<path d="M515 40L519.33 47.5H510.67L515 40Z" fill="#21427C"/>
<path d="M515 70L519.33 77.5H510.67L515 70Z" fill="#21427C"/>
<path d="M515 100L519.33 107.5H510.67L515 100Z" fill="#21427C"/>
<path d="M515 130L519.33 137.5H510.67L515 130Z" fill="#21427C"/>
<path d="M515 160L519.33 167.5H510.67L515 160Z" fill="#21427C"/>
<path d="M515 190L519.33 197.5H510.67L515 190Z" fill="#21427C"/>
<path d="M515 220L519.33 227.5H510.67L515 220Z" fill="#21427C"/>
<path d="M515 250L519.33 257.5H510.67L515 250Z" fill="#21427C"/>
<path d="M515 280L519.33 287.5H510.67L515 280Z" fill="#21427C"/>
<path d="M515 310L519.33 317.5H510.67L515 310Z" fill="#21427C"/>
</svg>
