<svg width="520" height="139" viewBox="0 0 520 139" fill="none" xmlns="http://www.w3.org/2000/svg">
<path d="M365 0L369.33 7.5H360.67L365 0Z" fill="white"/>
<path d="M365 0L369.33 7.5H360.67L365 0Z" fill="white"/>
<path d="M365 30L369.33 37.5H360.67L365 30Z" fill="white"/>
<path d="M365 60L369.33 67.5H360.67L365 60Z" fill="white"/>
<path d="M365 90L369.33 97.5H360.67L365 90Z" fill="white"/>
<path d="M365 120L369.33 127.5H360.67L365 120Z" fill="white"/>
<path d="M395 0L399.33 7.5H390.67L395 0Z" fill="white"/>
<path d="M395 0L399.33 7.5H390.67L395 0Z" fill="white"/>
<path d="M395 30L399.33 37.5H390.67L395 30Z" fill="white"/>
<path d="M395 60L399.33 67.5H390.67L395 60Z" fill="white"/>
<path d="M395 90L399.33 97.5H390.67L395 90Z" fill="white"/>
<path d="M395 120L399.33 127.5H390.67L395 120Z" fill="white"/>
<path d="M425 0L429.33 7.5H420.67L425 0Z" fill="white"/>
<path d="M425 0L429.33 7.5H420.67L425 0Z" fill="white"/>
<path d="M425 30L429.33 37.5H420.67L425 30Z" fill="white"/>
<path d="M425 60L429.33 67.5H420.67L425 60Z" fill="white"/>
<path d="M425 90L429.33 97.5H420.67L425 90Z" fill="white"/>
<path d="M425 120L429.33 127.5H420.67L425 120Z" fill="white"/>
<path d="M455 0L459.33 7.5H450.67L455 0Z" fill="white"/>
<path d="M455 0L459.33 7.5H450.67L455 0Z" fill="white"/>
<path d="M455 30L459.33 37.5H450.67L455 30Z" fill="white"/>
<path d="M455 60L459.33 67.5H450.67L455 60Z" fill="white"/>
<path d="M455 90L459.33 97.5H450.67L455 90Z" fill="white"/>
<path d="M455 120L459.33 127.5H450.67L455 120Z" fill="white"/>
<path d="M485 0L489.33 7.5H480.67L485 0Z" fill="white"/>
<path d="M485 0L489.33 7.5H480.67L485 0Z" fill="white"/>
<path d="M485 30L489.33 37.5H480.67L485 30Z" fill="white"/>
<path d="M485 60L489.33 67.5H480.67L485 60Z" fill="white"/>
<path d="M485 90L489.33 97.5H480.67L485 90Z" fill="white"/>
<path d="M485 120L489.33 127.5H480.67L485 120Z" fill="white"/>
<path d="M515 0L519.33 7.5H510.67L515 0Z" fill="white"/>
<path d="M515 0L519.33 7.5H510.67L515 0Z" fill="white"/>
<path d="M515 30L519.33 37.5H510.67L515 30Z" fill="white"/>
<path d="M515 60L519.33 67.5H510.67L515 60Z" fill="white"/>
<path d="M515 90L519.33 97.5H510.67L515 90Z" fill="white"/>
<path d="M515 120L519.33 127.5H510.67L515 120Z" fill="white"/>
</svg>
